<?xml version="1.0" encoding="utf-8"?>
<!-- Generator: Adobe Illustrator 20.1.0, SVG Export Plug-In . SVG Version: 6.00 Build 0)  -->
<!DOCTYPE svg PUBLIC "-//W3C//DTD SVG 1.1//EN" "http://www.w3.org/Graphics/SVG/1.1/DTD/svg11.dtd">
<svg version="1.1" id="Layer_1" xmlns="http://www.w3.org/2000/svg" xmlns:xlink="http://www.w3.org/1999/xlink" x="0px" y="0px"
	 viewBox="0 0 85.1 70.6" style="enable-background:new 0 0 85.1 70.6;" xml:space="preserve">
<style type="text/css">
	.st0{fill:#959595;}
	.st1{fill:#F2F2F2;}
</style>
<g>
	<path class="st0" d="M82.9,44.4L20.6,70.4c-1.8,0.8-4-0.1-4.7-2l-15-36.1c-0.8-1.8,0.1-4,2-4.7L65.1,1.7c1.8-0.8,4,0.1,4.7,2
		l15,36.1C85.6,41.5,84.7,43.7,82.9,44.4z"/>
	<path class="st1" d="M82.3,43L20,68.9c-1.8,0.8-4-0.1-4.7-2l-15-36.1c-0.8-1.8,0.1-4,2-4.7L64.5,0.3c1.8-0.8,4,0.1,4.7,2l15,36.1
		C85,40.1,84.1,42.3,82.3,43z"/>
	<rect x="0.1" y="19.5" transform="matrix(0.9231 -0.3845 0.3845 0.9231 -5.9473 16.1411)" class="st0" width="74.7" height="6.9"/>
	
		<rect x="15.7" y="48.2" transform="matrix(0.9231 -0.3845 0.3845 0.9231 -17.5314 12.2102)" class="st0" width="12.2" height="3.6"/>
	
		<rect x="17.8" y="51.7" transform="matrix(0.9231 -0.3845 0.3845 0.9231 -17.7422 17.2994)" class="st0" width="33.1" height="2.6"/>
	
		<rect x="20.1" y="58.8" transform="matrix(0.9231 -0.3845 0.3845 0.9231 -20.9384 15.5357)" class="st0" width="16.6" height="2.6"/>
	<rect x="30.5" y="42" transform="matrix(0.9231 -0.3845 0.3845 0.9231 -14.0083 17.4497)" class="st0" width="12.2" height="3.6"/>
	
		<rect x="45.2" y="35.9" transform="matrix(0.9231 -0.3845 0.3845 0.9231 -10.5292 22.6236)" class="st0" width="12.2" height="3.6"/>
	<rect x="59.7" y="29.8" transform="matrix(0.9231 -0.3845 0.3845 0.9231 -7.0941 27.732)" class="st0" width="12.2" height="3.6"/>
</g>
</svg>
