<?xml version="1.0" encoding="utf-8"?>
<!-- Generator: Adobe Illustrator 20.1.0, SVG Export Plug-In . SVG Version: 6.00 Build 0)  -->
<!DOCTYPE svg PUBLIC "-//W3C//DTD SVG 1.1//EN" "http://www.w3.org/Graphics/SVG/1.1/DTD/svg11.dtd">
<svg version="1.1" id="Layer_1" xmlns="http://www.w3.org/2000/svg" xmlns:xlink="http://www.w3.org/1999/xlink" x="0px" y="0px"
	 viewBox="0 0 80.8 122.9" style="enable-background:new 0 0 80.8 122.9;" xml:space="preserve">
<style type="text/css">
	.st0{fill:#808080;}
	.st1{fill:#FFFFFF;}
</style>
<g>
	<path class="st0" d="M11.9,122.9c0,0-1.8-40.7,2.7-54.6s-7,1.9-7,1.9L6.8,98.8v24.1H11.9z"/>
	<path class="st1" d="M1.1,122.9c0,0-1.3-52.4-1.1-59.6s2.8-11.5,4.2-13.8c1.3-2.3,20.6-21.8,28.2-28.1s19.8-15.2,27-19.1
		s12.9-2,15.2-0.3s6,6.7,6.1,9.7s-1.6,7.6-4.7,10.3S59.2,32.8,48.2,39.4S20.9,56.3,14.9,67.9s-5.5,27.8-5.5,37.6s0,17.4,0,17.4H1.1z
		"/>
</g>
</svg>
