<?xml version="1.0" encoding="utf-8"?>
<!-- Generator: Adobe Illustrator 20.1.0, SVG Export Plug-In . SVG Version: 6.00 Build 0)  -->
<!DOCTYPE svg PUBLIC "-//W3C//DTD SVG 1.1//EN" "http://www.w3.org/Graphics/SVG/1.1/DTD/svg11.dtd">
<svg version="1.1" id="Layer_1" xmlns="http://www.w3.org/2000/svg" xmlns:xlink="http://www.w3.org/1999/xlink" x="0px" y="0px"
	 viewBox="0 0 123.9 104.9" style="enable-background:new 0 0 123.9 104.9;" xml:space="preserve">
<style type="text/css">
	.st0{fill:#B2B3B3;}
	.st1{fill:#FFFFFF;}
	.st2{opacity:0.72;fill:#CCCBCB;}
	.st3{fill:#F2F2F2;}
	.st4{fill:#E6E6E5;}
</style>
<g>
	<path class="st0" d="M8.7,84.2c0,0,3.5-6.8,4-8.1s0.4-4.9,2-5.3c1.6-0.4,1.4-4.1,3.3-5.2c1.9-1.1,4.5-2.6,6.2-3.5
		c1.7-0.8,10.4-6.8,13-7.2c2.6-0.4,4.1-0.9,5.3-1.7s1.2-0.7,1.2-0.7s-1-4.5-1.1-5.6s-0.4-0.2-1.3-1.9s-1.6-4.4-2-5.9
		c-0.4-1.6-2.1-6.3-3-7.5c-1-1.2-1.5-11.4-1.5-11.4l16.3-2.7l12-1.3l5.8,1l1.7,7c0,0,0.3-1.4,1.6-1.1c1.3,0.4,1.1,0.8,1.1,2.5
		c0.1,1.7-0.4,2.9-0.4,4.2c-0.1,1.3-1.4,4-2.2,4.6s-1.6,1.3-1.9,1c0.1,1.5-0.7,7-0.9,7.3c0.4,1.1,0.9,4.1,1.3,4.9
		c0.4,0.7,0.7,0.7,1.4,0.7c0.8,0,1.8,0.1,2.6,0.6c0.8,0.5,0.9,1.5,2,1.9c1,0.4,1.4,0.5,2.2,0.4s1-0.5,2.5-0.6
		c1.5-0.1,6.5,0.1,8.3,0.1c1.8,0.1,7.2,1,8.4,1.3c1.3,0.3,0.1,0.7,2.3,2.4c2.2,1.6,3.5,2.8,5.8,4.2c2.3,1.4,4.9,3.4,5.8,5.1
		c0.9,1.7,3.5,4.6,4.3,6c0.8,1.4,1.3,3.6,3.6,5.8c2.3,2.2-0.6,7-0.6,7L8.7,84.2z"/>
	<path class="st1" d="M45.2,2.5c0,0,4.2-2.1,11.7-1.3C58,1.3,58.1,1.4,58.4,1c0.3-0.4,1.2-1.2,2.1-0.9c0.9,0.3,4.8,2.5,6,4.6
		s2,2.7,2.1,3.1c0.1,0.3,0.4,1.6,0.7,1.9c0.3,0.3,0.8,0.9,0.8,1.6c1.1,0.6,2.3,1.3,2.6,1.5s0.3,0.4,0.4,0.8c0.1,0.4,0.8,2.8,0.9,3.1
		c0.1,0.3,0.2,0.7-0.2,1.1c-0.4,0.3-0.9,0.5-0.8,1.2c0.1,0.7,0.2,3.2,0.2,3.2h0.3c0,0,0.5,1,0.5,1.9c0,0.9-0.1,1.7-0.2,1.8
		c-0.2,0-0.4,0-0.4,0l0,0.6h0.3c0,0,0.2,1.1,0.1,2.1c-0.3,0-0.5,0-0.5,0s-0.1,1.9-0.1,2.2s-0.3,0.7-0.5,0.6s-0.6,0-0.6,0
		s0,0.7-0.3,0.8c-0.3,0.1-0.8,0-0.8,0L70.5,31c0,0-0.6-0.1-0.9-0.4c-0.3-0.3-0.7-0.4-1.1-0.6c-0.4-0.2-0.5-1.2-0.5-1.2s0-3,0-3.8
		s-0.2-3.2-1-3.6c-1,0.1-9.5,0.7-9.5,0.7v0.4L45.2,24l-0.1-0.3c0,0-5.5,0.7-6.1,0.8s-0.9,0.7-1,1.2c-0.1,0.4,0.3,4.2,0.7,5.3
		c0.4,1.1,0.9,1.8,0.4,2.5c-0.5,0.6-1.4,1.2-1.4,1.2l-1.1,0.7c0,0-1.6-1.2-2-2.5c-0.3-1.3-0.6-6.5-0.6-7.6c0-1.1-0.1-2.2-0.6-2.6
		c-0.5-0.4-1.6-0.9-1.6-1.3c0-0.4,0.2-1.9,0.3-2.8c0.1-0.9,0.1-2.2,0.5-2.5c0.5-0.4,1.9-1.2,2.1-2s1.3-6.8,6.7-11.1
		c1.2-0.9,1.3-1,1.3-1s0.7-0.4,1,0.1S44.5,2.6,45.2,2.5z"/>
	<path class="st2" d="M33.7,24.2c0,0-0.1-0.5,0.5-0.8c0.6-0.3,11.6-5.5,38.3-4.2c1,0,1,0.7,1.1,1.1c0.1,0.4,0.5,8.7,0.4,10.4
		c-0.1,1.8-1.5,6-2,7c-0.4,1-2.3,2.4-6.3,1.5c-4-0.9-13.8-2.4-23.8,2c-1.9,0.9-3.6,2.1-4.5,0.2c-0.9-1.8-2.3-6.4-2.7-7.6
		S33.6,24.5,33.7,24.2z"/>
	<path class="st3" d="M1.6,83.7c0,0,1.5-4.9,2.7-7.6c0.5-1,2.2-5.7,4.3-7s3.3-2.8,4.5-4.1s4.8-2.7,5.7-3.5c0.9-0.8,1.3-1.7,2.3-2.1
		c1-0.4,4.3-1.8,6.3-2.1c2-0.3,5.5-1.5,6.4-1.9c0.8-0.4,5.2-0.8,6.4-1.5c1.2-0.8,1.2-1.3,2.1-1.5s1.2,0.5,1.2,1.2
		c0,0.8-0.6,1.4-0.8,2.1c-0.3,0.7-2.1,2.5-1.7,3.9s-0.5,3,0.1,4.1c0.6,1.1,0.7,3.5,1.8,4.6c1.1,1.1,4.2,3.2,4.2,4
		c0.9-0.9,3.6-1.9,4.7-3.3s4.2-3.7,4.9-3.9c0.7-0.3,6-4.1,7.5-5.4c1.5-1.2,3.9-3.9,5.3-5.4c1.4-1.5,3-3.1,2.8-4.1
		c-0.2-1-0.4-2.1,0-2.3c0.5-0.3,1.1-1.2,1.9,0c0.8,1.2,1.6,1.8,2.4,2.3s3.1,0.1,3.5,0c0.4-0.1,7-0.3,8.9,0c2,0.3,7,0.3,9.4,1.9
		c2.3,1.6,4.3,2.9,5.8,4.3c1.5,1.4,5.5,3,6.6,4.7c1,1.7,3.9,4.9,5.1,6.7s2,4.1,3.6,5.7c1.6,1.6,1.3,10,2.3,11c1,1,1.2,1.5,1.3,3.5
		c0.1,2,0.8,16.9,0.8,16.9H0c0,0,0.3-15.4,0.8-16.9C1.3,86.4,1.6,83.7,1.6,83.7z"/>
	<path class="st4" d="M70.6,31.2c0,0,0.1-0.3,0.3-0.4c0.2-0.1,0.1,0.2,0.2,0.7c0.1,0.5,0.1,0.7,0,1.1c-0.1,0.4,0.1,0.3-0.2,1.3
		c-0.3,1-0.8,4.5-0.8,5.2c0.1,0.7,0,1.6,0.2,1.7c0.2,0.1,0.3-1.2,0.3-1.8c0.1-0.6,0.2-1,0.2-1s0.8-0.4,1-0.6
		c0.2-0.2,0.2,0.4,0.2,0.4s-0.3,1-0.3,1.4s-0.5,3-0.5,3.4c0,0.3,0,1.8-0.1,2.3s-1.2,0.9-1.5-0.4c-0.3-1.3-0.7-5.4-0.5-6.9
		s0.2-2.6,0.3-3.2C69.5,33.7,69.8,32.8,70.6,31.2z"/>
	<path class="st4" d="M36.5,32.5c0,0,0.4,0.4,0.7,0.9s2,2.9,2.4,4c0.4,1.1,0.6,2.3,0.8,3c0.2,0.7,0.4,3.1,0.8,3.9
		c0.4,0.8,0.9,1.3,1.2,1.8c0.3,0.4,0,0.7-0.3,0.5c-0.3-0.2-1.3-0.8-1.6-1.5c-0.3-0.7-1-3.2-1.1-3.5c-0.1-0.3-1.8-4.4-2.2-5.1
		c-0.4-0.6-0.8-0.9-0.5-1.1c0.3-0.2,0.1-0.1,0.4-0.1c0.3-0.1,0.1-0.5-0.1-0.7C37,34.4,35.9,32.2,36.5,32.5z"/>
	<path class="st4" d="M42,46.7c0,0,2,6.6,4.1,9.4c2.1,2.7,5.3,8.3,10.2,8.3c5,0,8.5-2,10.2-5.3s3.7-6.7,3.5-9.1
		c-0.2-2.4-0.8-3.9-0.9-4.7c0-0.8,0.1-2.8,1.2-2.7s1.3,0.9,1.5,1.9c0.1,1-0.4,3.5-0.7,4.6c-0.3,1.1-0.3,0.6-0.8,2.8
		c-0.5,2.2-1.8,4.7-2.2,5.4C67.8,58,66.3,61,65,62.1c-1.3,1.1-4.8,3.2-5.4,3.4c-0.6,0.2-3.9,0.4-5.6-0.6c-1.8-0.9-5.8-4.2-6.5-5.2
		c-0.7-1-3-5-3.2-5.4c-0.2-0.4-2.9-6.9-3.1-7.6c-0.2-0.6-0.2-0.9,0-1.1s0.9,0.2,0.9,0.5C42,46.3,42,46.4,42,46.7z"/>
</g>
</svg>
