<?xml version="1.0" encoding="utf-8"?>
<!-- Generator: Adobe Illustrator 20.1.0, SVG Export Plug-In . SVG Version: 6.00 Build 0)  -->
<!DOCTYPE svg PUBLIC "-//W3C//DTD SVG 1.1//EN" "http://www.w3.org/Graphics/SVG/1.1/DTD/svg11.dtd">
<svg version="1.1" id="Layer_1" xmlns="http://www.w3.org/2000/svg" xmlns:xlink="http://www.w3.org/1999/xlink" x="0px" y="0px"
	 viewBox="0 0 67.2 79.3" style="enable-background:new 0 0 67.2 79.3;" xml:space="preserve">
<style type="text/css">
	.st0{fill:#FFFFFF;}
	.st1{fill:#959595;}
</style>
<g>
	<path class="st0" d="M57.7,20.8c-6.2,0-11.3-5.1-11.3-11.3H0v69.8h58.2V20.7C58,20.8,57.9,20.8,57.7,20.8z"/>
	<path class="st1" d="M49.6,33.4H17.7c-0.1,0-0.3-0.1-0.3-0.3v-4.1c0-0.1,0.1-0.3,0.3-0.3h31.9c0.1,0,0.3,0.1,0.3,0.3v4.1
		C49.9,33.3,49.8,33.4,49.6,33.4z"/>
	<path class="st1" d="M49.6,42.3H17.7c-0.1,0-0.3-0.1-0.3-0.3v-4.1c0-0.1,0.1-0.3,0.3-0.3h31.9c0.1,0,0.3,0.1,0.3,0.3V42
		C49.9,42.1,49.8,42.3,49.6,42.3z"/>
	<path class="st1" d="M49.6,51.1H17.7c-0.1,0-0.3-0.1-0.3-0.3v-4.1c0-0.1,0.1-0.3,0.3-0.3h31.9c0.1,0,0.3,0.1,0.3,0.3v4.1
		C49.9,51,49.8,51.1,49.6,51.1z"/>
	<path class="st1" d="M49.6,59.9H17.7c-0.1,0-0.3-0.1-0.3-0.3v-4.1c0-0.1,0.1-0.3,0.3-0.3h31.9c0.1,0,0.3,0.1,0.3,0.3v4.1
		C49.9,59.8,49.8,59.9,49.6,59.9z"/>
	<path class="st1" d="M11.4,33.4H5.9c-0.1,0-0.1-0.1-0.1-0.1v-4.4c0-0.1,0.1-0.1,0.1-0.1h5.5c0.1,0,0.1,0.1,0.1,0.1v4.4
		C11.5,33.4,11.5,33.4,11.4,33.4z"/>
	<path class="st1" d="M11.4,42.3H5.9c-0.1,0-0.1-0.1-0.1-0.1v-4.4c0-0.1,0.1-0.1,0.1-0.1h5.5c0.1,0,0.1,0.1,0.1,0.1v4.4
		C11.5,42.2,11.5,42.3,11.4,42.3z"/>
	<path class="st1" d="M11.4,51.1H5.9c-0.1,0-0.1-0.1-0.1-0.1v-4.4c0-0.1,0.1-0.1,0.1-0.1h5.5c0.1,0,0.1,0.1,0.1,0.1V51
		C11.5,51.1,11.5,51.1,11.4,51.1z"/>
	<path class="st1" d="M11.4,59.9H5.9c-0.1,0-0.1-0.1-0.1-0.1v-4.4c0-0.1,0.1-0.1,0.1-0.1h5.5c0.1,0,0.1,0.1,0.1,0.1v4.4
		C11.5,59.9,11.5,59.9,11.4,59.9z"/>
	<circle class="st1" cx="57.7" cy="9.5" r="9.5"/>
	<g>
		<polygon class="st0" points="56.4,15.6 51.6,10.9 54.2,8.2 56.4,10.4 62.1,4.7 64.7,7.3 		"/>
	</g>
</g>
</svg>
