<?xml version="1.0" encoding="utf-8"?>
<!-- Generator: Adobe Illustrator 20.1.0, SVG Export Plug-In . SVG Version: 6.00 Build 0)  -->
<!DOCTYPE svg PUBLIC "-//W3C//DTD SVG 1.1//EN" "http://www.w3.org/Graphics/SVG/1.1/DTD/svg11.dtd">
<svg version="1.1" id="Layer_1" xmlns="http://www.w3.org/2000/svg" xmlns:xlink="http://www.w3.org/1999/xlink" x="0px" y="0px"
	 viewBox="0 0 61.8 114.4" style="enable-background:new 0 0 61.8 114.4;" xml:space="preserve">
<style type="text/css">
	.st0{fill:#FFFFFF;}
	.st1{fill:#959595;}
</style>
<g>
	<path class="st0" d="M1.1,32.6C3.2,39.3,12.7,51.9,32,52.8c10.3,0.5,19.2-1.6,24.9-7.9c0.5-0.8,1.1-1.5,1.6-2.4
		C67.1,30,56.2,12,54.5,9.4c-0.1-0.2-0.3-0.4-0.5-0.5l-0.6-0.4c-0.6-0.4-1.5-0.4-2,0.1c-0.3,0.2-0.5,0.6-0.6,0.9l-4.2,18.3
		c-0.1,0.5-0.4,0.9-0.9,1.2c-3.3,1.6-17.2,7.3-27.2-6.2c-0.3-0.4-0.4-0.9-0.3-1.3c1.7-9.9,3.2-17.3,3.6-18.9c0-0.2,0-0.5,0-0.7
		l-0.1-0.5C21.5,0.6,20.8,0,20,0h-0.9c-0.4,0-0.7,0.1-1,0.3c-2,1.5-9.9,7.7-13.6,13.5c-1.8,2.9-3.5,7.3-4.2,12.3
		C0.3,28.3,0.5,30.5,1.1,32.6z"/>
	<path class="st0" d="M29.3,64c-5.5-0.3-10.2-1.5-14.2-3.3c0.9,3.6,1.2,8.3,1.3,16.4c0.4,19.7,0.1,37.3,0.1,37.4h29.2
		c0,0-0.4-25.8-0.4-38.7c0-6.2,0.3-10.3,2-14.6C42.4,63.5,36.2,64.3,29.3,64z"/>
	<path class="st1" d="M32,52.8c-19.3-1-28.8-13.6-30.9-20.3c-0.6-2.1-0.9-4.3-0.9-6.5c-0.8,6.6,0.2,14.2,5.5,20.3
		c5.5,6.4,8.1,9,9.4,14.2c4,1.8,8.7,3,14.2,3.3c6.8,0.3,13-0.5,18.1-2.9c1.6-4.2,4.4-8.9,9.4-16.2C51.2,51.3,42.3,53.4,32,52.8z"/>
</g>
</svg>
