<?xml version="1.0" encoding="UTF-8" standalone="no"?>
<svg width="30px" height="30px" viewBox="0 0 30 30" version="1.1" xmlns="http://www.w3.org/2000/svg" xmlns:xlink="http://www.w3.org/1999/xlink">
    <!-- Generator: Sketch 3.8.3 (29802) - http://www.bohemiancoding.com/sketch -->
    <title>Shape</title>
    <desc>Created with Sketch.</desc>
    <defs></defs>
    <g id="Page-1" stroke="none" stroke-width="1" fill="none" fill-rule="evenodd">
        <path d="M28.7887842,5.55474345 L25.0055593,9.35136028 L21.3160781,8.68176296 L20.6531767,4.9922817 L24.4364016,1.19566487 C23.586013,0.345276265 22.3740418,-0.0430901837 21.4767814,0.00378162906 C20.572825,0.0506534418 18.6443847,0.559547409 17.1511827,2.14649307 C15.7048525,3.67317497 14.1848666,6.5189636 15.5307572,9.67946297 C15.6914605,10.0611334 15.8722518,10.5633314 15.336574,11.0990093 C14.7942001,11.6346872 0.940231476,24.678443 0.940231476,24.678443 C-0.358787334,25.7966706 -0.265043708,27.8657263 0.933535503,29.0710015 C2.15220263,30.2695807 4.20786642,30.3432364 5.32609395,29.0509136 C5.32609395,29.0509136 18.2627143,15.2706006 18.8988317,14.6478751 C19.4679895,14.0921093 19.9768834,14.2795966 20.3183781,14.4536919 C22.7021445,15.685751 26.097003,14.6143953 27.8580439,12.8533543 C29.6190849,11.0923133 29.9404916,9.39153612 29.9940594,8.5210596 C30.0476272,7.65727905 29.7463084,6.51226763 28.7887842,5.55474345 L28.7887842,5.55474345 Z M3.97350736,27.5376236 C3.55166104,27.952774 2.86867177,27.952774 2.45352143,27.5376236 C2.03837109,27.1157773 2.03837109,26.432788 2.45352143,26.0176377 C2.87536775,25.6024874 3.55835702,25.6024874 3.97350736,26.0176377 C4.3886577,26.439484 4.3886577,27.1224733 3.97350736,27.5376236 L3.97350736,27.5376236 Z" id="Shape" fill="#FFFFFF" transform="translate(15.000000, 14.997577) scale(-1, 1) translate(-15.000000, -14.997577) "></path>
    </g>
</svg>