<?xml version="1.0" encoding="UTF-8" standalone="no"?>
<svg width="32px" height="30px" viewBox="0 0 32 30" version="1.1" xmlns="http://www.w3.org/2000/svg" xmlns:xlink="http://www.w3.org/1999/xlink">
    <!-- Generator: Sketch 3.8.3 (29802) - http://www.bohemiancoding.com/sketch -->
    <title>Group</title>
    <desc>Created with Sketch.</desc>
    <defs></defs>
    <g id="Page-1" stroke="none" stroke-width="1" fill="none" fill-rule="evenodd">
        <g id="Group" transform="translate(1.000000, 2.000000)" stroke="#FFFFFF" stroke-width="2" fill="#FFFFFF">
            <path d="M22.5,23.5714286 L16.6660714,16.4410714 L15.6932143,17.6314286 L21.4285714,24.6428571 C24.6428571,27.8571429 30,26.7857143 30,25.7142857 C30,24.6428571 28.9285714,24.6428571 25.7142857,24.6428571 C23.5714286,24.6428571 22.5,23.5714286 22.5,23.5714286 L22.5,23.5714286 Z" id="Shape"></path>
            <polygon id="Shape" points="2.14285714 1.07142857 13.3339286 14.7492857 14.3078571 13.5589286 3.21428571 0"></polygon>
            <path d="M8.57142857,24.6428571 L27.8571429,1.07142857 L26.7857143,0 L7.5,23.5714286 C7.5,23.5714286 6.42857143,24.6428571 4.28571429,24.6428571 C1.07142857,24.6428571 0,24.6428571 0,25.7142857 C0,26.7857143 5.35714286,27.8571429 8.57142857,24.6428571 L8.57142857,24.6428571 Z" id="Shape"></path>
        </g>
    </g>
</svg>