<?xml version="1.0" encoding="UTF-8" standalone="no"?>
<svg width="30px" height="27px" viewBox="0 0 30 27" version="1.1" xmlns="http://www.w3.org/2000/svg" xmlns:xlink="http://www.w3.org/1999/xlink">
    <!-- Generator: Sketch 3.8.3 (29802) - http://www.bohemiancoding.com/sketch -->
    <title>Shape</title>
    <desc>Created with Sketch.</desc>
    <defs></defs>
    <g id="Page-1" stroke="none" stroke-width="1" fill="none" fill-rule="evenodd">
        <path d="M12.0615398,15.3512837 L12.3199945,15.3512837 C12.2486055,15.2917929 12.1791995,15.2369291 12.1170646,15.1714891 C10.0685963,13.3213237 8.50596994,9.7254322 8.50596994,6.81831259 C8.50596994,2.70551172 11.8731521,-1.77635684e-15 15.0572347,-1.77635684e-15 C18.2386732,-1.77635684e-15 21.436637,2.92694989 21.436637,7.03776773 C21.436637,9.94356532 19.7080973,13.4303902 17.5690707,15.2170988 C18.0086419,16.8934188 20.4153774,17.4420566 25.3788974,18.8030751 C30.8936994,20.3167868 29.9444898,24.0633884 29.9279645,26.5791904 L0.162047516,26.5791904 C0.14486127,24.0633884 -1.22144529,20.3167868 4.29401766,18.8030751 C9.12136975,17.4777512 11.5261222,16.9218422 12.0615398,15.3512837 L12.0615398,15.3512837 Z" id="Shape" fill="#FFFFFF"></path>
    </g>
</svg>