<svg id="Layer_1" data-name="Layer 1" xmlns="http://www.w3.org/2000/svg" xmlns:xlink="http://www.w3.org/1999/xlink" viewBox="0 0 4902.63 862.61"><defs><style>.cls-1{fill:none;}.cls-2{clip-path:url(#clip-path);}.cls-3{fill:#181818;}.cls-4{fill:#262626;}</style><clipPath id="clip-path" transform="translate(450.43 93.08)"><rect id="SVGID" class="cls-1" width="180" height="180"/></clipPath></defs><title>weave_new</title><g class="cls-2"><rect class="cls-1" width="4902.63" height="862.61"/><rect class="cls-3" x="-112.96" y="-74.25" width="55.19" height="55.19" transform="translate(310.34 126.86) rotate(95.57)"/><rect class="cls-4" x="-74.1" y="95.89" width="55.19" height="55.19" transform="translate(522.31 274.83) rotate(95.57)"/><rect class="cls-4" x="-22.53" y="156.17" width="55.19" height="55.19" transform="translate(638.89 289.63) rotate(95.57)"/><rect class="cls-4" x="-79.46" y="150.81" width="55.19" height="55.19" transform="translate(571.1 340.42) rotate(95.57)"/><rect class="cls-3" x="-63.39" y="-13.97" width="55.19" height="55.19" transform="translate(424.72 143.65) rotate(95.57)"/><rect class="cls-3" x="-12.82" y="46.31" width="55.19" height="55.19" transform="translate(540.2 159.45) rotate(95.57)"/><rect class="cls-3" x="-68.75" y="40.96" width="55.19" height="55.19" transform="translate(473.52 209.24) rotate(95.57)"/><rect class="cls-3" x="36.76" y="106.6" width="55.19" height="55.19" transform="translate(654.58 176.24) rotate(95.57)"/><rect class="cls-3" x="-18.17" y="101.24" width="55.19" height="55.19" transform="translate(588.99 225.04) rotate(95.57)"/><rect class="cls-3" x="86.33" y="166.88" width="55.19" height="55.19" transform="translate(768.96 193.04) rotate(95.57)"/><rect class="cls-3" x="31.4" y="161.52" width="55.19" height="55.19" transform="translate(703.38 241.83) rotate(95.57)"/><rect class="cls-4" x="161.97" y="-47.45" width="55.19" height="55.19" transform="translate(638.63 -117.37) rotate(95.57)"/><rect class="cls-4" x="-2.81" y="-63.51" width="55.19" height="55.19" transform="translate(441.87 29.01) rotate(95.57)"/><rect class="cls-4" x="-57.74" y="-68.87" width="55.19" height="55.19" transform="translate(376.28 77.8) rotate(95.57)"/><rect class="cls-3" x="107.04" y="-52.8" width="55.19" height="55.19" transform="translate(573.04 -68.58) rotate(95.57)"/><rect class="cls-3" x="52.12" y="-58.16" width="55.19" height="55.19" transform="translate(507.46 -19.78) rotate(95.57)"/><rect class="cls-4" x="46.76" y="-3.23" width="55.19" height="55.19" transform="translate(556.25 45.8) rotate(95.57)"/><rect class="cls-4" x="-8.17" y="-8.59" width="55.19" height="55.19" transform="translate(490.66 94.6) rotate(95.57)"/><rect class="cls-4" x="96.33" y="57.05" width="55.19" height="55.19" transform="translate(670.63 62.6) rotate(95.57)"/><rect class="cls-4" x="41.41" y="51.7" width="55.19" height="55.19" transform="translate(605.04 111.39) rotate(95.57)"/><rect class="cls-4" x="145.91" y="117.33" width="55.19" height="55.19" transform="translate(785.01 79.39) rotate(95.57)"/><rect class="cls-4" x="90.98" y="111.98" width="55.19" height="55.19" transform="translate(719.42 128.18) rotate(95.57)"/><rect class="cls-3" x="156.62" y="7.48" width="55.19" height="55.19" transform="translate(687.42 -51.79) rotate(95.57)"/><rect class="cls-3" x="101.69" y="2.12" width="55.19" height="55.19" transform="translate(621.84 -2.99) rotate(95.57)"/><rect class="cls-3" x="206.19" y="67.76" width="55.19" height="55.19" transform="translate(801.8 -34.99) rotate(95.57)"/><rect class="cls-3" x="151.26" y="62.41" width="55.19" height="55.19" transform="translate(736.22 13.8) rotate(95.57)"/><rect class="cls-4" x="195.48" y="177.62" width="55.19" height="55.19" transform="translate(899.39 96.18) rotate(95.57)"/><rect class="cls-4" x="140.55" y="172.26" width="55.19" height="55.19" transform="translate(833.81 144.98) rotate(95.57)"/><rect class="cls-3" x="200.83" y="122.69" width="55.19" height="55.19" transform="translate(850.6 30.59) rotate(95.57)"/></g><g class="cls-2"><rect class="cls-1" width="4902.63" height="862.61"/><rect class="cls-3" x="-112.96" y="-74.25" width="55.19" height="55.19" transform="translate(310.34 126.86) rotate(95.57)"/><rect class="cls-4" x="-74.1" y="95.89" width="55.19" height="55.19" transform="translate(522.31 274.83) rotate(95.57)"/><rect class="cls-4" x="-22.53" y="156.17" width="55.19" height="55.19" transform="translate(638.89 289.63) rotate(95.57)"/><rect class="cls-4" x="-79.46" y="150.81" width="55.19" height="55.19" transform="translate(571.1 340.42) rotate(95.57)"/><rect class="cls-3" x="-63.39" y="-13.97" width="55.19" height="55.19" transform="translate(424.72 143.65) rotate(95.57)"/><rect class="cls-3" x="-12.82" y="46.31" width="55.19" height="55.19" transform="translate(540.2 159.45) rotate(95.57)"/><rect class="cls-3" x="-68.75" y="40.96" width="55.19" height="55.19" transform="translate(473.52 209.24) rotate(95.57)"/><rect class="cls-3" x="36.76" y="106.6" width="55.19" height="55.19" transform="translate(654.58 176.24) rotate(95.57)"/><rect class="cls-3" x="-18.17" y="101.24" width="55.19" height="55.19" transform="translate(588.99 225.04) rotate(95.57)"/><rect class="cls-3" x="86.33" y="166.88" width="55.19" height="55.19" transform="translate(768.96 193.04) rotate(95.57)"/><rect class="cls-3" x="31.4" y="161.52" width="55.19" height="55.19" transform="translate(703.38 241.83) rotate(95.57)"/><rect class="cls-4" x="161.97" y="-47.45" width="55.19" height="55.19" transform="translate(638.63 -117.37) rotate(95.57)"/><rect class="cls-4" x="-2.81" y="-63.51" width="55.19" height="55.19" transform="translate(441.87 29.01) rotate(95.57)"/><rect class="cls-4" x="-57.74" y="-68.87" width="55.19" height="55.19" transform="translate(376.28 77.8) rotate(95.57)"/><rect class="cls-3" x="107.04" y="-52.8" width="55.19" height="55.19" transform="translate(573.04 -68.58) rotate(95.57)"/><rect class="cls-3" x="52.12" y="-58.16" width="55.19" height="55.19" transform="translate(507.46 -19.78) rotate(95.57)"/><rect class="cls-4" x="46.76" y="-3.23" width="55.19" height="55.19" transform="translate(556.25 45.8) rotate(95.57)"/><rect class="cls-4" x="-8.17" y="-8.59" width="55.19" height="55.19" transform="translate(490.66 94.6) rotate(95.57)"/><rect class="cls-4" x="96.33" y="57.05" width="55.19" height="55.19" transform="translate(670.63 62.6) rotate(95.57)"/><rect class="cls-4" x="41.41" y="51.7" width="55.19" height="55.19" transform="translate(605.04 111.39) rotate(95.57)"/><rect class="cls-4" x="145.91" y="117.33" width="55.19" height="55.19" transform="translate(785.01 79.39) rotate(95.57)"/><rect class="cls-4" x="90.98" y="111.98" width="55.19" height="55.19" transform="translate(719.42 128.18) rotate(95.57)"/><rect class="cls-3" x="156.62" y="7.48" width="55.19" height="55.19" transform="translate(687.42 -51.79) rotate(95.57)"/><rect class="cls-3" x="101.69" y="2.12" width="55.19" height="55.19" transform="translate(621.84 -2.99) rotate(95.57)"/><rect class="cls-3" x="206.19" y="67.76" width="55.19" height="55.19" transform="translate(801.8 -34.99) rotate(95.57)"/><rect class="cls-3" x="151.26" y="62.41" width="55.19" height="55.19" transform="translate(736.22 13.8) rotate(95.57)"/><rect class="cls-4" x="195.48" y="177.62" width="55.19" height="55.19" transform="translate(899.39 96.18) rotate(95.57)"/><rect class="cls-4" x="140.55" y="172.26" width="55.19" height="55.19" transform="translate(833.81 144.98) rotate(95.57)"/><rect class="cls-3" x="200.83" y="122.69" width="55.19" height="55.19" transform="translate(850.6 30.59) rotate(95.57)"/></g></svg>