<?xml version="1.0" encoding="UTF-8" standalone="no"?>
<svg width="76px" height="20px" viewBox="0 0 76 20" version="1.1" xmlns="http://www.w3.org/2000/svg" xmlns:xlink="http://www.w3.org/1999/xlink">
    <!-- Generator: Sketch 3.8.3 (29802) - http://www.bohemiancoding.com/sketch -->
    <title>Page 1</title>
    <desc>Created with Sketch.</desc>
    <defs></defs>
    <g id="Page-1" stroke="none" stroke-width="1" fill="none" fill-rule="evenodd">
        <g fill="#E8124A">
            <path d="M46.5606873,11.9931737 L49.5278687,5.86058687 L49.5440849,11.9931737 L46.5606873,11.9931737 Z M46.9125792,0.0910888031 C46.0926564,0.123366795 45.4515753,0.568849421 45.0847027,1.15911969 C45.0827722,1.16174517 45.0531969,1.20776834 45.0104942,1.29278764 C44.1640849,2.97927413 35.6829266,19.9508571 35.6829266,19.9508571 L42.5906486,19.9508571 L44.0315753,17.0605869 L49.5449344,17.0401236 L49.5449344,19.9508571 L55.7575985,19.9508571 L55.757444,5.84715058 L58.6301081,5.84715058 C60.1517297,5.84715058 61.5357452,4.96653282 62.1804556,3.58830888 L63.8165174,0.0910888031 L47.0142008,0.0910888031 L46.9125792,0.0910888031 Z" id="Fill-1"></path>
            <path d="M72.7117529,19.9402085 L75.3956911,14.2124093 L66.1462703,14.2124093 L72.8162317,0.0806718147 L65.9257297,0.0806718147 L58.5103629,16.2454595 C57.716,17.9771197 58.9819459,19.9493977 60.8871969,19.9481622 L72.7117529,19.9402085 Z" id="Fill-3"></path>
            <path d="M26.3427181,1.56864865 L17.5997066,19.9648649 L31.2755367,19.952278 C32.264417,19.9513514 33.1680463,19.392278 33.6103629,18.5077992 L35.749668,14.2293436 L28.3324479,14.2242471 L29.4486641,11.9966023 L36.8548417,11.9966023 L38.8315985,8.04563707 L31.0569266,8.04563707 L32.1544556,5.81528958 L39.9376988,5.81528958 L42.7976988,0.0784555985 L28.703027,0.0772200772 C27.6943784,0.0771428571 26.7756911,0.657606178 26.3427181,1.56864865" id="Fill-6"></path>
            <path d="M24.5017297,0.0773745174 L8.52265637,0.0783783784 C7.54435521,0.0776061776 6.64759846,0.623243243 6.19871815,1.49243243 L3.96674903,5.81436293 L12.4627336,5.81467181 L3.06003089,11.9617761 C1.19115058,13.3744402 0.0757065637,15.5681081 0.0353976834,17.9104247 L3.08880309e-05,19.9627027 L13.3109961,19.952973 C14.3103012,19.9522008 15.2218069,19.3815444 15.6589498,18.4829344 L17.7496834,14.1254054 L9.44111197,14.1471815 L21.3194131,6.00486486 L24.5017297,0.0773745174 Z" id="Fill-8"></path>
        </g>
    </g>
</svg>