<svg id="Layer_1" data-name="Layer 1" xmlns="http://www.w3.org/2000/svg" viewBox="0 0 1597.27 429.24">
  <title>Zeal Hockey</title>
  <style>
    .cls-1 {
      fill: #e8124a;
    }
  </style>
  <g>
    <path class="cls-1" d="M992.52,0.3a48.21,48.21,0,0,0-39.45,23.05,31.5,31.5,0,0,0-1.6,2.89c-18.27,36.4-201.32,402.7-201.32,402.7H899.24l31.1-62.38,119-.44v62.82h134.09V124.53h62A84.6,84.6,0,0,0,1322,75.78L1357.36,0.3H992.52Zm-7.59,256.88,64-132.36,0.35,132.36H984.92Z"/>
    <path class="cls-1" d="M1539.34,428.7l57.93-123.62H1397.64l144-305H1392.88L1232.83,349c-17.14,37.37,10.18,79.94,51.3,79.91Z"/>
    <path class="cls-1" d="M558.56,32.19l-188.7,397L665,429a56.4,56.4,0,0,0,50.39-31.18l46.17-92.34-160.09-.11,24.09-48.08H785.44L828.11,172H660.3L684,123.85H852L913.71,0,609.5,0A56.4,56.4,0,0,0,558.56,32.19Z"/>
    <path class="cls-1" d="M528.82,0L183.94,0a56.4,56.4,0,0,0-50.16,30.52L85.62,123.83H269L66,256.5A164.5,164.5,0,0,0,.76,384.9L0,429.19,287.29,429A56.4,56.4,0,0,0,338,397.25l45.12-94-179.32.47L460.14,127.94Z"/>
  </g>
</svg>
