<svg class="scene-svg alpha-rx1-scene" viewBox="0 0 4634 4634" xmlns="http://www.w3.org/2000/svg" xmlns:xlink="http://www.w3.org/1999/xlink"><title>Alpha RX1 (Scene)</title><defs><path id="a" d="M0 .352v1247.443h7999.666V.352H0z"/><path id="c" d="M.141 98.412h1687.74V.97H.142v97.442z"/><path id="e" d="M0 .383V626.43h827.992V.383H0z"/><path id="g" d="M.071 49.735h852.942V.49H.071v49.245z"/><path id="i" d="M0 .234v691.762h4042.476V.234H0z"/></defs><g fill="none" fill-rule="evenodd"><g class="svg-shaft-segment" transform="rotate(-55 4907.82 1909.532)"><mask id="b" fill="#fff"><use xlink:href="#a"/></mask><path d="M7994.818 998.445c-5.128-26.642-12.767-49.78-24.198-78.111-16.02-39.727-40.301-85.21-64.936-128.499-30.552-53.672-67.095-105.342-106.799-155.952-60.182-76.709-159.324-178.208-238.398-264.36-79.071-86.153-228.965-223.073-318.647-291.507-39.226-29.936-86.72-50.667-127.418-61.436C7062.1 4.727 6968.882.592 6945.882.954c-28.522.45-286.728 1.854-286.728 1.854l-2778.98-1.025-11.642-.004-274.129-.1-34.638-.013-181.802-.067-50.1-.02-105.801-.038-45.018-.018-420.746-.155-127.086-.047L0 .352v149.493c18.068.003 36.1.007 54.103.012h4.75l38.88.011 22.968.006c10.393.003 20.772.005 31.145.009l19.899.005c11.176.002 22.336.005 33.489.009l15.66.005 40.176.011 30.566.011 26.855.007c7.018.002 14.025.006 21.034.007l32.12.011 12.026.004 42.882.014a41288051.263 41288051.263 0 0 1 109.856.041l13.11.006c10.819.004 21.63.007 32.429.013l29.842.01c5.14.004 10.281.006 15.416.008l23.084.009c14.71.007 29.403.012 44.072.02h3.559l99.94.045 12.247.005a34981175.606 34981175.606 0 0 1 58.669.027l26.453.014 12.888.006 95.546.048c6.314.002 12.613.006 18.919.01l34.595.017c2.939.002 5.875.004 8.814.004 14.492.01 28.97.016 43.428.024l3.789.001a33324833.05 33324833.05 0 0 1 143.478.081c6.029.002 12.048.006 18.073.01l81.942.048c6.528.004 13.057.007 19.578.013l28.907.016h.142c397.081.241 782.954.524 1164.715.82 29.98.023 59.944.047 89.876.068a99128912.183 99128912.183 0 0 1 318.243.25l116.363.09h-.001l13.212.011 315.275.246a202706263.02 202706263.02 0 0 0 313.937.236c3.249.001 6.494.005 9.742.007 98.857.072 197.931.144 297.348.212l4.717.004 59.994.041a50160542.716 50160542.716 0 0 0 97.745.067l64.079.042 6.245.003a50129966.668 50129966.668 0 0 0 161.743.103 644047.95 644047.95 0 0 0 74.626.045l59.286.036 15.809.009c19.295.01 38.611.023 57.95.034l25.49.015 51.545.028c11.612.006 23.24.013 34.87.018a49257691.605 49257691.605 0 0 0 133.406.07l13.603.008 48.442.023 30.768.017 42.282.018c15.743.009 31.503.016 47.28.023 13.838.005 27.69.013 41.555.018a47175986.787 47175986.787 0 0 0 84.745.036l30.29.013 38.69.016 20.61.009 20.552.007 3.364.002a3014997.295 3014997.295 0 0 0 513.306.157c56.098.01 112.49.021 169.184.03a75241717.963 75241717.963 0 0 0 41.354.007h1.29a2191515.952 2191515.952 0 0 0 240.837.026l86.864.005h91.682l1.853.002h.78l1.287.002h.938l1.267.001c.436.002.872.002 1.328.002.36.002.737.002 1.112.002l1.407.004 1.26.001c.997.004 2.033.006 3.109.008l1.256.003 1.288.004a23298.217 23298.217 0 0 0 3.622.009l1.49.005a30845.813 30845.813 0 0 0 4.21.013l1.323.005 3.67.013 3.01.01c.183 0 .36.003.545.003 1.156.003 2.331.009 3.526.014h.157a19513.055 19513.055 0 0 1 24.626.113c16.223.083 34.343.195 53.26.34h.028l5.166.04c79.514.63 171.133 1.846 194.741 4.035 26.756 2.474 49.79 7.837 68.895 13.706 31.868 9.794 40.453 12.29 69.15 24.64 26.383 11.346 69.098 36.039 95.026 54.887 25.923 18.852 80.844 73.14 96.184 86.121 15.344 12.982 141.624 141.62 168.768 169.945 27.145 28.325 155.784 211.254 178.207 243.12 22.424 31.864 106.218 161.685 106.218 161.685s116.838 215.973 136.9 247.839c20.064 31.864 34.226 56.649 53.11 69.63 18.882 12.982 44.845 24.785 102.674 14.16 57.83-10.62 92.055-49.564 114.478-82.612 22.422-33.044 33.638-76.722 35.404-112.117.72-14.374-1.196-32.276-4.697-50.501" mask="url(#b)"/></g><g class="svg-accent-segment"><path d="M2293.608 2317.051c-.692.988-1.386 1.976-2.08 2.963l.284.51 80.251 144.921.283.51 2.078-2.964-.283-.51-80.25-144.92-.283-.51zm10.854-15.476l-2.955 4.215.282.51 80.247 144.913.283.51 2.954-4.215-.282-.51-80.246-144.912-.283-.51zm10.855-15.475l-3.833 5.465.282.51 80.244 144.907.283.51 3.83-5.467-.282-.51-80.241-144.905-.283-.51zm10.854-15.476c-1.57 2.239-3.139 4.477-4.71 6.715l.283.51 80.239 144.901.283.51 4.71-6.72-.284-.508-80.238-144.898-.283-.51zm10.855-15.476c-1.862 2.656-3.725 5.31-5.587 7.967l.283.51 80.235 144.894.282.51 5.585-7.97-.282-.51-80.233-144.89-.283-.511zm10.854-15.475l-6.464 9.217.283.51 80.231 144.887.283.51 6.462-9.223-.282-.51-80.23-144.881-.282-.51zm10.855-15.476l-7.342 10.468.282.51 80.23 144.88.282.51 7.34-10.473-.284-.51-80.225-144.874-.283-.51z"/><path d="M2291.53 2320.015a4812149.196 4812149.196 0 0 0-331.45 472.621l.43.3 40.573 28.41-24.746 35.341 81.54 57.096.428.3 314.04-448.128-.281-.509-80.252-144.92-.283-.511zM2321.461 2277.34l-6.145 8.76.283.51 80.241 144.905.284.509 6.143-8.764-.283-.51-80.24-144.9-.283-.51zm-19.954 28.45l-7.898 11.26.281.512 80.252 144.919.28.51 7.897-11.268-.282-.51-80.248-144.913-.282-.51zm29.932-42.675c-1.756 2.504-3.512 5.005-5.267 7.509l.283.51 80.237 144.898.283.51 5.264-7.513-.282-.51-80.236-144.894-.282-.51zm-19.955 28.45c-2.341 3.336-4.68 6.672-7.021 10.011l.282.51 80.246 144.91.282.513 7.02-10.017-.282-.51-80.244-144.907-.283-.51zm39.909-56.9l-3.512 5.007.281.512 80.23 144.88.282.511 3.512-5.01-.282-.51-80.228-144.88-.283-.51zm-9.977 14.225l-4.389 6.258.283.51 80.232 144.89.282.51 4.389-6.26-.283-.51-80.232-144.888-.282-.51zM2359.018 2224.708l80.225 144.874.283.51 2.634-3.759-.283-.51-80.224-144.873-.283-.51-2.635 3.757.283.51zM802.471 4444.528c.218-.003.438-.015.656-.02a63.653 63.653 0 0 0 7.256-.6l194.605-27.68.71-.101 203.187-289.94-.43-.302-23.135-16.2-14.595 20.843-54.79-38.366 36.082-51.531-44.25-30.985-.43-.3a2824532.783 2824532.783 0 0 0-286.31 408.815 9838.093 9838.093 0 0 1-18.556 26.367"/><g transform="rotate(-55 2317.547 -3198.602)"><mask id="d" fill="#fff"><use xlink:href="#c"/></mask><path d="M266.47.97a228.491 228.491 0 0 0-93.43 19.974L.141 98.412H391.05l67.482-38.711A75.518 75.518 0 0 1 496.1 49.69h1191.784V.971H266.469z" mask="url(#d)"/></g></g><g class="svg-logo-segment"><path d="M2628.36 1926.66l10.689 27.04 12.35 6.551-6.235 8.905 8.402 21.25 14.822-21.169 8.494 4.493 13.673-19.526-59.46-31.451zm-15.04 21.478l29.38 74.409 13.673-19.526-29.38-74.41zm98.023-23.625l25.978-37.1-12.694-15.118-25.98 37.101zm-59.46-31.449l44.42 52.93 13.673-19.527-44.42-52.93zm99.703-112.053c-3.176-2.224-6.665-3.308-10.466-3.255-5.77.152-10.542 2.92-14.316 8.31l-15.04 21.48 12.694 15.116 12.305-17.574c.748-1.067 1.7-1.623 2.857-1.668.776.002 1.49.23 2.14.684.312.219.614.509.906.868.867 1.036 1.342 2.307 1.426 3.821.086 1.515-.247 2.806-.995 3.873l-12.305 17.574 12.696 15.117 15.04-21.48c3.774-5.39 5.449-11.84 5.024-19.354-.423-7.513-2.827-13.871-7.213-19.078-1.502-1.789-3.086-3.267-4.753-4.434m-54.863 48.014l44.421 52.93 13.673-19.528-44.421-52.928zm79.023-112.855l15.861 18.906-8.203 11.715 12.695 15.117 8.205-11.717 15.863 18.908 13.673-19.528-44.422-52.928zm-1.912 44.29l-15.863-18.905-13.672 19.526 44.42 52.929 13.673-19.528-15.863-18.905 8.204-11.715-12.696-15.117zm34.726-91.155l29.382 74.408 13.672-19.526-29.381-74.408zm15.04-21.479l10.69 27.04 12.35 6.552-6.234 8.904 8.401 21.25 14.822-21.168 8.494 4.493 13.673-19.526-59.46-31.452zm97.497-108.901c-3.176-2.224-6.666-3.308-10.467-3.255-5.769.15-10.541 2.92-14.315 8.31l-15.04 21.48 12.693 15.116 12.306-17.574c.748-1.069 1.7-1.623 2.856-1.668.777 0 1.49.23 2.14.684.312.219.614.509.906.868.869 1.034 1.342 2.307 1.427 3.821.086 1.515-.247 2.805-.994 3.872l-12.306 17.574L2913 1603.27l5.742-8.2 19.259 5.743 16.408-23.432-21.821-6.49c.492-2.643.655-5.478.486-8.506-.43-7.478-2.837-13.82-7.223-19.026-1.503-1.789-3.087-3.267-4.753-4.434m-54.864 48.014l44.42 52.93 13.674-19.528-44.42-52.93zm92.696-132.383l-15.041 21.48 3.102 23.415 18.17 1.896zm-2.068 119.32l15.04-21.48-3.102-23.415-18.141-1.936zm-44.42-52.929l75.869 8.017 15.04-21.478-75.869-8.019zm63.284-57.132l2.736-3.906 31.725 37.812 13.672-19.526-44.42-52.93-16.408 23.433zM1676.166 3349.07l-18.942-78.162 49.602 34.375-30.66 43.787zm86.456-267.667l-1.181-4.54-.174-.666-37.304 53.21c-47.734 68.094-95.892 136.795-144.55 206.214l.156.693c11.032 49.043 34.38 152.66 44.319 196.758.054.237.102.459.156.69l70.985-101.292-.156-.69-3.849-16.99 56.494-81.034 10.765 7.539.43.3 53.283-76.034 10.598-15.123-.43-.3-81.41-57.004-19.617-13.733 23.205-33.14c.407-.582.784-1.172 1.18-1.758 14.797-21.893 21.466-46.307 17.1-63.1zm-247.132 536.059l-6.485-28.956 76.112-108.699-11.533-51.314-79.9 114.109-6.699-28.697 79.987-114.234-7.771-34.297-.157-.69c-46.225 65.95-92.902 132.553-140.09 199.891-7.003 9.992-14.022 20.011-21.049 30.036l.17.672 5.842 23.206 10.45 41.517 31.862 126.58.17.672 130.865-186.742 26.624-37.992-.155-.69-11.978-53.205-76.264 108.833zm-138.387 56.818l-7.338-38.595-.137-.718a2808934.064 2808934.064 0 0 0-179.643 256.398l.148.702 7.609 36.177 87.064-124.865-46.734 172.79c-7.75 35.419-3.462 70.08-.768 91.065l2.494 13.926.131.727 179.429-256.041-.169-.673-13.117-52.723-84.968 122.235 55.999-220.405zm481.287-735.701l-.17-.67c-23.35 33.304-46.795 66.742-70.332 100.315l.18.658 42.371 154.968c2.741 10.136 10.901 15.206 20.809 14.786.222-.008.448-.031.672-.046l150.502-214.762-.173-.667-13.564-52.337-95.054 135.752-35.24-137.997zM3221.376 1077.534l-6.963 9.943c-2.062-1.293-4.055-2.547-6.465-4.06l7.183-10.256 6.245 4.373zm-13.919.221c-1.801 2.233-5.507 5.61 1.235 10.472 6.824 4.92 9.239.85 12.157-3.923.48-.785.992-1.57 1.607-2.246 3.528-3.884 2.475-6.712-1.612-9.517-6.209-4.26-6.784-4.234-13.387 5.214zm71.976 43.145l-6.292.278-.892-5.795c1.724.036 4.032-.593 5.026.278 1.272 1.115 1.487 3.438 2.158 5.24m-5.584-10.527l-9.618 13.735 7.03-2.936 2.286 8.78c1.725-1.745 4.13-4.152 6.505-6.588 3.033-3.11 4.152-6.12-.394-8.95-1.925-1.196-3.73-2.585-5.81-4.04m-8.907-6.123l-1.731-1.287-13.534 10.825c7.192-2.46 8.474 1.86 9.885 6.906l5.38-16.444m-45.491-9.287c3.718 1.582 7.584 4.696 11.112 4.349 4.177-.41 3.593-5.652-.726-9.92-1.122-1.108-1.235-3.239-1.812-4.9 1.725-.029 3.608-.506 5.134.032 1.788.629 3.264 2.139 4.875 3.267l1.08-1.675c-2.985-1.841-5.813-4.153-9.05-5.242-.993-.335-4.167 2.519-4.424 4.206-.27 1.76 1.816 3.854 2.795 5.839.888 1.8 1.67 3.654 2.498 5.484-2.12-.182-4.348-.03-6.326-.661-1.496-.478-2.67-1.957-3.988-2.992-.39.737-.778 1.476-1.167 2.213m24.314-3.513c-3.781 3.202-6.696 7.983-8.39 12.71-.426 1.189 4.968 4.463 7.685 6.779-7.695-7.313-7.529-10.15 2.335-17.786l6.995 4.898 1.314-2.145c-3.429-1.623-8.741-5.47-9.939-4.456m5.412-67.45c9.298-.97 9.361-.925 11.641 8.116a59017.3 59017.3 0 0 1 6.042-18.983l-2.285-1.366-15.398 12.233m43.705 29.39l4.81-4.7 6.324 4.427-1.959 5.693c.256.116.509.231.763.349l8.52-12.169c-4.054 3.533-7.705 4.853-11.623-.976.724-2.082 1.41-4.052 2.738-7.856l-10.32 14.74c.248.162.497.328.747.492m-6.773-20.357l8.102 2.076-.476 3.441c-2.17-.114-4.62.332-6.398-.563-.99-.499-.856-3.23-1.228-4.954m2.782 8.324c1.04.769 4.876-.453 5.812-1.847.913-1.36.478-4.672-.656-6.112-1.697-2.154-4.522-3.416-6.987-5.142l-9.431 13.468c3.814-3.578 7.168-3.386 11.262-.367m18.319 21.504c6.949-1.886 9.05 1.21 9.667 7.346 1.907-5.615 3.815-11.232 5.725-16.848l-1.983-1.33-13.41 10.832zm-42.438-28.463l7.358 5.153c.206-.273.415-.546.62-.819-1.573-1.526-3.15-3.053-5.105-4.952l7.61-12.228-1.04-.64-9.443 13.487zm67.034-110.173l-11.244 16.058 1.47 1.141 4.742-4.622c-.031 3.043-.06 5.648-.087 8.255l8.926-2.317-3.046 6.307 1.454.615 10.798-15.421-1.477-1.77-12.647 7.996c-.723-5.484 4.831-10.018 1.111-16.242m28.716 22.983l-8.32 1.043 1.878-5.513c-.244-.097-.49-.195-.736-.29l-9.12 13.024 9.189-4.94c-.29 4.88-.483 8.126-.654 11.035l7.763-14.36m8.642 24.931c-1.894-1.518-3.914-2.908-5.653-4.585-3.308-3.188-1.726-5.219 3.79-5.897l.42-5.551c1.65.178 3.416.04 4.915.612 1.852.705 3.482 1.996 5.207 3.032l.536-1.099-9.193-6.437c-12.51 11.295-12.592 13.937-.022 19.925m-19.776-33.007l-9.436 13.476 1.074.752 9.442-13.484-1.08-.744m-6.764-63.403c-3.823 4.13-7.796 9.25-8.707 14.481-.466 2.669 5.573 6.467 11.077 4.504l-8.392-5.877 7.257-10.364 8.93 6.254c-1.336-5.407-8.14-11.185-10.165-8.999m50.406 40.231c-.381 1.545-2.772 2.593-4.286 3.86l-1.97-3.746-.594-5.48c1.557.047 3.68-.516 4.536.283 1.314 1.223 2.678 3.61 2.314 5.083zm-15.02 3.104l7.232-2.204c.612 3.103 1.226 6.204 1.676 8.478 1.845-1.69 4.376-3.923 6.807-6.262 3.134-3.013 4.363-6.082-.16-8.992-2.061-1.325-4.138-2.626-6.417-4.07l-9.138 13.05zm-.664-15.702c.382-1.216.437-2.536.64-3.806-.52-.317-1.045-.632-1.568-.948l-13.15 10.76c7.28-2.563 8.312 2.185 9.218 7.398 2.02-4.748 3.495-9.058 4.86-13.404m-29.492-3.962c.248.206.495.412.745.617l4.389-4.465c6.392 1.27 8.051 4.633 5.74 10.295l8.074-11.53c-2.737.455-6.972 2.092-7.722 1.098-1.786-2.365-1.925-5.977-2.552-8.404l-8.674 12.389zm71.053 49.144c-.754-.758-1.464-1.565-2.271-2.26-.873-.75-1.986-1.263-2.735-2.111-2.879-3.258-.97-5.397 3.832-5.42.272-2.13.526-4.099.778-6.068 1.791.377 3.633.604 5.36 1.176 1.48.49 2.83 1.374 4.236 2.083l.283-.847-9.174-6.424c-12.078 12.932-12.124 13.871-.309 19.87m-4.137-22.348l-9.442 13.485 1.005.743 9.444-13.488-1.007-.74m-86.459-30.025c-3.823 4.132-7.796 9.25-8.707 14.482-.466 2.669 5.572 6.467 11.077 4.504l-8.393-5.876 7.257-10.364 8.931 6.253c-1.336-5.407-8.14-11.185-10.165-8.998m50.406 40.229c-.381 1.547-2.772 2.594-4.286 3.86l-1.971-3.745c-.198-1.827-.395-3.654-.594-5.479 1.558.047 3.68-.517 4.536.282 1.315 1.224 2.678 3.61 2.315 5.083zm-15.02 3.105l7.231-2.204 1.676 8.478c1.846-1.69 4.377-3.923 6.808-6.262 3.134-3.013 4.363-6.082-.16-8.992-2.061-1.325-4.138-2.626-6.418-4.069l-9.137 13.05zm-.664-15.701c.381-1.216.436-2.536.64-3.807-.52-.317-1.045-.631-1.569-.948l-13.15 10.76c7.282-2.562 8.313 2.185 9.22 7.398 2.018-4.748 3.494-9.058 4.859-13.403m-29.493-3.964c.25.208.496.413.746.619l4.389-4.465c6.391 1.269 8.05 4.632 5.74 10.294l8.074-11.53c-2.737.455-6.972 2.092-7.722 1.098-1.787-2.365-1.925-5.977-2.552-8.403l-8.674 12.388zm71.054 49.145c-.754-.758-1.464-1.565-2.272-2.26-.872-.75-1.985-1.263-2.735-2.11-2.878-3.259-.97-5.398 3.833-5.421.272-2.13.526-4.099.778-6.068 1.791.377 3.633.605 5.36 1.176 1.479.49 2.83 1.374 4.236 2.084l.283-.848-9.174-6.424c-12.078 12.932-12.124 13.872-.31 19.87m-4.136-22.347l-9.442 13.484 1.005.743 9.444-13.488-1.007-.74m-107.187 35.752c3.144-4.468-1.5-5.657-3.727-7.986-.932-.974-.93-2.843-1.35-4.307 1.385.136 2.963-.103 4.114.489 2.104 1.084 3.957 2.659 5.915 4.03l1.305-2.1c-3.382-2.368-6.588-5.124-10.281-6.808-.832-.38-5.114 3.512-4.806 4.533 1.117 3.714 3.508 7.044 5.802 11.217-4.978 4.838-6.776-4.009-11.222-3.904-.135 6.041 5.016 7.114 8.792 8.703 1.122.473 4.191-2.068 5.458-3.867m36.392 17.369c-1.786-.042-4.195.606-5.198-.302-1.246-1.128-1.33-3.54-1.919-5.398 1.793-.049 3.583-.097 6.215-.17.375 2.448.639 4.159.902 5.87zm-15.68 3.138c2.661-.786 5.3-1.568 7.942-2.348l1.367 8.399c2.262-2.291 5.64-4.932 7.859-8.329.947-1.446.168-4.997-1.078-6.647-1.505-1.993-4.335-2.986-6.703-4.48l-9.387 13.405zm22.864 1.87l5.671-1.293 2.199 5.932c-1.96.123-4.261.92-5.77.155-1.202-.609-1.437-3.124-2.1-4.794m7.18 8.579c4.568-3.839 4.557-6.686-.41-10.138-1.65-1.144-3.432-2.102-5.405-3.298l-9.783 13.971c2.935-1.396 5.32-2.532 7.707-3.666l2.105 8.957c1.582-1.613 3.518-3.92 5.786-5.826m-.512 10.29c-.149.825-.297 1.647-.447 2.47 7.06-5.181 8.853-.966 10.105 5.964l6.164-17.87-2.062-1.208c-4.586 3.549-9.173 7.098-13.76 10.644m-35.499-23.82l-5.787-8.238 5.115-2.56.633-5.623 11.728 3.568-10.892-7.627-9.884 14.117 9.087 6.363zm-3.817-23.079l-9.524 13.602 1.193.743 9.508-13.58-1.177-.765m-25.976 86.299l-4.016 7.077c.227.121.454.246.682.37l8.853-12.643-1.051-1.32a50325.8 50325.8 0 0 1-13.216 8.283l3.617-15.189-1.75-.67-9.28 13.254c.312.24.622.482.933.724a8476.45 8476.45 0 0 1 5.104-5.631l-1.31 11.96 11.434-6.215m1.272 11.326c6.086-1.445 8.658 1.29 9.369 8.616 2.468-7.446 4.246-12.815 6.027-18.184l-1.896-1.105-13.5 10.674m-36.176-23.216l8.491 5.945 1.23-1.327a7037.953 7037.953 0 0 0-5.437-5.742c2.827-4.483 5.508-8.733 8.187-12.984l-1.88-1.018-10.59 15.126zm24.612-4.022l-1.037-.605-8.992 12.842 1.044.595 8.986-12.832zm-3.226 35.217c-1.903 3.35-2.958 5.213-4.016 7.076.227.122.454.246.682.37l8.853-12.643-1.052-1.317c-4.13 2.588-8.26 5.177-13.214 8.28 1.398-5.87 2.506-10.53 3.616-15.187l-1.75-.672-9.28 13.255c.312.24.622.481.933.723a5491.71 5491.71 0 0 1 5.105-5.63c-.458 4.175-.8 7.293-1.31 11.959l11.433-6.215m1.272 11.328c6.086-1.446 8.658 1.29 9.369 8.615 2.468-7.446 4.246-12.815 6.027-18.184l-1.896-1.105-13.5 10.674m-36.176-23.217l8.491 5.946 1.23-1.327-5.436-5.743c2.826-4.482 5.507-8.732 8.186-12.983-.625-.34-1.253-.679-1.88-1.019l-10.59 15.126zm24.613-4.021c-.347-.201-.692-.404-1.038-.605l-8.992 12.841c.349.198.696.398 1.044.596l8.986-12.832zm9.011-88.388c-2.396 4.864-4.89 9.686-7.111 14.63-.443.985.157 2.436.275 3.672 1.384-.274 3.1-.127 4.088-.903 2.504-1.976 4.682-4.363 6.99-6.585l1.046.543c-1.305 3.112-2.758 6.175-3.838 9.364-.354 1.043-.012 2.569.559 3.56.235.407 2.315.407 2.868-.125 4.13-3.966 8.087-8.11 12.096-12.199l-1.704-1.87c-2.474 2.062-4.946 4.127-7.16 5.975l.988-10.301c-3.37 1.222-6.739 2.446-9.864 3.58l2.66-8.675-1.893-.666m21.82 34.863l7.718-11.022c-2.67.37-6.352 2.002-8.172.807-1.754-1.156-1.59-5.232-2.188-7.694l-7.53 10.756c2.55-.362 6.303-2.037 8.063-.822 1.754 1.213 1.514 5.318 2.109 7.975m15.758-2.292c-2.877 2.66-1.393 5.031 1.388 7.341 1.53 1.272 2.03 3.785 2.993 5.737-2.346-.312-4.743-.433-7.017-1.019-1.193-.308-2.176-1.431-3.253-2.186l-1.086 2.44c3.845 1.272 9.34 4.814 11.252 3.425 8.606-6.252-2.539-8.523-3.74-12.935 3.445-3.405 3.445-3.405 11.601-.164-1.983-1.389-3.804-3.411-5.998-3.971-1.866-.477-4.774.07-6.14 1.332m17.215 8.539c-.25-.115-.499-.233-.747-.35l-8.267 11.806 8.952-3.832-.91 10.855c3.222-5.097 1.28-12.667 9.301-14.671l-9.644.98c.56-2.046.937-3.416 1.315-4.788m16.613 29.926c-1.958-1.856-2.805-2.736-3.734-3.521-1.05-.887-2.34-1.54-3.232-2.554-2.81-3.193-.723-5.403 4.252-5.183l-.02-5.52 10.834 2.168-9.297-6.51c-12.228 12.484-12.226 15.395 1.197 21.12m13.428-10.02l-4.382 15.809 12.951-9.315-.068-1.075-7.772 2.817.31-8.132-1.04-.104m-57.212-20.729l8.984-12.83-1.064-.68-8.966 12.804 1.046.706zm-103.792 110.046c3.144-4.468-1.5-5.657-3.727-7.986-.932-.974-.929-2.843-1.35-4.307 1.386.136 2.964-.102 4.114.489 2.104 1.084 3.957 2.66 5.915 4.03l1.305-2.1c-3.381-2.368-6.587-5.124-10.281-6.808-.831-.38-5.113 3.512-4.806 4.533 1.117 3.714 3.508 7.044 5.804 11.218-4.98 4.837-6.778-4.01-11.224-3.905-.134 6.041 5.017 7.114 8.793 8.703 1.121.473 4.19-2.068 5.457-3.867m36.392 17.369c-1.785-.042-4.194.606-5.197-.302-1.246-1.128-1.331-3.54-1.92-5.398l6.216-.17.901 5.87zm-15.68 3.139c2.66-.788 5.301-1.568 7.943-2.349.474 2.907.947 5.816 1.366 8.399 2.262-2.291 5.639-4.933 7.859-8.328.946-1.448.168-4.998-1.077-6.648-1.505-1.993-4.336-2.986-6.704-4.48l-9.386 13.406zm22.865 1.869l5.67-1.293c.95 2.56 1.573 4.246 2.2 5.932-1.961.123-4.262.92-5.771.155-1.201-.609-1.436-3.124-2.1-4.794m7.18 8.579c4.569-3.839 4.558-6.686-.409-10.138-1.651-1.145-3.432-2.102-5.406-3.298l-9.782 13.971c2.934-1.396 5.32-2.532 7.707-3.666l2.104 8.957c1.583-1.613 3.518-3.92 5.786-5.826m-.511 10.29c-.15.825-.299 1.646-.447 2.47 7.06-5.18 8.852-.966 10.105 5.964l6.163-17.87-2.062-1.208-13.76 10.645m-35.499-23.821c-2.118-3.017-3.953-5.628-5.787-8.238l5.115-2.56.633-5.623 11.728 3.568-10.892-7.627-9.884 14.117 9.087 6.363zm-3.816-23.08l-9.524 13.603 1.192.743 9.509-13.58-1.177-.765m-10.473-41.402c-2.398 4.865-4.89 9.686-7.113 14.63-.442.984.158 2.437.275 3.673 1.385-.275 3.101-.127 4.09-.905 2.502-1.974 4.68-4.363 6.989-6.585l1.046.543c-1.306 3.113-2.758 6.175-3.837 9.364-.353 1.044-.013 2.57.558 3.56.235.408 2.315.407 2.869-.125 4.129-3.965 8.086-8.11 12.095-12.199l-1.706-1.871-7.158 5.977.988-10.302c-3.37 1.223-6.739 2.446-9.864 3.582.766-2.502 1.712-5.588 2.66-8.675l-1.892-.667m21.819 34.863l7.718-11.022c-2.67.369-6.352 2.002-8.172.807-1.754-1.156-1.589-5.233-2.188-7.694l-7.53 10.756c2.55-.362 6.303-2.037 8.061-.823 1.756 1.214 1.516 5.318 2.11 7.976m15.759-2.292c-2.875 2.659-1.393 5.03 1.388 7.341 1.53 1.272 2.03 3.784 2.993 5.737-2.347-.313-4.742-.435-7.018-1.021-1.192-.306-2.175-1.43-3.252-2.184l-1.086 2.44c3.846 1.27 9.34 4.814 11.252 3.425 8.607-6.254-2.537-8.524-3.738-12.934 3.443-3.406 3.443-3.406 11.6-.166-1.984-1.388-3.805-3.41-5.999-3.97-1.866-.477-4.773.07-6.14 1.332m17.214 8.54c-.247-.118-.498-.234-.747-.352l-8.267 11.806 8.954-3.83c-.378 4.49-.644 7.672-.91 10.854 3.221-5.097 1.28-12.669 9.3-14.671l-9.644.98c.561-2.046.937-3.416 1.315-4.788m16.613 29.926c-1.958-1.856-2.807-2.737-3.734-3.521-1.05-.887-2.34-1.54-3.232-2.556-2.81-3.19-.722-5.401 4.253-5.181l-.022-5.52 10.835 2.168-9.297-6.51c-12.228 12.484-12.226 15.395 1.197 21.12m13.428-10.02c-1.494 5.387-2.986 10.775-4.381 15.809l12.949-9.316-.067-1.074-7.772 2.817.31-8.132-1.04-.104m-57.211-20.729l8.984-12.83-1.065-.68-8.965 12.804 1.045.706"/><path d="M3236.502 1149.458l-5.672 1.293c.662 1.67.898 4.187 2.1 4.795 1.509.764 3.81-.032 5.769-.157-.625-1.684-1.249-3.37-2.197-5.93m-18.054-4.017c1.003.907 3.412.259 5.197.301l-.901-5.869c-2.633.073-4.424.12-6.215.17.587 1.857.673 4.27 1.919 5.398m58.826-29.782c-.994-.87-3.3-.24-5.025-.276.262 1.7.524 3.404.89 5.793l6.294-.277c-.672-1.802-.887-4.124-2.16-5.24m109.499-199.587l1.971 3.746c1.514-1.266 3.906-2.315 4.287-3.86.364-1.472-1-3.859-2.315-5.083-.855-.797-2.978-.235-4.534-.282l.591 5.48m-14.312 20.441l1.97 3.745c1.514-1.266 3.906-2.315 4.286-3.86.365-1.472-1-3.858-2.314-5.082-.855-.798-2.979-.236-4.534-.283l.591 5.48"/></g><g class="svg-shaft-segment"><path d="M2390.925 1081.998l-4.512-3.16-3.668 5.239 4.24 2.969c-2.78.992-5.833-.928-5.597-2.276.46-2.644 2.468-5.231 4.4-7.319 1.023-1.105 4.462 1.815 5.137 4.547zm20.689 17.36c-1.23 1.18-2.509 2.31-3.44 3.165l-.848-4.286-3.655 1.115 4.618-6.596c1.152.73 2.202 1.387 3.243 2.058 2.286 1.47 1.665 3.02.082 4.543zm5.863 10.412l4.772-6.815.508.374-4.772 6.816-.508-.375zm-21.257-15.32l6.647-5.437.793.48c-.104.642-.131 1.309-.324 1.923-.69 2.196-1.436 4.374-2.456 6.774-.458-2.634-.98-5.034-4.66-3.74zm1.787-7.606l-4.08 5.828c1.168-2.862.329-4.562-2.9-5.204l-2.22 2.258-.376-.313 4.384-6.26c.317 1.226.387 3.05 1.29 4.247.378.502 2.52-.326 3.902-.556zm25.185 26.264c.408.35.767.758 1.148 1.142-5.972-3.033-5.948-3.507.156-10.043l4.636 3.246-.143.429c-.71-.359-1.393-.806-2.14-1.052-.874-.29-1.804-.404-2.71-.595l-.393 3.067c-2.427.012-3.391 1.093-1.937 2.74.379.427.942.686 1.383 1.066zm-39.5-20.78l-4.513-3.159-3.668 5.239 4.241 2.969c-2.78.991-5.833-.928-5.598-2.276.46-2.645 2.469-5.232 4.4-7.32 1.024-1.105 4.463 1.815 5.138 4.548zm20.688 17.36c-1.229 1.182-2.508 2.31-3.44 3.165l-.848-4.285-3.654 1.114 4.618-6.596c1.152.73 2.2 1.388 3.243 2.058 2.286 1.47 1.664 3.021.081 4.544zm5.864 10.413l4.771-6.815.51.374-4.774 6.816-.507-.375zm-21.257-15.32l6.646-5.437.793.479c-.103.642-.13 1.309-.323 1.923-.69 2.196-1.437 4.374-2.456 6.774-.459-2.634-.98-5.034-4.66-3.739zm1.787-7.606l-4.08 5.827c1.167-2.861.329-4.561-2.902-5.203-.683.696-1.45 1.477-2.218 2.257l-.376-.312 4.384-6.26c.316 1.226.386 3.05 1.289 4.247.38.502 2.52-.326 3.903-.556zm25.185 26.263c.408.35.767.759 1.147 1.142-5.971-3.033-5.947-3.506.156-10.042l4.636 3.246-.142.429c-.712-.359-1.394-.806-2.141-1.053-.873-.289-1.804-.404-2.71-.594-.126.995-.254 1.99-.392 3.066-2.427.012-3.391 1.093-1.937 2.74.378.428.941.686 1.383 1.066zm-16.747-7.333l4.645 3.253-.27.556c-.872-.525-1.696-1.177-2.631-1.532-.758-.289-1.65-.221-2.483-.31-.07.905-.137 1.81-.213 2.806-2.789.342-3.588 1.368-1.917 2.98.88.847 1.9 1.549 2.857 2.317-6.352-3.027-6.309-4.362.012-10.07zm-14.231.579l-.543-.38 4.768-6.81.547.375-4.772 6.815zm1.616 1.067l4.609-6.582.372.147-.95 2.786c1.877-.235 3.503-.438 4.205-.527l-3.924 7.258.331-5.578-4.643 2.496zm-11.215-7.098l-.743-.577 5.682-8.116c1.88 3.146-.927 5.437-.563 8.21l6.393-4.043c.249.3.497.597.747.895l-5.457 7.794-.736-.312 1.54-3.186-4.511 1.17.044-4.171-2.396 2.336zm4.063 26.554c.63.834 1.022 2.628.545 3.36-1.123 1.716-2.829 3.05-3.973 4.209l-.69-4.246c-1.335.396-2.67.79-4.013 1.187l4.743-6.774c1.197.755 2.628 1.256 3.388 2.264zm-.831 10.061l4.944-7.06c.997.604 1.898 1.088 2.732 1.666 2.51 1.745 2.515 3.184.206 5.124-1.146.964-2.124 2.129-2.923 2.944l-1.064-4.527-3.895 1.853zm-17.058-11.897l4.813-6.874.595.386-4.806 6.863-.602-.375zm7.144-5.56l5.504 3.854c-2.64-.803-4.283-1.304-5.927-1.803-.109.966-.216 1.931-.32 2.841l-2.584 1.295 2.924 4.163-4.592-3.216 4.995-7.134zm17.312 23.636l.226-1.248 6.954-5.38 1.042.611-3.115 9.03c-.633-3.501-1.539-5.632-5.107-3.013zm-26.697-22.564c-1.16-2.11-2.368-3.793-2.931-5.67-.156-.516 2.008-2.482 2.428-2.29 1.867.85 3.487 2.243 5.196 3.44l-.66 1.062c-.99-.692-1.925-1.489-2.99-2.036-.58-.3-1.379-.18-2.079-.248.213.74.212 1.684.683 2.177 1.126 1.176 3.472 1.778 1.884 4.035-.64.91-2.191 2.194-2.759 1.955-1.907-.803-4.51-1.345-4.442-4.399 2.247-.052 3.155 4.42 5.67 1.974zm13.647 28.39l.46-5.487-4.524 1.936 4.178-5.966.377.177-.664 2.42c1.779-.181 3.326-.339 4.873-.495-4.053 1.012-3.072 4.838-4.7 7.414zm7.505-2.696l.011 2.79c-2.514-.11-3.569 1.006-2.15 2.619.451.512 1.103.842 1.633 1.291.47.397.9.841 1.888 1.78-6.783-2.893-6.785-4.365-.605-10.673l4.699 3.29-5.476-1.097zm12.464 6.154l.034.543c-2.236 1.61-4.471 3.218-6.544 4.708l2.214-7.99.524.053a6654.78 6654.78 0 0 1-.155 4.11l3.927-1.424zm-31.155-12.124c.546.381 1.042.949 1.644 1.104 1.151.296 2.361.358 3.547.516-.486-.987-.739-2.257-1.512-2.9-1.406-1.167-2.156-2.366-.702-3.71.69-.638 2.16-.914 3.103-.673 1.11.283 2.03 1.305 3.032 2.007-4.122-1.638-4.122-1.638-5.863.083.607 2.23 6.24 3.377 1.89 6.537-.966.702-3.743-1.088-5.687-1.73l.548-1.234zm1.948-7.917c.18.113.359.228.538.342l-4.54 6.485-.529-.356 4.531-6.471zm-12.075.471l3.806-5.436c.302 1.244.218 3.304 1.105 3.888.92.605 2.781-.221 4.13-.408l-3.9 5.57c-.301-1.342-.179-3.417-1.067-4.03-.888-.613-2.786.233-4.074.416zm-1.29-11.093l-.499 5.206 3.619-3.02.861.946c-2.026 2.066-4.026 4.16-6.113 6.165-.28.268-1.33.269-1.45.063-.288-.501-.46-1.272-.282-1.8.546-1.611 1.28-3.16 1.94-4.732l-.53-.274c-1.165 1.123-2.266 2.33-3.531 3.328-.5.392-1.367.318-2.066.456-.06-.624-.363-1.358-.14-1.856 1.123-2.498 2.383-4.935 3.595-7.393.319.112.637.225.956.336l-1.344 4.384 4.985-1.809zm-5.914 24.418c-1.151-4.57-1.184-4.591-5.882-4.101l7.781-6.182 1.154.69-3.053 9.593zm13.263-1.951c1.246.872 2.673 1.51 3.53 2.599.573.728.794 2.402.332 3.09-.472.703-2.41 1.32-2.938.931-2.068-1.525-3.764-1.622-5.69.187l4.766-6.807zm-9.813 2.792l2.581 2.502-.314.415-3.719-2.604 4.773-6.816.526.322-3.847 6.181zm16.208 6.182c1.98 2.947 3.826 2.28 5.875.494l-4.306 6.15a26.73 26.73 0 0 0-.385-.176c.312-.907.623-1.814.99-2.877l-3.196-2.238-2.431 2.375-.378-.249 5.216-7.448-1.385 3.97zm3.787 8.515l6.777-5.474 1.002.672-2.893 8.514c-.311-3.1-1.374-4.665-4.886-3.712zm-19.765-2.818l-2.58 2.846-.472-.366 4.69-6.698.885.34-1.828 7.675 6.678-4.185.531.666-4.473 6.39-.345-.188 2.03-3.576-5.778 3.14c.257-2.357.43-3.933.662-6.044zm-.085-5.137l-4.54 6.485-.528-.3 4.544-6.49.524.305zm-10.274 1.464c.962 1.014 1.855 1.959 2.748 2.902l-.622.671-4.29-3.005 5.352-7.644.95.515-4.138 6.561zm16.118 12.302l6.823-5.395.958.559a57270 57270 0 0 0-3.047 9.19c-.36-3.703-1.66-5.085-4.734-4.354zm-12.59 1.128l-2.58 2.845c-.157-.12-.315-.243-.472-.365l4.69-6.698.884.34-1.828 7.675 6.678-4.185.532.666-4.474 6.39a57.36 57.36 0 0 0-.345-.188l2.03-3.576-5.778 3.14.662-6.044zm-.086-5.137l-4.54 6.485-.528-.3 4.544-6.491.524.306zm-10.273 1.464l2.748 2.902-.622.67-4.291-3.004 5.352-7.644.951.515-4.138 6.56zm16.117 12.302c2.274-1.8 4.549-3.597 6.823-5.395l.958.559-3.047 9.19c-.36-3.703-1.659-5.086-4.734-4.354zm-21.993-5.868c-.312.342-.57.74-.813 1.135-1.475 2.413-2.695 4.469-6.143 1.983-3.408-2.457-1.535-4.164-.624-5.292 3.336-4.775 3.626-4.788 6.764-2.635 2.066 1.417 2.598 2.847.816 4.809zm1.086 6.917c1 .319 2.125.242 3.196.334-.418-.925-.813-1.862-1.261-2.771-.496-1.004-1.55-2.062-1.414-2.951.13-.853 1.735-2.295 2.236-2.126 1.637.55 3.065 1.719 4.574 2.65l-.546.845c-.814-.57-1.56-1.333-2.464-1.65-.77-.272-1.722-.03-2.594-.017.292.84.349 1.917.916 2.478 2.183 2.156 2.478 4.806.367 5.012-1.783.176-3.737-1.398-5.616-2.198l.59-1.118c.666.523 1.26 1.27 2.016 1.512zm14.04 1.167l-3.534-2.475c-4.985 3.86-5.07 5.292-1.18 8.988-1.374-1.17-4.1-2.825-3.883-3.426.856-2.39 2.328-4.805 4.24-6.423.604-.512 3.29 1.432 5.022 2.252l-.664 1.084zm-1.37 7.953c2.28-1.824 4.56-3.648 6.84-5.47l.874.65-2.72 8.31c-.712-2.55-1.36-4.734-4.995-3.49zm7.355 5.215l4.86-6.942c1.051.735 1.963 1.438 2.937 2.044 2.297 1.43 1.731 2.95.199 4.522-1.2 1.23-2.415 2.447-3.287 3.329l-1.156-4.437-3.553 1.484zm-11.473 8.49l.46-5.486-4.524 1.936 4.177-5.966.379.177-.665 2.42 4.873-.496c-4.053 1.013-3.071 4.839-4.7 7.415zm7.506-2.695l.01 2.79c-2.514-.111-3.568 1.006-2.15 2.618.452.513 1.104.844 1.634 1.292.47.397.898.842 1.887 1.78-6.783-2.893-6.784-4.365-.605-10.674l4.699 3.29-5.475-1.096zm12.463 6.154l.035.543-6.544 4.708 2.213-7.99.525.053-.156 4.11 3.927-1.424zm-31.154-12.124c.545.381 1.04.95 1.644 1.105 1.15.295 2.36.357 3.546.515-.487-.987-.74-2.257-1.512-2.9-1.406-1.167-2.155-2.366-.702-3.71.691-.638 2.16-.914 3.103-.673 1.11.283 2.03 1.305 3.033 2.007-4.123-1.638-4.123-1.638-5.864.084.607 2.229 6.24 3.377 1.89 6.536-.967.702-3.744-1.088-5.686-1.73l.548-1.234zm1.947-7.917l.539.342-4.541 6.485-.529-.356 4.531-6.471zm-12.075.47l3.806-5.435c.302 1.244.219 3.304 1.106 3.888.919.604 2.78-.221 4.13-.408l-3.901 5.57c-.3-1.342-.18-3.417-1.067-4.03-.888-.614-2.785.233-4.074.416zm-1.29-11.092c-.162 1.705-.326 3.41-.499 5.206l3.619-3.02.862.946c-2.027 2.065-4.027 4.16-6.114 6.164-.28.269-1.33.27-1.45.064-.288-.5-.46-1.272-.282-1.8.547-1.61 1.28-3.159 1.94-4.732l-.53-.274c-1.165 1.123-2.266 2.33-3.532 3.327-.498.394-1.365.319-2.065.458-.06-.625-.363-1.359-.14-1.856 1.124-2.499 2.383-4.936 3.594-7.394l.956.337c-.477 1.56-.956 3.12-1.344 4.384l4.986-1.81zm13.773 26.723c.63.833 1.022 2.628.544 3.36-1.122 1.715-2.828 3.05-3.972 4.208-.212-1.305-.45-2.775-.69-4.245l-4.014 1.187 4.744-6.774c1.197.755 2.628 1.256 3.388 2.264zm-.831 10.06l4.944-7.06c.997.605 1.898 1.089 2.731 1.668 2.511 1.744 2.516 3.182.207 5.122-1.146.965-2.124 2.13-2.923 2.945l-1.065-4.526-3.894 1.852zm-17.058-11.897l4.813-6.873.594.386-4.805 6.863-.602-.376zm7.144-5.56l5.504 3.854-5.927-1.803-.319 2.842-2.586 1.294c.927 1.319 1.855 2.638 2.925 4.163l-4.592-3.216 4.995-7.134zm17.312 23.637l.226-1.248 6.954-5.38 1.042.61-3.115 9.031c-.633-3.501-1.539-5.632-5.107-3.013zm-26.697-22.565c-1.16-2.109-2.368-3.792-2.932-5.668-.156-.517 2.009-2.483 2.429-2.291 1.867.85 3.487 2.243 5.196 3.44l-.66 1.061c-.99-.692-1.926-1.488-2.99-2.036-.58-.299-1.379-.179-2.078-.247.213.739.211 1.685.682 2.177 1.126 1.177 3.472 1.778 1.884 4.035-.64.91-2.191 2.193-2.759 1.955-1.907-.804-4.511-1.345-4.443-4.399 2.247-.052 3.155 4.419 5.671 1.973zm-131.346 249.099l-6.91 9.868-22.449-26.749 6.91-9.868 22.45 26.749zm.77-38.905c2.216 2.632 3.433 5.836 3.65 9.615.086 1.53.004 2.963-.245 4.3l11.027 3.28-8.292 11.842-9.732-2.904-2.903 4.146-6.416-7.64 6.219-8.882c.378-.539.546-1.192.502-1.958-.042-.764-.282-1.407-.72-1.93a2.297 2.297 0 0 0-.458-.439 1.852 1.852 0 0 0-1.082-.345c-.584.022-1.065.303-1.443.842l-6.219 8.882-6.416-7.64 7.601-10.856c1.907-2.723 4.319-4.122 7.236-4.198 1.92-.027 3.684.52 5.29 1.645.841.59 1.642 1.336 2.401 2.24zm12.538-8.244l9.168.978 1.568 11.833-7.601 10.856-3.135-23.667zm26.628-9.885l-7.6 10.855-38.342-4.052 7.6-10.855 38.342 4.052zm-19.3-3.102l-9.182-.959-1.568-11.833 7.601-10.856 3.15 23.648zm5.34-18.968l-6.416-7.64 8.292-11.842 22.449 26.75-6.91 9.867-16.033-19.109-1.382 1.974zm-111.642 201.448l-6.91 9.869-22.45-26.75 6.91-9.868 22.45 26.75zm.77-38.904c2.216 2.631 3.431 5.844 3.645 9.641.214 3.798-.632 7.058-2.54 9.781l-7.6 10.856-6.416-7.64 6.218-8.881c.378-.54.546-1.192.503-1.958-.042-.765-.282-1.407-.72-1.93a2.297 2.297 0 0 0-.459-.44 1.852 1.852 0 0 0-1.081-.345c-.584.023-1.066.304-1.444.843l-6.218 8.881-6.416-7.64 7.6-10.855c1.908-2.724 4.32-4.123 7.236-4.199 1.921-.027 3.684.521 5.29 1.645.842.59 1.642 1.337 2.402 2.24zm39.166-18.13l-6.91 9.868-8.016-9.554-4.146 5.92-6.416-7.64 4.146-5.92-8.018-9.555 6.91-9.868 22.45 26.749zm8.983-12.829l-6.91 9.868-14.849-37.604 6.91-9.868 14.849 37.604zm-8.755-24.925l-5.403-13.666 1.382-1.974 30.05 15.894-6.91 9.868-4.293-2.27-7.49 10.697-4.246-10.738 3.15-4.5-6.24-3.311zm-26.407 37.336l6.416 7.64-4.146 5.92 8.016 9.555-6.91 9.869-22.45-26.75 6.91-9.868 8.018 9.555 4.146-5.92zm-29.014 62.44l6.416 7.639-13.13 18.75-6.415-7.64 13.129-18.75zm-7.404 27.376l-6.91 9.868-22.45-26.749 6.91-9.868 22.45 26.749zm-27.09 38.689l-6.91 9.868-14.849-37.604 6.91-9.87 14.849 37.606zm-8.755-24.926l-5.403-13.666 1.382-1.973 30.05 15.894-6.91 9.868-4.293-2.27-7.49 10.697-4.246-10.739 3.15-4.5-6.24-3.31zm956.428-1429.49l-417.964 596.914-110.37 157.624a43.31 43.31 0 0 1-1.724 2.463 41.46 41.46 0 0 1-2.808 3.333c-195.2 278.378-375.741 535.71-559.74 798.038l-.674.96-3.48 4.963.143.257 40.543 73.214.143.258 3.416-4.874.736-1.05L3048.286 235.9l.979-1.396-.217-.152-61.243-42.882-.18-.127-.978 1.397zM1388.754 2472.264l3.708 19.505-28.3 111.387 42.94-61.775 6.63 26.644.085.341.077.307 13.664-19.514-.074-.294-.085-.34-16.104-63.97-5.282-20.982-2.951-11.727-.085-.34-14.292 20.395.07.363zm-86.936 147.851l-3.845-18.282-.075-.355a848177.635 848177.635 0 0 0-41.767 59.624l.217.152 22.362 15.658-18.236 26.044 27.69 19.39 7.376-10.534 11.692 8.187.217.152 15.69-22.388-.067-.368-1.26-7.038c-1.362-10.604-3.528-28.122.388-46.021l23.62-87.324-44.002 63.103zm284.879-430.266l.597 2.294c2.207 8.487-1.164 20.825-8.642 31.89-.2.296-.39.594-.596.887l-11.727 16.749 9.914 6.94 41.143 28.808.217.152 14.82-21.149c-.113.008-.227.02-.34.024-5.006.212-9.13-2.35-10.515-7.473l-21.414-78.317-.09-.332-13.454 19.19.087.337zm48.997-69.886l17.809 69.74 48.038-68.605 6.855 26.45.088.337 28.242-40.301-.217-.152-41.208-28.855 12.506-17.86-20.505-14.358-.217-.152-51.478 73.418.087.338zm-140.988 200.657l-10.295 14.687.08.349 3.927 17.332-40.423 57.73 3.386 14.503 40.379-57.667 5.828 25.933-38.465 54.933 3.278 14.634 38.542-55.001 6.053 26.888.078.35 10.187-14.536-.079-.35a357596.07 357596.07 0 0 1-22.476-99.786m58.35 48.596l.079.349.043.19 11.192-15.985 21.049-30.061-.1-.07-.217-.152-5.44-3.81-28.551 40.953zm-19.026-81.301l9.572 39.501 15.494-22.128zM1855.642 1805.859c-.35.5-.7.999-1.051 1.497l.143.258 40.557 73.24.143.258 1.05-1.498-.143-.258-40.556-73.24-.143-.257zm5.485-7.821l-1.494 2.13.143.258 40.555 73.235.143.258 1.493-2.13-.142-.258-40.555-73.235-.143-.258zm5.486-7.821l-1.938 2.762.143.258 40.554 73.232.143.258 1.935-2.763-.142-.258-40.552-73.231-.143-.258zm5.485-7.821a6333.84 6333.84 0 0 1-2.38 3.393l.143.258 40.55 73.23.143.258 2.38-3.396-.143-.258-40.55-73.227-.143-.258zm5.486-7.821l-2.823 4.026.142.258 40.55 73.226.142.257 2.822-4.028-.142-.257-40.548-73.224-.143-.258zm5.486-7.821l-3.267 4.658.142.258 40.547 73.222.143.258 3.266-4.661-.143-.258-40.545-73.22-.143-.257zm5.485-7.821l-3.71 5.29.142.258 40.546 73.218.143.258 3.709-5.293-.143-.257-40.544-73.216-.143-.258z"/><g transform="rotate(-55 3168.964 1384.228)"><mask id="f" fill="#fff"><use xlink:href="#e"/></mask><path d="M759.875 552.745a32.169 32.169 0 0 1-2.352-2.83c-.065-.088-.133-.176-.198-.265-39.059-.142-125.519-.715-142.432-2.284a168.245 168.245 0 0 1-10.808-1.365c-.574-.091-1.139-.187-1.705-.283a173.32 173.32 0 0 1-22.065-5.232c-15.993-4.914-20.302-6.167-34.705-12.367-13.24-5.693-34.679-18.086-47.69-27.546-13.013-9.46-40.576-36.707-48.276-43.223-3.001-2.54-14.46-13.896-28.134-27.652-21.41-21.54-48.254-48.966-56.568-57.642-13.623-14.215-78.186-106.025-89.44-122.018-11.253-15.993-53.308-81.146-53.308-81.146s-58.64-108.395-68.709-124.388c-10.07-15.992-17.177-28.43-26.655-34.947C117.353 3.042 104.322-2.88 75.3 2.45 46.274 7.781 29.097 27.327 17.842 43.912 6.59 60.497.962 82.42.075 100.182A68.92 68.92 0 0 0 .048 106c.19 6.04 1.061 12.868 2.392 19.792 2.574 13.373 6.408 24.985 12.144 39.204 8.041 19.938 20.227 42.766 32.591 64.49 15.334 26.938 33.675 52.87 53.601 78.273 30.205 38.497 79.963 89.44 119.648 132.68 33.596 36.603 92.662 91.464 137.307 128.276 8.092 6.673 15.712 12.755 22.619 18.025 19.687 15.026 43.523 25.43 63.948 30.833 26.261 6.955 73.045 9.03 84.59 8.847 6.89-.109 40.492-.328 73.492-.527l1.705-.01c34.956-.21 68.707-.394 68.707-.394l155.2.06-.247-.265-67.87-72.539z" mask="url(#f)"/></g><path d="M2320.993 1184.463l3.52-5.025-3.157-2.21-3.63 5.183 3.267 2.052m11.163 31.324l-2.866.653c.335.844.454 2.116 1.061 2.423.763.386 1.926-.016 2.916-.079l-1.11-2.997m-9.124-2.03c.506.459 1.724.13 2.626.152l-.455-2.966c-1.33.037-2.236.06-3.141.086.296.938.34 2.158.97 2.728m38.288-55.758l-4.095-1.05c.19.872.12 2.252.622 2.504.898.452 2.136.227 3.233.285l.24-1.74m-8.559 40.708c-.502-.44-1.668-.121-2.54-.14l.45 2.928 3.18-.14c-.338-.91-.447-2.084-1.09-2.648m55.338-100.866l.996 1.893c.765-.64 1.974-1.17 2.166-1.95.184-.745-.506-1.951-1.17-2.57-.432-.403-1.505-.119-2.291-.142l.299 2.769m-22.365 44.169l-2.867.653c.335.844.454 2.116 1.061 2.423.763.387 1.926-.016 2.916-.079l-1.11-2.997m15.131-33.839l.996 1.893c.765-.64 1.974-1.17 2.166-1.95.185-.744-.505-1.95-1.17-2.57-.432-.402-1.505-.118-2.29-.142l.298 2.77m-24.256 31.809c.508.458 1.725.13 2.627.152l-.455-2.966-3.141.085c.297.939.34 2.158.97 2.728"/></g><path d="M1543.602 2327.416l-9.573-39.502 25.068 17.373-15.495 22.129zm43.692-135.273l-.596-2.294-.088-.337-18.853 26.892c-24.123 34.412-48.461 69.132-73.052 104.215.027.115.053.233.079.35 5.575 24.785 17.375 77.15 22.398 99.437l.079.349 35.874-51.191-.08-.35-1.944-8.585 28.55-40.953 5.44 3.81.218.152 26.928-38.426 5.356-7.643-.217-.152-41.143-28.807-9.914-6.941 11.727-16.748c.206-.294.396-.593.597-.888 7.478-11.065 10.848-23.403 8.641-31.89zM1462.4 2463.054l-3.277-14.633 38.465-54.934-5.828-25.933-40.38 57.668-3.385-14.503 40.423-57.73-3.928-17.334-.079-.349c-23.36 33.33-46.95 66.99-70.798 101.02l-10.637 15.18.086.34 2.952 11.727 5.281 20.982 16.103 63.97.086.34 66.136-94.375 13.454-19.2-.078-.348-6.053-26.89-38.542 55.002zm-69.937 28.715l-3.708-19.505-.07-.363c-29.83 42.57-60.072 85.733-90.787 129.577l.075.355 3.845 18.283 44-63.104-23.618 87.324c-3.916 17.9-1.75 35.417-.388 46.022l1.26 7.038.067.367 90.678-129.397-.085-.34-6.63-26.645-42.94 61.775 28.3-111.387zm243.231-371.806l-.087-.338-35.543 50.697.09.332 21.414 78.317c1.385 5.123 5.509 7.685 10.516 7.473.112-.004.226-.016.34-.024l76.06-108.535-.088-.337-6.855-26.45-48.038 68.606-17.81-69.74zm389.122-511.398l5.403 13.666 6.241 3.31-3.15 4.5 4.245 10.74 7.49-10.698 4.294 2.27 6.91-9.868-30.05-15.894zm-7.6 10.855l14.848 37.604 6.91-9.868-14.848-37.605zm49.539-11.94l13.128-18.75-6.415-7.64-13.13 18.75zm-30.05-15.894l22.449 26.75 6.91-9.868-22.45-26.75zm50.387-56.628c-1.605-1.124-3.368-1.672-5.29-1.645-2.915.076-5.327 1.476-7.234 4.2l-7.6 10.855 6.414 7.639 6.22-8.881c.377-.54.858-.82 1.443-.843.392 0 .753.116 1.081.345.158.11.31.257.458.44.438.522.678 1.165.721 1.93.044.766-.125 1.418-.503 1.957l-6.219 8.882 6.417 7.64 7.6-10.856c1.908-2.723 2.754-5.983 2.54-9.78-.214-3.798-1.43-7.011-3.646-9.643-.759-.903-1.56-1.65-2.402-2.24m-27.726 24.265l22.45 26.75 6.91-9.87-22.45-26.748zm39.936-57.035l8.016 9.555-4.146 5.92 6.416 7.64 4.146-5.92 8.017 9.555 6.91-9.87-22.45-26.748zm-.966 22.384l-8.017-9.554-6.91 9.868 22.449 26.749 6.91-9.87-8.016-9.553 4.145-5.921-6.416-7.64zm17.55-46.068l14.848 37.604 6.91-9.868-14.849-37.604zm7.601-10.854l5.402 13.665 6.241 3.31-3.15 4.5 4.245 10.74 7.491-10.698 4.293 2.27 6.91-9.867-30.05-15.895zm49.272-55.036c-1.605-1.124-3.369-1.672-5.29-1.645-2.915.075-5.327 1.475-7.234 4.199l-7.602 10.855 6.416 7.64 6.219-8.882c.378-.54.859-.82 1.443-.842.393 0 .754.115 1.082.345.157.11.31.257.458.439.438.522.678 1.166.72 1.931.044.766-.124 1.417-.502 1.957l-6.219 8.881 6.416 7.64 2.902-4.145 9.733 2.903 8.292-11.842-11.028-3.28c.25-1.336.332-2.768.246-4.298-.217-3.78-1.433-6.985-3.65-9.616-.76-.904-1.56-1.65-2.402-2.24m-27.727 24.264l22.45 26.75 6.91-9.87-22.45-26.748zm46.846-66.903l-7.6 10.856 1.567 11.833 9.182.959zm-1.044 60.302l7.6-10.855-1.567-11.834-9.168-.978zm-22.449-26.749l38.342 4.052 7.6-10.855-38.341-4.053zm31.982-28.873l1.382-1.974 16.034 19.11 6.91-9.869-22.45-26.75-8.292 11.843zm124.145-195.217l-3.518 5.025-3.268-2.051 3.63-5.184 3.156 2.21zm-7.034.112c-.91 1.128-2.783 2.835.624 5.292 3.449 2.486 4.67.43 6.144-1.983.243-.396.501-.793.812-1.135 1.783-1.962 1.25-3.392-.815-4.81-3.137-2.152-3.428-2.14-6.765 2.636zm36.375 21.805l-3.18.14-.45-2.93c.87.02 2.037-.299 2.54.141.642.564.75 1.738 1.09 2.649m-2.822-5.32l-4.86 6.941 3.552-1.484 1.155 4.437c.872-.882 2.088-2.098 3.288-3.329 1.533-1.572 2.098-3.093-.2-4.523-.972-.605-1.885-1.307-2.935-2.042m-4.501-3.095c-.293-.216-.584-.433-.876-.65l-6.84 5.47c3.635-1.243 4.283.94 4.996 3.49l2.72-8.31m-22.99-4.693c1.878.8 3.832 2.373 5.615 2.198 2.11-.207 1.815-2.856-.367-5.013-.567-.56-.625-1.637-.916-2.477.872-.014 1.823-.255 2.595.016.903.318 1.65 1.082 2.463 1.652l.547-.847c-1.51-.93-2.939-2.099-4.574-2.65-.502-.169-2.106 1.274-2.236 2.127-.136.89.918 1.947 1.412 2.95.449.91.844 1.847 1.263 2.772-1.072-.092-2.197-.015-3.197-.334-.756-.242-1.35-.99-2.016-1.512l-.59 1.118m12.288-1.775c-1.91 1.618-3.384 4.034-4.24 6.423-.215.6 2.51 2.256 3.884 3.426-3.89-3.696-3.805-5.13 1.18-8.989l3.535 2.476.664-1.084c-1.733-.82-4.418-2.765-5.023-2.252m2.735-34.088c4.7-.49 4.731-.467 5.884 4.102l3.053-9.594-1.155-.69c-2.594 2.06-5.187 4.122-7.782 6.182m22.088 14.853l2.431-2.375 3.196 2.237-.99 2.877.385.176 4.306-6.15c-2.05 1.786-3.894 2.454-5.874-.492l1.384-3.97-5.216 7.448.378.25m-3.423-10.288l4.095 1.049-.241 1.739c-1.097-.058-2.335.167-3.234-.285-.5-.252-.432-1.632-.62-2.504m1.406 4.207c.526.389 2.464-.23 2.937-.933.461-.687.242-2.361-.332-3.09-.857-1.088-2.285-1.725-3.53-2.598l-4.767 6.807c1.928-1.809 3.623-1.712 5.692-.186m9.257 10.867c3.512-.953 4.575.613 4.886 3.713l2.893-8.514-1.002-.672-6.777 5.473zm-21.447-14.383l3.719 2.603.314-.414c-.796-.77-1.592-1.543-2.58-2.502l3.845-6.18-.525-.323-4.773 6.816zm33.878-55.68l-5.682 8.116.743.577 2.396-2.336-.044 4.171 4.511-1.17-1.54 3.187.736.31 5.457-7.793-.747-.895-6.391 4.042c-.366-2.772 2.441-5.063.561-8.209m14.513 11.615l-4.205.528.949-2.787-.372-.146-4.61 6.582 4.645-2.497-.331 5.577c1.356-2.51 2.73-5.05 3.924-7.257m4.366 12.6c-.957-.768-1.977-1.47-2.856-2.318-1.672-1.61-.872-2.637 1.915-2.98l.213-2.805c.833.09 1.726.02 2.483.309.936.356 1.76 1.01 2.632 1.533l.27-.556-4.645-3.253c-6.322 5.708-6.364 7.043-.011 10.07m-9.995-16.681l-4.768 6.81.543.38 4.771-6.815-.546-.375m-3.418-32.043c-1.932 2.088-3.94 4.675-4.4 7.319-.236 1.348 2.816 3.268 5.598 2.276l-4.241-2.97 3.667-5.238 4.513 3.16c-.675-2.732-4.114-5.652-5.137-4.547m25.474 20.331c-.193.782-1.401 1.31-2.166 1.95l-.996-1.892-.3-2.769c.787.024 1.86-.261 2.292.143.665.618 1.354 1.824 1.17 2.568zm-7.59 1.57l3.654-1.115.847 4.285c.932-.854 2.212-1.983 3.44-3.165 1.584-1.522 2.205-3.073-.081-4.544-1.041-.67-2.091-1.327-3.243-2.057l-4.618 6.595zm-.336-7.936c.193-.615.22-1.282.323-1.924l-.792-.479-6.646 5.438c3.68-1.295 4.2 1.104 4.659 3.739 1.02-2.4 1.766-4.578 2.456-6.774m-14.905-2.003c.126.105.25.209.377.312l2.218-2.256c3.23.641 4.069 2.341 2.9 5.203l4.081-5.828c-1.383.23-3.524 1.058-3.902.555-.903-1.195-.973-3.02-1.29-4.246l-4.384 6.26zm35.909 24.837c-.382-.383-.74-.791-1.148-1.142-.441-.38-1.004-.639-1.383-1.067-1.454-1.647-.49-2.728 1.937-2.74l.393-3.066c.906.19 1.836.305 2.71.594.747.248 1.43.695 2.14 1.053l.143-.428-4.636-3.247c-6.104 6.536-6.127 7.01-.156 10.042m-2.09-11.294l-4.773 6.815.508.375 4.773-6.816-.509-.374m-43.694-15.173c-1.933 2.087-3.94 4.674-4.4 7.318-.236 1.349 2.816 3.268 5.597 2.276l-4.241-2.97 3.668-5.237 4.513 3.16c-.675-2.733-4.114-5.652-5.137-4.547m25.474 20.331c-.193.781-1.402 1.31-2.167 1.95l-.996-1.893-.3-2.768c.788.023 1.86-.261 2.293.142.664.619 1.353 1.824 1.17 2.569zm-7.591 1.569l3.654-1.114.847 4.285c.933-.854 2.212-1.983 3.44-3.165 1.585-1.523 2.206-3.074-.08-4.545-1.042-.67-2.091-1.327-3.243-2.056l-4.618 6.595zm-.336-7.936c.193-.614.22-1.281.324-1.923l-.793-.48-6.646 5.438c3.68-1.295 4.201 1.105 4.66 3.74 1.02-2.4 1.765-4.578 2.455-6.775m-14.904-2.002l.376.312 2.218-2.257c3.23.642 4.07 2.342 2.901 5.203l4.08-5.827c-1.383.23-3.523 1.058-3.902.555-.903-1.195-.973-3.02-1.29-4.247l-4.383 6.26zm35.908 24.836c-.381-.383-.74-.791-1.148-1.142-.44-.38-1.003-.638-1.382-1.067-1.455-1.646-.49-2.727 1.937-2.74l.393-3.066c.905.19 1.836.306 2.709.595.747.247 1.43.694 2.14 1.053l.144-.429-4.636-3.246c-6.104 6.535-6.128 7.01-.157 10.042m-2.09-11.294l-4.772 6.814.508.376 4.772-6.816-.508-.374m-54.17 18.067c1.589-2.257-.758-2.858-1.884-4.035-.47-.492-.47-1.437-.682-2.177.7.069 1.498-.052 2.079.247 1.063.548 2 1.344 2.99 2.037l.659-1.062c-1.71-1.196-3.33-2.59-5.196-3.44-.42-.192-2.584 1.775-2.429 2.29.565 1.878 1.773 3.56 2.933 5.67-2.516 2.445-3.425-2.026-5.672-1.974-.068 3.054 2.535 3.596 4.444 4.399.566.239 2.118-1.045 2.758-1.955m18.391 8.778c-.902-.021-2.12.307-2.626-.152-.63-.57-.673-1.789-.97-2.728l3.14-.086.456 2.966zm-7.924 1.587l4.014-1.187c.24 1.469.479 2.939.69 4.244 1.144-1.158 2.851-2.492 3.972-4.209.479-.73.085-2.526-.544-3.36-.76-1.007-2.191-1.508-3.388-2.263l-4.744 6.775zm11.555.944l2.866-.653 1.111 2.998c-.99.062-2.153.465-2.916.078-.607-.308-.726-1.579-1.061-2.423m3.628 4.336c2.31-1.94 2.304-3.38-.206-5.123-.834-.579-1.735-1.063-2.732-1.667l-4.944 7.06c1.483-.705 2.689-1.28 3.895-1.852l1.063 4.526c.8-.815 1.778-1.98 2.924-2.944m-.258 5.2l-.226 1.249c3.568-2.619 4.474-.489 5.107 3.014l3.115-9.032-1.042-.61-6.954 5.38m-17.94-12.039l-2.925-4.163 2.585-1.294c.102-.91.21-1.876.32-2.842l5.927 1.804-5.505-3.855-4.995 7.134 4.593 3.216zm-1.929-11.663l-4.813 6.874.602.375 4.806-6.863-.595-.386m-13.129 43.613l-2.029 3.576.345.188 4.474-6.39-.531-.667c-2.088 1.31-4.175 2.618-6.679 4.186l1.828-7.676-.884-.339-4.69 6.699.471.365 2.58-2.845-.662 6.044c2.22-1.208 3.642-1.98 5.778-3.141m.643 5.724c3.076-.73 4.375.652 4.735 4.354l3.045-9.19-.958-.558-6.822 5.394m-18.283-11.733l4.291 3.005.622-.67-2.747-2.903 4.137-6.561-.95-.515-5.353 7.644zm12.439-2.032l-.525-.306-4.544 6.49.528.301 4.541-6.485zm-1.63 17.798c-.963 1.693-1.496 2.634-2.03 3.576l.344.187 4.474-6.39-.531-.665-6.678 4.185 1.827-7.676-.884-.34-4.69 6.7c.158.12.314.242.471.365.744-.82 1.487-1.642 2.58-2.846l-.662 6.044 5.778-3.14m.643 5.724c3.076-.73 4.375.652 4.735 4.354l3.046-9.19-.958-.558-6.823 5.394m-18.282-11.733l4.29 3.005.623-.671-2.748-2.902 4.137-6.561-.95-.515-5.352 7.644zm12.438-2.032l-.524-.306-4.544 6.49.527.3 4.541-6.484zm4.554-44.669c-1.21 2.458-2.471 4.895-3.593 7.393-.224.498.08 1.232.139 1.856.7-.138 1.567-.064 2.066-.456 1.265-.999 2.366-2.205 3.532-3.328l.529.274c-.66 1.573-1.394 3.12-1.94 4.732-.179.527-.006 1.299.283 1.8.118.206 1.17.205 1.45-.064 2.086-2.004 4.086-4.098 6.112-6.165l-.861-.945-3.619 3.02.5-5.206-4.985 1.81 1.344-4.385-.957-.336m11.028 17.619l3.9-5.57c-1.35.186-3.21 1.011-4.13.407-.886-.584-.803-2.644-1.105-3.888l-3.806 5.435c1.289-.182 3.185-1.029 4.075-.415.886.613.765 2.688 1.066 4.03m7.963-1.158c-1.453 1.345-.704 2.543.702 3.71.773.643 1.025 1.913 1.512 2.9-1.185-.158-2.396-.22-3.546-.515-.603-.156-1.1-.724-1.644-1.105l-.549 1.233c1.943.643 4.72 2.433 5.687 1.73 4.35-3.159-1.283-4.306-1.89-6.536 1.74-1.721 1.74-1.721 5.863-.083-1.002-.702-1.923-1.724-3.032-2.007-.943-.24-2.412.035-3.103.673m8.7 4.316l-.377-.177-4.178 5.966 4.524-1.936-.46 5.486c1.629-2.576.647-6.402 4.7-7.415l-4.873.495.664-2.42m8.397 15.124c-.99-.937-1.419-1.382-1.888-1.779-.53-.448-1.182-.778-1.633-1.29-1.42-1.614-.365-2.731 2.149-2.62l-.011-2.79 5.476 1.096-4.699-3.29c-6.18 6.31-6.178 7.78.605 10.673m6.786-5.064l-2.214 7.99 6.545-4.708-.035-.543-3.927 1.424.156-4.11-.525-.053m-28.914-10.475l4.54-6.485-.537-.343-4.531 6.471.528.357zm-52.453 55.614c1.588-2.258-.758-2.859-1.884-4.035-.471-.493-.47-1.438-.682-2.177.7.068 1.497-.052 2.079.247 1.063.548 2 1.344 2.99 2.037.218-.355.438-.708.659-1.062-1.71-1.197-3.33-2.59-5.196-3.44-.42-.192-2.584 1.774-2.43 2.29.566 1.877 1.774 3.56 2.934 5.67-2.517 2.444-3.425-2.027-5.672-1.974-.068 3.053 2.535 3.595 4.443 4.398.567.24 2.118-1.044 2.759-1.954m18.392 8.779c-.903-.022-2.12.305-2.627-.153-.63-.57-.673-1.79-.97-2.728l3.14-.086.456 2.966zm-7.925 1.585a7080 7080 0 0 1 4.014-1.187c.24 1.47.478 2.94.69 4.245 1.144-1.158 2.85-2.493 3.972-4.209.478-.732.085-2.526-.544-3.36-.76-1.007-2.191-1.508-3.388-2.264l-4.744 6.775zm11.555.945l2.866-.653 1.111 2.997c-.99.063-2.153.465-2.916.079-.607-.308-.726-1.579-1.061-2.423m3.628 4.336c2.31-1.94 2.304-3.38-.206-5.124-.835-.578-1.735-1.062-2.732-1.666l-4.944 7.06 3.895-1.853 1.063 4.527c.8-.815 1.778-1.98 2.924-2.944m-.258 5.2l-.226 1.248c3.568-2.618 4.474-.488 5.107 3.014l3.115-9.031-1.042-.61c-2.318 1.793-4.637 3.586-6.954 5.38m-17.94-12.039l-2.925-4.163 2.585-1.294c.102-.91.21-1.876.32-2.842l5.926 1.803-5.504-3.854-4.995 7.134 4.592 3.216zm-1.93-11.664l-4.813 6.874.603.376 4.805-6.863-.594-.387m-5.293-20.924c-1.212 2.46-2.472 4.896-3.595 7.395-.223.497.08 1.231.14 1.856.7-.14 1.566-.064 2.066-.458 1.265-.997 2.365-2.205 3.532-3.327l.529.274c-.66 1.573-1.394 3.12-1.94 4.732-.178.528-.006 1.3.283 1.8.119.205 1.17.205 1.45-.064 2.086-2.004 4.086-4.098 6.112-6.165l-.862-.946-3.617 3.021c.171-1.796.335-3.502.499-5.206l-4.985 1.81 1.344-4.384-.956-.337m11.027 17.619l3.9-5.57c-1.35.186-3.21 1.011-4.13.407-.886-.584-.803-2.644-1.105-3.888l-3.806 5.436c1.289-.183 3.185-1.03 4.074-.416.887.613.766 2.688 1.067 4.03m7.963-1.158c-1.453 1.344-.704 2.543.702 3.71.773.643 1.025 1.913 1.512 2.9-1.186-.159-2.396-.22-3.546-.516-.603-.155-1.1-.723-1.644-1.104l-.549 1.233c1.944.642 4.72 2.433 5.687 1.73 4.35-3.16-1.282-4.307-1.889-6.535 1.74-1.722 1.74-1.722 5.862-.084-1.002-.702-1.923-1.724-3.032-2.007-.943-.24-2.412.035-3.103.673m8.7 4.316c-.125-.06-.252-.118-.378-.178l-4.178 5.967 4.525-1.936-.46 5.486c1.629-2.576.647-6.403 4.7-7.415l-4.873.495.664-2.42m8.396 15.124c-.99-.937-1.418-1.382-1.887-1.779-.53-.448-1.182-.778-1.633-1.292-1.42-1.612-.365-2.73 2.149-2.618l-.01-2.79 5.475 1.096-4.699-3.29c-6.18 6.31-6.178 7.78.605 10.673m6.786-5.063l-2.214 7.99 6.544-4.709c-.01-.181-.022-.362-.034-.543l-3.927 1.424.156-4.11-.525-.052m-28.913-10.477l4.54-6.484-.538-.343-4.53 6.471.528.357m664.449-1009.49l.704.493c-154.85 221.04-397.96 568.02-532.829 760.36a41.46 41.46 0 0 0 4.532-5.796l110.37-157.624 417.964-596.914.977-1.397-.036-.025-.704-.493-.978 1.396z" class="svg-logo-segment"/><g class="svg-accent-segment"><path d="M1869.718 1785.79l-3.105 4.427.142.258 40.552 73.231.144.257 3.104-4.429-.143-.258-40.551-73.228-.143-.258zm-767.66 1095.242c.11 0 .222-.007.332-.01a32.169 32.169 0 0 0 3.667-.303l98.348-13.989.36-.05 102.685-146.53-.217-.151-11.693-8.188-7.375 10.534-27.69-19.39 18.235-26.042-22.363-15.659-.217-.152c-47.037 67.152-95.198 135.918-144.694 206.605a4971.926 4971.926 0 0 1-9.378 13.325m757.575-1080.864l-3.991 5.69.142.26 40.557 73.237.142.258 3.99-5.694-.141-.258-40.556-73.235-.143-.258zm15.127-21.568l-2.661 3.796.142.258 40.55 73.227.143.258 2.66-3.797-.142-.257-40.549-73.226-.143-.258zm-10.084 14.379l-3.549 5.06.143.257 40.555 73.234.142.259 3.548-5.062-.143-.258-40.554-73.232-.142-.258zm-10.085 14.378c-55.247 78.768-110.92 158.153-167.506 238.85l.217.153 20.505 14.357-12.506 17.86 41.208 28.855.216.152 158.708-226.473-.142-.257-40.557-73.24-.143-.257zm30.254-43.134l-1.775 2.53.142.259 40.546 73.22.143.257 1.775-2.531-.143-.258-40.545-73.219-.143-.258zm3.853-5.033l40.544 73.217.143.257 1.331-1.899-.143-.258-40.543-73.215-.143-.258-1.332 1.899.143.258zm-8.896 12.222l-2.218 3.163.143.258 40.548 73.223.143.258 2.217-3.164-.143-.258-40.547-73.222-.143-.258z"/><g transform="rotate(-55 2129.28 -1968.045)"><mask id="h" fill="#fff"><use xlink:href="#g"/></mask><path d="M134.667.49A115.47 115.47 0 0 0 87.45 10.585L.071 49.735h197.556l34.103-19.564a38.165 38.165 0 0 1 18.987-5.058h602.297V.49H134.667z" mask="url(#h)"/></g></g><g><g class="svg-shaft-segment" transform="rotate(125 2088.867 1894.6)"><mask id="j" fill="#fff"><use xlink:href="#i"/></mask><path d="M4042.4 110.447c-.89-19.617-6.542-43.827-17.845-62.143-11.301-18.315-28.552-39.9-57.7-45.789-29.146-5.886-42.233.655-51.75 7.85-9.517 7.196-16.655 20.932-26.768 38.594-10.112 17.661-69 137.367-69 137.367s-42.234 71.955-53.536 89.617c-11.302 17.661-76.139 119.051-89.821 134.75-13.681 15.7-77.328 87-85.061 94.195-7.734 7.196-35.414 38.62-48.482 49.066-13.066 10.448-34.597 24.13-47.894 30.422-14.467 6.845-18.788 8.23-34.852 13.658-9.63 3.255-21.237 6.222-34.725 7.597-20.202 2.062-140.39 5.227-160.615 5.227-1180.353 0-2083.995-.283-3264.351.01v80.776h.352v.024l3160.674.312 165.658.016v-.024l37.601.004s132.684-.913 147.06-.666c11.59.2 58.577-2.09 84.949-9.77 20.512-5.969 44.45-17.457 64.22-34.05 45.203-37.93 120.752-113.82 160.607-161.57 39.854-47.753 89.823-104.01 120.157-146.527 20.012-28.05 38.43-56.69 53.829-86.44 12.417-23.992 24.654-49.202 32.73-71.22 5.76-15.703 9.611-28.527 12.196-43.295 1.765-10.1 2.73-20.022 2.368-27.99" mask="url(#j)"/></g><g class="svg-logo-segment"><path d="M2827.178 3008.979c-.523.747-.879 1.49-1.068 2.234l1.144.8a5.79 5.79 0 0 1 .953-2.172c1.145-1.635 2.536-1.88 4.171-.735 1.508 1.056 1.69 2.402.545 4.038a5.79 5.79 0 0 1-1.716 1.638l1.144.801c.634-.432 1.211-1.02 1.734-1.767 1.712-2.446 1.45-4.453-.79-6.02-2.366-1.657-4.405-1.262-6.117 1.183m-4.286 6.121c-1.368 1.954-1.144 3.566.673 4.838l4.135 2.896.884-1.263-4.135-2.895c-1.086-.76-1.24-1.697-.462-2.808.779-1.112 1.711-1.288 2.797-.527l4.135 2.895.884-1.262-4.135-2.895c-1.817-1.273-3.408-.932-4.776 1.021m-1.361 8.128l-.747 1.067c-.45.642-.928.784-1.436.428-.698-.488-.682-1.256.05-2.3.602-.861 1.27-1.544 2.002-2.049l-1.144-.8c-.7.526-1.351 1.22-1.954 2.082-1.32 1.885-1.267 3.33.162 4.33 1.27.89 2.425.592 3.463-.89l.747-1.068c.387-.552.835-.65 1.343-.294.667.467.6 1.271-.2 2.415a7.518 7.518 0 0 1-1.9 1.9l1.144.801a8.502 8.502 0 0 0 1.851-1.934c1.39-1.985 1.387-3.467-.01-4.445-1.27-.89-2.394-.637-3.37.757m-6.782 3.601l-.883 1.262 5.716 4.003-1.368 1.953 1.096.767 3.62-5.169-1.096-.767-1.368 1.953zm.784 11.148c-.96 1.372-2.22 1.512-3.779.42-1.586-1.11-1.897-2.35-.936-3.722.985-1.407 2.269-1.556 3.855-.446 1.558 1.092 1.846 2.34.86 3.748m-5.811-4.07c-1.572 2.246-1.21 4.173 1.085 5.78 2.31 1.617 4.25 1.303 5.822-.943 1.597-2.28 1.241-4.229-1.068-5.845-2.367-1.506-4.314-1.17-5.84 1.009m.784 9.082l-6.066-1.436-.753 1.076 3.45 5.17-4.745-3.322-.817 1.167 5.726 4.01 1.086.76.311-.444.573-.818-3.585-5.882 6.787 1.309.917-1.31-6.812-4.77-.817 1.167zm-7.765 5.247l-1.667 2.382 1 .7 1.668-2.381zm.34 7.444l1.086.76.884-1.262-1.086-.76-5.726-4.01-.884 1.263zm-9.295 1.088l5.883-.665.752 3.376.39 1.754 1.081-1.544-.4-1.74-.636-2.762-.819-.574-5.026.406zm4.509 5.748l1.086.76.883-1.262-1.086-.76-5.726-4.01-.884 1.262zm-9.176.816c-.523.747-.879 1.491-1.068 2.234l1.144.801a5.79 5.79 0 0 1 .953-2.172c1.145-1.636 2.535-1.88 4.17-.736 1.316.92 1.621 2.062.92 3.423-.104.2-.227.405-.374.615a6.223 6.223 0 0 1-.46.574c-.373.42-.79.778-1.256 1.064l.343.24.8.561c.634-.432 1.212-1.02 1.735-1.767.99-1.413 1.297-2.675.967-3.795-.24-.818-.811-1.563-1.757-2.225-2.366-1.657-4.405-1.262-6.117 1.183m2.654 8.497l1.086.76.884-1.262-1.086-.76-5.726-4.01-.884 1.263zm-9.295 1.088l5.884-.665.752 3.376.39 1.754 1.08-1.544-.4-1.74-.635-2.762-.82-.574-5.026.406zm.18 5.876l-2.151 3.073 1.13.79 2.14-3.058 1.716 1.201-2.255 3.22 1.086.76 3.132-4.472-1.086-.76-5.727-4.01-.867 1.238zm-7.58 7.024l1.895-2.705 4.63 3.242 1.086.76.884-1.263-1.086-.76-5.726-4.01-2.778 3.97zm-4.146 5.922l2.445-3.492 1.786 1.25-2.284 3.263 1.129.791 2.275-3.249 1.715 1.201-2.389 3.411 1.086.76 3.266-4.663-1.086-.76-5.726-4.01-3.313 4.73zm-2.613 1.4l1.169 3.622-3.805.142-1.117 1.595 5.281-.292 1.043 3.447.488 1.615 1.117-1.596-.51-1.582-.658-2.04 2.142-.08 1.662-.061 1.117-1.596-1.684.095-3.6.202-1.528-5.067zm-.993 13.553l-1.194 1.705c-.396.566-.876.65-1.441.255-.7-.49-.751-1.377-.157-2.665l-1.251-.607c-1.04 2.107-.866 3.647.522 4.619.317.222.625.373.923.454.906.248 1.725-.151 2.457-1.197l2.135-3.049-1.086-.76-5.726-4.01-.884 1.263 5.702 3.992zm-4.196 5.993l-1.21 1.73c-.397.565-.845.672-1.347.32-.73-.511-.776-1.442-.138-2.794l-.576-.403-4.42-.007-1.113 1.591 4.455-.096c-.218 1.462.084 2.48.907 3.056 1.216.851 2.31.582 3.284-.81l.268-.382 1.9-2.714-1.085-.76-5.717-4.003-.9 1.286 5.692 3.986zm-5.685 8.252c-.96 1.371-2.22 1.511-3.78.42-1.585-1.11-1.897-2.35-.936-3.723.985-1.407 2.27-1.556 3.855-.445 1.559 1.091 1.846 2.34.86 3.748m-5.81-4.07c-1.573 2.246-1.21 4.172 1.085 5.78 2.309 1.617 4.25 1.302 5.822-.943 1.597-2.28 1.24-4.23-1.069-5.846-2.367-1.505-4.313-1.17-5.839 1.01m-1.13 7.848l-2.151 3.072 1.13.791 2.14-3.058 1.715 1.2-2.255 3.22 1.086.761 3.132-4.473-6.812-4.77-.867 1.239zm-5.897 2.288l-.884 1.263 6.812 4.77.884-1.263zm-3.568 7.427l1.895-2.705 5.716 4.002.885-1.263-6.812-4.77-2.78 3.97zm-4.146 5.922l2.445-3.492 1.786 1.25-2.284 3.263 1.13.791 2.274-3.249 1.715 1.201-2.389 3.411 1.086.76 3.266-4.663-6.812-4.77-3.312 4.73zm86.661-139.993l-30.36 43.36 1.764 1.235 30.36-43.359zm-32.48 46.386l-30.36 43.36 1.764 1.235 30.36-43.359zm-32.353 46.204l-30.36 43.36 1.765 1.236 30.36-43.36zM3380.752 2231.084l-14.432-10.003 8.921-12.741 5.511 22.744zm-12.304-52.767l2.47 10.9-16.439 23.58-6.827-4.78-18.577 26.53 33.081 23.162-6.752 9.643c-4.55 6.498-6.624 13.855-5.319 18.871l3.31 12.73 48.71-69.563c2.375-3.554 3.248-7.024 2.96-9.56 0-.012-.02-.215-.09-.536-1.426-6.384-15.871-70.476-15.871-70.476l-20.656 29.5zm31.309-44.909c-2.954 4.224-4.345 9.001-3.594 12.343l3.638 16.163 22.192-31.668 1.887 8.426-22.147 31.628 3.357 14.93 23.248-33.201 1.95 8.35-23.275 33.239 4.904 21.634 42.15-60.19c3.015-4.306 4.4-9.183 3.56-12.528l-17.005-67.55-40.865 58.424zm50.073-64.335l4 16.076 24.724-35.566-16.294 64.131 4.433 23.316 47.643-68.336c2.92-4.182 4.311-8.91 3.609-12.253l-3.497-16.623-25.333 36.332 13.599-50.277c2.254-10.306 1.006-20.39.223-26.497l-1.9-10.605-47.658 67.853c-2.978 4.275-4.356 9.107-3.549 12.449m-135.592 186.677l-35.34 50.51 5.41 20.868 27.657-39.5 13.2 51.694 20.605-29.426-15.418-56.391c-1.686-6.236-10.42-5.893-16.114 2.245M3651.16 1800.675c-1.595-4.04 2.432-.848 2.862-1.665l-.602-4.71 5.607 3.294.5-.797-5.85-4.095-5.426 7.749 5.809 4.067.692-.844c-1.236-.984-3.09-1.725-3.593-2.999m18.502 3.435l-.493-.3-4.933 7.045.403.344 2.353-2.27c3.544.85 3.989 2.719 2.46 5.59l4.811-6.872c-2.348 2.72-4.233 2.254-6.185-.453l1.584-3.084m10.549 9.372c-.7 1.795-1.982 3.523-3.468 4.756-.448.371-2.308-.962-3.878-1.677l4.564-6.518c1.243 1.475 3.013 2.848 2.782 3.439m-6.436-.424c-1.47 1.877-2.694 3.555.205 5.56 3.095 2.144 4.474.583 5.647-1.754 1.647-2.18 3.425-3.926.08-6.24-3.676-2.544-4.441.53-5.932 2.434m-12.237-13.998c-1.934 1.878-3.464 4.394-4.358 6.95-.205.58 2.724 2.26 4.21 3.433l.638-.976-4.204-2.944 4.065-5.805 4.031 2.823.702-1.136c-1.758-.847-4.603-2.812-5.084-2.345m14.108-31.1c2.46-1.644 4.947-5.112 5.733-7.985.443-1.623-2.482-3.575-4.265-5.857l-7.982 11.4c2.42 1.004 5.17 3.34 6.514 2.443m7.555-4.098c.98-.147 2.343-.766 2.848-.324.666.586.66 2 .943 3.06l-3.43.703-.361-3.44m3.486 4.942c2.78-2.38 3.046-4.462.602-6.267-.92-.68-1.964-1.192-2.962-1.786l-6.344 9.06.375.31 4.137-4.287.496 6.63c.994-.995 2.272-2.44 3.696-3.66m22.547 17.102c.205-.057.405-.116.62-.17-.021-.223-.032-.434-.046-.649l-.37.472-.204.347"/><path d="M3703.706 1781.62c-1.751 2.443-3.83 4.572-.696 6.851 3.062 2.227 4.6.196 6.223-2.565-2.45.685-4.145 1.564-5.218 1.166-2.858-1.062-.573-3.32.587-5.04 1.204-1.782 2.642-4.482 4.566-2.253.74.857.472 2.768.638 5.308 1.845-2.344 3.498-4.46.37-6.654-3.41-2.393-4.685.695-6.47 3.187m-12.754-2.668l4.106-10.843-1.066-.422-9.02 8.037c5.08-1.601 5.615-1.186 5.98 3.228m8.325-6.98l-4.148 10.617.958.617 8.407-7.59-.448-.708-6.547 5.35 2.614-8.179-.836-.107M3623 1839.375c2.46-1.644 4.947-5.113 5.732-7.987.444-1.622-2.482-3.574-4.264-5.855l-7.983 11.4c2.42 1.003 5.171 3.34 6.514 2.442m7.555-4.098c.98-.147 2.344-.766 2.847-.324.667.586.662 2.001.945 3.06l-3.43.703-.362-3.439m3.488 4.94c2.778-2.379 3.045-4.46.601-6.265-.921-.681-1.965-1.193-2.962-1.787l-6.344 9.06.374.31 4.138-4.287.496 6.63c.994-.994 2.272-2.44 3.697-3.66m17.018 12.816c-1.75 2.444-3.83 4.572-.696 6.852 3.062 2.227 4.601.195 6.223-2.566-2.45.686-4.144 1.564-5.216 1.165-2.86-1.061-.575-3.32.586-5.038 1.203-1.782 2.641-4.483 4.565-2.253.74.857.472 2.767.64 5.307 1.844-2.344 3.496-4.46.369-6.654-3.41-2.394-4.686.696-6.47 3.187"/><path d="M3656.588 1857.32c.204-.057.404-.116.62-.17-.022-.223-.033-.434-.047-.649l-.37.473-.203.346m-18.281-6.953c1.37-3.615 2.737-7.23 4.106-10.844l-1.066-.422-9.021 8.037c5.081-1.6 5.616-1.185 5.981 3.229m8.325-6.981l-4.148 10.617.958.617 8.407-7.588c-.15-.237-.3-.473-.448-.71l-6.548 5.35 2.614-8.178-.835-.108m-36.222 9.397l-3.621 5.171-3.363-2.111 3.736-5.334 3.248 2.274zm-7.239.115c-.937 1.16-2.864 2.918.643 5.446 3.549 2.558 4.805.442 6.322-2.04.25-.409.516-.816.836-1.17 1.834-2.018 1.287-3.489-.84-4.948-3.228-2.215-3.527-2.202-6.961 2.712zm37.432 22.438l-3.272.145c-.191-1.243-.328-2.128-.463-3.014.896.019 2.096-.309 2.613.144.662.58.774 1.788 1.122 2.725m-2.904-5.474l-5.002 7.143c1.283-.535 2.47-1.03 3.657-1.527l1.188 4.565c.898-.907 2.148-2.158 3.383-3.425 1.578-1.617 2.16-3.183-.205-4.654-1-.623-1.94-1.346-3.02-2.102m-4.633-3.184l-.9-.67-7.04 5.63c3.742-1.28 4.408.968 5.141 3.592l2.799-8.552m-23.659-4.83c1.934.823 3.945 2.442 5.779 2.262 2.173-.213 1.87-2.94-.378-5.158-.583-.577-.641-1.685-.941-2.55.896-.015 1.876-.262 2.67.016.929.328 1.696 1.114 2.535 1.7.186-.29.374-.58.562-.87-1.553-.958-3.024-2.16-4.708-2.728-.516-.173-2.166 1.31-2.3 2.189-.14.915.944 2.003 1.453 3.036.462.937.868 1.901 1.3 2.853-1.104-.096-2.262-.017-3.29-.345-.778-.249-1.39-1.018-2.075-1.556l-.607 1.151m12.646-1.827c-1.967 1.665-3.483 4.151-4.363 6.61-.222.618 2.582 2.32 3.996 3.526-4.003-3.804-3.916-5.279 1.215-9.25l3.638 2.547.682-1.116c-1.783-.844-4.545-2.844-5.168-2.317m18.368-60.781l-5.616 8.02 4.611-1.517.158 5.264c1.689-1.745 3.33-3.359 4.874-5.06 1.386-1.526 1.341-2.99-.47-4.222-1.255-.853-2.488-1.737-3.557-2.486m18.43 18.915l-2.26 3.992c.133.072.266.146.398.22l4.999-7.14-.647-.716-6.764 4.335 1.761-7.868-.938-.355-4.833 6.903c.124.094.248.19.373.283l2.923-2.836-.913 6.221c2.457-1.265 3.83-1.971 5.9-3.039m-7.928-9.579c-.61 2.109-1.605 4.105-2.481 6.137l-1.43.13c-.843-1.114-2.612-2.578-2.349-3.27.666-1.755 2.138-3.277 3.563-4.594.238-.22 2.777 1.32 2.697 1.597m-5.765-.239c-1.606 2.24-3.507 4.022-.082 6.292 2.822 1.87 4.028.586 5.342-1.564 1.29-2.109 3.758-3.923.102-6.397-3.091-2.093-4.205-.231-5.362 1.67m26.298 23.083c-.216.172-2.614-1.7-2.502-1.945.856-1.88 1.87-3.815 3.33-5.215.405-.388 2.478.964 4.62 1.87-2.189 2.212-3.696 3.905-5.448 5.29m-1.55-6.407c-1.617 2.553-3.959 4.285-.477 6.663 2.666 1.82 4.05 1.08 5.353-1.325 1.124-2.07 4.074-3.79.338-6.42-2.973-2.093-4.239-.66-5.215 1.082m-9.598-1.613l3.594-1.521.15-2.774c1.792.41 3.584.818 5.377 1.226-1.582-1.263-4.265-3.307-5.092-2.723-1.999 1.41-3.673 3.897-4.342 6.27-.26.92 2.539 2.704 3.944 4.094l.593-.635-4.224-3.936m.634-46.744c4.837-.504 4.869-.481 6.054 4.22l3.142-9.871-1.188-.711-8.008 6.362m22.729 15.285l2.503-2.444 3.288 2.302-1.018 2.96.396.183 4.432-6.33c-2.11 1.838-4.008 2.525-6.045-.507l1.423-4.086-5.367 7.666.389.256m-3.523-10.587l4.214 1.08-.247 1.79c-1.128-.06-2.404.172-3.328-.293-.515-.26-.445-1.68-.639-2.577m1.448 4.329c.541.4 2.535-.236 3.022-.96.475-.708.248-2.43-.341-3.18-.883-1.12-2.352-1.776-3.634-2.674l-4.904 7.005c1.982-1.86 3.727-1.762 5.857-.191m9.526 11.183c3.613-.98 4.708.63 5.028 3.82l2.977-8.761-1.031-.691-6.974 5.632m-22.07-14.802l3.825 2.68.324-.426c-.818-.795-1.638-1.589-2.656-2.576l3.958-6.36-.54-.332-4.911 7.014zm24.833 22.831l-.824-.268-4.912 7.015.46.347 2.553-3.02c.002 2.226.005 3.772.008 5.319 1.535-.56 3.072-1.123 4.73-1.729l-1.614 3.561.293.023 5.029-7.181-.653-.652-6.876 4.76 1.806-8.175m-41.063-18.612c2.035-1.925 3.436-4.52 5.076-6.863l-1.075-.796-5.213 6.565c-1.175-.97-2.122-1.752-3.037-2.51l4.301-6.789-1.138-.734c-1.552 2.218-3.262 4.35-4.55 6.712-.332.608.376 2.378 1.1 2.84 1.376.875 3.974 2.106 4.536 1.575m2.696 1.821l3.555-4.416.117 9.267 5.593-7.987-.318-.297-3.98 4.43-.222-8.777-5.213 7.445.468.335m33.572 15.628l-.563.935c-.88-.124-2.037.049-2.568-.448-.653-.612-.785-1.782-1.141-2.71.791-.04 1.771-.387 2.33-.046.807.495 1.31 1.488 1.942 2.269zm-8.795 2.529l3.98-1.773 1.043 4.694c.939-.893 2.082-2.093 3.344-3.155 2.229-1.873 2.222-3.39-.205-5.13-.934-.672-1.971-1.202-3.093-1.877l-5.07 7.24zm.754-8.567c-.73 1.797-1.673 3.695-3.09 4.932-.547.478-2.532-.69-3.863-1.108l-.303-1.41c1.594-1.529 3.122-3.146 4.873-4.465.2-.15 2.518 1.717 2.383 2.05m-6.498.166c-1.905 2.06-1.906 3.701.677 5.504 3.2 2.234 4.18-.088 5.743-2.493 1.64-1.721 2.642-3.555-.514-5.712-3.829-2.618-4.343 1.011-5.906 2.7m-4.905-4.642c-.03-.404-.103-1.438-.177-2.472l5.667 1.183-5.067-3.547-5.144 7.346 4.72-2.51m-1.912-6.22l-4.925 7.033.571.398 4.924-7.033-.57-.398m-73.485 92.343c1.635-2.323-.78-2.942-1.938-4.153-.485-.506-.483-1.479-.703-2.24.721.07 1.542-.054 2.14.255 1.095.564 2.058 1.383 3.076 2.096l.679-1.093c-1.758-1.232-3.425-2.665-5.347-3.54-.431-.198-2.66 1.825-2.5 2.357.582 1.931 1.825 3.663 3.019 5.834-2.59 2.516-3.525-2.085-5.837-2.03-.07 3.141 2.609 3.7 4.573 4.525.583.246 2.18-1.074 2.838-2.01m18.926 9.032c-.928-.021-2.18.315-2.703-.156-.648-.587-.692-1.842-.997-2.808l3.232-.088.468 3.052zm-8.154 1.632l4.131-1.22.71 4.367c1.176-1.192 2.933-2.564 4.087-4.33.492-.753.088-2.6-.56-3.458-.783-1.037-2.256-1.553-3.486-2.33l-4.882 6.971zm11.89.973c.871-.2 1.742-.397 2.95-.672l1.143 3.085c-1.018.063-2.216.478-3 .08-.625-.316-.747-1.625-1.092-2.493m3.734 4.461c2.375-1.996 2.37-3.477-.213-5.272-.858-.596-1.785-1.093-2.812-1.715l-5.087 7.266 4.008-1.907 1.094 4.659c.824-.84 1.83-2.039 3.01-3.03m-.266 5.351l-.233 1.285c3.672-2.695 4.604-.503 5.255 3.101l3.206-9.293-1.072-.628c-2.386 1.844-4.77 3.69-7.156 5.535m-18.462-12.388l-3.01-4.284c.997-.5 1.995-.998 2.66-1.331l.329-2.924 6.1 1.855-5.665-3.966-5.14 7.34 4.726 3.31zm-1.985-12.003l-4.953 7.074.62.387 4.945-7.062-.612-.399zm33.968-19.565l-2.088 3.68.354.192 4.604-6.575-.547-.685-6.872 4.307 1.88-7.899-.908-.349-4.827 6.893.485.376 2.655-2.929-.682 6.22 5.946-3.231m.662 5.891c3.165-.753 4.503.67 4.872 4.48l3.135-9.456-.986-.575-7.021 5.55m-18.814-12.073l4.416 3.092.64-.69-2.828-2.987 4.258-6.752-.978-.53-5.508 7.867zm12.8-2.092l-.54-.314-4.676 6.678.543.31 4.673-6.674zm-34.063 6.309c-1.247 2.53-2.543 5.037-3.698 7.609-.23.511.081 1.266.142 1.91.72-.143 1.613-.067 2.127-.471 1.301-1.027 2.434-2.27 3.635-3.425l.544.283c-.68 1.618-1.434 3.211-1.996 4.87-.184.542-.006 1.336.29 1.851.123.213 1.204.211 1.491-.065 2.148-2.063 4.206-4.217 6.292-6.344l-.887-.973-3.723 3.108.513-5.358-5.13 1.863c.4-1.3.892-2.906 1.384-4.512l-.984-.346m11.347 18.131l4.014-5.733c-1.388.193-3.303 1.042-4.25.42-.913-.601-.826-2.722-1.137-4.001l-3.917 5.594c1.327-.189 3.278-1.06 4.193-.428.913.63.788 2.765 1.097 4.147m8.196-1.192c-1.496 1.383-.725 2.617.722 3.819.795.66 1.055 1.967 1.555 2.984-1.22-.164-2.465-.227-3.649-.531-.62-.16-1.13-.744-1.691-1.137l-.564 1.269c2 .662 4.857 2.504 5.85 1.782 4.478-3.252-1.319-4.433-1.944-6.727 1.792-1.771 1.792-1.771 6.034-.086-1.031-.722-1.98-1.774-3.12-2.066-.97-.247-2.483.037-3.193.693m8.952 4.442l-.388-.183-4.3 6.14 4.657-1.992-.474 5.645c1.676-2.65.666-6.588 4.837-7.63l-5.015.51.684-2.49m8.639 15.563c-1.017-.965-1.459-1.424-1.942-1.831-.546-.462-1.217-.802-1.68-1.329-1.461-1.66-.376-2.809 2.211-2.695l-.011-2.87 5.636 1.127-4.836-3.386c-6.36 6.493-6.357 8.007.623 10.984m6.983-5.212l-2.279 8.223 6.736-4.845-.036-.56-4.042 1.466.16-4.23-.54-.053m-29.753-10.781l4.672-6.673-.553-.353-4.664 6.66.545.366"/><g><path d="M4050.96 1204.013c.023-1.012-.16-2.027-.257-3.064-.254-.093-.52-.19-.837-.308-.215.318-.426.64-.632.964.827.68.98 1.823.427 3.258-.802-.591-1.406-.852-1.653-1.175-.181.323-.373.64-.572.953.227.156.458.312.68.48 1.133.856 2.244 1.744 3.403 2.563.427.302 1.2.322 1.403.695.538.991 1.171 1.64 2.342 1.8.335.046.635.553.894.89.224.294.314.698.562.96.228.242.611.522.883.484.295-.041.683-.389.77-.68.082-.279-.067-.826-.291-.962-.934-.566-.777-1.291-.465-2.272l1.557 1.09.189-.245c-.219-.206-.406-.469-.66-.607-.84-.46-1.713-.836-2.087-1.857-.074-.201-.697-.431-.874-.326-.568.342-.83.078-1.222-.282-.352-.324-.836-.53-1.291-.711-.472-.188-.984-.269-1.47-.424-.589-.189-.816-.541-.8-1.224m-3.619 5.498c.093-1.005.09-2.02.128-3.03a2.307 2.307 0 0 1-.597-.298c-.097.275-.2.55-.307.822a3.706 3.706 0 0 1-.263.544h.03l-.063 2.435c-.59-.35-.777-.664-.778-.956-.023.068-.043.137-.068.203a6.94 6.94 0 0 1-.653 1.278c1.858 1.398 3.642 2.741 5.43 4.08.187.14.395.288.616.347 1.038.275 2.011.547 2.244 1.864.041.235.793.517 1.173.465.325-.046.728-.5.829-.852.065-.228-.282-.708-.563-.875-.755-.451-.738-1.06-.546-1.893.753.347 1.451.668 2.15.988l.139-.248c-.244-.189-.462-.436-.737-.557-1.012-.445-2.21-.566-2.825-1.686-.054-.098-.276-.215-.34-.179-1.02.566-1.354-.293-1.867-.844-.182-.194-.5-.297-.775-.36-.53-.122-1.074-.189-1.612-.273-.561-.088-.801-.357-.745-.975m-4.036 4.47c-.1.697-.315 1.378-.494 2.12-.109-.113-.184-.181-.248-.257-.717-.851-1.096-1.392-1.106-1.893l-.13.112c-.1.347-.253.678-.46.974-.05.071-.104.137-.158.202.342.427.656.812.958 1.202.25.323.408.787.732.969 1.387.781 2.564 1.859 3.848 2.728 1.228.83 2.777 1.147 3.588 2.618.068.125.846-.142 1.295-.227-.086-.415-.076-1.135-.273-1.197-1.006-.318-.945-1.027-.845-1.95l2.162 1 .165-.265c-.283-.199-.547-.434-.852-.586-.752-.378-1.605-.608-2.267-1.1-.931-.69-1.705-1.591-2.597-2.341-.208-.176-.65-.044-.938-.164-.52-.215-1.382-.458-1.432-.79-.14-.92-.104-1.948.184-2.83.186-.573.153-.89-.177-1.084a12.55 12.55 0 0 1-.958 1.067c.245.543.083 1.136.003 1.692m-34.199 49.298c.646.85 1.118 1.832 1.67 2.754l-.072.282c-.818-.196-1.665-.316-2.446-.609-.827-.31-1.599-.772-2.383-1.19-.233-.125-.373-.265-.428-.427-.447.636-.89 1.276-1.331 1.917l.382.448c.42-1.012 1.09-1.008 1.85-.566.557.322 1.097.673 1.649 1.004.316.189.625.412.967.532 1.193.417 2.4.797 3.658 1.209-.342.937.126 1.54.8 1.645 1.236.194 1.85.805 2.15 1.98.072.28.766.643 1.06.561.343-.096.733-.616.784-.995.044-.332-.35-.725-.55-1.09l1.345-.888-1.474-.226.179-.18c-1.03-1.25-2.055-2.505-3.096-3.747-.063-.074-.251-.03-.37-.073-.486-.177-1.093-.24-1.432-.572-.992-.976-1.874-2.062-2.806-3.1-.437-.487-.887-.96-1.263-1.366-.365.501-.728 1.005-1.09 1.51.813-.528 1.365.027 2.247 1.187m4.679-8.008c1.057 1.29 2.038 2.642 3.159 4.107-2.777.616-4.535-.985-6.636-1.964-.387.508-.77 1.017-1.151 1.529l.053.022-.107.763c1.144-1.018 1.589-1.124 2.75-.51.6.317 1.13.763 1.716 1.111.421.252.861.551 1.327.632 1.604.28 3.153.573 4.046 2.185.14.251.559.47.862.487 1.217.071 2.31.202 2.683 1.682.06.236.735.458 1.105.427.25-.02.65-.495.647-.763-.003-.312-.31-.714-.6-.908-.563-.382-.915-.775-.642-1.583l2.311 1.1c.065-.092.13-.183.193-.276-2.124-1.27-4.821-1.826-5.772-4.222-.629-.182-1.225-.175-1.524-.47-1.552-1.53-3.034-3.129-4.524-4.72a1.18 1.18 0 0 1-.273-.422c-.374.459-.746.92-1.115 1.382.495-.244 1.02-.162 1.492.411m-28.799 37.362c.495-.487 1.065-.4 1.476.081 1.047 1.222 2.03 2.502 3.17 3.923-2.564.54-4.145-.966-6.132-1.894-.249.406-.494.815-.75 1.216-.16.251-.327.5-.501.745a.96.96 0 0 0 .043.077c.661-.216 1.211-.546 1.748-.526.502.02 1.046.336 1.474.652 1.005.738 2.043 1.266 3.312 1.489.792.138 1.499.772 2.233 1.203.086.05.124.224.14.345.102.848.66 1.283 1.521 1.24.73-.035 1.464-.013 2.03-.016.338.644.529 1.114.81 1.522.374.539.977.524 1.312.09.248-.322.291-1.282.205-1.31-1.024-.35-.921-1.301-1.233-2.035-.124-.293-.388-.57-.658-.75-1.033-.684-2.349-.991-2.924-2.273-.044-.1-.24-.12-.347-.202-.89-.664-1.811-1.291-2.652-2.013-.774-.663-1.415-1.483-2.195-2.139-.381-.32-.653-.57-.82-.785-.37.414-.747.822-1.134 1.223l-.128.137m37.549-50.097c.81 1.098 1.553 2.248 2.335 3.396-1.154.757-1.838.675-2.495-.158-.472-.6-1.168-1.017-1.677-1.591-.312.432-.626.865-.94 1.295.493-.01 1.001.195 1.468.63.3.28.642.556.828.906.392.742 1.017.882 1.77.994.93.137 1.833.451 2.834.711l-.93.818c.244.246.45.622.742.71.46.138.978.087 1.472.109.793.035 1.612-.157 1.96.978.16.525.82.897 1.351 1.438l.953-1.542c-.632-.74-1.981-.941-1.28-2.399l2.177.879.136-.321c-.323-.165-.632-.365-.97-.489-1.87-.683-3.84-1.2-4.91-3.138-.06-.106-.208-.163-.317-.24-.512-.366-1.086-.67-1.525-1.107-.96-.96-1.826-2.014-2.78-2.979a.904.904 0 0 1-.053-.056l-.563.8a1.1 1.1 0 0 1 .414.356m16.848-24.695c.167.798.255 1.61.37 2.418.084.577.165 1.154.291 2.039-.931-.772-1.807-1.48-2.652-2.225-.006-.006-.01-.016-.015-.025l-.644.932c.156.069.344.2.593.396 1.163.912 2.019 2.22 3.612 2.572.436.096.788.57 1.177.869.518.393.925.982 1.487 1.265.605.304 1.355.322 2.08.475-.016.299-.062.501-.033.694.144.983 1.312 1.594 2 1.057.646-.504.64-1.125-.078-1.807-.46-.438-.809-.835-.137-1.475l1.926 1.175.172-.245c-.226-.193-.437-.408-.68-.576-1.12-.772-2.215-1.582-3.38-2.274-.898-.534-1.856-1.006-2.844-1.334-1.107-.365-1.711-.944-1.896-2.149-.141-.935-.016-2.142-.554-2.731a2.015 2.015 0 0 1-.311-.427l-.724 1.04c.113.105.215.213.24.336m-6.297 8.443c.254.003.534.076.608.193.283.437.359 1.007.519 1.523l-.292.194c-.375-.262-.736-.545-1.126-.782a.89.89 0 0 1-.295-.273l-.767 1.119c.56-.215 1.074.087 1.87.86.097.095.233.175.284.293.548 1.27 1.753 1.727 2.846 2.326.416.227.827.462 1.24.694-.01.142-.023.284-.035.427l-2.504.329c.25.253.554.33.862.392 2.054.413 4.6-.302 5.636 2.49.073.196.706.36.977.262.315-.116.645-.51.72-.84.054-.23-.241-.687-.496-.817-.808-.41-1.12-.978-.917-2.004l2.078 1.143.18-.288c-.269-.188-.522-.403-.807-.558-1.29-.702-2.6-1.37-3.881-2.089-.541-.304-.98-.843-1.547-1.035-.95-.324-1.967-.456-2.813-.639-.118-.48-.21-.812-.277-1.146a9.484 9.484 0 0 1-.155-1.013c-.043-.507.106-1.125-.136-1.487-.144-.212-.69-.154-1.159-.168l-.613.894m-2.093 10.896c-1.47.615-2.705.172-4.33-1.54l-.951 1.377c.565-.216 1.106 0 1.842.656.895.798 1.868 1.208 3.033 1.508 1.012.261 2.197.577 2.75 1.781.16.35.803.835 1.005.748.93-.401 1.167-.112 1.369.795.094.424.719.845 1.194 1.02.238.088.954-.364.969-.602.026-.412-.236-.932-.54-1.253-.46-.488-.63-.909-.219-1.509l2.882 2.018c-1.202-1.137-2.5-2.144-3.789-3.16-.98-.772-1.94-1.57-2.93-2.33-.566-.435-1.24-.75-1.751-1.238-.857-.819-1.641-1.717-2.414-2.618a1.496 1.496 0 0 1-.234-.414l-.69 1.005c1.508.842 1.978 2.422 2.804 3.757m22.248-41.14l-.698.929c.686.547.786 1.21.417 2.526-.894-.331-1.402-.644-1.552-1.011-.227.306-.452.613-.675.922l5.395 4.508c.035.674.84.916 1.629 1.101 1.065.25 2.178.35 2.595 1.64.075.227.357.406.572.566.547.408.997.184 1.278-.326.28-.51.233-.954-.422-1.237-.319-.137-.777-.505-.768-.754.042-1.18-.64-1.803-1.508-2.379-.698-.464-1.338-1.02-2.03-1.494-.149-.1-.42-.007-.629-.039-.873-.13-1.839-.097-2.57-.494-.322-.174-.163-1.234-.222-1.891a.476.476 0 0 1-.002-.103c.07-.575.33-1.22.152-1.703-.12-.325-.562-.532-.962-.76"/></g></g><path d="M3179.256 2437.475l39.496 71.324 3.592-5.13-39.496-71.325-3.592 5.13zm-5.554 7.931l39.496 71.323c1.347-1.924 2.695-3.849 4.042-5.77l-39.497-71.324-4.041 5.77zm72.82 23.74l1.348-1.925-39.499-71.328-1.347 1.925zm-50.606-55.466l39.497 71.327 2.247-3.207-39.498-71.327-2.246 3.208zm-11.106 15.863l39.496 71.325 3.143-4.49-39.496-71.324-3.144 4.49zm16.66-23.793l39.498 71.326 1.796-2.566-39.497-71.327-1.797 2.566zm-11.107 15.862l39.497 71.325 2.695-3.848-39.498-71.325-2.694 3.848zm-767.379 1095.93l20.71 98.237c2.97-4.387 5.296-7.786 6.756-9.871a9966479.42 9966479.42 0 0 1 167.097-238.63l-2.174-1.497 14.852-21.212-11.964-8.378 62.68-89.517 14.132 9.895.024.017 29.837-42.613-.01-.033-3.245-11.078 45.51-64.995-6.3-4.412-31.874 45.52-12.72-8.907 7.18-10.253-18.16-12.716 21.47-32.058-8.627-5.64 14.659-20.935 12.18 8.529 18.484-26.398-6.429-4.502 10.332-14.755 8.042 5.631 17.93-25.606 9.61-13.725-9.5-6.652 19.037-27.188 13.451 9.418 16.723-23.882 13.805 9.667-9.504 13.573 6.82 4.776-9.666 13.804 8.192 5.617-4.912 7.015 7.164 5.016.01.007 29.838-42.612-.004-.01-3.252-11.102 55.006-78.556 7.405 5.185 68.983-98.5 199.572-284.968-39.496-71.323-749.654 1070.617zm1480.083-2072.76a38.655 38.655 0 0 1-15.232 12.816l-33.472 15.723-114.404 163.386 80.289-47.985a116.991 116.991 0 0 0 35.816-33.32l456.8-652.38-20.434-14.308-389.363 556.068z" class="svg-accent-segment"/></g></g></svg>