<?xml version="1.0" encoding="utf-8"?>
<!-- Generator: Adobe Illustrator 20.1.0, SVG Export Plug-In . SVG Version: 6.00 Build 0)  -->
<!DOCTYPE svg PUBLIC "-//W3C//DTD SVG 1.1//EN" "http://www.w3.org/Graphics/SVG/1.1/DTD/svg11.dtd">
<svg version="1.1" id="Layer_1" xmlns="http://www.w3.org/2000/svg" xmlns:xlink="http://www.w3.org/1999/xlink" x="0px" y="0px"
	 viewBox="0 0 583.7 714.2" style="enable-background:new 0 0 583.7 714.2;" xml:space="preserve">
<style type="text/css">
	.st0{fill:#F9D747;}
	.st1{fill:#818181;}
	.st2{fill:#333333;}
	.st3{fill:#676767;}
	.st4{fill:#C1A592;}
	.st5{fill:#1D4F90;}
	.st6{fill:#CCCCCC;}
	.st7{fill:#B4B4B4;}
	.st8{opacity:0.19;fill:#010101;}
	.st9{fill:#595A5A;}
	.st10{fill:#4E4E4E;}
	.st11{opacity:0.34;fill:#1A1A1A;}
	.st12{opacity:0.51;fill:#676767;}
	.st13{fill:none;stroke:#333333;stroke-width:3.3611;stroke-miterlimit:10;}
	.st14{opacity:0.16;fill:#010101;}
	.st15{opacity:0.2;fill:#010101;}
	.st16{opacity:0.39;fill:#010101;}
	.st17{opacity:0.1;}
	.st18{fill:#010101;}
	.st19{fill:none;stroke:#010101;stroke-width:0.8403;stroke-miterlimit:10;}
	.st20{fill:none;stroke:#010101;stroke-width:0.8403;stroke-miterlimit:10;stroke-dasharray:3.3057,3.3057;}
	.st21{opacity:9.000000e-02;fill:none;stroke:#010101;stroke-width:0.8403;stroke-miterlimit:10;stroke-dasharray:3.3611;}
	.st22{fill:#112F4F;}
	.st23{opacity:0.47;fill:#FFFFFF;}
</style>
<g>
	<path class="st0" d="M116.9,685.3C69.4,516.1,41.3,340.8,33.5,164h12.8l-23.5-20L0,164h13.3c7.9,178.6,36.2,355.8,84.2,526.7
		L116.9,685.3z"/>
	<g>
		<path class="st1" d="M9.9,454.2c5.8-0.3,10.3,0.3,22.2,0c11.8-0.3,24.6-3.3,37.6-7.6c3.1-1,6.6-2.4,10.2-3.9l-1,12.1
			c-37.5,13.6-63.9,10-69,8.8c-5.2-1.2-5.5-4.2-5.5-5.5C4.4,457,4.1,454.5,9.9,454.2z"/>
		<path class="st2" d="M100.6,432.8c1.6-0.8,3.1-1.9,4.5-3.2c2.2-2.1,6.2-5.9,11.4-10.9c69.5-67.7,141.5-131.4,141.5-131.4l8.2,4.9
			c0,0-154.2,141.2-157.5,144.2c-3.3,3-13.4,12.7-28.8,18.2c-0.3,0.1-0.5,0.2-0.8,0.3l1-12.1C88.1,439.2,96.5,434.9,100.6,432.8z"/>
	</g>
	<polygon class="st3" points="70.6,449.8 71.4,457.4 71,457.5 	"/>
	<polygon class="st3" points="59.9,449.8 60.5,452.8 60.5,449.4 	"/>
	<polygon class="st3" points="52.4,451.5 52.8,462.1 51.8,451.6 	"/>
	<polygon class="st3" points="41,453.6 41.8,462.1 41.4,453.5 	"/>
	<polygon class="st3" points="31,464.9 30.7,454.3 31.4,464.8 	"/>
	<polygon class="st3" points="9.9,454.2 10.6,457.8 10.6,454.2 	"/>
	<path class="st4" d="M311.6,134c0,0,2.1-9.4-6.4-22.8c-8.5-13.4,6.6-12.7,6.6-12.7L346.2,86h8.5c0,0,7.3,9.7,14,10.3
		c6.7,0.6,8.5,10.9,8.5,10.9L339.9,134l-25,10L311.6,134z"/>
	<path class="st5" d="M255.7,272.6c0,0-3.6,2.7-6.1,3.9c-2.4,1.2-4.7-0.3-5.5,0.9s-10.5,6.4-10,17.2c0.5,10.8,7.4,12.7,7.4,12.7
		l0.6,1.1c0,0-0.6,3.6-0.3,5.3c0.3,1.7,1.5,2.7,3,3.9c1.5,1.2,2.9,2.6,4.3,3.3s6.8,5.5,8.7,5.8c1.8,0.3,3,2.6,5.5,2.6
		c2.4,0,9.7,0.9,13.5-0.8c3.8-1.7,0-3.2,0-3.2L255.7,272.6z"/>
	<path class="st6" d="M296.7,661.8c0,0-1.7,2.2,1,5.6c2.7,3.4,49.2,41,54.8,44.3c5.6,3.3,14.1,4.4,13.3-3.8
		c-5.6-0.1-12.1-1.9-16.3-5.2c-4.2-3.3-49.4-38-49.4-38l-2.6-4.3L296.7,661.8z"/>
	<path class="st6" d="M357.5,450.4c0,0-7.7,8.7-10,11.8c-2.3,3.2-2.5,5.2-2.5,10s-0.9,5-1.8,8.9c-0.9,3.9-0.9,43.3-1.8,54.9
		c-0.9,11.6,2.5,56,1.6,64.4c-0.9,8.4-4.6,14.1-1.7,17.5c2.9,3.4-1.7,7.5,5.6,9.1c7.3,1.6,18.2,2.7,21.6,2.5s16.2-11.8,18.9-18.2
		c2.7-6.4,1.8-12.7,4.6-19.1c2.7-6.4,10-38.7,10.7-54.9c0.7-16.2,2.7-17.3,2.7-20.7s-1.6-10.2-3.4-13.4c-1.8-3.2-0.5-1.6,0.9-5.7
		c1.4-4.1,3.4-6.6,4.8-10.5c1.4-3.9,2.7-16.8,2.7-16.8l-1.1-18.7L357.5,450.4z"/>
	<path class="st7" d="M297.7,650.2c0,0-0.8,3,0,4.4c-0.9,2.4-2.3,5.5-1,7.4c1.3,1.9,30.2,24.7,30.2,24.7s25.3,18.4,28.9,19.9
		c3.6,1.5,10.9,2.8,12.4,1.4c0.2-4,0-23.9,0-23.9s1.3-0.3,1.5-1.3s-6.7-0.7-12.9-2.5c-6.1-1.8-15.1-8.7-15.1-8.7l5.7,17
		c0,0,2.2,7.3-4.2,3c-6.4-4.3-24.7-18.6-24.7-18.6s-2.4-2.4,0.9-4.3c3.3-1.9,6.9-4.3,6.9-4.3s-4.1-0.9-8.1-1.8
		c-4-0.9-17.5-12.4-17.5-12.4H297.7z"/>
	<polygon class="st8" points="297.2,656.2 301.5,661.2 309.1,666.6 317.7,670.5 322.7,665.8 304.7,652.3 299.8,649 298.1,649.6 
		297.4,653.2 298.2,654.6 	"/>
	<polygon class="st8" points="344.5,680.3 353.4,684.6 362.3,687.2 368.2,687.2 368.2,680.8 343.1,671.9 342,673.1 	"/>
	<path class="st9" d="M341.1,582.4c0,0-13-5.7-8.2,10.9c4.8,16.6,8.2,23.2,8.2,23.2s-3.6-9.6-9.1-6.1c-5.5,3.4-4.8-1.6-6.8-1.8
		c-2-0.2-4.8,0.2-4.8,0.2l-4.8-3l-1.8,2c0,0,5,4.8,8.2,4.8c3.2,0,3,3,5.5,3s5.2,1.1,4.8,3.2c-0.5,2,1.6,4.3,2.7,4.1
		c1.1-0.2,0.9,0,1.6,2.7c0.7,2.7-0.9,5.9-0.9,5.9s-3.2,5.2-13.9,3c-10.7-2.3-19.8-3.9-24.6,7.1c-4.8,10.9,10.9,20.5,10.9,20.5
		s9.3,7.7,19.4,7.7c10,0,29.6,11.6,29.6,11.6s20.3,8.4,20.7-7.7c0.5-16.2,1.1-35.3,1.4-38.5c0.2-3.2-1.4-8,3.2-13.9
		c4.6-5.9,7.5-16.4,5.5-18.9c-2-2.5-5.2,1.4-9.1,1.6s-8.9-2-11.6,0.7c-2.7,2.7,1.6,11.4,2,14.6s1.8,8.9,0.2,8.9s-19.6-0.9-23-3.4
		c-3.4-2.5-2.7-3.6-2.7-8.2S341.1,582.4,341.1,582.4z"/>
	<path class="st5" d="M356.5,358.7c0,0-6.4,5.2-8,9.1c-1.6,3.9-1.6,15.9-1.6,15.9l1.1,46c0,0-0.2,9.8,2.5,14.8
		c2.7,5,5.7,16.4,9.3,19.4c3.6,3,4.6,8,7.7,9.3c3.2,1.4,23.9,9.6,37.6,4.8c10.9-4.1,10.5-4.8,12.7-9.1c2.3-4.3,0.5-3.4,3.6-9.3
		c3.2-5.9,4.6-5.9,4.8-9.6s5.5-4.8,5.7-5.7c0.2-0.9-0.7-4.8,1.6-8.9c2.3-4.1,8.9-11.2,9.8-17.3c8.4-2,9.1-5.9,15.3-8
		c6.1-2,17.5-0.9,41-14.1s42.6-49.9,43.7-57.6c1.1-7.7,5.5-29.8-2.3-38.5s-13.2-4.3-13.2-4.3l-2.5,18l-30.3,24.1L456,357.5
		l-62.8,16.6l-27.5-18.7L356.5,358.7z"/>
	<path class="st6" d="M329.3,275.2c0,0,0.3,3.3,0.9,4.9s8,16.8,10.6,26.6c2.6,9.7,1.7,20.5,0.8,24.1c-0.9,3.6,0.9,7-0.9,8
		c-1.8,1.1-3,5.6-2.1,11.4s3,7.9,5.2,11.1c2.1,3.2,0.3,8.8,1.4,11.8s4.9,5,4.9,5s16.4,13.7,48.3,7.1c31.9-6.5,41.4-9.1,58-12.6
		c16.5-3.5,48.9-19.6,63.6-33.4c14.7-13.8,13.2-34.5,13.5-39.2c0.3-4.7,0.5-25.8-18.4-33.4c-1.5-0.8-3-3.9-3.6-6.4
		c-0.6-2.4-5.2-7.7-6.7-9.1s-4.1-7.6-4.7-9.1c-0.6-1.5-7.7-13.1-10.9-15.2c-3.2-2.1-4.7-5.9-5.2-10.3c-0.5-4.4-3.3-17.9-3.8-21.6
		c-0.5-3.6-1.2-11.7,0.3-16.2c1.5-4.6,2.7-16.5,3.2-19.9c0.5-3.3,4.7-7.6,7.4-9c2.7-1.4,5.5-3,11.8-2.7c6.4,0.3,8.7,5.5,17.6,4.6
		c2.4,3.6,4.9,6.2,9.7,5.9s6.1,0,10.3,1.1c4.2,1.1,9.7,2.1,14-0.2s15.5-6.8,18.8-12.6c5.5-2.6,8.5-7,9.3-12.4
		c0.8-5.5,2-8.5,0.6-11.8c-1.4-3.3-6.5-11.4-6.1-17.2c0.5-5.8-9.6-20.5-27.6-19.3c-1.7,0.2-2.3-0.2-3.5-2.1
		c-1.2-2-10.3-14.6-11.8-17.3s-7.3-9.7-9.6-10.6c-2.3-0.9-10.5-1.5-14.4-1.5c-3.9,0-3.9-1.8-9.3-2.6s-14.9-3.9-20.3-2
		c-5.5,2-11.5,0.5-17.6,1.7s-22.6,2.6-33.1,2.4c-10.5-0.2-15.9-1.7-25.3,3.3S373.2,79.8,369.7,83s-4.2,5.5-4.6,9.4
		c-0.3,3.9-0.2,9.4-3,12.7c-2.9,3.3-7.6,9-17.2,12s-18.8,7.4-23.2,9.7c-4.4,2.3-5.9,1.4-5.9,1.4s-8.3,1.5-12,1.4
		c-3.6-0.2-3.3,0.3-6.2,2.6c-2.9,2.3-9.3,10.6-11.2,12.9s-5,3.6-7.7,5.8c-2.7,2.1-27.6,19.9-28.8,37.3s6.2,80.4,6.5,83.8
		c-0.3,1.7-0.6,0.5-1.7,2.4c-1.1,2,8,45.8,8,45.8c1.1,2.1,1.5,2.6,3,3.3s7.1,2.6,9.9,3.3c2.7,0.8,5.8,1.8,5.8,1.8s0.9,3.5,5.8,3.5
		s7.7,0.6,10.5,1.8c2.7,1.2,10.8,2.1,15.3-0.2s7.6-3.5,9.6-5.6c2-2.1,1.1-1.2,3.2-6.2c2.1-5,7-15.2,6.1-22.3s-5.4-19.7-5.6-22.7
		C326.1,274,328.2,272.7,329.3,275.2z"/>
	<circle class="st10" cx="45.4" cy="403.1" r="13.1"/>
	<circle class="st2" cx="45.4" cy="400" r="13.1"/>
	<path class="st5" d="M259.5,54c0,3,1.1,7.1,2.7,9.1c1.6,2,2.7,4.1,2.7,5.9c0,1.8,0.2,3.9,0.7,6.1c0.5,2.3-0.7,3.4,0.9,5
		c1.6,1.6,3.6,1.4,4.1,3.4c0.5,2-0.2,4.1,0.5,5.5c0.7,1.4,6.4,1.8,6.8,2.7s5.9,6.6,7.1,7.5c-0.7,1.4-1.1,1.1-3.2,1.4
		c-2,0.2-1.1,3-1.1,3s2.3,5.7,5.5,6.8c3.2,1.1,3.2,1.1,5,3.2c1.8,2,3.9,3.6,7.5,5s11.6,0,12.7-1.4c1.1-1.4,7.3-3.2,7.3-3.2
		s8,2,12.3-0.7c4.3-2.7,29.6-17.8,31.2-22.5c1.6-4.8,2.5-21.4,1.6-28.7s-3.9-12.3-4.6-15.7s-0.5-7.3-0.5-7.3s2-0.5,1.4-3.4
		c-0.7-3-9.6-16.2-11.2-17.3c-1.6-1.1-1.6,0.7-3.6-1.8S336.2,5.3,328,2.3s-13.9-2.5-19.4-1.8c-5.5,0.7-16.4,5.2-16.4,5.2
		s-2-0.9-2.7,0.2s-2.7,2.7-4.3,3.9s-6.4,4.6-11.4,8.4S261.3,26,261.1,41C259.5,44,259.5,51,259.5,54z M292.5,106.4
		c1.4-1.1,4.1,1.1,4.1,1.1s2,0.5,2.9,0.7c0.8,0.2,2.1,0.9,3,2.7c0.9,1.8,2-0.2,2.5-1.6c0.5-1.4,3.6,3.4,3.6,3.4s-7.5,3.2-9.3,3
		c-1.8-0.2-4.8-1.8-5.9-2.5s-0.9-2.3-2.5-3.6C289.3,108.2,291.2,107.5,292.5,106.4z"/>
	<path class="st11" d="M286.1,17.1c0,0,18.7,7.7,39.6,50.5C316.4,40.3,307.1,24.8,286.1,17.1z"/>
	<path class="st12" d="M316,1.6c0,0,24.8-3.6,33.7,48.3C336,17.1,333.3,10.6,316,1.6z"/>
	<path class="st13" d="M92.7,688"/>
	<polygon class="st14" points="408.2,485.5 400,491 374.8,485.5 363.2,481.5 374.5,488 395.1,493.2 404.3,493.9 	"/>
	<polygon class="st14" points="403.3,496.1 396.5,497.2 391,496.2 396.7,499.9 401,501 	"/>
	<polygon class="st14" points="405.2,515.4 389,503.8 376.8,500.1 386,500.1 395.2,502.2 404.1,508.7 	"/>
	<path class="st15" d="M491.9,358.3l18.7,29.8l-13.4,9.3l-15.4,7l-23,5.7L443,418c0,0,3.7-10.7-3.9-41.6
		C451.6,373.9,478.2,366.5,491.9,358.3z"/>
	<path class="st16" d="M431.2,419.7c-1,0.1-24.9,2.1-36.6-6.1c-11.7-8.2-14.8-9.3-14.8-9.3l7.9,6.8l-8.8-1.8l5.7,4.8l8.2,2.9
		l12.8,2.4l12.3,1.7L431.2,419.7z"/>
	<g class="st17">
		<polygon class="st18" points="511.2,264.3 519.9,287.6 515.6,299.5 505.6,305.1 521.1,302.5 527.9,289.9 524.1,272.7 		"/>
		<polygon class="st18" points="337.9,334.6 337.9,344.4 340.6,351 350.7,347.7 361.1,340.3 391.2,328.1 363.2,335.5 352.2,339.5 
			344.2,343.3 342.7,337.3 		"/>
		<polygon class="st18" points="333.4,280.7 341.5,289.9 365.6,289.9 375.1,291.4 364.6,284.7 343.9,283.1 329.3,272.7 		"/>
		<polygon class="st18" points="491.6,143.7 464.8,140.7 440.4,143.7 467,144.9 480,153.5 		"/>
		<polygon class="st18" points="551.5,85.9 564,97.5 561.3,88.3 		"/>
		<polygon class="st18" points="546.4,85.9 554.1,97.5 552.9,109.8 559.8,99.9 555.3,91.7 		"/>
		<polygon class="st18" points="319.7,264.3 306.3,272.7 292.6,264.3 273.3,216.7 288.2,267.3 298.6,278.6 310.2,283.4 326.3,274.5 
			326.3,268.8 		"/>
		<polygon class="st18" points="282.2,276.5 297.4,297.1 314.1,297.1 323.6,284.7 316.8,303 296.2,303 		"/>
		<polygon class="st18" points="288.5,323.3 270.3,298 262.9,272.7 275.7,298 294.4,323.3 		"/>
		<polygon class="st18" points="475.2,194 476.4,230.1 470.1,241.1 456.7,265.2 449.3,272.7 462.9,268.5 476.4,247.6 483.6,234.3 
			484.7,223.2 482.4,221.1 		"/>
		<polygon class="st18" points="471.6,210.1 467,232.2 452.6,253.6 463.9,229.5 471.6,199.1 		"/>
		<polygon class="st18" points="455,222.6 440.7,244.7 413,272.7 404.3,289.9 419.5,271.2 444.2,245.9 		"/>
	</g>
	<g class="st17">
		<g>
			<line class="st19" x1="370.4" y1="475.9" x2="369.6" y2="477.4"/>
			<polyline class="st20" points="368,480.3 366.8,482.7 368.2,502.2 370.4,549.3 368.6,594.7 368.4,597.2 			"/>
			<line class="st19" x1="368.3" y1="598.9" x2="368.2" y2="600.5"/>
		</g>
	</g>
	<polyline class="st21" points="345.8,369.7 352.2,376.9 372.3,383.4 391.2,383.4 472.9,363.2 517.8,336.8 529.4,321 532.3,314.2 	
		"/>
	<polyline class="st21" points="368.6,388.2 368.6,419.1 366.8,435.3 366.8,465 	"/>
	<path class="st8" d="M317.4,649.1v6l3,5.3l35.3-2.9l-4.1-8.4l-4.8-9.5l-1.2-4.4l2.7-7.8l13.5,1.5l4.6,2.3l5.7,10.2l1.1,9.5l5.9,6
		l-0.5,10.1l-1.8,7.9h-9.5c0,0-4.8-2.2-5.4-3s-3.7-3.8-4.2-3.8c-0.5,0-7.6,0-7.6,0l-9.5,1.4l-11.4,0.7l-8-2l-8.2-6.9l-1.2-11.6
		l1.2-4.4L317.4,649.1z"/>
	<polygon class="st8" points="372.3,606.1 372.3,612.1 377,624.2 382.9,617.8 385.8,610.2 382.5,607.7 373.1,606.1 	"/>
	<path class="st22" d="M255.4,282c0,0-4,4.4-4.9,6.7c-0.8,2.4-2.4,12.3-2.4,12.3l1.6,6.8l3.5,6.8l10.9,6.9L255.4,282z"/>
	<path class="st23" d="M245.3,287.5c0,0-2.2,7.9-2.8,12.8c-0.6,4.9,1.8,13.2,2.8,15.4c1,2.2,7.3,9.1,9.5,10.5c2.2,1.4,9.3,2,9.3,2
		s-8-1.8-10.9-5.1c-2.9-3.2-7.1-7.5-8.1-11.9S242.7,306.3,245.3,287.5z"/>
	<polyline class="st21" points="299.8,130.4 304.8,131.3 311.8,131.3 318.5,131.3 330.9,125.6 349.6,120.2 366,107.8 371.9,97.5 
		371.9,88.9 371.9,83 	"/>
</g>
</svg>
