<?xml version="1.0" encoding="utf-8"?>
<!-- Generator: Adobe Illustrator 20.1.0, SVG Export Plug-In . SVG Version: 6.00 Build 0)  -->
<!DOCTYPE svg PUBLIC "-//W3C//DTD SVG 1.1//EN" "http://www.w3.org/Graphics/SVG/1.1/DTD/svg11.dtd">
<svg version="1.1" id="Layer_1" xmlns="http://www.w3.org/2000/svg" xmlns:xlink="http://www.w3.org/1999/xlink" x="0px" y="0px"
	 viewBox="0 0 587.4 718.6" style="enable-background:new 0 0 587.4 718.6;" xml:space="preserve">
<style type="text/css">
	.st0{fill:#F9D747;}
	.st1{fill:#818181;}
	.st2{fill:#333333;}
	.st3{fill:#676767;}
	.st4{fill:#C1A592;}
	.st5{fill:#1D4F90;}
	.st6{fill:#CCCCCC;}
	.st7{fill:#B4B4B4;}
	.st8{opacity:0.19;fill:#010101;}
	.st9{fill:#595A5A;}
	.st10{fill:#4E4E4E;}
	.st11{opacity:0.34;fill:#1A1A1A;}
	.st12{opacity:0.28;fill:#676767;}
	.st13{fill:none;stroke:#333333;stroke-width:3.3822;stroke-miterlimit:10;}
	.st14{opacity:0.16;fill:#010101;}
	.st15{opacity:0.2;fill:#010101;}
	.st16{opacity:0.39;fill:#010101;}
	.st17{opacity:0.1;}
	.st18{fill:#010101;}
	.st19{fill:none;stroke:#010101;stroke-width:0.8455;stroke-miterlimit:10;}
	.st20{fill:none;stroke:#010101;stroke-width:0.8455;stroke-miterlimit:10;stroke-dasharray:3.3264,3.3264;}
	.st21{opacity:9.000000e-02;fill:none;stroke:#010101;stroke-width:0.8455;stroke-miterlimit:10;stroke-dasharray:3.3822;}
	.st22{fill:#112F4F;}
	.st23{opacity:0.47;fill:#FFFFFF;}
</style>
<g>
	<path class="st0" d="M587.4,165l-22.8-20.1L540.9,165h12.8c-7.9,177.9-36.1,354.3-84,524.6l19.5,5.5c48.3-172,76.8-350.3,84.7-530
		H587.4z"/>
	<g>
		<path class="st1" d="M577.4,457.1c-5.8-0.3-10.4,0.3-22.3,0s-24.7-3.4-37.9-7.6c-3.1-1-6.7-2.4-10.3-4l1,12.2
			c37.7,13.7,64.3,10.1,69.4,8.9c5.2-1.2,5.5-4.3,5.5-5.5C582.9,459.8,583.3,457.4,577.4,457.1z"/>
		<path class="st2" d="M486.2,435.5c-1.6-0.9-3.1-1.9-4.5-3.2c-2.2-2.1-6.2-5.9-11.4-10.9c-69.9-68.1-142.3-132.3-142.3-132.3
			l-8.2,4.9c0,0,155.2,142,158.5,145.1c3.4,3.1,13.4,12.8,29,18.3c0.3,0.1,0.5,0.2,0.8,0.3l-1-12.2
			C498.7,441.9,490.2,437.6,486.2,435.5z"/>
	</g>
	<polygon class="st3" points="516.3,452.6 515.5,460.2 515.9,460.4 	"/>
	<polygon class="st3" points="527.1,452.6 526.5,455.6 526.5,452.2 	"/>
	<polygon class="st3" points="534.6,454.3 534.2,465 535.3,454.4 	"/>
	<polygon class="st3" points="546.1,456.5 545.4,465 545.7,456.3 	"/>
	<polygon class="st3" points="556.2,467.8 556.5,457.1 555.7,467.7 	"/>
	<polygon class="st3" points="577.4,457.1 576.7,460.7 576.7,457.1 	"/>
	<path class="st4" d="M273.8,134.8c0,0-2.1-9.5,6.4-22.9c8.6-13.4-6.7-12.8-6.7-12.8L239,86.6h-8.6c0,0-7.3,9.8-14.1,10.4
		s-8.6,11-8.6,11l37.5,26.9l25.1,10.1L273.8,134.8z"/>
	<path class="st5" d="M330,274.3c0,0,3.7,2.7,6.1,4c2.4,1.2,4.7-0.3,5.5,0.9c0.8,1.2,10.5,6.4,10.1,17.3
		c-0.5,10.8-7.5,12.8-7.5,12.8l-0.6,1.1c0,0,0.6,3.7,0.3,5.3c-0.3,1.7-1.5,2.7-3,4c-1.5,1.2-2.9,2.6-4.3,3.4
		c-1.4,0.8-6.9,5.5-8.7,5.8s-3.1,2.6-5.5,2.6s-9.8,0.9-13.6-0.8c-3.8-1.7,0-3.2,0-3.2L330,274.3z"/>
	<path class="st6" d="M288.8,666c0,0,1.7,2.2-1,5.6s-49.5,41.2-55.1,44.6s-14.2,4.5-13.4-3.8c5.6-0.1,12.1-1.9,16.4-5.3
		s49.7-38.3,49.7-38.3l2.6-4.4L288.8,666z"/>
	<path class="st6" d="M227.6,453.2c0,0,7.8,8.7,10.1,11.9c2.3,3.2,2.5,5.3,2.5,10.1c0,4.8,0.9,5,1.8,8.9c0.9,3.9,0.9,43.5,1.8,55.2
		c0.9,11.7-2.5,56.4-1.6,64.8c0.9,8.5,4.7,14.2,1.8,17.6c-2.9,3.4,1.7,7.6-5.7,9.2c-7.3,1.6-18.3,2.7-21.8,2.5s-16.3-11.9-19-18.3
		c-2.7-6.4-1.8-12.8-4.6-19.2c-2.7-6.4-10.1-38.9-10.8-55.2c-0.7-16.3-2.7-17.4-2.7-20.8c0-3.4,1.6-10.3,3.4-13.5
		c1.8-3.2,0.5-1.6-0.9-5.7s-3.4-6.6-4.8-10.5s-2.7-17-2.7-17l1.1-18.8L227.6,453.2z"/>
	<path class="st7" d="M287.8,654.3c0,0,0.8,3,0,4.5c0.9,2.4,2.3,5.5,1,7.4S258.4,691,258.4,691s-25.4,18.6-29.1,20
		c-3.7,1.5-11,2.9-12.5,1.4c-0.2-4,0-24.1,0-24.1s-1.3-0.3-1.5-1.3c-0.2-0.9,6.8-0.7,12.9-2.5s15.2-8.7,15.2-8.7l-5.7,17.1
		c0,0-2.2,7.3,4.2,3s24.9-18.7,24.9-18.7s2.4-2.4-0.9-4.4s-7-4.4-7-4.4s4.1-0.9,8.1-1.8c4-0.9,17.6-12.5,17.6-12.5H287.8z"/>
	<polygon class="st8" points="288.4,660.3 284,665.3 276.3,670.8 267.6,674.7 262.6,669.9 280.8,656.4 285.7,653 287.4,653.6 
		288.1,657.3 287.3,658.7 	"/>
	<polygon class="st8" points="240.7,684.5 231.7,688.9 222.8,691.6 216.8,691.6 216.8,685 242.1,676.1 243.2,677.3 	"/>
	<path class="st9" d="M244.1,586c0,0,13.1-5.7,8.2,11c-4.8,16.7-8.2,23.4-8.2,23.4s3.7-9.6,9.2-6.2c5.5,3.4,4.8-1.6,6.9-1.8
		c2.1-0.2,4.8,0.2,4.8,0.2l4.8-3l1.8,2.1c0,0-5,4.8-8.2,4.8c-3.2,0-3,3-5.5,3s-5.3,1.1-4.8,3.2c0.5,2.1-1.6,4.4-2.7,4.1
		c-1.1-0.2-0.9,0-1.6,2.7s0.9,6,0.9,6s3.2,5.3,14,3c10.8-2.3,19.9-3.9,24.7,7.1c4.8,11-11,20.6-11,20.6s-9.4,7.8-19.5,7.8
		c-10.1,0-29.8,11.7-29.8,11.7s-20.4,8.5-20.8-7.8c-0.5-16.3-1.1-35.5-1.4-38.7c-0.2-3.2,1.4-8-3.2-14c-4.6-6-7.6-16.5-5.5-19
		c2.1-2.5,5.3,1.4,9.2,1.6c3.9,0.2,8.9-2.1,11.7,0.7s-1.6,11.5-2.1,14.7c-0.5,3.2-1.8,8.9-0.2,8.9s19.7-0.9,23.1-3.4
		c3.4-2.5,2.7-3.7,2.7-8.2C241.6,615.8,244.1,586,244.1,586z"/>
	<path class="st5" d="M228.6,360.9c0,0,6.4,5.3,8,9.2s1.6,16,1.6,16l-1.1,46.3c0,0,0.2,9.9-2.5,14.9c-2.7,5-5.7,16.5-9.4,19.5
		c-3.7,3-4.6,8-7.8,9.4c-3.2,1.4-24.1,9.6-37.8,4.8c-11-4.1-10.5-4.8-12.8-9.2c-2.3-4.4-0.5-3.4-3.7-9.4c-3.2-6-4.6-6-4.8-9.6
		c-0.2-3.7-5.5-4.8-5.7-5.7c-0.2-0.9,0.7-4.8-1.6-8.9s-8.9-11.2-9.9-17.4c-8.5-2.1-9.2-6-15.3-8c-6.2-2.1-17.6-0.9-41.2-14.2
		c-23.6-13.3-42.8-50.2-44-58c-1.1-7.8-5.5-30,2.3-38.7s13.3-4.4,13.3-4.4l2.5,18.1l30.5,24.3l39.4,19.9l63.2,16.7l27.7-18.8
		L228.6,360.9z"/>
	<path class="st6" d="M256,276.9c0,0-0.3,3.4-0.9,4.9c-0.6,1.5-8.1,17-10.7,26.7c-2.6,9.8-1.7,20.6-0.8,24.3s-0.9,7,0.9,8.1
		c1.8,1.1,3.1,5.7,2.1,11.5c-0.9,5.8-3.1,7.9-5.2,11.1c-2.1,3.2-0.3,8.9-1.4,11.9c-1.1,3.1-4.9,5-4.9,5s-16.5,13.7-48.6,7.2
		s-41.7-9.2-58.3-12.7s-49.2-19.7-64-33.6C49.5,327.5,51,306.7,50.7,302c-0.3-4.7-0.5-26,18.5-33.6c1.5-0.8,3.1-4,3.7-6.4
		s5.2-7.8,6.7-9.2c1.5-1.4,4.1-7.6,4.7-9.2c0.6-1.5,7.8-13.1,11-15.3c3.2-2.1,4.7-6,5.2-10.4c0.5-4.4,3.4-18,3.8-21.7
		c0.5-3.7,1.2-11.8-0.3-16.3s-2.7-16.6-3.2-20c-0.5-3.4-4.7-7.6-7.5-9s-5.5-3.1-11.9-2.7c-6.4,0.3-8.7,5.5-17.7,4.6
		c-2.4,3.7-4.9,6.3-9.8,6s-6.1,0-10.4,1.1s-9.8,2.1-14.1-0.2s-15.6-6.9-18.9-12.7c-5.5-2.6-8.6-7-9.3-12.5s-2-8.6-0.6-11.9
		s6.6-11.5,6.1-17.3c-0.5-5.8,9.6-20.6,27.8-19.4c1.7,0.2,2.3-0.2,3.5-2.1S48.4,69,50,66.3c1.5-2.7,7.3-9.8,9.6-10.7
		c2.3-0.9,10.5-1.5,14.5-1.5s4-1.8,9.3-2.6s15-4,20.5-2c5.5,2,11.6,0.5,17.7,1.7s22.8,2.6,33.3,2.4c10.5-0.2,16-1.7,25.5,3.4
		s31.5,23.4,35,26.6c3.5,3.2,4.3,5.5,4.6,9.5c0.3,4,0.2,9.5,3.1,12.8c2.9,3.4,7.6,9,17.3,12.1c9.6,3.1,18.9,7.5,23.4,9.8
		c4.4,2.3,6,1.4,6,1.4s8.4,1.5,12.1,1.4c3.7-0.2,3.4,0.3,6.3,2.6s9.3,10.7,11.3,13c2,2.3,5,3.7,7.8,5.8s27.8,20,29,37.6
		c1.2,17.6-6.3,80.9-6.6,84.3c0.3,1.7,0.6,0.5,1.7,2.4c1.1,2-8.1,46.1-8.1,46.1c-1.1,2.1-1.5,2.6-3.1,3.4s-7.2,2.6-9.9,3.4
		s-5.8,1.8-5.8,1.8s-0.9,3.5-5.8,3.5c-4.9,0-7.8,0.6-10.5,1.8c-2.7,1.2-10.8,2.1-15.4-0.2c-4.6-2.3-7.6-3.5-9.6-5.7
		c-2-2.1-1.1-1.2-3.2-6.3c-2.1-5-7-15.3-6.1-22.5c0.9-7.2,5.5-19.8,5.6-22.8C259.3,275.8,257.1,274.4,256,276.9z"/>
	<circle class="st10" cx="541.7" cy="405.6" r="13.1"/>
	<circle class="st2" cx="541.7" cy="402.5" r="13.1"/>
	<path class="st5" d="M324.6,41.3c-0.2-15.1-7.8-19-12.8-22.9c-5-3.9-9.9-7.3-11.5-8.5c-1.6-1.1-3.7-2.7-4.4-3.9
		c-0.7-1.1-2.7-0.2-2.7-0.2s-11-4.6-16.5-5.3s-11.2-1.1-19.5,1.8c-8.2,3-15.3,11.9-17.4,14.4s-2.1,0.7-3.7,1.8
		C234.6,19.8,225.7,33,225,36c-0.7,3,1.4,3.4,1.4,3.4s0.2,3.9-0.5,7.3c-0.7,3.4-3.7,8.5-4.6,15.8c-0.9,7.3,0,24.1,1.6,28.9
		c1.6,4.8,27,19.9,31.4,22.7c4.4,2.7,12.4,0.7,12.4,0.7s6.2,1.8,7.3,3.2c1.1,1.4,9.2,2.7,12.8,1.4c3.7-1.4,5.7-3,7.6-5
		s1.8-2.1,5-3.2c3.2-1.1,5.5-6.9,5.5-6.9s0.9-2.7-1.1-3c-2.1-0.2-2.5,0-3.2-1.4c1.1-0.9,6.6-6.6,7.1-7.6c0.5-0.9,6.2-1.4,6.9-2.7
		c0.7-1.4,0-3.4,0.5-5.5s2.5-1.8,4.1-3.4c1.6-1.6,0.5-2.7,0.9-5c0.5-2.3,0.7-4.4,0.7-6.2s1.1-3.9,2.7-6c1.6-2.1,2.7-6.2,2.7-9.2
		S326.2,44.3,324.6,41.3z M294.6,110.2c-1.6,1.4-1.4,3-2.6,3.7c-1.1,0.7-4.1,2.3-5.9,2.5c-1.8,0.2-9.4-3-9.4-3s3.2-4.8,3.7-3.4
		s1.6,3.4,2.5,1.6c0.9-1.8,2.2-2.5,3.1-2.7s2.9-0.7,2.9-0.7s2.7-2.3,4.1-1.1S296.2,108.9,294.6,110.2z"/>
	<path class="st11" d="M299.4,17.2c0,0-18.8,7.8-39.9,50.9C269,40.6,278.4,25,299.4,17.2z"/>
	<path class="st12" d="M269.4,1.6c0,0-25-3.6-33.9,48.6C249.3,17.2,252,10.7,269.4,1.6z"/>
	<path class="st13" d="M494.1,692.3"/>
	<polygon class="st14" points="176.6,488.5 184.9,494.1 210.2,488.5 221.9,484.5 210.5,491 189.8,496.3 180.5,497 	"/>
	<polygon class="st14" points="181.5,499.3 188.4,500.3 193.9,499.4 188.2,503.1 183.8,504.1 	"/>
	<polygon class="st14" points="179.6,518.6 195.9,506.9 208.2,503.2 199,503.2 189.7,505.4 180.8,511.8 	"/>
	<path class="st15" d="M92.4,360.5l-18.8,30l13.5,9.4l15.5,7.1l23.1,5.7l15.8,8c0,0-3.7-10.8,4-41.9
		C133,376.2,106.2,368.8,92.4,360.5z"/>
	<path class="st16" d="M153.5,422.4c1,0.1,25.1,2.1,36.9-6.1c11.8-8.2,14.9-9.4,14.9-9.4l-7.9,6.9l8.9-1.8l-5.7,4.9l-8.2,2.9
		l-12.9,2.4l-12.3,1.7L153.5,422.4z"/>
	<g class="st17">
		<polygon class="st18" points="72.9,266 64.2,289.4 68.6,301.3 78.6,307 63,304.3 56.1,291.8 60,274.4 		"/>
		<polygon class="st18" points="247.3,336.7 247.3,346.6 244.6,353.2 234.5,349.9 224,342.4 193.7,330.1 221.9,337.6 233,341.7 
			241,345.4 242.5,339.4 		"/>
		<polygon class="st18" points="251.8,282.5 243.7,291.8 219.5,291.8 209.9,293.3 220.5,286.5 241.3,284.9 256,274.4 		"/>
		<polygon class="st18" points="92.7,144.6 119.7,141.6 144.2,144.6 117.4,145.8 104.4,154.5 		"/>
		<polygon class="st18" points="32.5,86.5 19.9,98.2 22.6,88.9 		"/>
		<polygon class="st18" points="37.6,86.5 29.8,98.2 31,110.4 24.1,100.5 28.6,92.3 		"/>
		<polygon class="st18" points="265.6,266 279.1,274.4 292.9,266 312.4,218 297.4,269 286.9,280.4 275.2,285.2 259,276.2 259,270.5 
					"/>
		<polygon class="st18" points="303.4,278.3 288.1,299 271.3,299 261.7,286.5 268.6,304.9 289.3,304.9 		"/>
		<polygon class="st18" points="297.1,325.3 315.4,299.8 322.9,274.4 310,299.8 291.1,325.3 		"/>
		<polygon class="st18" points="109.2,195.3 108,231.5 114.3,242.6 127.8,266.9 135.3,274.4 121.6,270.2 108,249.2 100.8,235.8 
			99.6,224.6 102,222.5 		"/>
		<polygon class="st18" points="112.8,211.4 117.4,233.6 132,255.2 120.6,230.9 112.8,200.3 		"/>
		<polygon class="st18" points="129.6,224 143.9,246.2 171.8,274.4 180.5,291.8 165.2,272.9 140.3,247.4 		"/>
	</g>
	<g class="st17">
		<g>
			<line class="st19" x1="214.7" y1="478.9" x2="215.5" y2="480.4"/>
			<polyline class="st20" points="217,483.3 218.3,485.8 216.8,505.4 214.7,552.7 216.5,598.4 216.6,601 			"/>
			<line class="st19" x1="216.7" y1="602.6" x2="216.8" y2="604.3"/>
		</g>
	</g>
	<polyline class="st21" points="239.4,372.1 233,379.2 212.8,385.8 193.7,385.8 111.5,365.5 66.3,338.9 54.7,323 51.7,316.2 	"/>
	<polyline class="st21" points="216.5,390.6 216.5,421.7 218.3,438 218.3,467.9 	"/>
	<path class="st8" d="M268,653.2v6l-3,5.3l-35.5-2.9l4.1-8.5l4.8-9.6l1.2-4.4l-2.7-7.8l-13.6,1.5l-4.7,2.3l-5.8,10.3l-1.1,9.6
		l-5.9,6l0.5,10.1l1.8,7.9h9.6c0,0,4.8-2.2,5.5-3s3.7-3.8,4.2-3.8s7.7,0,7.7,0l9.6,1.4l11.5,0.7l8.1-2.1l8.2-7l1.2-11.6l-1.2-4.4
		L268,653.2z"/>
	<polygon class="st8" points="212.8,609.9 212.8,615.9 208,628.1 202.1,621.7 199.2,614 202.5,611.5 211.9,609.9 	"/>
	<path class="st22" d="M330.4,283.8c0,0,4.1,4.4,4.9,6.8s2.4,12.4,2.4,12.4l-1.6,6.8l-3.5,6.8l-10.9,6.9L330.4,283.8z"/>
	<path class="st23" d="M340.5,289.3c0,0,2.2,7.9,2.9,12.8c0.6,4.9-1.8,13.2-2.9,15.5c-1,2.2-7.3,9.2-9.6,10.6s-9.4,2-9.4,2
		s8-1.8,10.9-5.1c2.9-3.3,7.2-7.5,8.2-12C341.8,308.6,343.2,308.2,340.5,289.3z"/>
	<polyline class="st21" points="285.7,131.2 280.6,132.1 273.6,132.1 266.9,132.1 254.4,126.4 235.6,120.9 219.1,108.5 213.2,98.2 
		213.2,89.4 213.2,83.5 	"/>
</g>
</svg>
