<svg viewBox="0 0 4634 878" xmlns="http://www.w3.org/2000/svg"><title>PK100 (Checkout)</title><defs><pattern id="weave_alt" width="15" height="15" patternUnits="userSpaceOnUse"><path fill="#2E2E2E" d="M0 0h50v50H0z"/><circle cx="3" cy="4.3" r="5.8" fill="#5A5A5A"/><circle cx="3" cy="3" r="5.8" fill="#878787"/><circle cx="10.5" cy="12.5" r="5.8" fill="#5A5A5A"/><circle cx="10.5" cy="11.3" r="5.8" fill="#878787"/></pattern><pattern id="weave" width="55" height="60" patternUnits="userSpaceOnUse"><path fill="#2e2e2e" d="M0 0h60v60H0z"/><path d="M30 0l29.995 29.995L30 59.99.005 29.996z"/></pattern></defs><g id="CustomStickModel" fill="none" fill-rule="evenodd"><g id="PK100-(Checkout)"><g id="Small-Top"><g class="svg-shaft-segment" fill="{{ordersCtrl.order.stick.customColor.shaft.hex}}"><path d="M298.493 247.85c2.59 13.61 6.452 25.432 12.228 39.905 8.097 20.296 20.368 43.532 32.817 65.647 15.44 27.42 33.907 53.817 53.97 79.673 30.414 39.19 80.516 91.042 120.476 135.055 39.96 44.014 115.71 113.963 161.03 148.924 19.823 15.294 43.824 25.885 64.39 31.386 26.442 7.078 73.55 9.19 85.174 9.005 14.413-.23 144.9-.947 144.9-.947l1404.366.524 5.884.002 138.532.05 17.503.008 91.874.034 25.32.01 53.466.02 22.75.008 212.625.08 64.224.023 1328.682.496V681.38c-9.13 0-18.243-.003-27.34-.006h-2.4l-19.65-.006c-3.872 0-7.74 0-11.606-.002l-15.74-.005c-3.352 0-6.707 0-10.055-.002-5.648 0-11.288-.002-16.924-.004l-7.915-.003c-6.78 0-13.543-.003-20.303-.005-5.156 0-10.302-.003-15.447-.005-4.525 0-9.053-.002-13.57-.004-3.548 0-7.09-.003-10.63-.003l-16.233-.006c-2.026 0-4.052 0-6.077-.002l-21.67-.007-5.12-.002-50.397-.02c-2.21 0-4.416 0-6.625-.002l-16.388-.007c-5.03 0-10.06-.003-15.08-.005l-7.792-.004-11.665-.004-22.272-.01h-1.8c-16.885-.01-33.718-.016-50.504-.024-2.065 0-4.126 0-6.19-.002l-16.807-.01c-4.282 0-8.563-.002-12.84-.004l-13.368-.007-6.513-.003-48.285-.025-9.562-.006c-5.83-.002-11.662-.006-17.482-.01H3800c-7.322-.005-14.64-.01-21.945-.013h-1.915c-8.127-.004-16.244-.01-24.352-.013h-1.194c-15.693-.01-31.343-.02-46.96-.028l-9.135-.006-41.41-.024-9.894-.007-14.608-.008h-.072c-200.666-.124-395.67-.268-588.593-.42-15.15-.01-30.293-.023-45.42-.034-39.6-.03-79.126-.062-118.606-.093-14.077-.01-28.152-.022-42.218-.034l-58.806-.046-6.676-.005-159.325-.126-14.51-.01c-47.984-.038-96.013-.074-144.14-.11-1.642 0-3.28-.003-4.923-.004l-150.266-.11h-2.384l-30.318-.022-15.576-.01-16.848-.012-16.972-.012-32.382-.02-3.156-.003-68.224-.044-13.513-.01-30.017-.017-7.695-.005c-9.977-.007-19.963-.012-29.96-.02-2.663 0-5.325 0-7.99-.003l-29.285-.018c-4.29 0-8.585-.004-12.882-.007l-26.047-.015c-5.868-.002-11.744-.006-17.62-.01l-20.705-.01-14.88-.008c-10.598-.006-21.207-.01-31.834-.017l-6.874-.003c-8.15-.004-16.31-.01-24.48-.012l-15.55-.01c-7.114 0-14.238-.005-21.366-.008-7.956-.005-15.92-.008-23.894-.012l-21-.01c-3.468 0-6.933-.003-10.405-.004-10.79-.003-21.597-.008-32.42-.013l-15.308-.006-19.552-.007-10.415-.005c-3.46 0-6.924-.003-10.386-.004h-1.7c-84.366-.034-169.84-.06-256.684-.08h-2.718c-28.35-.006-56.847-.012-85.497-.016h-4.583l-16.316-.004h-.652l-55.526-.007h-6.13c-8.26-.002-16.534-.003-24.822-.003h-10.42c-3.506-.002-7.015-.002-10.526-.002h-14.284c-14.59-.002-29.222-.003-43.897-.003h-46.332l-.936-.002h-1.518c-.207-.002-.423-.002-.64-.002h-.67c-.183-.002-.374-.002-.563-.002-.236 0-.467 0-.712-.002h-.637c-.503-.003-1.027-.004-1.57-.005h-.635c-.212-.002-.433-.002-.65-.003l-1.097-.003h-.734l-.753-.004c-.366 0-.733 0-1.112-.003l-1.015-.003c-.224 0-.44-.002-.668-.003l-1.855-.006c-.498 0-1.007-.003-1.52-.005h-.276l-1.782-.008h-.08c-3.8-.015-7.97-.034-12.427-.057h-.017c-8.2-.043-17.356-.1-26.915-.174h-.015l-2.61-.02c-40.183-.322-86.483-.944-98.414-2.062-13.52-1.264-25.16-4.004-34.816-7.002-16.104-5.004-20.443-6.28-34.945-12.59-13.333-5.795-34.92-18.41-48.022-28.04-13.1-9.63-40.854-37.364-48.606-43.996-7.754-6.632-71.57-72.35-85.287-86.82C649.79 484.323 584.78 390.87 573.45 374.59c-11.333-16.278-53.678-82.6-53.678-82.6s-59.045-110.336-69.183-126.616c-10.14-16.278-17.298-28.94-26.84-35.572-9.543-6.632-22.664-12.662-51.888-7.234-29.224 5.425-46.52 25.32-57.85 42.204-11.333 16.882-17 39.196-17.893 57.278-.365 7.344.604 16.49 2.373 25.8" id="Fill-1"/></g><g class="svg-logo-segment" fill="{{ordersCtrl.order.stick.customColor.logo}}"><path d="M2733.173 757.154l115.058.043L2869.496 732h-79.602l43.785-51.506-58.804-.047-48.533 59.08c-4.987 6.037-1.682 13.845 6.833 17.627" id="Fill-4"/><path d="M2656.81 692.093l.138 29.304h-25.675l25.536-29.304zm-57.623 65.01l10.32-11.492 47.45-.097v11.613l53.466.02V692.03h19.43c13.096 0 25.008-4.21 30.556-10.794l.673-.8-152.21-.12c-18.82 20.892-59.443 66.025-69.11 76.765l59.424.024z" id="Fill-6"/><path d="M2522.258 757.075c3.09-1.175 5.665-2.777 7.404-4.71l18.41-20.443-63.832-.024 9.607-10.645h63.738l17.012-18.878h-66.91l9.446-10.658h66.983l10.247-11.412c-44.866-.034-89.77-.07-134.76-.103l-65.76 76.826 128.415.047z" id="Fill-8"/><path d="M2384.614 752.465l17.953-20.857-71.505.247 102.15-39.11 12.088-12.553-150.265-.11-11.164 12.05 73.118-.144-80.863 29.535c-16.07 6.783-28.527 18.14-36.042 25.058l-10.218 10.387 147.978.055c2.826-1.178 5.17-2.724 6.77-4.557" id="Fill-10"/><path id="Fill-12" d="M1842.154 720.28v-14.278l5.616 14.28h3.203l5.502-14.28v14.28h3.476v-20.5h-3.758l-6.735 15.554-6.88-15.555h-3.9v20.5z"/><path id="Fill-14" d="M1867.964 699.78h-3.758v20.5h3.758z"/><path d="M1875.976 703.077h4.183c4.206 0 6.31 2.132 6.31 6.394 0 5.01-2.104 7.514-6.31 7.514h-4.184v-13.907zm14.25 6.394c0-6.46-3.355-9.69-10.067-9.69h-7.943v20.5h7.942c6.71 0 10.067-3.602 10.067-10.81z" id="Fill-16"/><path id="Fill-17" d="M1901.622 711.25h-7.09v3.01h7.09z"/><path id="Fill-18" d="M1924.1 720.28l-9.558-10.94 8.65-9.56h-4.596l-7.544 8.46v2.465l7.843 9.576z"/><path id="Fill-19" d="M1908.926 699.78h-3.76v20.5h3.76z"/><path id="Fill-20" d="M1929.277 699.78h-3.76v20.5h3.76z"/><path d="M1943.74 720.424c2.223 0 4.208-.334 5.957-1.003v-3.44c-1.75.764-3.64 1.147-5.672 1.147-4.87 0-7.303-2.46-7.303-7.384 0-4.54 2.434-6.808 7.303-6.808 2.03 0 3.923.382 5.672 1.146v-3.44c-1.75-.67-3.734-1.003-5.956-1.003-7.28 0-10.92 3.37-10.92 10.106 0 7.12 3.64 10.68 10.92 10.68" id="Fill-21"/><path id="Fill-22" d="M1957 699.78h-3.757v20.5H1957z"/><path id="Fill-23" d="M1972.174 720.28l-9.557-10.94 8.65-9.56h-4.596l-7.543 8.46v2.465l7.843 9.576z"/><path id="Fill-24" d="M1977.182 716.55h4.132v-.876h-4.132v-2.805h4.334v-.877h-5.404v8.355h1.07z"/><path id="Fill-25" d="M1988.182 719.472h-4.324v-7.48h-1.07v8.356h5.394z"/><path id="Fill-26" d="M1994.943 719.472h-4.42v-2.922h4.13v-.876h-4.13v-2.805h4.333v-.877h-5.403v8.355h5.49z"/><path id="Fill-27" d="M1997.023 720.348l2.602-3.342 2.6 3.342h1.3l-3.248-4.178 3.25-4.177h-1.302l-2.6 3.342-2.602-3.342h-1.3l3.254 4.177-3.255 4.178z"/><path d="M2008.67 712.887h2.184c.994 0 1.492.463 1.492 1.39 0 1.09-.85 1.763-2.543 2.016l.218.91c2.31-.357 3.464-1.347 3.464-2.973 0-1.49-.844-2.237-2.53-2.237h-3.354v8.355h1.07v-7.46z" id="Fill-28"/><path d="M2015.97 712.887h2.358c.88 0 1.318.385 1.318 1.156 0 .974-.79 1.587-2.37 1.84v.707l2.63 3.758h1.41l-2.838-3.938c1.538-.522 2.306-1.325 2.306-2.413 0-1.336-.786-2.004-2.357-2.004h-3.527v8.355h1.07v-7.46z" id="Fill-29"/><path d="M2026.303 712.81c1.974 0 2.96 1.113 2.96 3.337 0 2.256-.986 3.383-2.96 3.383-2.015 0-3.023-1.127-3.023-3.383 0-2.224 1.008-3.336 3.023-3.336m0 7.597c2.725 0 4.086-1.41 4.086-4.224 0-2.833-1.362-4.248-4.087-4.248-2.766 0-4.15 1.415-4.15 4.248 0 2.815 1.384 4.224 4.15 4.224" id="Fill-30"/><path id="Fill-31" d="M2033.135 716.55h4.132v-.876h-4.132v-2.805h4.334v-.877h-5.405v8.355h1.07z"/><path id="Fill-32" d="M2039.983 711.993h-1.07v8.355h1.07z"/><path id="Fill-33" d="M2047.515 719.472h-4.323v-7.48h-1.07v8.356h5.393z"/><path id="Fill-34" d="M2054.276 719.472h-4.42v-2.922h4.13v-.876h-4.13v-2.805h4.332v-.877h-5.403v8.355h5.49z"/></g><g class="svg-accent-segment" fill="{{ordersCtrl.order.stick.customColor.accent}}"><path d="M3330.65 722.435c-1.83.044-2.747-.807-2.747-2.553 0-1.735.878-2.616 2.637-2.65 1.757-.02 2.637.84 2.637 2.585 0 1.747-.842 2.618-2.527 2.618m5.26-8.417c-1.476-1.318-3.266-1.98-5.37-1.98-2.306 0-4.172.738-5.604 2.21-1.432 1.475-2.15 3.356-2.15 5.643 0 3.31 1.33 5.63 3.98 6.96 1.18.595 2.44.892 3.774.892 2.99 0 5.214-1.19 6.677-3.575.73-1.18 1.09-2.607 1.09-4.276 0-2.478-.8-4.435-2.398-5.872" id="Fill-35"/><path d="M3438.508 710.74c-4.262 0-6.393 2.914-6.393 8.74 0 5.922 2.13 8.884 6.393 8.884 4.13 0 6.198-2.962 6.198-8.884 0-5.826-2.067-8.74-6.198-8.74" id="Fill-36"/><path d="M3463.954 732.457c-7.49 0-11.235-4.29-11.235-12.87 0-8.628 3.744-12.94 11.234-12.94 7.36 0 11.04 4.312 11.04 12.94 0 8.58-3.68 12.87-11.04 12.87zm-25.446 0c-7.49 0-11.235-4.29-11.235-12.87 0-8.628 3.746-12.94 11.235-12.94 7.36 0 11.04 4.312 11.04 12.94 0 8.58-3.68 12.87-11.04 12.87zm-15.902-.177h-4.666v-21.56h-2.642v-1.94l7.308-2.49v25.99zm-22.574 0l-9.738-11.892v-3.06l9.367-10.505h5.706l-10.74 11.874 11.868 13.583h-6.462zm-12.38-25.457h-4.667v25.457h4.666v-25.457zm-18.296 16.592l-.67-4.202c4.227-.772 6.34-2.462 6.34-5.073 0-2.112-1.045-3.17-3.135-3.17h-6.302v21.31h-4.667v-25.457h11.272c5.14 0 7.712 2.392 7.712 7.174 0 5.187-3.517 8.326-10.548 9.418zm-29.44 5.956c-2.368 2.394-5.49 3.59-9.376 3.59-3.872 0-6.995-1.198-9.368-3.598s-3.563-5.556-3.563-9.47c0-3.927 1.184-7.087 3.554-9.48 2.367-2.395 5.493-3.59 9.376-3.59 3.903 0 7.036 1.19 9.393 3.573 2.355 2.385 3.536 5.548 3.536 9.496 0 3.927-1.184 7.087-3.553 9.48zm-25.202 3.48l-2.714.11c-.768-.073-1.3-.488-1.595-1.243l-6.487-16.918c-.592-1.872-1.18-1.872-1.768 0l-6.06 16.245c-.76 1.278-1.517 1.916-2.275 1.916h-1.642c-.843 0-1.686-.68-2.528-2.04l-6.187-16.12c-.59-1.872-1.178-1.872-1.767 0l-6.395 16.933c-.284.745-.802 1.154-1.56 1.228h-2.655c-.925-.073-1.182-.62-.773-1.643l9.094-22.98c.42-1.086 1.48-1.618 3.173-1.597 1.685.01 2.748.565 3.19 1.66l7.042 17.668 7.053-17.73c.42-1.087 1.48-1.62 3.175-1.598 1.683.01 2.747.565 3.19 1.66l9.188 22.933c.4 1.01.168 1.517-.696 1.517zm-52.33-20.876c-1.832.044-2.746-.807-2.746-2.552 0-1.734.88-2.617 2.637-2.65 1.757-.02 2.635.842 2.635 2.585 0 1.746-.842 2.617-2.525 2.617zm2.432 10.534v7.756c.063 1.798-.784 2.68-2.54 2.648-1.758-.03-2.638-.923-2.638-2.68v-12.656c.085-1.352 1.003-2.017 2.762-1.995 1.527-.042 2.33.58 2.416 1.867v5.058zm-11.7 2.616v5.155c0 1.735-.875 2.617-2.636 2.65-1.692-.033-2.52-.922-2.476-2.666l.045-5.218c0-.575-.084-1.038-.252-1.39-.38-.794-1.266-1.195-2.644-1.22-.018 0-.027.008-.042.008-1.833.044-2.75-.81-2.75-2.553 0-1.733.878-2.617 2.638-2.648.062-.002.104.02.167.02 1.37-.025 2.255-.426 2.63-1.217.17-.35.252-.814.252-1.39 0-.692-.11-1.19-.33-1.5-.225-.307-.653-.563-1.298-.765-.755-.234-1.933-.372-3.534-.416h-8.588c-1.18 0-1.768.64-1.768 1.916v16.423c.063 1.765-.782 2.637-2.543 2.617-1.756-.033-2.636-.915-2.636-2.65v-20.22c0-2.16.968-3.265 2.906-3.32h12.563c4.484.055 7.543 1.25 9.174 3.59.808 1.182 1.215 2.624 1.215 4.326-.146 3.064-1.4 4.896-3.756 5.49 2.357.51 3.578 2.17 3.66 4.978zm-33.423-4.603c-1.73 1.27-3.476 1.893-5.24 1.908-.02 0-.03.007-.05.007h-.034c-.05 0-.1.01-.147.01v-.017c-1.705-.02-2.568-.862-2.568-2.546 0-1.734.88-2.616 2.637-2.65.066 0 .11.02.17.023 1.305-.047 2.16-.44 2.522-1.21.17-.35.256-.814.256-1.39 0-.692-.112-1.19-.333-1.5-.22-.307-.652-.563-1.294-.765-.758-.234-1.96-.372-3.602-.416h-8.522c-1.18 0-1.768.64-1.768 1.916v16.424c.063 1.764-.784 2.636-2.54 2.616-1.76-.033-2.638-.915-2.638-2.65v-20.218c0-2.162.968-3.267 2.904-3.322h12.628c4.444.055 7.48 1.25 9.11 3.59.81 1.182 1.216 2.624 1.216 4.326 0 2.586-.9 4.54-2.707 5.865zm1119.01-28.145L3663.22 725.83c-.134.006-.268.01-.403.01-3.272 0-7.515-1.873-9.624-4.29l-35.33-40.48c-194.424-.122-383.58-.262-570.738-.408l-37.103 76.596 1328.682.495v-65.378z" id="Fill-37"/><path d="M3463.954 710.74c-4.262 0-6.393 2.914-6.393 8.74 0 5.922 2.132 8.884 6.394 8.884 4.132 0 6.2-2.962 6.2-8.884 0-5.826-2.068-8.74-6.2-8.74" id="Fill-38"/><path d="M3662.816 724.618c.116 0 .23-.003.344-.008l5.917-.293c-2.326-.73-4.616-2.057-5.99-3.63l-34.57-39.613-9.043-.005 34.625 39.673c1.864 2.136 5.774 3.875 8.716 3.875" id="Fill-39"/><path d="M1647.275 679.72c-3.132 0-6.26 0-9.395-.002-48.058-.02-96.488-.035-145.322-.05l-54.84-.014 187.02 21.26 22.537-21.193z" id="Fill-40"/><path d="M3672.592 723.716c.114 0 .227-.003.34-.008l665.772-32.974v-8.626l-665.8 33.6-31.463-34.626-11.332-.006 33.873 38.813c1.843 2.11 5.706 3.826 8.612 3.826" id="Fill-41"/><path d="M1624.08 708.243c.33 0 .656-.023.98-.058l6.304.75c2.25 0 4.383-.87 6-2.446l28.116-26.762h-1.328l-27.417 26.095c-1.45 1.412-3.357 2.19-5.318 2.194l-3.92-.466c1.007-.424 1.937-1.034 2.743-1.818l26.827-26.007h-1.973l-25.8 25.01c-1.408 1.373-3.26 2.128-5.135 2.132l-230.168-27.223h-1.205c-2.596 0-5.194 0-7.793-.002h-2.76l241.845 28.6z" id="Fill-42"/><path id="Fill-43" d="M2093.32 739.584l13.658-11.046h-113.385l-7.05 7.356z"/><path id="Fill-44" d="M1990.67 728.538h-217.853l210.836 7.287z"/></g></g></g></g></svg>
