<?xml version="1.0" encoding="UTF-8" standalone="no"?>
<svg viewBox="0 0 884 53" version="1.1" xmlns="http://www.w3.org/2000/svg" xmlns:xlink="http://www.w3.org/1999/xlink">
    <!-- Generator: Sketch 39.1 (31720) - http://www.bohemiancoding.com/sketch -->
    <title>Pk 100</title>
    <desc>Created with Sketch.</desc>
    <defs></defs>
    <g id="Page-1" stroke="none" stroke-width="1" fill="none" fill-rule="evenodd">
        <g id="Pk-100">
            <g id="Page-1" transform="translate(-1.000000, -1.000000)">
                <polygon class="svg-shaft-segment" fill="#F5F4ED" points="0 53.0619 884.314 53.0619 884.314 1.4239 0 1.4239"></polygon>
                <g class="svg-accent-segment" transform="translate(130.000000, 0.577900)" fill="#202455">
                    <path d="M26.528,0.4366 L46.588,23.1726 C49.001,25.9076 48.979,30.3646 46.54,33.0756 L28.797,52.7926 L754.314,52.9996 L754.314,0.7876 L26.528,0.4366 Z" id="Fill-4"></path>
                    <path d="M45.5933,24.0505 L24.7583,0.4355 L14.8273,0.4305 L34.9753,23.2665 C37.3583,25.9675 37.3373,30.3685 34.9273,33.0465 L17.1453,52.8075 L27.0103,52.7945 L45.5533,32.1885 C47.5293,29.9925 47.5483,26.2655 45.5933,24.0505 L45.5933,24.0505 Z" id="Fill-2"></path>
                    <path d="M33.9933,24.1329 L13.0793,0.4289 L0.6983,0.4219 L20.3963,21.8659 C23.6363,25.3939 23.6363,31.1659 20.3963,34.6939 L3.7403,52.8259 L15.3803,52.8099 L33.9533,32.1699 C35.9053,30.0019 35.9233,26.3209 33.9933,24.1329" id="Fill-6"></path>
                </g>
                <g class="svg-logo-segment" transform="translate(0.000000, 16.577900)" fill="#F26C21">
                    <polygon id="Fill-31" points="18.5978 0.7574 13.8568 0.7574 6.0728 9.3904 6.0728 11.9074 14.1648 21.6814 19.5338 21.6814 9.6718 10.5174"></polygon>
                    <polygon id="Fill-33" points="0 21.682 3.878 21.682 3.878 0.758 0 0.758"></polygon>
                    <polygon id="Fill-35" points="26.8507 3.9617 29.0457 3.9617 29.0457 21.6817 32.9227 21.6817 32.9227 0.3187 26.8507 2.3667"></polygon>
                    <path d="M46.1365,18.4628 C42.5955,18.4628 40.8245,16.0288 40.8245,11.1608 C40.8245,6.3718 42.5955,3.9768 46.1365,3.9768 C49.5695,3.9768 51.2865,6.3718 51.2865,11.1608 C51.2865,16.0288 49.5695,18.4628 46.1365,18.4628 M46.1365,0.6108 C39.9125,0.6108 36.8005,4.1568 36.8005,11.2488 C36.8005,18.3018 39.9125,21.8278 46.1365,21.8278 C52.2525,21.8278 55.3105,18.3018 55.3105,11.2488 C55.3105,4.1568 52.2525,0.6108 46.1365,0.6108" id="Fill-36"></path>
                    <path d="M67.2806,18.4628 C63.7396,18.4628 61.9686,16.0288 61.9686,11.1608 C61.9686,6.3718 63.7396,3.9768 67.2806,3.9768 C70.7136,3.9768 72.4306,6.3718 72.4306,11.1608 C72.4306,16.0288 70.7136,18.4628 67.2806,18.4628 M67.2806,0.6108 C61.0566,0.6108 57.9446,4.1568 57.9446,11.2488 C57.9446,18.3018 61.0566,21.8278 67.2806,21.8278 C73.3966,21.8278 76.4546,18.3018 76.4546,11.2488 C76.4546,4.1568 73.3966,0.6108 67.2806,0.6108" id="Fill-37"></path>
                </g>
            </g>
        </g>
    </g>
</svg>
