<?xml version="1.0" encoding="UTF-8" standalone="no"?>
<svg viewBox="0 0 884 53" version="1.1" xmlns="http://www.w3.org/2000/svg" xmlns:xlink="http://www.w3.org/1999/xlink">
    <!-- Generator: Sketch 39.1 (31720) - http://www.bohemiancoding.com/sketch -->
    <title>pk 1000</title>
    <desc>Created with Sketch.</desc>
    <defs></defs>
    <g id="Page-1" stroke="none" stroke-width="1" fill="none" fill-rule="evenodd">
        <g id="pk-1000">
            <g id="Page-1" transform="translate(-1.000000, 0.000000)">
                <polygon class="svg-shaft-segment" fill="#1A1A1A" points="0 53.3593 884.813 53.3593 884.813 0.0003 0 0.0003"></polygon>
                <g class="svg-accent-segment" fill="#E4AD24">
                    <polygon id="Fill-3" points="872.8641 0.0001 872.8641 0.2461 872.8641 4.2191 880.5101 4.2191 880.5101 0.2491 880.5101 0.0001"></polygon>
                    <polygon id="Fill-4" points="863.0397 0.0001 863.0397 0.2391 863.0397 4.2191 870.6867 4.2191 870.6867 0.2441 870.6867 0.0001"></polygon>
                    <polygon id="Fill-5" points="853.2153 0.0001 853.2153 0.2341 853.2153 4.2191 860.8623 4.2191 860.8623 0.2391 860.8623 0.0001"></polygon>
                    <polygon id="Fill-6" points="843.3918 0.0001 843.3918 0.2291 843.3918 4.2191 851.0388 4.2191 851.0388 0.2331 851.0388 0.0001"></polygon>
                    <polygon id="Fill-7" points="833.5674 0.0001 833.5674 0.2231 833.5674 4.2191 841.2144 4.2191 841.2144 0.2281 841.2144 0.0001"></polygon>
                    <polygon id="Fill-8" points="823.743 0.0001 823.743 0.2181 823.743 4.2191 831.39 4.2191 831.39 0.2221 831.39 0.0001"></polygon>
                    <polygon id="Fill-9" points="813.9195 0.0001 813.9195 0.2121 813.9195 4.2191 821.5665 4.2191 821.5665 0.2161 821.5665 0.0001"></polygon>
                    <polygon id="Fill-10" points="804.0951 0.0001 804.0951 0.2071 804.0951 4.2191 811.7421 4.2191 811.7421 0.2111 811.7421 0.0001"></polygon>
                    <polygon id="Fill-11" points="794.2716 0.0001 794.2716 0.2011 794.2716 4.2191 801.9176 4.2191 801.9176 0.2051 801.9176 0.0001"></polygon>
                    <polygon id="Fill-12" points="784.4472 0.0001 784.4472 0.1951 784.4472 4.2191 792.0942 4.2191 792.0942 0.2001 792.0942 0.0001"></polygon>
                    <polygon id="Fill-13" points="774.6228 0.0001 774.6228 0.1901 774.6228 4.2191 782.2698 4.2191 782.2698 0.1941 782.2698 0.0001"></polygon>
                    <polygon id="Fill-14" points="764.7993 0.0001 764.7993 0.1851 764.7993 4.2191 772.4463 4.2191 772.4463 0.1891 772.4463 0.0001"></polygon>
                    <polygon id="Fill-15" points="754.9749 0.0001 754.9749 0.1791 754.9749 4.2191 762.6219 4.2191 762.6219 0.1841 762.6219 0.0001"></polygon>
                    <polygon id="Fill-16" points="745.1505 0.0001 745.1505 0.1741 745.1505 4.2191 752.7975 4.2191 752.7975 0.1781 752.7975 0.0001"></polygon>
                    <polygon id="Fill-17" points="735.327 0.0001 735.327 0.1681 735.327 4.2191 742.974 4.2191 742.974 0.1721 742.974 0.0001"></polygon>
                    <polygon id="Fill-18" points="725.5026 0.0001 725.5026 0.1621 725.5026 4.2191 733.1496 4.2191 733.1496 0.1671 733.1496 0.0001"></polygon>
                    <polygon id="Fill-19" points="715.6791 0.0001 715.6791 0.1571 715.6791 4.2191 723.3251 4.2191 723.3251 0.1611 723.3251 0.0001"></polygon>
                    <polygon id="Fill-20" points="705.8547 0.0001 705.8547 0.1511 705.8547 4.2191 713.5017 4.2191 713.5017 0.1561 713.5017 0.0001"></polygon>
                    <polygon id="Fill-21" points="696.0303 0.0001 696.0303 0.1461 696.0303 4.2191 703.6773 4.2191 703.6773 0.1501 703.6773 0.0001"></polygon>
                    <polygon id="Fill-22" points="686.2068 0.0001 686.2068 0.1401 686.2068 4.2191 693.8538 4.2191 693.8538 0.1451 693.8538 0.0001"></polygon>
                    <polygon id="Fill-23" points="676.3824 0.0001 676.3824 0.1351 676.3824 4.2191 684.0294 4.2191 684.0294 0.1401 684.0294 0.0001"></polygon>
                    <polygon id="Fill-24" points="666.558 0.0001 666.558 0.1301 666.558 4.2191 674.205 4.2191 674.205 0.1331 674.205 0.0001"></polygon>
                    <polygon id="Fill-25" points="656.7345 0.0001 656.7345 0.1231 656.7345 4.2191 664.3815 4.2191 664.3815 0.1281 664.3815 0.0001"></polygon>
                    <polygon id="Fill-26" points="646.9101 0.0001 646.9101 0.1181 646.9101 4.2191 654.5571 4.2191 654.5571 0.1221 654.5571 0.0001"></polygon>
                    <polygon id="Fill-27" points="637.0866 0.0001 637.0866 0.1131 637.0866 4.2191 644.7326 4.2191 644.7326 0.1171 644.7326 0.0001"></polygon>
                    <polygon id="Fill-28" points="627.2622 0.0001 627.2622 0.1071 627.2622 4.2191 634.9092 4.2191 634.9092 0.1121 634.9092 0.0001"></polygon>
                    <polygon id="Fill-29" points="617.4378 0.0001 617.4378 0.1021 617.4378 4.2191 625.0848 4.2191 625.0848 0.1061 625.0848 0.0001"></polygon>
                    <polygon id="Fill-30" points="607.6143 0.0001 607.6143 0.0961 607.6143 4.2191 615.2613 4.2191 615.2613 0.1011 615.2613 0.0001"></polygon>
                    <polygon id="Fill-31" points="597.7899 0.0001 597.7899 0.0911 597.7899 4.2191 605.4369 4.2191 605.4369 0.0951 605.4369 0.0001"></polygon>
                    <polygon id="Fill-32" points="587.9655 0.0001 587.9655 0.0861 587.9655 4.2191 595.6125 4.2191 595.6125 0.0891 595.6125 0.0001"></polygon>
                    <polygon id="Fill-33" points="578.142 0.0001 578.142 0.0791 578.142 4.2191 585.789 4.2191 585.789 0.0841 585.789 0.0001"></polygon>
                    <polygon id="Fill-34" points="568.3176 0.0001 568.3176 0.0741 568.3176 4.2191 575.9646 4.2191 575.9646 0.0781 575.9646 0.0001"></polygon>
                    <polygon id="Fill-35" points="558.4941 0.0001 558.4941 0.0681 558.4941 4.2191 566.1401 4.2191 566.1401 0.0731 566.1401 0.0001"></polygon>
                    <polygon id="Fill-36" points="548.6697 0.0001 548.6697 0.0631 548.6697 4.2191 556.3167 4.2191 556.3167 0.0681 556.3167 0.0001"></polygon>
                    <polygon id="Fill-37" points="538.8453 0.0001 538.8453 0.0581 538.8453 4.2191 546.4923 4.2191 546.4923 0.0621 546.4923 0.0001"></polygon>
                    <polygon id="Fill-38" points="529.0218 0.0001 529.0218 0.0521 529.0218 4.2191 536.6688 4.2191 536.6688 0.0561 536.6688 0.0001"></polygon>
                    <polygon id="Fill-39" points="519.1974 0.0001 519.1974 0.0471 519.1974 4.2191 526.8444 4.2191 526.8444 0.0501 526.8444 0.0001"></polygon>
                    <polygon id="Fill-40" points="509.373 0.0001 509.373 0.0411 509.373 4.2191 517.02 4.2191 517.02 0.0451 517.02 0.0001"></polygon>
                    <polygon id="Fill-41" points="499.5495 0.0001 499.5495 0.0351 499.5495 4.2191 507.1965 4.2191 507.1965 0.0401 507.1965 0.0001"></polygon>
                    <polygon id="Fill-42" points="489.7251 0.0001 489.7251 0.0301 489.7251 4.2191 497.3721 4.2191 497.3721 0.0341 497.3721 0.0001"></polygon>
                    <polygon id="Fill-43" points="479.9016 0.0001 479.9016 0.0241 479.9016 4.2191 487.5476 4.2191 487.5476 0.0291 487.5476 0.0001"></polygon>
                    <polygon id="Fill-44" points="479.901 51.8003 487.548 51.8003 487.548 47.5813 479.901 47.5813"></polygon>
                    <polygon id="Fill-45" points="479.901 45.0033 487.548 45.0033 487.548 40.7843 479.901 40.7843"></polygon>
                    <polygon id="Fill-46" points="479.901 11.0163 487.548 11.0163 487.548 6.7973 479.901 6.7973"></polygon>
                    <polygon id="Fill-47" points="470.0772 0.0001 470.0772 0.0191 470.0772 4.2191 477.7242 4.2191 477.7242 0.0231 477.7242 0.0001"></polygon>
                    <polygon id="Fill-48" points="470.077 51.8003 477.724 51.8003 477.724 47.5813 470.077 47.5813"></polygon>
                    <polygon id="Fill-49" points="470.077 45.0033 477.724 45.0033 477.724 40.7843 470.077 40.7843"></polygon>
                    <polygon id="Fill-50" points="470.077 11.0163 477.724 11.0163 477.724 6.7973 470.077 6.7973"></polygon>
                    <polygon id="Fill-51" points="460.2528 0.0001 460.2528 0.0141 460.2528 4.2191 467.8998 4.2191 467.8998 0.0171 467.8998 0.0001"></polygon>
                    <polygon id="Fill-52" points="460.253 51.8003 467.9 51.8003 467.9 47.5813 460.253 47.5813"></polygon>
                    <polygon id="Fill-53" points="460.253 45.0033 467.9 45.0033 467.9 40.7843 460.253 40.7843"></polygon>
                    <polygon id="Fill-54" points="460.253 11.0163 467.9 11.0163 467.9 6.7973 460.253 6.7973"></polygon>
                    <polygon id="Fill-55" points="450.4293 0.0001 450.4293 0.0081 450.4293 4.2191 458.0763 4.2191 458.0763 0.0121 458.0763 0.0001"></polygon>
                    <polygon id="Fill-56" points="450.429 51.8003 458.076 51.8003 458.076 47.5813 450.429 47.5813"></polygon>
                    <polygon id="Fill-57" points="450.429 45.0033 458.076 45.0033 458.076 40.7843 450.429 40.7843"></polygon>
                    <polygon id="Fill-58" points="450.429 11.0163 458.076 11.0163 458.076 6.7973 450.429 6.7973"></polygon>
                    <polygon id="Fill-59" points="440.6931 0.0001 440.6931 0.0021 440.6931 4.2191 448.3401 4.2191 448.3401 0.0061 448.3401 0.0001"></polygon>
                    <polygon id="Fill-60" points="440.693 51.8003 448.34 51.8003 448.34 47.5813 440.693 47.5813"></polygon>
                    <polygon id="Fill-61" points="440.693 45.0033 448.34 45.0033 448.34 40.7843 440.693 40.7843"></polygon>
                    <polygon id="Fill-62" points="440.693 11.0163 448.34 11.0163 448.34 6.7973 440.693 6.7973"></polygon>
                    <polygon id="Fill-63" points="430.8696 0.0001 430.8696 4.2191 438.5166 4.2191 438.5166 0.0011 438.5166 0.0001"></polygon>
                    <polygon id="Fill-64" points="430.869 51.8003 438.516 51.8003 438.516 47.5813 430.869 47.5813"></polygon>
                    <polygon id="Fill-65" points="430.869 45.0033 438.516 45.0033 438.516 40.7843 430.869 40.7843"></polygon>
                    <polygon id="Fill-66" points="430.869 11.0163 438.516 11.0163 438.516 6.7973 430.869 6.7973"></polygon>
                    <polygon id="Fill-67" points="421.045 4.2193 428.692 4.2193 428.692 0.0003 421.045 0.0003"></polygon>
                    <polygon id="Fill-68" points="421.045 51.8003 428.692 51.8003 428.692 47.5813 421.045 47.5813"></polygon>
                    <polygon id="Fill-69" points="421.045 45.0033 428.692 45.0033 428.692 40.7843 421.045 40.7843"></polygon>
                    <polygon id="Fill-70" points="421.045 11.0163 428.692 11.0163 428.692 6.7973 421.045 6.7973"></polygon>
                    <polygon id="Fill-71" points="411.221 4.2193 418.868 4.2193 418.868 0.0003 411.221 0.0003"></polygon>
                    <polygon id="Fill-72" points="411.221 51.8003 418.868 51.8003 418.868 47.5813 411.221 47.5813"></polygon>
                    <polygon id="Fill-73" points="411.221 45.0033 418.868 45.0033 418.868 40.7843 411.221 40.7843"></polygon>
                    <polygon id="Fill-74" points="411.221 11.0163 418.868 11.0163 418.868 6.7973 411.221 6.7973"></polygon>
                    <polygon id="Fill-75" points="401.397 4.2193 409.044 4.2193 409.044 0.0003 401.397 0.0003"></polygon>
                    <polygon id="Fill-76" points="401.397 51.8003 409.044 51.8003 409.044 47.5813 401.397 47.5813"></polygon>
                    <polygon id="Fill-77" points="401.397 45.0033 409.044 45.0033 409.044 40.7843 401.397 40.7843"></polygon>
                    <polygon id="Fill-78" points="401.397 11.0163 409.044 11.0163 409.044 6.7973 401.397 6.7973"></polygon>
                    <polygon id="Fill-79" points="391.573 4.2193 399.22 4.2193 399.22 0.0003 391.573 0.0003"></polygon>
                    <polygon id="Fill-80" points="391.573 51.8003 399.22 51.8003 399.22 47.5813 391.573 47.5813"></polygon>
                    <polygon id="Fill-81" points="391.573 45.0033 399.22 45.0033 399.22 40.7843 391.573 40.7843"></polygon>
                    <polygon id="Fill-82" points="391.573 11.0163 399.22 11.0163 399.22 6.7973 391.573 6.7973"></polygon>
                    <polygon id="Fill-83" points="381.749 4.2193 389.395 4.2193 389.395 0.0003 381.749 0.0003"></polygon>
                    <polygon id="Fill-84" points="381.749 51.8003 389.396 51.8003 389.396 47.5813 381.749 47.5813"></polygon>
                    <polygon id="Fill-85" points="381.749 45.0033 389.396 45.0033 389.396 40.7843 381.749 40.7843"></polygon>
                    <polygon id="Fill-86" points="381.749 11.0163 389.396 11.0163 389.396 6.7973 381.749 6.7973"></polygon>
                    <polygon id="Fill-87" points="371.925 4.2193 379.572 4.2193 379.572 0.0003 371.925 0.0003"></polygon>
                    <polygon id="Fill-88" points="371.925 51.8003 379.572 51.8003 379.572 47.5813 371.925 47.5813"></polygon>
                    <polygon id="Fill-89" points="371.925 45.0033 379.572 45.0033 379.572 40.7843 371.925 40.7843"></polygon>
                    <polygon id="Fill-90" points="371.925 11.0163 379.572 11.0163 379.572 6.7973 371.925 6.7973"></polygon>
                    <polygon id="Fill-91" points="362.101 4.2193 369.748 4.2193 369.748 0.0003 362.101 0.0003"></polygon>
                    <polygon id="Fill-92" points="362.101 51.8003 369.748 51.8003 369.748 47.5813 362.101 47.5813"></polygon>
                    <polygon id="Fill-93" points="362.101 45.0033 369.748 45.0033 369.748 40.7843 362.101 40.7843"></polygon>
                    <polygon id="Fill-94" points="362.101 11.0163 369.748 11.0163 369.748 6.7973 362.101 6.7973"></polygon>
                    <polygon id="Fill-95" points="352.277 4.2193 359.924 4.2193 359.924 0.0003 352.277 0.0003"></polygon>
                    <polygon id="Fill-96" points="352.277 51.8003 359.924 51.8003 359.924 47.5813 352.277 47.5813"></polygon>
                    <polygon id="Fill-97" points="352.277 45.0033 359.924 45.0033 359.924 40.7843 352.277 40.7843"></polygon>
                    <polygon id="Fill-98" points="352.277 11.0163 359.924 11.0163 359.924 6.7973 352.277 6.7973"></polygon>
                    <polygon id="Fill-99" points="37.767 4.2193 45.414 4.2193 45.414 0.0003 37.767 0.0003"></polygon>
                    <polygon id="Fill-100" points="47.591 4.2193 55.238 4.2193 55.238 0.0003 47.591 0.0003"></polygon>
                    <polygon id="Fill-101" points="57.415 4.2193 65.062 4.2193 65.062 0.0003 57.415 0.0003"></polygon>
                    <polygon id="Fill-102" points="67.239 4.2193 74.886 4.2193 74.886 0.0003 67.239 0.0003"></polygon>
                    <polygon id="Fill-103" points="77.063 4.2193 84.71 4.2193 84.71 0.0003 77.063 0.0003"></polygon>
                    <polygon id="Fill-104" points="86.887 4.2193 94.534 4.2193 94.534 0.0003 86.887 0.0003"></polygon>
                    <polygon id="Fill-105" points="96.711 4.2193 104.358 4.2193 104.358 0.0003 96.711 0.0003"></polygon>
                    <polygon id="Fill-106" points="106.536 4.2193 114.183 4.2193 114.183 0.0003 106.536 0.0003"></polygon>
                    <polygon id="Fill-107" points="116.359 4.2193 124.006 4.2193 124.006 0.0003 116.359 0.0003"></polygon>
                    <polygon id="Fill-108" points="126.184 4.2193 133.831 4.2193 133.831 0.0003 126.184 0.0003"></polygon>
                    <polygon id="Fill-109" points="136.008 4.2193 143.654 4.2193 143.654 0.0003 136.008 0.0003"></polygon>
                    <polygon id="Fill-110" points="145.831 4.2193 153.478 4.2193 153.478 0.0003 145.831 0.0003"></polygon>
                    <polygon id="Fill-111" points="155.656 4.2193 163.303 4.2193 163.303 0.0003 155.656 0.0003"></polygon>
                    <polygon id="Fill-112" points="165.479 4.2193 173.126 4.2193 173.126 0.0003 165.479 0.0003"></polygon>
                    <polygon id="Fill-113" points="175.304 4.2193 182.951 4.2193 182.951 0.0003 175.304 0.0003"></polygon>
                    <polygon id="Fill-114" points="185.128 4.2193 192.774 4.2193 192.774 0.0003 185.128 0.0003"></polygon>
                    <polygon id="Fill-115" points="194.952 4.2193 202.599 4.2193 202.599 0.0003 194.952 0.0003"></polygon>
                    <polygon id="Fill-116" points="194.952 51.8003 202.599 51.8003 202.599 47.5813 194.952 47.5813"></polygon>
                    <polygon id="Fill-117" points="194.952 45.0033 202.599 45.0033 202.599 40.7843 194.952 40.7843"></polygon>
                    <polygon id="Fill-118" points="194.952 38.2053 202.599 38.2053 202.599 33.9863 194.952 33.9863"></polygon>
                    <polygon id="Fill-119" points="194.952 31.4083 202.599 31.4083 202.599 27.1893 194.952 27.1893"></polygon>
                    <polygon id="Fill-120" points="194.952 24.6113 202.599 24.6113 202.599 20.3923 194.952 20.3923"></polygon>
                    <polygon id="Fill-121" points="194.952 17.8133 202.599 17.8133 202.599 13.5943 194.952 13.5943"></polygon>
                    <polygon id="Fill-122" points="194.952 11.0163 202.599 11.0163 202.599 6.7973 194.952 6.7973"></polygon>
                    <polygon id="Fill-123" points="204.776 4.2193 212.423 4.2193 212.423 0.0003 204.776 0.0003"></polygon>
                    <polygon id="Fill-124" points="204.776 51.8003 212.423 51.8003 212.423 47.5813 204.776 47.5813"></polygon>
                    <polygon id="Fill-125" points="204.776 45.0033 212.423 45.0033 212.423 40.7843 204.776 40.7843"></polygon>
                    <polygon id="Fill-126" points="204.776 38.2053 212.423 38.2053 212.423 33.9863 204.776 33.9863"></polygon>
                    <polygon id="Fill-127" points="204.776 31.4083 212.423 31.4083 212.423 27.1893 204.776 27.1893"></polygon>
                    <polygon id="Fill-128" points="204.776 24.6113 212.423 24.6113 212.423 20.3923 204.776 20.3923"></polygon>
                    <polygon id="Fill-129" points="204.776 17.8133 212.423 17.8133 212.423 13.5943 204.776 13.5943"></polygon>
                    <polygon id="Fill-130" points="204.776 11.0163 212.423 11.0163 212.423 6.7973 204.776 6.7973"></polygon>
                    <polygon id="Fill-131" points="214.6 4.2193 222.246 4.2193 222.246 0.0003 214.6 0.0003"></polygon>
                    <polygon id="Fill-132" points="214.6 45.0033 222.247 45.0033 222.247 40.7843 214.6 40.7843"></polygon>
                    <polygon id="Fill-133" points="214.6 38.2053 222.247 38.2053 222.247 33.9863 214.6 33.9863"></polygon>
                    <polygon id="Fill-134" points="214.6 31.4083 222.247 31.4083 222.247 27.1893 214.6 27.1893"></polygon>
                    <polygon id="Fill-135" points="214.6 24.6113 222.247 24.6113 222.247 20.3923 214.6 20.3923"></polygon>
                    <polygon id="Fill-136" points="214.6 17.8133 222.247 17.8133 222.247 13.5943 214.6 13.5943"></polygon>
                    <polygon id="Fill-137" points="214.6 11.0163 222.247 11.0163 222.247 6.7973 214.6 6.7973"></polygon>
                    <polygon id="Fill-138" points="224.424 4.2193 232.071 4.2193 232.071 0.0003 224.424 0.0003"></polygon>
                    <polygon id="Fill-139" points="224.424 51.8003 232.071 51.8003 232.071 47.5813 224.424 47.5813"></polygon>
                    <polygon id="Fill-140" points="224.424 45.0033 232.071 45.0033 232.071 40.7843 224.424 40.7843"></polygon>
                    <polygon id="Fill-141" points="224.424 38.2053 232.071 38.2053 232.071 33.9863 224.424 33.9863"></polygon>
                    <polygon id="Fill-142" points="224.424 31.4083 232.071 31.4083 232.071 27.1893 224.424 27.1893"></polygon>
                    <polygon id="Fill-143" points="224.424 24.6113 232.071 24.6113 232.071 20.3923 224.424 20.3923"></polygon>
                    <polygon id="Fill-144" points="224.424 17.8133 232.071 17.8133 232.071 13.5943 224.424 13.5943"></polygon>
                    <polygon id="Fill-145" points="224.424 11.0163 232.071 11.0163 232.071 6.7973 224.424 6.7973"></polygon>
                    <polygon id="Fill-146" points="234.248 4.2193 241.895 4.2193 241.895 0.0003 234.248 0.0003"></polygon>
                    <polygon id="Fill-147" points="234.248 51.8003 241.895 51.8003 241.895 47.5813 234.248 47.5813"></polygon>
                    <polygon id="Fill-148" points="234.248 45.0033 241.895 45.0033 241.895 40.7843 234.248 40.7843"></polygon>
                    <polygon id="Fill-149" points="234.248 38.2053 241.895 38.2053 241.895 33.9863 234.248 33.9863"></polygon>
                    <polygon id="Fill-150" points="234.248 31.4083 241.895 31.4083 241.895 27.1893 234.248 27.1893"></polygon>
                    <polygon id="Fill-151" points="234.248 24.6113 241.895 24.6113 241.895 20.3923 234.248 20.3923"></polygon>
                    <polygon id="Fill-152" points="234.248 17.8133 241.895 17.8133 241.895 13.5943 234.248 13.5943"></polygon>
                    <polygon id="Fill-153" points="234.248 11.0163 241.895 11.0163 241.895 6.7973 234.248 6.7973"></polygon>
                    <polygon id="Fill-154" points="244.072 4.2193 251.719 4.2193 251.719 0.0003 244.072 0.0003"></polygon>
                    <polygon id="Fill-155" points="244.072 51.8003 251.719 51.8003 251.719 47.5813 244.072 47.5813"></polygon>
                    <polygon id="Fill-156" points="244.072 45.0033 251.719 45.0033 251.719 40.7843 244.072 40.7843"></polygon>
                    <polygon id="Fill-157" points="244.072 38.2053 251.719 38.2053 251.719 33.9863 244.072 33.9863"></polygon>
                    <polygon id="Fill-158" points="244.072 31.4083 251.719 31.4083 251.719 27.1893 244.072 27.1893"></polygon>
                    <polygon id="Fill-159" points="244.072 24.6113 251.719 24.6113 251.719 20.3923 244.072 20.3923"></polygon>
                    <polygon id="Fill-160" points="244.072 17.8133 251.719 17.8133 251.719 13.5943 244.072 13.5943"></polygon>
                    <polygon id="Fill-161" points="244.072 11.0163 251.719 11.0163 251.719 6.7973 244.072 6.7973"></polygon>
                    <polygon id="Fill-162" points="253.896 4.2193 261.543 4.2193 261.543 0.0003 253.896 0.0003"></polygon>
                    <polygon id="Fill-163" points="253.896 51.8003 261.543 51.8003 261.543 47.5813 253.896 47.5813"></polygon>
                    <polygon id="Fill-164" points="253.896 45.0033 261.543 45.0033 261.543 40.7843 253.896 40.7843"></polygon>
                    <polygon id="Fill-165" points="253.896 38.2053 261.543 38.2053 261.543 33.9863 253.896 33.9863"></polygon>
                    <polygon id="Fill-166" points="253.896 31.4083 261.543 31.4083 261.543 27.1893 253.896 27.1893"></polygon>
                    <polygon id="Fill-167" points="253.896 24.6113 261.543 24.6113 261.543 20.3923 253.896 20.3923"></polygon>
                    <polygon id="Fill-168" points="253.896 17.8133 261.543 17.8133 261.543 13.5943 253.896 13.5943"></polygon>
                    <polygon id="Fill-169" points="253.896 11.0163 261.543 11.0163 261.543 6.7973 253.896 6.7973"></polygon>
                    <polygon id="Fill-170" points="263.721 4.2193 271.367 4.2193 271.367 0.0003 263.721 0.0003"></polygon>
                    <polygon id="Fill-171" points="263.72 51.8003 271.367 51.8003 271.367 47.5813 263.72 47.5813"></polygon>
                    <polygon id="Fill-172" points="263.72 45.0033 271.367 45.0033 271.367 40.7843 263.72 40.7843"></polygon>
                    <polygon id="Fill-173" points="263.72 38.2053 271.367 38.2053 271.367 33.9863 263.72 33.9863"></polygon>
                    <polygon id="Fill-174" points="263.72 31.4083 271.367 31.4083 271.367 27.1893 263.72 27.1893"></polygon>
                    <polygon id="Fill-175" points="263.72 24.6113 271.367 24.6113 271.367 20.3923 263.72 20.3923"></polygon>
                    <polygon id="Fill-176" points="263.72 17.8133 271.367 17.8133 271.367 13.5943 263.72 13.5943"></polygon>
                    <polygon id="Fill-177" points="263.72 11.0163 271.367 11.0163 271.367 6.7973 263.72 6.7973"></polygon>
                    <polygon id="Fill-178" points="273.544 4.2193 281.191 4.2193 281.191 0.0003 273.544 0.0003"></polygon>
                    <polygon id="Fill-179" points="273.544 51.8003 281.191 51.8003 281.191 47.5813 273.544 47.5813"></polygon>
                    <polygon id="Fill-180" points="273.544 45.0033 281.191 45.0033 281.191 40.7843 273.544 40.7843"></polygon>
                    <polygon id="Fill-181" points="273.544 38.2053 281.191 38.2053 281.191 33.9863 273.544 33.9863"></polygon>
                    <polygon id="Fill-182" points="273.544 31.4083 281.191 31.4083 281.191 27.1893 273.544 27.1893"></polygon>
                    <polygon id="Fill-183" points="273.544 24.6113 281.191 24.6113 281.191 20.3923 273.544 20.3923"></polygon>
                    <polygon id="Fill-184" points="273.544 17.8133 281.191 17.8133 281.191 13.5943 273.544 13.5943"></polygon>
                    <polygon id="Fill-185" points="273.544 11.0163 281.191 11.0163 281.191 6.7973 273.544 6.7973"></polygon>
                    <polygon id="Fill-186" points="283.369 4.2193 291.016 4.2193 291.016 0.0003 283.369 0.0003"></polygon>
                    <polygon id="Fill-187" points="283.369 51.8003 291.016 51.8003 291.016 47.5813 283.369 47.5813"></polygon>
                    <polygon id="Fill-188" points="283.369 45.0033 291.016 45.0033 291.016 40.7843 283.369 40.7843"></polygon>
                    <polygon id="Fill-189" points="283.369 38.2053 291.016 38.2053 291.016 33.9863 283.369 33.9863"></polygon>
                    <polygon id="Fill-190" points="283.369 31.4083 291.016 31.4083 291.016 27.1893 283.369 27.1893"></polygon>
                    <polygon id="Fill-191" points="283.369 24.6113 291.016 24.6113 291.016 20.3923 283.369 20.3923"></polygon>
                    <polygon id="Fill-192" points="283.369 17.8133 291.016 17.8133 291.016 13.5943 283.369 13.5943"></polygon>
                    <polygon id="Fill-193" points="283.369 11.0163 291.016 11.0163 291.016 6.7973 283.369 6.7973"></polygon>
                    <polygon id="Fill-194" points="293.193 4.2193 300.839 4.2193 300.839 0.0003 293.193 0.0003"></polygon>
                    <polygon id="Fill-195" points="293.193 51.8003 300.84 51.8003 300.84 47.5813 293.193 47.5813"></polygon>
                    <polygon id="Fill-196" points="293.193 45.0033 300.84 45.0033 300.84 40.7843 293.193 40.7843"></polygon>
                    <polygon id="Fill-197" points="293.193 11.0163 300.84 11.0163 300.84 6.7973 293.193 6.7973"></polygon>
                    <polygon id="Fill-198" points="303.016 4.2193 310.663 4.2193 310.663 0.0003 303.016 0.0003"></polygon>
                    <polygon id="Fill-199" points="303.017 51.8003 310.664 51.8003 310.664 47.5813 303.017 47.5813"></polygon>
                    <polygon id="Fill-200" points="303.017 45.0033 310.664 45.0033 310.664 40.7843 303.017 40.7843"></polygon>
                    <polygon id="Fill-201" points="303.017 11.0163 310.664 11.0163 310.664 6.7973 303.017 6.7973"></polygon>
                    <polygon id="Fill-202" points="312.841 4.2193 320.488 4.2193 320.488 0.0003 312.841 0.0003"></polygon>
                    <polygon id="Fill-203" points="312.841 51.8003 320.488 51.8003 320.488 47.5813 312.841 47.5813"></polygon>
                    <polygon id="Fill-204" points="312.841 45.0033 320.488 45.0033 320.488 40.7843 312.841 40.7843"></polygon>
                    <polygon id="Fill-205" points="312.841 11.0163 320.488 11.0163 320.488 6.7973 312.841 6.7973"></polygon>
                    <polygon id="Fill-206" points="322.664 4.2193 330.311 4.2193 330.311 0.0003 322.664 0.0003"></polygon>
                    <polygon id="Fill-207" points="322.665 51.8003 330.312 51.8003 330.312 47.5813 322.665 47.5813"></polygon>
                    <polygon id="Fill-208" points="322.665 45.0033 330.312 45.0033 330.312 40.7843 322.665 40.7843"></polygon>
                    <polygon id="Fill-209" points="322.665 11.0163 330.312 11.0163 330.312 6.7973 322.665 6.7973"></polygon>
                    <polygon id="Fill-210" points="332.489 4.2193 340.136 4.2193 340.136 0.0003 332.489 0.0003"></polygon>
                    <polygon id="Fill-211" points="332.489 51.8003 340.136 51.8003 340.136 47.5813 332.489 47.5813"></polygon>
                    <polygon id="Fill-212" points="332.489 45.0033 340.136 45.0033 340.136 40.7843 332.489 40.7843"></polygon>
                    <polygon id="Fill-213" points="332.489 11.0163 340.136 11.0163 340.136 6.7973 332.489 6.7973"></polygon>
                    <polygon id="Fill-214" points="342.313 4.2193 349.959 4.2193 349.959 0.0003 342.313 0.0003"></polygon>
                    <polygon id="Fill-215" points="342.313 51.8003 349.96 51.8003 349.96 47.5813 342.313 47.5813"></polygon>
                    <polygon id="Fill-216" points="342.313 45.0033 349.96 45.0033 349.96 40.7843 342.313 40.7843"></polygon>
                    <polygon id="Fill-217" points="342.313 11.0163 349.96 11.0163 349.96 6.7973 342.313 6.7973"></polygon>
                    <polygon id="Fill-218" points="37.767 10.6243 45.414 10.6243 45.414 6.4053 37.767 6.4053"></polygon>
                    <polygon id="Fill-219" points="47.591 24.2193 55.238 24.2193 55.238 20.0003 47.591 20.0003"></polygon>
                    <polygon id="Fill-220" points="47.591 17.4223 55.238 17.4223 55.238 13.2033 47.591 13.2033"></polygon>
                    <polygon id="Fill-221" points="47.591 10.6243 55.238 10.6243 55.238 6.4053 47.591 6.4053"></polygon>
                    <polygon id="Fill-222" points="57.415 17.4223 65.062 17.4223 65.062 13.2033 57.415 13.2033"></polygon>
                    <polygon id="Fill-223" points="67.239 31.0163 74.886 31.0163 74.886 26.7973 67.239 26.7973"></polygon>
                    <polygon id="Fill-224" points="67.239 17.4223 74.886 17.4223 74.886 13.2033 67.239 13.2033"></polygon>
                    <polygon id="Fill-225" points="77.239 17.4223 84.886 17.4223 84.886 13.2033 77.239 13.2033"></polygon>
                    <polygon id="Fill-226" points="67.239 10.6243 74.886 10.6243 74.886 6.4053 67.239 6.4053"></polygon>
                    <polygon id="Fill-227" points="77.063 10.6243 84.71 10.6243 84.71 6.4053 77.063 6.4053"></polygon>
                    <polygon id="Fill-228" points="86.887 24.2193 94.534 24.2193 94.534 20.0003 86.887 20.0003"></polygon>
                    <polygon id="Fill-229" points="86.887 10.6243 94.534 10.6243 94.534 6.4053 86.887 6.4053"></polygon>
                    <polygon id="Fill-230" points="96.711 37.8133 104.358 37.8133 104.358 33.5943 96.711 33.5943"></polygon>
                    <polygon id="Fill-231" points="96.711 31.0163 104.358 31.0163 104.358 26.7973 96.711 26.7973"></polygon>
                    <polygon id="Fill-232" points="96.711 24.2193 104.358 24.2193 104.358 20.0003 96.711 20.0003"></polygon>
                    <polygon id="Fill-233" points="96.711 17.4223 104.358 17.4223 104.358 13.2033 96.711 13.2033"></polygon>
                    <polygon id="Fill-234" points="96.711 10.6243 104.358 10.6243 104.358 6.4053 96.711 6.4053"></polygon>
                    <polygon id="Fill-235" points="106.535 24.2193 114.182 24.2193 114.182 20.0003 106.535 20.0003"></polygon>
                    <polygon id="Fill-236" points="106.535 17.4223 114.182 17.4223 114.182 13.2033 106.535 13.2033"></polygon>
                    <polygon id="Fill-237" points="106.535 10.6243 114.182 10.6243 114.182 6.4053 106.535 6.4053"></polygon>
                    <polygon id="Fill-238" points="116.359 31.0163 124.006 31.0163 124.006 26.7973 116.359 26.7973"></polygon>
                    <polygon id="Fill-239" points="116.359 24.2193 124.006 24.2193 124.006 20.0003 116.359 20.0003"></polygon>
                    <polygon id="Fill-240" points="116.359 17.4223 124.006 17.4223 124.006 13.2033 116.359 13.2033"></polygon>
                    <polygon id="Fill-241" points="116.359 10.6243 124.006 10.6243 124.006 6.4053 116.359 6.4053"></polygon>
                    <polygon id="Fill-242" points="126.184 44.6113 133.831 44.6113 133.831 40.3923 126.184 40.3923"></polygon>
                    <polygon id="Fill-243" points="126.184 31.0163 133.831 31.0163 133.831 26.7973 126.184 26.7973"></polygon>
                    <polygon id="Fill-244" points="126.184 24.2193 133.831 24.2193 133.831 20.0003 126.184 20.0003"></polygon>
                    <polygon id="Fill-245" points="126.184 17.4223 133.831 17.4223 133.831 13.2033 126.184 13.2033"></polygon>
                    <polygon id="Fill-246" points="126.184 10.6243 133.831 10.6243 133.831 6.4053 126.184 6.4053"></polygon>
                    <polygon id="Fill-247" points="136.008 31.0163 143.655 31.0163 143.655 26.7973 136.008 26.7973"></polygon>
                    <polygon id="Fill-248" points="136.008 17.4223 143.655 17.4223 143.655 13.2033 136.008 13.2033"></polygon>
                    <polygon id="Fill-249" points="136.008 10.6243 143.655 10.6243 143.655 6.4053 136.008 6.4053"></polygon>
                    <polygon id="Fill-250" points="145.832 51.4083 153.479 51.4083 153.479 47.1893 145.832 47.1893"></polygon>
                    <polygon id="Fill-251" points="145.832 37.8133 153.479 37.8133 153.479 33.5943 145.832 33.5943"></polygon>
                    <polygon id="Fill-252" points="145.832 31.0163 153.479 31.0163 153.479 26.7973 145.832 26.7973"></polygon>
                    <polygon id="Fill-253" points="145.832 24.2193 153.479 24.2193 153.479 20.0003 145.832 20.0003"></polygon>
                    <polygon id="Fill-254" points="145.832 17.4223 153.479 17.4223 153.479 13.2033 145.832 13.2033"></polygon>
                    <polygon id="Fill-255" points="145.832 10.6243 153.479 10.6243 153.479 6.4053 145.832 6.4053"></polygon>
                    <polygon id="Fill-256" points="155.656 44.6113 163.303 44.6113 163.303 40.3923 155.656 40.3923"></polygon>
                    <polygon id="Fill-257" points="155.656 37.8133 163.303 37.8133 163.303 33.5943 155.656 33.5943"></polygon>
                    <polygon id="Fill-258" points="155.656 31.0163 163.303 31.0163 163.303 26.7973 155.656 26.7973"></polygon>
                    <polygon id="Fill-259" points="155.656 24.2193 163.303 24.2193 163.303 20.0003 155.656 20.0003"></polygon>
                    <polygon id="Fill-260" points="155.656 17.4223 163.303 17.4223 163.303 13.2033 155.656 13.2033"></polygon>
                    <polygon id="Fill-261" points="155.656 10.6243 163.303 10.6243 163.303 6.4053 155.656 6.4053"></polygon>
                    <polygon id="Fill-262" points="165.48 51.4083 173.127 51.4083 173.127 47.1893 165.48 47.1893"></polygon>
                    <polygon id="Fill-263" points="165.48 44.6113 173.127 44.6113 173.127 40.3923 165.48 40.3923"></polygon>
                    <polygon id="Fill-264" points="165.48 37.8133 173.127 37.8133 173.127 33.5943 165.48 33.5943"></polygon>
                    <polygon id="Fill-265" points="165.48 31.0163 173.127 31.0163 173.127 26.7973 165.48 26.7973"></polygon>
                    <polygon id="Fill-266" points="165.48 24.2193 173.127 24.2193 173.127 20.0003 165.48 20.0003"></polygon>
                    <polygon id="Fill-267" points="165.48 17.4223 173.127 17.4223 173.127 13.2033 165.48 13.2033"></polygon>
                    <polygon id="Fill-268" points="165.48 10.6243 173.127 10.6243 173.127 6.4053 165.48 6.4053"></polygon>
                    <polygon id="Fill-269" points="175.304 51.4083 182.951 51.4083 182.951 47.1893 175.304 47.1893"></polygon>
                    <polygon id="Fill-270" points="175.304 37.8133 182.951 37.8133 182.951 33.5943 175.304 33.5943"></polygon>
                    <polygon id="Fill-271" points="175.304 31.0163 182.951 31.0163 182.951 26.7973 175.304 26.7973"></polygon>
                    <polygon id="Fill-272" points="175.304 24.2193 182.951 24.2193 182.951 20.0003 175.304 20.0003"></polygon>
                    <polygon id="Fill-273" points="175.304 17.4223 182.951 17.4223 182.951 13.2033 175.304 13.2033"></polygon>
                    <polygon id="Fill-274" points="175.304 10.6243 182.951 10.6243 182.951 6.4053 175.304 6.4053"></polygon>
                    <polygon id="Fill-275" points="185.128 51.4083 192.775 51.4083 192.775 47.1893 185.128 47.1893"></polygon>
                    <polygon id="Fill-276" points="185.128 44.6113 192.775 44.6113 192.775 40.3923 185.128 40.3923"></polygon>
                    <polygon id="Fill-277" points="185.128 37.8133 192.775 37.8133 192.775 33.5943 185.128 33.5943"></polygon>
                    <polygon id="Fill-278" points="185.128 31.0163 192.775 31.0163 192.775 26.7973 185.128 26.7973"></polygon>
                    <polygon id="Fill-279" points="185.128 24.2193 192.775 24.2193 192.775 20.0003 185.128 20.0003"></polygon>
                    <polygon id="Fill-280" points="185.128 17.4223 192.775 17.4223 192.775 13.2033 185.128 13.2033"></polygon>
                    <polygon id="Fill-281" points="185.128 10.6243 192.775 10.6243 192.775 6.4053 185.128 6.4053"></polygon>
                    <polygon id="Fill-282" points="0.5 4.2193 6.169 4.2193 6.169 0.0003 0.5 0.0003"></polygon>
                    <polygon id="Fill-283" points="8.346 11.0163 15.993 11.0163 15.993 6.7973 8.346 6.7973"></polygon>
                    <polygon id="Fill-284" points="8.347 4.2193 15.993 4.2193 15.993 0.0003 8.347 0.0003"></polygon>
                    <polygon id="Fill-285" points="8.346 24.6113 15.993 24.6113 15.993 20.3923 8.346 20.3923"></polygon>
                    <polygon id="Fill-286" points="18.17 11.0163 25.817 11.0163 25.817 6.7973 18.17 6.7973"></polygon>
                    <polygon id="Fill-287" points="18.17 17.8133 25.817 17.8133 25.817 13.5943 18.17 13.5943"></polygon>
                    <polygon id="Fill-288" points="27.994 11.0163 35.641 11.0163 35.641 6.7973 27.994 6.7973"></polygon>
                    <polygon id="Fill-289" points="27.995 4.2193 35.642 4.2193 35.642 0.0003 27.995 0.0003"></polygon>
                    <polygon id="Fill-290" points="27.994 31.4083 35.641 31.4083 35.641 27.1893 27.994 27.1893"></polygon>
                    <polygon id="Fill-291" points="27.994 24.6113 35.641 24.6113 35.641 20.3923 27.994 20.3923"></polygon>
                    <polygon id="Fill-292" points="794.121 11.0163 801.768 11.0163 801.768 6.7973 794.121 6.7973"></polygon>
                    <polygon id="Fill-293" points="784.296 11.0163 791.943 11.0163 791.943 6.7973 784.296 6.7973"></polygon>
                    <polygon id="Fill-294" points="774.472 11.0163 782.119 11.0163 782.119 6.7973 774.472 6.7973"></polygon>
                    <polygon id="Fill-295" points="764.648 11.0163 772.295 11.0163 772.295 6.7973 764.648 6.7973"></polygon>
                    <polygon id="Fill-296" points="754.824 11.0163 762.471 11.0163 762.471 6.7973 754.824 6.7973"></polygon>
                    <polygon id="Fill-297" points="745 11.0163 752.647 11.0163 752.647 6.7973 745 6.7973"></polygon>
                    <polygon id="Fill-298" points="735.176 11.0163 742.823 11.0163 742.823 6.7973 735.176 6.7973"></polygon>
                    <polygon id="Fill-299" points="725.352 11.0163 732.999 11.0163 732.999 6.7973 725.352 6.7973"></polygon>
                    <polygon id="Fill-300" points="715.528 11.0163 723.175 11.0163 723.175 6.7973 715.528 6.7973"></polygon>
                    <polygon id="Fill-301" points="705.704 11.0163 713.351 11.0163 713.351 6.7973 705.704 6.7973"></polygon>
                    <polygon id="Fill-302" points="695.88 11.0163 703.527 11.0163 703.527 6.7973 695.88 6.7973"></polygon>
                    <polygon id="Fill-303" points="686.056 11.0163 693.703 11.0163 693.703 6.7973 686.056 6.7973"></polygon>
                    <polygon id="Fill-304" points="676.232 11.0163 683.879 11.0163 683.879 6.7973 676.232 6.7973"></polygon>
                    <polygon id="Fill-305" points="666.408 11.0163 674.055 11.0163 674.055 6.7973 666.408 6.7973"></polygon>
                    <polygon id="Fill-306" points="656.584 11.0163 664.231 11.0163 664.231 6.7973 656.584 6.7973"></polygon>
                    <polygon id="Fill-307" points="646.76 11.0163 654.407 11.0163 654.407 6.7973 646.76 6.7973"></polygon>
                    <polygon id="Fill-308" points="636.936 11.0163 644.583 11.0163 644.583 6.7973 636.936 6.7973"></polygon>
                    <polygon id="Fill-309" points="636.936 51.8003 644.583 51.8003 644.583 47.5813 636.936 47.5813"></polygon>
                    <polygon id="Fill-310" points="636.936 45.0033 644.583 45.0033 644.583 40.7843 636.936 40.7843"></polygon>
                    <polygon id="Fill-311" points="636.936 38.2053 644.583 38.2053 644.583 33.9863 636.936 33.9863"></polygon>
                    <polygon id="Fill-312" points="636.936 31.4083 644.583 31.4083 644.583 27.1893 636.936 27.1893"></polygon>
                    <polygon id="Fill-313" points="636.936 24.6113 644.583 24.6113 644.583 20.3923 636.936 20.3923"></polygon>
                    <polygon id="Fill-314" points="636.936 17.8133 644.583 17.8133 644.583 13.5943 636.936 13.5943"></polygon>
                    <polygon id="Fill-315" points="627.111 11.0163 634.758 11.0163 634.758 6.7973 627.111 6.7973"></polygon>
                    <polygon id="Fill-316" points="627.111 51.8003 634.758 51.8003 634.758 47.5813 627.111 47.5813"></polygon>
                    <polygon id="Fill-317" points="627.111 45.0033 634.758 45.0033 634.758 40.7843 627.111 40.7843"></polygon>
                    <polygon id="Fill-318" points="627.111 38.2053 634.758 38.2053 634.758 33.9863 627.111 33.9863"></polygon>
                    <polygon id="Fill-319" points="627.111 31.4083 634.758 31.4083 634.758 27.1893 627.111 27.1893"></polygon>
                    <polygon id="Fill-320" points="627.111 24.6113 634.758 24.6113 634.758 20.3923 627.111 20.3923"></polygon>
                    <polygon id="Fill-321" points="627.111 17.8133 634.758 17.8133 634.758 13.5943 627.111 13.5943"></polygon>
                    <polygon id="Fill-322" points="617.287 11.0163 624.934 11.0163 624.934 6.7973 617.287 6.7973"></polygon>
                    <polygon id="Fill-323" points="617.287 51.8003 624.934 51.8003 624.934 47.5813 617.287 47.5813"></polygon>
                    <polygon id="Fill-324" points="617.287 45.0033 624.934 45.0033 624.934 40.7843 617.287 40.7843"></polygon>
                    <polygon id="Fill-325" points="617.287 38.2053 624.934 38.2053 624.934 33.9863 617.287 33.9863"></polygon>
                    <polygon id="Fill-326" points="617.287 31.4083 624.934 31.4083 624.934 27.1893 617.287 27.1893"></polygon>
                    <polygon id="Fill-327" points="617.287 24.6113 624.934 24.6113 624.934 20.3923 617.287 20.3923"></polygon>
                    <polygon id="Fill-328" points="617.287 17.8133 624.934 17.8133 624.934 13.5943 617.287 13.5943"></polygon>
                    <polygon id="Fill-329" points="607.463 11.0163 615.11 11.0163 615.11 6.7973 607.463 6.7973"></polygon>
                    <polygon id="Fill-330" points="607.463 51.8003 615.11 51.8003 615.11 47.5813 607.463 47.5813"></polygon>
                    <polygon id="Fill-331" points="607.463 45.0033 615.11 45.0033 615.11 40.7843 607.463 40.7843"></polygon>
                    <polygon id="Fill-332" points="607.463 38.2053 615.11 38.2053 615.11 33.9863 607.463 33.9863"></polygon>
                    <polygon id="Fill-333" points="607.463 31.4083 615.11 31.4083 615.11 27.1893 607.463 27.1893"></polygon>
                    <polygon id="Fill-334" points="607.463 24.6113 615.11 24.6113 615.11 20.3923 607.463 20.3923"></polygon>
                    <polygon id="Fill-335" points="607.463 17.8133 615.11 17.8133 615.11 13.5943 607.463 13.5943"></polygon>
                    <polygon id="Fill-336" points="597.639 11.0163 605.286 11.0163 605.286 6.7973 597.639 6.7973"></polygon>
                    <polygon id="Fill-337" points="597.639 51.8003 605.286 51.8003 605.286 47.5813 597.639 47.5813"></polygon>
                    <polygon id="Fill-338" points="597.639 45.0033 605.286 45.0033 605.286 40.7843 597.639 40.7843"></polygon>
                    <polygon id="Fill-339" points="603.326 38.2053 605.287 38.2053 605.287 33.9863 603.326 33.9863"></polygon>
                    <polygon id="Fill-340" points="603.326 31.4083 605.287 31.4083 605.287 27.1893 603.326 27.1893"></polygon>
                    <polygon id="Fill-341" points="603.326 24.6113 605.287 24.6113 605.287 20.3923 603.326 20.3923"></polygon>
                    <polygon id="Fill-342" points="603.326 17.8133 605.287 17.8133 605.287 13.5943 603.326 13.5943"></polygon>
                    <polygon id="Fill-343" points="587.815 11.0163 595.462 11.0163 595.462 6.7973 587.815 6.7973"></polygon>
                    <polygon id="Fill-344" points="587.815 51.8003 595.462 51.8003 595.462 47.5813 587.815 47.5813"></polygon>
                    <polygon id="Fill-345" points="587.815 45.0033 595.462 45.0033 595.462 40.7843 587.815 40.7843"></polygon>
                    <polygon id="Fill-346" points="577.991 11.0163 585.638 11.0163 585.638 6.7973 577.991 6.7973"></polygon>
                    <polygon id="Fill-347" points="577.991 51.8003 585.638 51.8003 585.638 47.5813 577.991 47.5813"></polygon>
                    <polygon id="Fill-348" points="577.991 45.0033 585.638 45.0033 585.638 40.7843 577.991 40.7843"></polygon>
                    <polygon id="Fill-349" points="568.167 11.0163 575.814 11.0163 575.814 6.7973 568.167 6.7973"></polygon>
                    <polygon id="Fill-350" points="568.167 51.8003 575.814 51.8003 575.814 47.5813 568.167 47.5813"></polygon>
                    <polygon id="Fill-351" points="568.167 45.0033 575.814 45.0033 575.814 40.7843 568.167 40.7843"></polygon>
                    <polygon id="Fill-352" points="558.343 11.0163 565.99 11.0163 565.99 6.7973 558.343 6.7973"></polygon>
                    <polygon id="Fill-353" points="558.343 51.8003 565.99 51.8003 565.99 47.5813 558.343 47.5813"></polygon>
                    <polygon id="Fill-354" points="558.343 45.0033 565.99 45.0033 565.99 40.7843 558.343 40.7843"></polygon>
                    <polygon id="Fill-355" points="548.519 11.0163 556.166 11.0163 556.166 6.7973 548.519 6.7973"></polygon>
                    <polygon id="Fill-356" points="548.519 51.8003 556.166 51.8003 556.166 47.5813 548.519 47.5813"></polygon>
                    <polygon id="Fill-357" points="548.519 45.0033 556.166 45.0033 556.166 40.7843 548.519 40.7843"></polygon>
                    <polygon id="Fill-358" points="538.695 11.0163 546.342 11.0163 546.342 6.7973 538.695 6.7973"></polygon>
                    <polygon id="Fill-359" points="538.695 51.8003 546.342 51.8003 546.342 47.5813 538.695 47.5813"></polygon>
                    <polygon id="Fill-360" points="538.695 45.0033 546.342 45.0033 546.342 40.7843 538.695 40.7843"></polygon>
                    <polygon id="Fill-361" points="528.871 11.0163 536.518 11.0163 536.518 6.7973 528.871 6.7973"></polygon>
                    <polygon id="Fill-362" points="528.871 51.8003 536.518 51.8003 536.518 47.5813 528.871 47.5813"></polygon>
                    <polygon id="Fill-363" points="528.871 45.0033 536.518 45.0033 536.518 40.7843 528.871 40.7843"></polygon>
                    <polygon id="Fill-364" points="519.047 11.0163 526.694 11.0163 526.694 6.7973 519.047 6.7973"></polygon>
                    <polygon id="Fill-365" points="519.047 51.8003 526.694 51.8003 526.694 47.5813 519.047 47.5813"></polygon>
                    <polygon id="Fill-366" points="519.047 45.0033 526.694 45.0033 526.694 40.7843 519.047 40.7843"></polygon>
                    <polygon id="Fill-367" points="509.223 11.0163 516.87 11.0163 516.87 6.7973 509.223 6.7973"></polygon>
                    <polygon id="Fill-368" points="509.223 51.8003 516.87 51.8003 516.87 47.5813 509.223 47.5813"></polygon>
                    <polygon id="Fill-369" points="509.223 45.0033 516.87 45.0033 516.87 40.7843 509.223 40.7843"></polygon>
                    <polygon id="Fill-370" points="499.399 11.0163 507.046 11.0163 507.046 6.7973 499.399 6.7973"></polygon>
                    <polygon id="Fill-371" points="499.399 51.8003 507.046 51.8003 507.046 47.5813 499.399 47.5813"></polygon>
                    <polygon id="Fill-372" points="499.399 45.0033 507.046 45.0033 507.046 40.7843 499.399 40.7843"></polygon>
                    <polygon id="Fill-373" points="489.575 11.0163 497.222 11.0163 497.222 6.7973 489.575 6.7973"></polygon>
                    <polygon id="Fill-374" points="489.575 51.8003 497.222 51.8003 497.222 47.5813 489.575 47.5813"></polygon>
                    <polygon id="Fill-375" points="489.575 45.0033 497.222 45.0033 497.222 40.7843 489.575 40.7843"></polygon>
                    <polygon id="Fill-376" points="794.121 17.4223 801.768 17.4223 801.768 13.2033 794.121 13.2033"></polygon>
                    <polygon id="Fill-377" points="784.296 31.0163 791.943 31.0163 791.943 26.7973 784.296 26.7973"></polygon>
                    <polygon id="Fill-378" points="784.296 24.2193 791.943 24.2193 791.943 20.0003 784.296 20.0003"></polygon>
                    <polygon id="Fill-379" points="784.296 17.4223 791.943 17.4223 791.943 13.2033 784.296 13.2033"></polygon>
                    <polygon id="Fill-380" points="774.472 24.2193 782.119 24.2193 782.119 20.0003 774.472 20.0003"></polygon>
                    <polygon id="Fill-381" points="764.648 37.8133 772.295 37.8133 772.295 33.5943 764.648 33.5943"></polygon>
                    <polygon id="Fill-382" points="764.648 24.2193 772.295 24.2193 772.295 20.0003 764.648 20.0003"></polygon>
                    <polygon id="Fill-383" points="754.648 24.2193 762.295 24.2193 762.295 20.0003 754.648 20.0003"></polygon>
                    <polygon id="Fill-384" points="764.648 17.4223 772.295 17.4223 772.295 13.2033 764.648 13.2033"></polygon>
                    <polygon id="Fill-385" points="754.824 17.4223 762.471 17.4223 762.471 13.2033 754.824 13.2033"></polygon>
                    <polygon id="Fill-386" points="745 31.0163 752.647 31.0163 752.647 26.7973 745 26.7973"></polygon>
                    <polygon id="Fill-387" points="745 17.4223 752.647 17.4223 752.647 13.2033 745 13.2033"></polygon>
                    <polygon id="Fill-388" points="735.176 44.6113 742.823 44.6113 742.823 40.3923 735.176 40.3923"></polygon>
                    <polygon id="Fill-389" points="735.176 37.8133 742.823 37.8133 742.823 33.5943 735.176 33.5943"></polygon>
                    <polygon id="Fill-390" points="735.176 31.0163 742.823 31.0163 742.823 26.7973 735.176 26.7973"></polygon>
                    <polygon id="Fill-391" points="735.176 24.2193 742.823 24.2193 742.823 20.0003 735.176 20.0003"></polygon>
                    <polygon id="Fill-392" points="735.176 17.4223 742.823 17.4223 742.823 13.2033 735.176 13.2033"></polygon>
                    <polygon id="Fill-393" points="725.352 31.0163 732.999 31.0163 732.999 26.7973 725.352 26.7973"></polygon>
                    <polygon id="Fill-394" points="725.352 24.2193 732.999 24.2193 732.999 20.0003 725.352 20.0003"></polygon>
                    <polygon id="Fill-395" points="725.352 17.4223 732.999 17.4223 732.999 13.2033 725.352 13.2033"></polygon>
                    <polygon id="Fill-396" points="715.528 37.8133 723.175 37.8133 723.175 33.5943 715.528 33.5943"></polygon>
                    <polygon id="Fill-397" points="715.528 31.0163 723.175 31.0163 723.175 26.7973 715.528 26.7973"></polygon>
                    <polygon id="Fill-398" points="715.528 24.2193 723.175 24.2193 723.175 20.0003 715.528 20.0003"></polygon>
                    <polygon id="Fill-399" points="715.528 17.4223 723.175 17.4223 723.175 13.2033 715.528 13.2033"></polygon>
                    <polygon id="Fill-400" points="705.704 51.4083 713.351 51.4083 713.351 47.1893 705.704 47.1893"></polygon>
                    <polygon id="Fill-401" points="705.704 37.8133 713.351 37.8133 713.351 33.5943 705.704 33.5943"></polygon>
                    <polygon id="Fill-402" points="705.704 31.0163 713.351 31.0163 713.351 26.7973 705.704 26.7973"></polygon>
                    <polygon id="Fill-403" points="705.704 24.2193 713.351 24.2193 713.351 20.0003 705.704 20.0003"></polygon>
                    <polygon id="Fill-404" points="705.704 17.4223 713.351 17.4223 713.351 13.2033 705.704 13.2033"></polygon>
                    <polygon id="Fill-405" points="695.88 37.8133 703.527 37.8133 703.527 33.5943 695.88 33.5943"></polygon>
                    <polygon id="Fill-406" points="695.88 24.2193 703.527 24.2193 703.527 20.0003 695.88 20.0003"></polygon>
                    <polygon id="Fill-407" points="695.88 17.4223 703.527 17.4223 703.527 13.2033 695.88 13.2033"></polygon>
                    <polygon id="Fill-408" points="686.056 44.6113 693.703 44.6113 693.703 40.3923 686.056 40.3923"></polygon>
                    <polygon id="Fill-409" points="686.056 37.8133 693.703 37.8133 693.703 33.5943 686.056 33.5943"></polygon>
                    <polygon id="Fill-410" points="686.056 31.0163 693.703 31.0163 693.703 26.7973 686.056 26.7973"></polygon>
                    <polygon id="Fill-411" points="686.056 24.2193 693.703 24.2193 693.703 20.0003 686.056 20.0003"></polygon>
                    <polygon id="Fill-412" points="686.056 17.4223 693.703 17.4223 693.703 13.2033 686.056 13.2033"></polygon>
                    <polygon id="Fill-413" points="676.232 51.4083 683.879 51.4083 683.879 47.1893 676.232 47.1893"></polygon>
                    <polygon id="Fill-414" points="676.232 44.6113 683.879 44.6113 683.879 40.3923 676.232 40.3923"></polygon>
                    <polygon id="Fill-415" points="676.232 37.8133 683.879 37.8133 683.879 33.5943 676.232 33.5943"></polygon>
                    <polygon id="Fill-416" points="676.232 31.0163 683.879 31.0163 683.879 26.7973 676.232 26.7973"></polygon>
                    <polygon id="Fill-417" points="676.232 24.2193 683.879 24.2193 683.879 20.0003 676.232 20.0003"></polygon>
                    <polygon id="Fill-418" points="676.232 17.4223 683.879 17.4223 683.879 13.2033 676.232 13.2033"></polygon>
                    <polygon id="Fill-419" points="666.408 51.4083 674.055 51.4083 674.055 47.1893 666.408 47.1893"></polygon>
                    <polygon id="Fill-420" points="666.408 44.6113 674.055 44.6113 674.055 40.3923 666.408 40.3923"></polygon>
                    <polygon id="Fill-421" points="666.408 37.8133 674.055 37.8133 674.055 33.5943 666.408 33.5943"></polygon>
                    <polygon id="Fill-422" points="666.408 31.0163 674.055 31.0163 674.055 26.7973 666.408 26.7973"></polygon>
                    <polygon id="Fill-423" points="666.408 24.2193 674.055 24.2193 674.055 20.0003 666.408 20.0003"></polygon>
                    <polygon id="Fill-424" points="666.408 17.4223 674.055 17.4223 674.055 13.2033 666.408 13.2033"></polygon>
                    <polygon id="Fill-425" points="656.584 44.6113 664.231 44.6113 664.231 40.3923 656.584 40.3923"></polygon>
                    <polygon id="Fill-426" points="656.584 37.8133 664.231 37.8133 664.231 33.5943 656.584 33.5943"></polygon>
                    <polygon id="Fill-427" points="656.584 31.0163 664.231 31.0163 664.231 26.7973 656.584 26.7973"></polygon>
                    <polygon id="Fill-428" points="656.584 24.2193 664.231 24.2193 664.231 20.0003 656.584 20.0003"></polygon>
                    <polygon id="Fill-429" points="656.584 17.4223 664.231 17.4223 664.231 13.2033 656.584 13.2033"></polygon>
                    <polygon id="Fill-430" points="646.76 51.4083 654.407 51.4083 654.407 47.1893 646.76 47.1893"></polygon>
                    <polygon id="Fill-431" points="646.76 44.6113 654.407 44.6113 654.407 40.3923 646.76 40.3923"></polygon>
                    <polygon id="Fill-432" points="646.76 37.8133 654.407 37.8133 654.407 33.5943 646.76 33.5943"></polygon>
                    <polygon id="Fill-433" points="646.76 31.0163 654.407 31.0163 654.407 26.7973 646.76 26.7973"></polygon>
                    <polygon id="Fill-434" points="646.76 24.2193 654.407 24.2193 654.407 20.0003 646.76 20.0003"></polygon>
                    <polygon id="Fill-435" points="646.76 17.4223 654.407 17.4223 654.407 13.2033 646.76 13.2033"></polygon>
                    <polygon id="Fill-436" points="862.838 11.0163 870.485 11.0163 870.485 6.7973 862.838 6.7973"></polygon>
                    <polygon id="Fill-437" points="843.189 17.8133 850.836 17.8133 850.836 13.5943 843.189 13.5943"></polygon>
                    <polygon id="Fill-438" points="833.365 11.0163 841.012 11.0163 841.012 6.7973 833.365 6.7973"></polygon>
                    <polygon id="Fill-439" points="823.541 17.8133 831.188 17.8133 831.188 13.5943 823.541 13.5943"></polygon>
                    <polygon id="Fill-440" points="823.541 11.0163 831.188 11.0163 831.188 6.7973 823.541 6.7973"></polygon>
                    <polygon id="Fill-441" points="823.541 31.4083 831.188 31.4083 831.188 27.1893 823.541 27.1893"></polygon>
                    <polygon id="Fill-442" points="813.717 17.8133 821.364 17.8133 821.364 13.5943 813.717 13.5943"></polygon>
                    <polygon id="Fill-443" points="813.717 24.6113 821.364 24.6113 821.364 20.3923 813.717 20.3923"></polygon>
                    <polygon id="Fill-444" points="803.893 17.8133 811.54 17.8133 811.54 13.5943 803.893 13.5943"></polygon>
                    <polygon id="Fill-445" points="803.893 11.0163 811.54 11.0163 811.54 6.7973 803.893 6.7973"></polygon>
                    <polygon id="Fill-446" points="803.893 38.2053 811.54 38.2053 811.54 33.9863 803.893 33.9863"></polygon>
                    <polygon id="Fill-447" points="803.893 31.4083 811.54 31.4083 811.54 27.1893 803.893 27.1893"></polygon>
                </g>
            </g>
        </g>
    </g>
</svg>
