<svg viewBox="0 0 884 53" xmlns="http://www.w3.org/2000/svg"><title>pk 1000</title>
<defs>
  <pattern id="weave" width="15" height="15" patternUnits="userSpaceOnUse">
    <rect width='50' height='50' fill='#2E2E2E'/>
    <circle cx='3' cy='4.3' r='5.8' fill='#5A5A5A'/>
    <circle cx='3' cy='3' r='5.8' fill='#878787'/>
    <circle cx='10.5' cy='12.5' r='5.8' fill='#5A5A5A'/>
    <circle cx='10.5' cy='11.3' r='5.8' fill='#878787'/>
  </pattern>
</defs>
<g fill="none" fill-rule="evenodd"><path class="svg-shaft-segment" style="fill: {{customize.userStick.customColor.shaft}}" d="M-1 53.36h884.813V0H-1z"/><path d="M871.864 0v4.22h7.646V0zm-9.824 0v4.22h7.647V0zm-9.825 0v4.22h7.647V0zm-9.823 0v4.22h7.647V0zm-9.825 0v4.22h7.647V0zm-9.824 0v4.22h7.647V0zm-9.823 0v4.22h7.647V0zm-9.825 0v4.22h7.647V.001zm-9.823 0v4.22h7.646V0zm-9.825 0v4.22h7.647V0zm-9.824 0v4.22h7.647V0zM763.8 0v4.22h7.646V0zm-9.825 0v4.22h7.647V0zm-9.825 0v4.22h7.648V0zm-9.823 0v4.22h7.647V0zm-9.824 0v4.22h7.647V0zm-9.823 0v4.22h7.645V.001zm-9.825 0v4.22h7.647V0zm-9.825 0v4.22h7.647V0zm-9.823 0v4.22h7.647V0zm-9.825 0v4.22h7.647V0zm-9.824 0v4.22h7.647V0zm-9.823 0v4.22h7.646V0zm-9.825 0v4.22h7.647V0zm-9.823 0v4.22h7.646V0zm-9.825 0v4.22h7.647V0zm-9.824 0v4.22h7.647V0zm-9.824 0v4.22h7.647V.001zm-9.824 0v4.22h7.647V0zm-9.824 0v4.22h7.646V0zm-9.824 0v4.22h7.647V0zm-9.824 0v4.22h7.647V0zm-9.824 0v4.22h7.646V0zm-9.824 0v4.22h7.647V0zm-9.825 0v4.22h7.647V0zm-9.823 0v4.22h7.647V0zm-9.825 0v4.22h7.647V0zm-9.824 0v4.22h7.647V0zm-9.823 0v4.22h7.647V0zm-9.825 0v4.22h7.647V0zm-9.823 0v4.22h7.646V0zm-.001 51.8h7.647v-4.219h-7.647zm0-6.797h7.647v-4.219h-7.647zm0-33.987h7.647V6.797h-7.647zM469.077 0v4.22h7.647V0zm0 51.8h7.647v-4.219h-7.647zm0-6.797h7.647v-4.219h-7.647zm0-33.987h7.647V6.797h-7.647zM459.253 0v4.22h7.647V0zm0 51.8h7.647v-4.219h-7.647zm0-6.797h7.647v-4.219h-7.647zm0-33.987h7.647V6.797h-7.647zM449.43 0v4.22h7.646V0zm-.001 51.8h7.647v-4.219h-7.647zm0-6.797h7.647v-4.219h-7.647zm0-33.987h7.647V6.797h-7.647zM439.693 0v4.22h7.647V0zm0 51.8h7.647v-4.219h-7.647zm0-6.797h7.647v-4.219h-7.647zm0-33.987h7.647V6.797h-7.647zM429.87 0v4.22h7.647V0zm-.001 51.8h7.647v-4.219h-7.647zm0-6.797h7.647v-4.219h-7.647zm0-33.987h7.647V6.797h-7.647zm-9.824-6.796h7.647V0h-7.647zm0 47.58h7.647v-4.219h-7.647zm0-6.797h7.647v-4.219h-7.647zm0-33.987h7.647V6.797h-7.647zm-9.824-6.796h7.647V0h-7.647zm0 47.58h7.647v-4.219h-7.647zm0-6.797h7.647v-4.219h-7.647zm0-33.987h7.647V6.797h-7.647zm-9.824-6.796h7.647V0h-7.647zm0 47.58h7.647v-4.219h-7.647zm0-6.797h7.647v-4.219h-7.647zm0-33.987h7.647V6.797h-7.647zm-9.824-6.796h7.647V0h-7.647zm0 47.58h7.647v-4.219h-7.647zm0-6.797h7.647v-4.219h-7.647zm0-33.987h7.647V6.797h-7.647zm-9.824-6.796h7.646V0h-7.646zm0 47.58h7.647v-4.219h-7.647zm0-6.797h7.647v-4.219h-7.647zm0-33.987h7.647V6.797h-7.647zm-9.824-6.796h7.647V0h-7.647zm0 47.58h7.647v-4.219h-7.647zm0-6.797h7.647v-4.219h-7.647zm0-33.987h7.647V6.797h-7.647zm-9.824-6.796h7.647V0h-7.647zm0 47.58h7.647v-4.219h-7.647zm0-6.797h7.647v-4.219h-7.647zm0-33.987h7.647V6.797h-7.647zm-9.824-6.796h7.647V0h-7.647zm0 47.58h7.647v-4.219h-7.647zm0-6.797h7.647v-4.219h-7.647zm0-33.987h7.647V6.797h-7.647zM36.767 4.22h7.647V0h-7.647zm9.824 0h7.647V0h-7.647zm9.824 0h7.647V0h-7.647zm9.824 0h7.647V0h-7.647zm9.824 0h7.647V0h-7.647zm9.824 0h7.647V0h-7.647zm9.824 0h7.647V0h-7.647zm9.825 0h7.647V0h-7.647zm9.823 0h7.647V0h-7.647zm9.825 0h7.647V0h-7.647zm9.824 0h7.646V0h-7.646zm9.823 0h7.647V0h-7.647zm9.825 0h7.647V0h-7.647zm9.823 0h7.647V0h-7.647zm9.825 0h7.647V0h-7.647zm9.824 0h7.646V0h-7.646zm9.824 0h7.647V0h-7.647zm0 47.58h7.647v-4.219h-7.647zm0-6.797h7.647v-4.219h-7.647zm0-6.798h7.647v-4.219h-7.647zm0-6.797h7.647V27.19h-7.647zm0-6.797h7.647v-4.219h-7.647zm0-6.798h7.647v-4.219h-7.647zm0-6.797h7.647V6.797h-7.647zm9.824-6.796h7.647V0h-7.647zm0 47.58h7.647v-4.219h-7.647zm0-6.797h7.647v-4.219h-7.647zm0-6.798h7.647v-4.219h-7.647zm0-6.797h7.647V27.19h-7.647zm0-6.797h7.647v-4.219h-7.647zm0-6.798h7.647v-4.219h-7.647zm0-6.797h7.647V6.797h-7.647zM213.6 4.22h7.646V0H213.6zm0 40.783h7.647v-4.219H213.6zm0-6.798h7.647v-4.219H213.6zm0-6.797h7.647V27.19H213.6zm0-6.797h7.647v-4.219H213.6zm0-6.798h7.647v-4.219H213.6zm0-6.797h7.647V6.797H213.6zm9.824-6.796h7.647V0h-7.647zm0 47.58h7.647v-4.219h-7.647zm0-6.797h7.647v-4.219h-7.647zm0-6.798h7.647v-4.219h-7.647zm0-6.797h7.647V27.19h-7.647zm0-6.797h7.647v-4.219h-7.647zm0-6.798h7.647v-4.219h-7.647zm0-6.797h7.647V6.797h-7.647zm9.824-6.796h7.647V0h-7.647zm0 47.58h7.647v-4.219h-7.647zm0-6.797h7.647v-4.219h-7.647zm0-6.798h7.647v-4.219h-7.647zm0-6.797h7.647V27.19h-7.647zm0-6.797h7.647v-4.219h-7.647zm0-6.798h7.647v-4.219h-7.647zm0-6.797h7.647V6.797h-7.647zm9.824-6.796h7.647V0h-7.647zm0 47.58h7.647v-4.219h-7.647zm0-6.797h7.647v-4.219h-7.647zm0-6.798h7.647v-4.219h-7.647zm0-6.797h7.647V27.19h-7.647zm0-6.797h7.647v-4.219h-7.647zm0-6.798h7.647v-4.219h-7.647zm0-6.797h7.647V6.797h-7.647zm9.824-6.796h7.647V0h-7.647zm0 47.58h7.647v-4.219h-7.647zm0-6.797h7.647v-4.219h-7.647zm0-6.798h7.647v-4.219h-7.647zm0-6.797h7.647V27.19h-7.647zm0-6.797h7.647v-4.219h-7.647zm0-6.798h7.647v-4.219h-7.647zm0-6.797h7.647V6.797h-7.647zm9.825-6.796h7.646V0h-7.646zm-.001 47.58h7.647v-4.219h-7.647zm0-6.797h7.647v-4.219h-7.647zm0-6.798h7.647v-4.219h-7.647zm0-6.797h7.647V27.19h-7.647zm0-6.797h7.647v-4.219h-7.647zm0-6.798h7.647v-4.219h-7.647zm0-6.797h7.647V6.797h-7.647zm9.824-6.796h7.647V0h-7.647zm0 47.58h7.647v-4.219h-7.647zm0-6.797h7.647v-4.219h-7.647zm0-6.798h7.647v-4.219h-7.647zm0-6.797h7.647V27.19h-7.647zm0-6.797h7.647v-4.219h-7.647zm0-6.798h7.647v-4.219h-7.647zm0-6.797h7.647V6.797h-7.647zm9.825-6.796h7.647V0h-7.647zm0 47.58h7.647v-4.219h-7.647zm0-6.797h7.647v-4.219h-7.647zm0-6.798h7.647v-4.219h-7.647zm0-6.797h7.647V27.19h-7.647zm0-6.797h7.647v-4.219h-7.647zm0-6.798h7.647v-4.219h-7.647zm0-6.797h7.647V6.797h-7.647zm9.824-6.796h7.646V0h-7.646zm0 47.58h7.647v-4.219h-7.647zm0-6.797h7.647v-4.219h-7.647zm0-33.987h7.647V6.797h-7.647zm9.823-6.796h7.647V0h-7.647zm.001 47.58h7.647v-4.219h-7.647zm0-6.797h7.647v-4.219h-7.647zm0-33.987h7.647V6.797h-7.647zm9.824-6.796h7.647V0h-7.647zm0 47.58h7.647v-4.219h-7.647zm0-6.797h7.647v-4.219h-7.647zm0-33.987h7.647V6.797h-7.647zm9.823-6.796h7.647V0h-7.647zm.001 47.58h7.647v-4.219h-7.647zm0-6.797h7.647v-4.219h-7.647zm0-33.987h7.647V6.797h-7.647zm9.824-6.796h7.647V0h-7.647zm0 47.58h7.647v-4.219h-7.647zm0-6.797h7.647v-4.219h-7.647zm0-33.987h7.647V6.797h-7.647zm9.824-6.796h7.646V0h-7.646zm0 47.58h7.647v-4.219h-7.647zm0-6.797h7.647v-4.219h-7.647zm0-33.987h7.647V6.797h-7.647zm-304.546-.392h7.647V6.405h-7.647zm9.824 13.596h7.647V20h-7.647zm0-6.798h7.647v-4.219h-7.647zm0-6.798h7.647V6.405h-7.647zm9.824 6.798h7.647v-4.219h-7.647zm9.824 13.594h7.647v-4.219h-7.647zm0-13.594h7.647v-4.219h-7.647zm10 0h7.647v-4.219h-7.647zm-10-6.798h7.647V6.405h-7.647zm9.824 0h7.647V6.405h-7.647zm9.824 13.596h7.647V20h-7.647zm0-13.596h7.647V6.405h-7.647zm9.824 27.189h7.647v-4.219h-7.647zm0-6.797h7.647v-4.219h-7.647zm0-6.796h7.647V20h-7.647zm0-6.798h7.647v-4.219h-7.647zm0-6.798h7.647V6.405h-7.647zm9.824 13.596h7.647V20h-7.647zm0-6.798h7.647v-4.219h-7.647zm0-6.798h7.647V6.405h-7.647zm9.824 20.392h7.647v-4.219h-7.647zm0-6.796h7.647V20h-7.647zm0-6.798h7.647v-4.219h-7.647zm0-6.798h7.647V6.405h-7.647zm9.825 33.987h7.647v-4.219h-7.647zm0-13.595h7.647v-4.219h-7.647zm0-6.796h7.647V20h-7.647zm0-6.798h7.647v-4.219h-7.647zm0-6.798h7.647V6.405h-7.647zm9.824 20.392h7.647v-4.219h-7.647zm0-13.594h7.647v-4.219h-7.647zm0-6.798h7.647V6.405h-7.647zm9.824 40.784h7.647V47.19h-7.647zm0-13.595h7.647v-4.219h-7.647zm0-6.797h7.647v-4.219h-7.647zm0-6.796h7.647V20h-7.647zm0-6.798h7.647v-4.219h-7.647zm0-6.798h7.647V6.405h-7.647zm9.824 33.987h7.647v-4.219h-7.647zm0-6.798h7.647v-4.219h-7.647zm0-6.797h7.647v-4.219h-7.647zm0-6.796h7.647V20h-7.647zm0-6.798h7.647v-4.219h-7.647zm0-6.798h7.647V6.405h-7.647zm9.824 40.784h7.647V47.19h-7.647zm0-6.797h7.647v-4.219h-7.647zm0-6.798h7.647v-4.219h-7.647zm0-6.797h7.647v-4.219h-7.647zm0-6.796h7.647V20h-7.647zm0-6.798h7.647v-4.219h-7.647zm0-6.798h7.647V6.405h-7.647zm9.824 40.784h7.647V47.19h-7.647zm0-13.595h7.647v-4.219h-7.647zm0-6.797h7.647v-4.219h-7.647zm0-6.796h7.647V20h-7.647zm0-6.798h7.647v-4.219h-7.647zm0-6.798h7.647V6.405h-7.647zm9.824 40.784h7.647V47.19h-7.647zm0-6.797h7.647v-4.219h-7.647zm0-6.798h7.647v-4.219h-7.647zm0-6.797h7.647v-4.219h-7.647zm0-6.796h7.647V20h-7.647zm0-6.798h7.647v-4.219h-7.647zm0-6.798h7.647V6.405h-7.647zM-.5 4.22h5.669V0H-.5zm7.846 6.796h7.647V6.797H7.346zm.001-6.796h7.646V0H7.347zm-.001 20.391h7.647v-4.219H7.346zm9.824-13.595h7.647V6.797H17.17zm0 6.797h7.647v-4.219H17.17zm9.824-6.797h7.647V6.797h-7.647zm.001-6.796h7.647V0h-7.647zm-.001 27.188h7.647V27.19h-7.647zm0-6.797h7.647v-4.219h-7.647zm766.127-13.595h7.647V6.797h-7.647zm-9.825 0h7.647V6.797h-7.647zm-9.824 0h7.647V6.797h-7.647zm-9.824 0h7.647V6.797h-7.647zm-9.824 0h7.647V6.797h-7.647zm-9.824 0h7.647V6.797H744zm-9.824 0h7.647V6.797h-7.647zm-9.824 0h7.647V6.797h-7.647zm-9.824 0h7.647V6.797h-7.647zm-9.824 0h7.647V6.797h-7.647zm-9.824 0h7.647V6.797h-7.647zm-9.824 0h7.647V6.797h-7.647zm-9.824 0h7.647V6.797h-7.647zm-9.824 0h7.647V6.797h-7.647zm-9.824 0h7.647V6.797h-7.647zm-9.824 0h7.647V6.797h-7.647zm-9.824 0h7.647V6.797h-7.647zm0 40.784h7.647v-4.219h-7.647zm0-6.797h7.647v-4.219h-7.647zm0-6.798h7.647v-4.219h-7.647zm0-6.797h7.647V27.19h-7.647zm0-6.797h7.647v-4.219h-7.647zm0-6.798h7.647v-4.219h-7.647zm-9.825-6.797h7.647V6.797h-7.647zm0 40.784h7.647v-4.219h-7.647zm0-6.797h7.647v-4.219h-7.647zm0-6.798h7.647v-4.219h-7.647zm0-6.797h7.647V27.19h-7.647zm0-6.797h7.647v-4.219h-7.647zm0-6.798h7.647v-4.219h-7.647zm-9.824-6.797h7.647V6.797h-7.647zm0 40.784h7.647v-4.219h-7.647zm0-6.797h7.647v-4.219h-7.647zm0-6.798h7.647v-4.219h-7.647zm0-6.797h7.647V27.19h-7.647zm0-6.797h7.647v-4.219h-7.647zm0-6.798h7.647v-4.219h-7.647zm-9.824-6.797h7.647V6.797h-7.647zm0 40.784h7.647v-4.219h-7.647zm0-6.797h7.647v-4.219h-7.647zm0-6.798h7.647v-4.219h-7.647zm0-6.797h7.647V27.19h-7.647zm0-6.797h7.647v-4.219h-7.647zm0-6.798h7.647v-4.219h-7.647zm-9.824-6.797h7.647V6.797h-7.647zm0 40.784h7.647v-4.219h-7.647zm0-6.797h7.647v-4.219h-7.647zm5.687-6.798h1.961v-4.219h-1.961zm0-6.797h1.961V27.19h-1.961zm0-6.797h1.961v-4.219h-1.961zm0-6.798h1.961v-4.219h-1.961zm-15.511-6.797h7.647V6.797h-7.647zm0 40.784h7.647v-4.219h-7.647zm0-6.797h7.647v-4.219h-7.647zm-9.824-33.987h7.647V6.797h-7.647zm0 40.784h7.647v-4.219h-7.647zm0-6.797h7.647v-4.219h-7.647zm-9.824-33.987h7.647V6.797h-7.647zm0 40.784h7.647v-4.219h-7.647zm0-6.797h7.647v-4.219h-7.647zm-9.824-33.987h7.647V6.797h-7.647zm0 40.784h7.647v-4.219h-7.647zm0-6.797h7.647v-4.219h-7.647zm-9.824-33.987h7.647V6.797h-7.647zm0 40.784h7.647v-4.219h-7.647zm0-6.797h7.647v-4.219h-7.647zm-9.824-33.987h7.647V6.797h-7.647zm0 40.784h7.647v-4.219h-7.647zm0-6.797h7.647v-4.219h-7.647zm-9.824-33.987h7.647V6.797h-7.647zm0 40.784h7.647v-4.219h-7.647zm0-6.797h7.647v-4.219h-7.647zm-9.824-33.987h7.647V6.797h-7.647zm0 40.784h7.647v-4.219h-7.647zm0-6.797h7.647v-4.219h-7.647zm-9.824-33.987h7.647V6.797h-7.647zm0 40.784h7.647v-4.219h-7.647zm0-6.797h7.647v-4.219h-7.647zm-9.824-33.987h7.647V6.797h-7.647zm0 40.784h7.647v-4.219h-7.647zm0-6.797h7.647v-4.219h-7.647zm-9.824-33.987h7.647V6.797h-7.647zm0 40.784h7.647v-4.219h-7.647zm0-6.797h7.647v-4.219h-7.647zm304.546-27.581h7.647v-4.219h-7.647zm-9.825 13.594h7.647v-4.219h-7.647zm0-6.796h7.647V20h-7.647zm0-6.798h7.647v-4.219h-7.647zm-9.824 6.798h7.647V20h-7.647zm-9.824 13.593h7.647v-4.219h-7.647zm0-13.593h7.647V20h-7.647zm-10 0h7.647V20h-7.647zm10-6.798h7.647v-4.219h-7.647zm-9.824 0h7.647v-4.219h-7.647zM744 31.016h7.647v-4.219H744zm0-13.594h7.647v-4.219H744zm-9.824 27.189h7.647v-4.219h-7.647zm0-6.798h7.647v-4.219h-7.647zm0-6.797h7.647v-4.219h-7.647zm0-6.796h7.647V20h-7.647zm0-6.798h7.647v-4.219h-7.647zm-9.824 13.594h7.647v-4.219h-7.647zm0-6.796h7.647V20h-7.647zm0-6.798h7.647v-4.219h-7.647zm-9.824 20.391h7.647v-4.219h-7.647zm0-6.797h7.647v-4.219h-7.647zm0-6.796h7.647V20h-7.647zm0-6.798h7.647v-4.219h-7.647zm-9.824 33.986h7.647V47.19h-7.647zm0-13.595h7.647v-4.219h-7.647zm0-6.797h7.647v-4.219h-7.647zm0-6.796h7.647V20h-7.647zm0-6.798h7.647v-4.219h-7.647zm-9.824 20.391h7.647v-4.219h-7.647zm0-13.593h7.647V20h-7.647zm0-6.798h7.647v-4.219h-7.647zm-9.824 27.189h7.647v-4.219h-7.647zm0-6.798h7.647v-4.219h-7.647zm0-6.797h7.647v-4.219h-7.647zm0-6.796h7.647V20h-7.647zm0-6.798h7.647v-4.219h-7.647zm-9.824 33.986h7.647V47.19h-7.647zm0-6.797h7.647v-4.219h-7.647zm0-6.798h7.647v-4.219h-7.647zm0-6.797h7.647v-4.219h-7.647zm0-6.796h7.647V20h-7.647zm0-6.798h7.647v-4.219h-7.647zm-9.824 33.986h7.647V47.19h-7.647zm0-6.797h7.647v-4.219h-7.647zm0-6.798h7.647v-4.219h-7.647zm0-6.797h7.647v-4.219h-7.647zm0-6.796h7.647V20h-7.647zm0-6.798h7.647v-4.219h-7.647zm-9.824 27.189h7.647v-4.219h-7.647zm0-6.798h7.647v-4.219h-7.647zm0-6.797h7.647v-4.219h-7.647zm0-6.796h7.647V20h-7.647zm0-6.798h7.647v-4.219h-7.647zm-9.824 33.986h7.647V47.19h-7.647zm0-6.797h7.647v-4.219h-7.647zm0-6.798h7.647v-4.219h-7.647zm0-6.797h7.647v-4.219h-7.647zm0-6.796h7.647V20h-7.647zm0-6.798h7.647v-4.219h-7.647zm216.078-6.406h7.647V6.797h-7.647zm-19.649 6.797h7.647v-4.219h-7.647zm-9.824-6.797h7.647V6.797h-7.647zm-9.824 6.797h7.647v-4.219h-7.647zm0-6.797h7.647V6.797h-7.647zm0 20.392h7.647V27.19h-7.647zm-9.824-13.595h7.647v-4.219h-7.647zm0 6.798h7.647v-4.219h-7.647zm-9.824-6.798h7.647v-4.219h-7.647zm0-6.797h7.647V6.797h-7.647zm0 27.189h7.647v-4.219h-7.647zm0-6.797h7.647V27.19h-7.647z" class="svg-accent-segment" style="fill: {{customize.userStick.customColor.accent}}"/></g></svg>