<?xml version="1.0" encoding="UTF-8" standalone="no"?>
<svg class="pk100-scene scene-svg" viewBox="0 0 4634 4634" version="1.1" xmlns="http://www.w3.org/2000/svg" xmlns:xlink="http://www.w3.org/1999/xlink">
    <!-- Generator: Sketch 39.1 (31720) - http://www.bohemiancoding.com/sketch -->
    <title>PK100 (Scene)</title>
    <desc>Created with Sketch.</desc>
    <defs>
        <polygon id="path-1" points="-9.34535855e-13 0.595912024 -9.34535855e-13 637.885283 4042.66083 637.885283 4042.66083 0.595912024 -9.34535855e-13 0.595912024"></polygon>
        <polygon id="path-3" points="-9.81112401e-13 638.210363 4042.66154 638.210363 4042.66154 0.920469607 -9.81112401e-13 0.920469607"></polygon>
        <polygon id="path-5" points="0 0.352117495 0 1247.79468 7999.66553 1247.79468 7999.66553 0.352117495 0 0.352117495"></polygon>
        <polygon id="path-7" points="-4.54747351e-13 1248.431 7999.66693 1248.431 7999.66693 0.987412798 -4.54747351e-13 0.987412798"></polygon>
        <polygon id="path-9" points="4042.96816 629.272973 -9.09494702e-13 629.272973 -9.09494702e-13 314.753568 -9.09494702e-13 0.234163135 4042.96816 0.234163135"></polygon>
        <polygon id="path-11" points="2.27373675e-13 629.948623 4042.96882 629.948623 4042.96882 0.909354007 2.27373675e-13 0.909354007"></polygon>
        <polygon id="path-13" points="-4.54747351e-13 0.704749355 -4.54747351e-13 44.7702258 714.630851 44.7702258 714.630851 0.704749355 -4.54747326e-13 0.704749355"></polygon>
    </defs>
    <g id="CustomStickModel" stroke="none" stroke-width="1" fill="none" fill-rule="evenodd">
        <g id="PK100-(Scene)">
            <g id="Small-Top" transform="translate(1629.554822, 1714.064940) rotate(125.000000) translate(-1629.554822, -1714.064940) translate(-391.945178, 1394.564940)">
                <g id="ShaftSegment" class="svg-shaft-segment" transform="translate(-0.000000, 0.324926)" style="fill: {{customize.userStick.customColor.shaft}}">
                    <mask id="mask-2" fill="white">
                        <use xlink:href="#path-1"></use>
                    </mask>
                    <g id="Clip-2"></g>
                    <path d="M4040.21106,510.498335 C4037.61973,496.887351 4033.75913,485.06668 4027.9828,470.593216 C4019.88647,450.297782 4007.61632,427.061447 3995.1668,404.946244 C3979.72713,377.526375 3961.26,351.129148 3941.19581,325.274077 C3910.78267,286.085083 3860.68047,234.231349 3820.72054,190.218174 C3780.76152,146.204999 3705.01184,76.2557523 3659.69078,41.2944757 C3639.86788,26.0008732 3615.86661,15.4099499 3595.29981,9.90830304 C3568.85835,2.83081223 3521.75085,0.718334481 3510.12717,0.903348872 C3495.71366,1.13346627 3365.22816,1.8505121 3365.22816,1.8505121 L1960.86068,1.32676489 L1954.97691,1.32492395 L1816.44515,1.27337765 L1816.44515,1.27337765 L1798.94043,1.26693437 L1707.06637,1.23287699 L1681.74758,1.22275183 L1628.28102,1.20342196 L1605.5308,1.19421727 L1392.90559,1.11505688 L1328.68217,1.09112467 L-0.000273155576,0.595912024 L-0.000273155576,65.9741068 L-0.000273155576,66.4067275 L-0.000273155576,67.0105556 L-0.000273155576,67.1964904 L-0.000273155576,67.6143836 L-0.000273155576,76.2410248 L-0.000273155576,76.9681958 C9.13040721,76.9700367 18.2428772,76.9718777 27.3407789,76.9746391 L29.7409059,76.9746391 C36.3002818,76.97648 42.8459999,76.978321 49.3889864,76.9801619 C53.261422,76.9810824 57.1283944,76.9820028 60.9962773,76.9829233 C66.2481485,76.9847642 71.4936461,76.9856847 76.7355016,76.9875257 C80.088031,76.9884461 83.4423815,76.9893666 86.7912688,76.9902871 C92.4392156,76.9912075 98.0789677,76.9930485 103.715078,76.9948894 C106.35194,76.9958099 108.994264,76.9967304 111.629305,76.9976508 C118.408116,76.9994918 125.171448,77.0013327 131.932049,77.0031736 C137.087405,77.0050146 142.233656,77.0068555 147.378996,77.0086965 C151.904274,77.0096169 156.432283,77.0105374 160.950276,77.0123783 C164.496746,77.0132988 168.037753,77.0151397 171.57967,77.0160602 C176.994524,77.0179012 182.407557,77.0197421 187.811485,77.021583 C189.838299,77.0225035 191.864203,77.0225035 193.889196,77.023424 C201.123266,77.0261854 208.3455,77.0289468 215.559539,77.0307877 C217.26494,77.0317082 218.973073,77.0326287 220.677564,77.0326287 C237.529441,77.039072 254.32942,77.0455152 271.075678,77.0519585 C273.286417,77.052879 275.491693,77.0537995 277.700611,77.0547199 C283.168275,77.0565609 288.631387,77.0584018 294.089035,77.0611632 C299.11965,77.0630042 304.147534,77.0648451 309.169954,77.066686 C311.767664,77.068527 314.365373,77.0694475 316.960351,77.0703679 C320.851908,77.0722089 324.739822,77.0740498 328.625915,77.0749703 C336.059389,77.0786521 343.484668,77.0814136 350.89811,77.0850954 L352.696385,77.0850954 C369.582862,77.0933797 386.415619,77.1007434 403.20194,77.1081072 C405.266996,77.1090276 407.3275,77.1099481 409.390735,77.1108686 C414.999529,77.11363 420.60104,77.1163914 426.198908,77.1191528 C430.481077,77.1209937 434.762335,77.1228347 439.039041,77.1246756 C443.49785,77.127437 447.954839,77.129278 452.407275,77.1320394 C454.577951,77.1329599 456.750448,77.1338803 458.920214,77.1348008 C475.059156,77.143085 491.152572,77.1513692 507.205015,77.1596535 C510.395472,77.1605739 513.578645,77.1624149 516.76546,77.1642558 C522.596421,77.1670172 528.427382,77.1706991 534.248327,77.1734605 C535.733383,77.174381 537.217528,77.1753015 538.702584,77.1753015 C546.025885,77.1799038 553.342812,77.1835857 560.648814,77.1872676 C561.287087,77.188188 561.925361,77.188188 562.563634,77.188188 C570.690923,77.1927904 578.808196,77.1973927 586.915454,77.2019951 C587.314261,77.2019951 587.712157,77.2019951 588.110054,77.2029155 C603.802842,77.2111998 619.452835,77.2204045 635.070961,77.2296092 C638.117556,77.2305296 641.159598,77.2323706 644.204373,77.2342115 C658.03515,77.2424957 671.838612,77.25078 685.613847,77.2590642 C688.912656,77.2609051 692.212375,77.2627461 695.507542,77.2655075 C700.380638,77.2682689 705.24918,77.2710303 710.115902,77.2737917 L710.187833,77.2737917 C910.854293,77.3971346 1105.85642,77.5416484 1298.78074,77.6926054 C1313.93085,77.7045715 1329.07369,77.7165376 1344.20013,77.7275832 C1383.80041,77.7588792 1423.32693,77.7901752 1462.80702,77.8214711 C1476.88363,77.8325168 1490.95843,77.8435624 1505.02503,77.8555285 C1524.63396,77.8711765 1544.23378,77.885904 1563.82996,77.901552 L1563.82905,77.901552 C1566.05527,77.9033929 1568.28058,77.9052339 1570.50589,77.9070748 C1623.61826,77.9484959 1676.70149,77.9908375 1729.83116,78.0322587 C1734.66692,78.0359405 1739.5036,78.0396224 1744.34027,78.0433043 C1792.3246,78.0801231 1840.35355,78.1169419 1888.48083,78.1528402 C1890.12249,78.1537606 1891.76234,78.1556016 1893.404,78.1565221 C1943.36143,78.1933408 1993.42902,78.2301596 2043.66962,78.2651375 C2044.46359,78.2660579 2045.25938,78.2660579 2046.05335,78.2669784 C2056.15191,78.2743422 2066.25867,78.2807855 2076.3718,78.2881492 C2081.56085,78.2918311 2086.75444,78.295513 2091.94804,78.2991948 C2097.56139,78.3028767 2103.17747,78.3065586 2108.79537,78.3102405 C2114.45151,78.3139224 2120.10583,78.3176042 2125.76743,78.3222066 C2136.55071,78.3286499 2147.34672,78.3360136 2158.15003,78.3433774 C2159.20168,78.3442979 2160.25333,78.3442979 2161.30589,78.3452183 C2184.00056,78.3599458 2206.73985,78.3746734 2229.53013,78.3894009 C2234.03265,78.3921623 2238.53607,78.3949237 2243.04314,78.3976851 C2253.03881,78.4041284 2263.0445,78.4105717 2273.06112,78.4160945 C2275.62514,78.4179354 2278.19098,78.4197764 2280.75591,78.4206968 C2290.73246,78.4271401 2300.71903,78.4326629 2310.71652,78.4391062 C2313.37888,78.4409472 2316.04123,78.4418676 2318.70541,78.4437086 C2328.45616,78.4492314 2338.21782,78.4556747 2347.99042,78.4611975 C2352.2817,78.4630384 2356.5757,78.4657998 2360.87244,78.4685613 C2369.54604,78.4731636 2378.22874,78.4777659 2386.92055,78.4832888 C2392.78885,78.4860502 2398.66533,78.4897321 2404.54182,78.4924935 C2411.43809,78.4961753 2418.338,78.4998572 2425.2461,78.5035391 C2430.20388,78.5063005 2435.16256,78.5090619 2440.1258,78.5118233 C2450.72423,78.5173461 2461.33268,78.522869 2471.95935,78.5283918 C2474.24748,78.5293122 2476.54381,78.5311532 2478.83376,78.5320737 C2486.98472,78.5357555 2495.14479,78.5403579 2503.31397,78.5440398 C2508.49482,78.5468012 2513.67567,78.5495626 2518.86289,78.552324 C2525.97768,78.5550854 2533.10158,78.5587673 2540.23003,78.5615287 C2548.18614,78.566131 2556.15045,78.5698129 2564.12386,78.5734948 C2571.11664,78.5762562 2578.11671,78.5799381 2585.12315,78.5826995 C2588.59223,78.5845404 2592.05675,78.5863814 2595.52856,78.5873018 C2606.3182,78.5919042 2617.12606,78.5965065 2627.94939,78.6011089 C2633.04556,78.6038703 2638.15266,78.6057112 2643.25703,78.6075522 C2649.76724,78.6103136 2656.28564,78.613075 2662.8086,78.6158364 C2666.28404,78.6176773 2669.74493,78.6185978 2673.22402,78.6204387 L2673.22402,78.6204387 C2676.68308,78.6213592 2680.1476,78.6232001 2683.6103,78.6241206 C2684.17665,78.6241206 2684.74299,78.6250411 2685.31024,78.6250411 C2769.67616,78.658178 2855.15018,78.6848716 2941.99362,78.7042015 C2942.9005,78.7042015 2943.80465,78.7042015 2944.71152,78.7051219 L2944.71152,78.7051219 C2973.06052,78.7106448 3001.55884,78.7161676 3030.20922,78.7207699 C3031.73616,78.7216904 3033.26401,78.7216904 3034.79186,78.7216904 C3040.22583,78.7226109 3045.66254,78.7235313 3051.10744,78.7244518 L3051.75937,78.7244518 C3070.20193,78.7272132 3088.71095,78.7299746 3107.28553,78.7318156 C3109.32691,78.7318156 3111.37193,78.7318156 3113.41605,78.732736 C3121.67627,78.7336565 3129.95015,78.734577 3138.23769,78.734577 C3141.71041,78.7354974 3145.18131,78.7354974 3148.65858,78.7354974 C3152.16408,78.7364179 3155.67322,78.7364179 3159.18417,78.7364179 C3163.94072,78.7373384 3168.70183,78.7373384 3173.46748,78.7373384 C3188.05672,78.7382588 3202.68966,78.7391793 3217.36449,78.7400998 L3232.67577,78.7400998 L3237.43323,78.7400998 L3263.69714,78.7400998 C3263.98669,78.7400998 3264.30264,78.7410203 3264.63315,78.7410203 L3265.02741,78.7410203 C3265.23865,78.7410203 3265.45262,78.7419407 3265.67752,78.7419407 L3266.1519,78.7419407 C3266.35859,78.7428612 3266.57438,78.7428612 3266.79199,78.7428612 C3267.01234,78.7437817 3267.23268,78.7437817 3267.46305,78.7437817 C3267.64515,78.7447021 3267.83545,78.7447021 3268.02483,78.7447021 C3268.25975,78.7456226 3268.49102,78.7456226 3268.73595,78.7465431 C3268.94173,78.7465431 3269.16116,78.7474635 3269.3724,78.7474635 C3269.87683,78.7493045 3270.40038,78.750225 3270.94396,78.7511454 C3271.1552,78.7520659 3271.36189,78.7520659 3271.57859,78.7529864 C3271.79074,78.7539068 3272.012,78.7539068 3272.22961,78.7548273 C3272.58835,78.7557478 3272.95347,78.7566682 3273.32587,78.7575887 C3273.56807,78.7585092 3273.81209,78.7594296 3274.05975,78.7594296 C3274.3065,78.7603501 3274.55963,78.7612706 3274.81275,78.7621911 C3275.17969,78.7631115 3275.54663,78.764032 3275.9254,78.7658729 C3276.25865,78.7667934 3276.59919,78.7677139 3276.94063,78.7686343 C3277.16462,78.7695548 3277.38223,78.7704753 3277.60895,78.7713958 C3278.21263,78.7732367 3278.8336,78.7750776 3279.46368,78.777839 C3279.96173,78.77968 3280.47071,78.7815209 3280.98516,78.7833619 C3281.07712,78.7833619 3281.16726,78.7842823 3281.26013,78.7842823 C3281.84469,78.7861233 3282.43834,78.7888847 3283.04202,78.7916461 L3283.12123,78.7916461 C3286.92083,78.8063736 3291.09282,78.8257035 3295.5489,78.8487152 C3295.55436,78.8496357 3295.55983,78.8496357 3295.5662,78.8496357 C3303.76451,78.8919773 3312.9216,78.9490464 3322.48113,79.022684 L3322.4957,79.022684 C3323.36342,79.0300477 3324.23297,79.036491 3325.10616,79.0438548 C3365.28916,79.3650987 3411.58903,79.9864156 3423.51956,81.1047862 C3437.04076,82.368591 3448.68083,85.108829 3458.33597,88.1067985 C3474.44031,93.1104713 3478.77893,94.3853217 3493.28076,100.695141 C3506.61348,106.491338 3528.20006,119.106374 3541.30242,128.735406 C3554.40296,138.36628 3582.15739,166.10095 3589.90954,172.732933 C3597.66352,179.364917 3661.47995,245.082765 3675.19691,259.553468 C3688.91478,274.02417 3753.92308,367.478529 3765.25448,383.757954 C3776.5868,400.036459 3818.93228,466.359056 3818.93228,466.359056 C3818.93228,466.359056 3877.97668,576.694827 3888.11531,592.974253 C3898.25484,609.252758 3905.41152,621.914738 3914.95466,628.546721 C3924.4969,635.178705 3937.61747,641.208701 3966.84147,635.780692 C3996.06548,630.355444 4013.36169,610.459493 4024.69309,593.57624 C4036.0245,576.694827 4041.69248,554.380803 4042.58478,536.298178 C4042.94899,528.954671 4041.9802,519.808885 4040.21106,510.498335" id="Fill-1" mask="url(#mask-2)"></path>
                </g>
                <g id="LogoSegment" class="svg-logo-segment" style="fill: {{customize.userStick.customColor.logo}}">
                    <path d="M1605.53035,1.51951123 L1490.47267,1.47624916 L1469.20933,26.6731842 L1548.8105,26.6731842 L1505.02549,78.179902 C1524.6335,78.19555 1544.23424,78.211198 1563.82951,78.2268459 L1612.36288,19.1455837 C1617.3507,13.1091441 1614.04552,5.30172084 1605.53035,1.51951123" id="Fill-4"></path>
                    <path d="M1681.895,66.5809724 L1681.75569,37.276902 L1707.43049,37.276902 L1681.895,66.5809724 Z M1739.51717,1.56912454 L1729.19553,13.0630285 L1681.74749,13.1605983 L1681.74749,1.54795374 L1628.28093,1.52770341 L1628.28184,66.6444848 L1608.84955,66.6444848 C1595.75448,66.6444848 1583.84307,70.8528719 1578.29437,77.4379114 L1577.62059,78.2377995 C1628.35924,78.2773797 1679.07421,78.3178804 1729.83107,78.3574606 C1748.64967,57.4655619 1789.27336,12.3321757 1798.94034,1.59213628 L1739.51717,1.56912454 Z" id="Fill-6"></path>
                    <path d="M1816.44542,1.59811933 C1813.35603,2.77355902 1810.78109,4.37517614 1809.042,6.30724184 L1790.6304,26.7517923 L1854.46413,26.7757245 L1844.85725,37.420035 L1781.11912,37.420035 L1764.10699,56.2988667 L1831.01645,56.2988667 L1821.57073,66.9560638 L1754.58752,66.9560638 L1744.34055,78.368046 C1789.20726,78.4030238 1834.11222,78.4370812 1879.10094,78.4711386 L1944.86132,1.64598375 L1816.44542,1.59811933 Z" id="Fill-8"></path>
                    <path d="M1954.08961,6.20810727 L1936.13692,27.0659486 L2007.64176,26.8183422 L1905.4925,65.9300163 L1893.40355,78.4815399 C1943.36188,78.5183587 1993.42948,78.5551774 2043.66916,78.5901553 L2054.83303,66.5402877 L1981.71565,66.6857219 L2062.57881,37.1506136 C2078.64946,30.367673 2091.10627,19.0090781 2098.62078,12.0926695 L2108.83862,1.70701089 L1960.86114,1.65178271 C1958.03489,2.82906334 1955.68939,4.37545228 1954.08961,6.20810727" id="Fill-10"></path>
                    <polygon id="Fill-12" points="2496.5499 38.3923271 2496.5499 52.6715721 2490.93383 38.3923271 2487.73062 38.3923271 2482.22836 52.6715721 2482.22836 38.3923271 2478.75291 38.3923271 2478.75291 58.8930262 2482.51153 58.8930262 2489.24664 43.3370898 2496.12651 58.8930262 2500.02535 58.8930262 2500.02535 38.3923271"></polygon>
                    <mask id="mask-4" fill="white">
                        <use xlink:href="#path-3"></use>
                    </mask>
                    <g id="Clip-15"></g>
                    <polygon id="Fill-14" mask="url(#mask-4)" points="2470.73953 58.8934864 2474.49815 58.8934864 2474.49815 38.3927873 2470.73953 38.3927873"></polygon>
                    <path d="M2462.72805,55.5960881 L2458.54513,55.5960881 C2454.33763,55.5960881 2452.23342,53.4642805 2452.23342,49.2025062 C2452.23342,44.1942311 2454.33763,41.6896333 2458.54513,41.6896333 L2462.72805,41.6896333 L2462.72805,55.5960881 Z M2448.47662,49.2025062 C2448.47662,55.6632824 2451.83279,58.8932103 2458.54513,58.8932103 L2466.48668,58.8932103 L2466.48668,38.3925112 L2458.54513,38.3925112 C2451.83279,38.3925112 2448.47662,41.9952292 2448.47662,49.2025062 L2448.47662,49.2025062 Z" id="Fill-16" mask="url(#mask-4)"></path>
                    <polygon id="Fill-17" mask="url(#mask-4)" points="2437.08221 47.4244351 2444.17241 47.4244351 2444.17241 44.413579 2437.08221 44.413579"></polygon>
                    <polygon id="Fill-18" mask="url(#mask-4)" points="2414.60524 38.3923271 2424.16204 49.3321084 2415.51302 58.8930262 2420.1075 58.8930262 2427.65206 50.4348309 2427.65206 47.9688929 2419.80885 38.3923271"></polygon>
                    <polygon id="Fill-19" mask="url(#mask-4)" points="2429.77803 58.8934864 2433.53665 58.8934864 2433.53665 38.3927873 2429.77803 38.3927873"></polygon>
                    <polygon id="Fill-20" mask="url(#mask-4)" points="2409.42703 58.8934864 2413.18565 58.8934864 2413.18565 38.3927873 2409.42703 38.3927873"></polygon>
                    <path d="M2394.96307,38.249102 C2392.7405,38.249102 2390.75557,38.5832325 2389.00646,39.2524139 L2389.00646,42.6931293 C2390.75557,41.9291395 2392.64762,41.5462241 2394.67899,41.5462241 C2399.54753,41.5462241 2401.98226,44.0066394 2401.98226,48.9302313 C2401.98226,53.469067 2399.54753,55.738945 2394.67899,55.738945 C2392.64762,55.738945 2390.75557,55.3569501 2389.00646,54.5929603 L2389.00646,58.0336757 C2390.75557,58.7028571 2392.7405,59.0369876 2394.96307,59.0369876 C2402.24267,59.0369876 2405.88292,55.6671484 2405.88292,48.9302313 C2405.88292,41.8094784 2402.24267,38.249102 2394.96307,38.249102" id="Fill-21" mask="url(#mask-4)"></path>
                    <polygon id="Fill-22" mask="url(#mask-4)" points="2381.70264 58.8934864 2385.46127 58.8934864 2385.46127 38.3927873 2381.70264 38.3927873"></polygon>
                    <polygon id="Fill-23" mask="url(#mask-4)" points="2366.53031 38.3923271 2376.08711 49.3321084 2367.4381 58.8930262 2372.03257 58.8930262 2379.57713 50.4348309 2379.57713 47.9688929 2371.73392 38.3923271"></polygon>
                    <polygon id="Fill-24" mask="url(#mask-4)" points="2361.52155 42.1231745 2357.38961 42.1231745 2357.38961 42.9994616 2361.52155 42.9994616 2361.52155 45.8041324 2357.18748 45.8041324 2357.18748 46.6804195 2362.59141 46.6804195 2362.59141 38.3253169 2361.52155 38.3253169"></polygon>
                    <polygon id="Fill-25" mask="url(#mask-4)" points="2350.52221 39.201788 2354.84535 39.201788 2354.84535 46.6806036 2355.91521 46.6806036 2355.91521 38.325501 2350.52221 38.325501"></polygon>
                    <polygon id="Fill-26" mask="url(#mask-4)" points="2343.76088 39.201788 2348.18145 39.201788 2348.18145 42.1233586 2344.04951 42.1233586 2344.04951 42.9996456 2348.18145 42.9996456 2348.18145 45.8043165 2343.84829 45.8043165 2343.84829 46.6806036 2349.25131 46.6806036 2349.25131 38.325501 2343.76088 38.325501"></polygon>
                    <polygon id="Fill-27" mask="url(#mask-4)" points="2341.68044 38.325501 2339.07908 41.6677261 2336.47864 38.325501 2335.17751 38.325501 2338.42715 42.5035125 2335.17751 46.6806036 2336.47864 46.6806036 2339.07908 43.3383785 2341.68044 46.6806036 2342.98157 46.6806036 2339.72646 42.5035125 2342.98157 38.325501"></polygon>
                    <path d="M2330.03372,45.7861833 L2327.8503,45.7861833 C2326.85601,45.7861833 2326.35796,45.3231871 2326.35796,44.3962742 C2326.35796,43.3055177 2327.20656,42.6335749 2328.90103,42.3804457 L2328.68251,41.4691808 C2326.37344,41.8272435 2325.21981,42.8176688 2325.21981,44.4432181 C2325.21981,45.9343789 2326.06386,46.6808797 2327.75105,46.6808797 L2331.10358,46.6808797 L2331.10358,38.3257771 L2330.03372,38.3257771 L2330.03372,45.7861833 Z" id="Fill-28" mask="url(#mask-4)"></path>
                    <path d="M2322.73382,45.7861833 L2320.37558,45.7861833 C2319.49693,45.7861833 2319.05806,45.401427 2319.05806,44.6300735 C2319.05806,43.6562166 2319.84839,43.0431839 2321.42814,42.7891342 L2321.42814,42.0831341 L2318.79765,38.3257771 L2317.38816,38.3257771 L2320.22625,42.2635461 C2318.68747,42.7854524 2317.91991,43.5890223 2317.91991,44.6770174 C2317.91991,46.0126188 2318.70568,46.6808797 2320.27724,46.6808797 L2323.80368,46.6808797 L2323.80368,38.3257771 L2322.73382,38.3257771 L2322.73382,45.7861833 Z" id="Fill-29" mask="url(#mask-4)"></path>
                    <path d="M2312.40043,45.8625823 C2310.42734,45.8625823 2309.44125,44.750655 2309.44125,42.5268004 C2309.44125,40.2707294 2310.42734,39.1431541 2312.40043,39.1431541 C2314.41541,39.1431541 2315.42336,40.2707294 2315.42336,42.5268004 C2315.42336,44.750655 2314.41541,45.8625823 2312.40043,45.8625823 M2312.40043,38.2668671 C2309.67616,38.2668671 2308.31494,39.6751856 2308.31494,42.4909021 C2308.31494,45.3231871 2309.67616,46.7388693 2312.40043,46.7388693 C2315.16659,46.7388693 2316.55058,45.3231871 2316.55058,42.4909021 C2316.55058,39.6751856 2315.16659,38.2668671 2312.40043,38.2668671" id="Fill-30" mask="url(#mask-4)"></path>
                    <polygon id="Fill-31" mask="url(#mask-4)" points="2305.5689 42.1231745 2301.43697 42.1231745 2301.43697 42.9994616 2305.5689 42.9994616 2305.5689 45.8041324 2301.23484 45.8041324 2301.23484 46.6804195 2306.63876 46.6804195 2306.63876 38.3253169 2305.5689 38.3253169"></polygon>
                    <polygon id="Fill-32" mask="url(#mask-4)" points="2298.72071 46.6806957 2299.78966 46.6806957 2299.78966 38.325593 2298.72071 38.325593"></polygon>
                    <polygon id="Fill-33" mask="url(#mask-4)" points="2291.18908 39.201788 2295.51223 39.201788 2295.51223 46.6806036 2296.58209 46.6806036 2296.58209 38.325501 2291.18908 38.325501"></polygon>
                    <polygon id="Fill-34" mask="url(#mask-4)" points="2284.42803 39.201788 2288.8486 39.201788 2288.8486 42.1233586 2284.71666 42.1233586 2284.71666 42.9996456 2288.8486 42.9996456 2288.8486 45.8043165 2284.51544 45.8043165 2284.51544 46.6806036 2289.91846 46.6806036 2289.91846 38.325501 2284.42803 38.325501"></polygon>
                </g>
                <g id="AccentSegment" class="svg-accent-segment" style="fill: {{customize.userStick.customColor.accent}}">
                    <path d="M1008.05406,36.2386123 C1009.88421,36.1944297 1010.8011,37.0458641 1010.8011,38.7910745 C1010.8011,40.5261597 1009.92245,41.4079696 1008.16424,41.440186 C1006.40694,41.4622773 1005.52646,40.6007178 1005.52646,38.8564279 C1005.52646,37.1093765 1006.36869,36.2386123 1008.05406,36.2386123 M1002.79491,44.6553864 C1004.26995,45.9734989 1006.06003,46.6353165 1008.16424,46.6353165 C1010.46967,46.6353165 1012.33623,45.8980203 1013.76757,44.4243485 C1015.19981,42.9506767 1015.91639,41.0692368 1015.91639,38.7827903 C1015.91639,35.473702 1014.58794,33.1541186 1011.93743,31.8249605 C1010.7583,31.2284962 1009.49906,30.9311845 1008.16424,30.9311845 C1005.175,30.9311845 1002.9497,32.1222722 1001.48649,34.5062885 C1000.75808,35.687251 1000.39751,37.1130584 1000.39751,38.7827903 C1000.39751,41.2616149 1001.19786,43.2185333 1002.79491,44.6553864" id="Fill-35"></path>
                    <path d="M900.195762,47.9341912 C904.457899,47.9341912 906.588513,45.0199844 906.588513,39.1934118 C906.588513,33.2711103 904.457899,30.3099596 900.195762,30.3099596 C896.064739,30.3099596 893.997862,33.2711103 893.997862,39.1934118 C893.997862,45.0199844 896.064739,47.9341912 900.195762,47.9341912" id="Fill-36"></path>
                    <path d="M874.750045,26.216079 C882.239971,26.216079 885.984934,30.5063878 885.984934,39.086085 C885.984934,47.7145671 882.239971,52.0278877 874.750045,52.0278877 C867.389413,52.0278877 863.710008,47.7145671 863.710008,39.086085 C863.710008,30.5063878 867.389413,26.216079 874.750045,26.216079 L874.750045,26.216079 Z M900.195398,26.216079 C907.685324,26.216079 911.431197,30.5063878 911.431197,39.086085 C911.431197,47.7145671 907.685324,52.0278877 900.195398,52.0278877 C892.835676,52.0278877 889.15536,47.7145671 889.15536,39.086085 C889.15536,30.5063878 892.835676,26.216079 900.195398,26.216079 L900.195398,26.216079 Z M916.097605,26.3937296 L920.764013,26.3937296 L920.764013,47.9520483 L923.405427,47.9520483 L923.405427,49.8923982 L916.097605,52.3841094 L916.097605,26.3937296 Z M938.672092,26.3937296 L948.410088,38.2852765 L948.410088,41.3467584 L939.042673,51.8502371 L933.337364,51.8502371 L944.078751,39.9761791 L932.210142,26.3937296 L938.672092,26.3937296 Z M951.052413,51.8502371 L955.718821,51.8502371 L955.718821,26.3937296 L951.052413,26.3937296 L951.052413,51.8502371 Z M969.347463,35.2587724 L970.016694,39.4607161 C965.790978,40.2320697 963.677664,41.9229723 963.677664,44.5334242 C963.677664,46.6459019 964.722939,47.702601 966.812579,47.702601 L973.1161,47.702601 L973.1161,26.3937296 L977.782507,26.3937296 L977.782507,51.8502371 L966.512108,51.8502371 C961.37041,51.8502371 958.800016,49.458857 958.800016,44.6760969 C958.800016,39.4892507 962.316439,36.3504493 969.347463,35.2587724 L969.347463,35.2587724 Z M998.78635,29.3024136 C1001.15552,26.9091926 1004.2786,25.7125821 1008.16378,25.7125821 C1012.03622,25.7125821 1015.1593,26.911954 1017.53211,29.3116183 C1019.90492,31.7103621 1021.09497,34.8675728 1021.09497,38.78233 C1021.09497,42.7081329 1019.90947,45.8681051 1017.53939,48.2622465 C1015.17295,50.656388 1012.04714,51.8529985 1008.16378,51.8529985 C1004.26039,51.8529985 1001.1282,50.6619108 998.770871,48.278815 C996.41627,45.8938782 995.235328,42.7302242 995.235328,38.78233 C995.235328,34.8565272 996.418091,31.696555 998.78635,29.3024136 L998.78635,29.3024136 Z M1023.9895,25.8239589 L1026.70376,25.7125821 C1027.47224,25.7862197 1028.00489,26.2013515 1028.29899,26.9561365 L1034.78552,43.8743679 C1035.37736,45.7456826 1035.96647,45.7456826 1036.55375,43.8743679 L1042.61507,27.6289998 C1043.37445,26.3504675 1044.13109,25.7125821 1044.88864,25.7125821 L1046.53121,25.7125821 C1047.37344,25.7125821 1048.21658,26.3928091 1049.05881,27.7532632 L1055.24579,43.8743679 C1055.83671,45.7456826 1056.424,45.7456826 1057.0131,43.8743679 L1063.40859,26.9404886 C1063.69267,26.1958286 1064.21075,25.7862197 1064.97012,25.7125821 L1067.62338,25.7125821 C1068.54846,25.7862197 1068.80614,26.3348196 1068.39641,27.3565408 L1059.30306,50.336985 C1058.8824,51.4222187 1057.82438,51.9542501 1056.13081,51.9330793 C1054.44544,51.9220337 1053.38287,51.3688315 1052.94217,50.2725522 L1045.89931,32.605979 L1038.84553,50.336985 C1038.42487,51.4222187 1037.36502,51.9542501 1035.67055,51.9330793 C1033.98791,51.9220337 1032.92351,51.3688315 1032.48191,50.2725522 L1023.29296,27.3408928 C1022.89415,26.3302172 1023.12542,25.8239589 1023.9895,25.8239589 L1023.9895,25.8239589 Z M1076.31883,46.6992891 C1078.1517,46.6551066 1079.06586,47.506541 1079.06586,49.2517514 C1079.06586,50.9859161 1078.18539,51.8686465 1076.429,51.9008629 C1074.6717,51.9220337 1073.79396,51.0595537 1073.79396,49.3161842 C1073.79396,47.5700534 1074.63619,46.6992891 1076.31883,46.6992891 L1076.31883,46.6992891 Z M1073.88774,36.165435 L1073.88774,28.409558 C1073.82492,26.6118809 1074.6717,25.7282301 1076.429,25.761367 C1078.18539,25.792663 1079.06586,26.684598 1079.06586,28.440854 L1079.06586,35.0645533 L1079.06586,41.0963906 C1078.98118,42.4485605 1078.06247,43.1131396 1076.30335,43.0919687 C1074.77732,43.1333899 1073.97333,42.5120729 1073.88774,41.2243359 L1073.88774,36.165435 Z M1085.587,33.5494603 L1085.587,28.9848516 L1085.587,28.3929896 C1085.587,26.6588249 1086.46292,25.777015 1088.22386,25.7438781 C1089.9156,25.777015 1090.74235,26.6652681 1090.69956,28.409558 L1090.65494,33.6277002 C1090.65494,34.2020733 1090.7378,34.66599 1090.90625,35.0166889 C1091.28502,35.8119746 1092.17187,36.2123789 1093.54948,36.2372316 C1093.56769,36.2372316 1093.5768,36.2298678 1093.59228,36.2298678 C1095.42515,36.1856853 1096.34204,37.0380401 1096.34204,38.78233 C1096.34204,40.5164948 1095.46339,41.4001456 1093.70427,41.4314416 C1093.64144,41.4332825 1093.59956,41.4121117 1093.53673,41.4102708 C1092.16732,41.4369644 1091.28229,41.8373687 1090.90625,42.6289725 C1090.7378,42.9796715 1090.65494,43.4426677 1090.65494,44.0170407 C1090.65494,44.7101543 1090.76512,45.2090488 1090.98455,45.5174062 C1091.20854,45.8257635 1091.63648,46.081654 1092.28204,46.2832369 C1093.03686,46.5170362 1094.21507,46.6551066 1095.81576,46.6992891 L1104.40377,46.6992891 C1105.5829,46.6992891 1106.172,46.0604832 1106.172,44.7837919 L1106.172,28.3607732 C1106.10918,26.5953125 1106.95414,25.7236277 1108.71508,25.7438781 C1110.46965,25.777015 1111.35012,26.6588249 1111.35012,28.3929896 L1111.35012,48.6129455 C1111.35012,50.7732876 1110.38224,51.8787716 1108.44375,51.9330793 L1095.88041,51.9330793 C1091.39702,51.8787716 1088.33767,50.6821611 1086.70694,48.3432479 C1085.89839,47.1613649 1085.4923,45.7199095 1085.4923,44.0170407 C1085.63799,40.9537179 1086.89086,39.1219833 1089.24819,38.52736 C1086.89086,38.0174198 1085.66985,36.3578131 1085.587,33.5494603 L1085.587,33.5494603 Z M1119.01122,38.1527288 C1120.74121,36.8834013 1122.48667,36.2602433 1124.25217,36.2455158 C1124.27038,36.2455158 1124.28131,36.2381521 1124.30134,36.2381521 C1124.31226,36.2381521 1124.32319,36.239993 1124.33503,36.239993 C1124.38419,36.239993 1124.43336,36.2298678 1124.48071,36.2298678 L1124.48071,36.2455158 C1126.18611,36.2648457 1127.04837,37.1079958 1127.04837,38.7915347 C1127.04837,40.5256995 1126.1679,41.4075094 1124.41151,41.4406463 C1124.34595,41.4415667 1124.30316,41.4203959 1124.24124,41.418555 C1122.93647,41.465499 1122.08331,41.8594599 1121.72002,42.6289725 C1121.54975,42.9796715 1121.46416,43.4426677 1121.46416,44.0170407 C1121.46416,44.7101543 1121.57615,45.2090488 1121.7965,45.5174062 C1122.01776,45.8257635 1122.44843,46.081654 1123.09126,46.2832369 C1123.84881,46.5170362 1125.04978,46.6551066 1126.69236,46.6992891 L1135.21572,46.6992891 C1136.39667,46.6992891 1136.98395,46.0604832 1136.98395,44.7837919 L1136.98395,36.2298678 L1136.98395,28.3607732 C1136.92112,26.5953125 1137.76791,25.7236277 1139.5243,25.7438781 C1141.28342,25.777015 1142.16207,26.6588249 1142.16207,28.3929896 L1142.16207,36.771104 L1142.16207,48.6129455 C1142.16207,50.7732876 1141.19419,51.8787716 1139.25752,51.9330793 L1126.62953,51.9330793 C1122.1862,51.8787716 1119.14962,50.6821611 1117.52071,48.3432479 C1116.70943,47.1613649 1116.30425,45.7199095 1116.30425,44.0170407 C1116.30425,41.4314416 1117.20476,39.4772846 1119.01122,38.1527288 L1119.01122,38.1527288 Z M0.000273155575,66.2988485 L675.484874,32.8443806 C675.61781,32.8379373 675.751656,32.8342554 675.887323,32.8342554 C679.158817,32.8342554 683.401833,34.7064906 685.510594,37.1236438 L720.841447,77.6049767 C915.26448,77.7255582 1104.42107,77.8654696 1291.57908,78.0118242 L1328.6818,1.41586635 L0.000273155575,0.920653701 L0.000273155575,66.2988485 Z" id="Fill-37"></path>
                    <path d="M874.750045,47.9341912 C879.012183,47.9341912 881.142796,45.0199844 881.142796,39.1934118 C881.142796,33.2711103 879.012183,30.3099596 874.750045,30.3099596 C870.618112,30.3099596 868.551235,33.2711103 868.551235,39.1934118 C868.551235,45.0199844 870.618112,47.9341912 874.750045,47.9341912" id="Fill-38"></path>
                    <path d="M675.887506,34.0556266 C675.77187,34.0556266 675.657144,34.058388 675.54424,34.0639108 L669.62678,34.3566201 C671.953155,35.087473 674.243109,36.4138697 675.616171,37.9869523 L710.187651,77.5993618 C713.202378,77.6012027 716.218016,77.6030437 719.230011,77.6048846 L684.604811,37.9308036 C682.740068,35.7943937 678.829391,34.0556266 675.887506,34.0556266" id="Fill-39"></path>
                    <path d="M2691.42865,78.9520839 C2694.56084,78.9530044 2697.68756,78.9548453 2700.82338,78.9557658 C2748.88146,78.9741752 2797.31195,78.9907437 2846.14579,79.0045507 C2864.36709,79.0091531 2882.64575,79.0146759 2900.9845,79.0192782 L2713.9649,57.7601122 L2691.42865,78.9520839 Z" id="Fill-40"></path>
                    <path d="M666.111723,34.9576868 C665.997908,34.9576868 665.885004,34.9604482 665.77301,34.965971 L-4.54747351e-13,67.9390333 L-4.54747351e-13,76.5656744 L665.800325,42.9657724 L697.263295,77.5910776 C701.042858,77.593839 704.819689,77.5956799 708.595609,77.5975209 L674.722497,38.7849994 C672.880518,36.6743626 669.018098,34.9576868 666.111723,34.9576868" id="Fill-41"></path>
                    <path d="M2714.62448,50.4300445 C2714.29487,50.4300445 2713.96799,50.4530562 2713.64385,50.4889546 L2707.34033,49.7396923 C2705.08862,49.7396923 2702.95709,50.6095361 2701.34092,52.1844596 L2673.22411,78.9452725 L2674.55164,78.9452725 L2701.96918,52.8508796 C2703.41782,51.4388792 2705.32626,50.6601619 2707.28661,50.65648 L2711.2073,51.1222376 C2710.20027,51.5474946 2709.26972,52.157766 2708.46391,52.9420061 L2681.6373,78.9480339 C2682.29469,78.9489543 2682.953,78.9489543 2683.60948,78.9489543 L2709.41085,53.9379542 C2710.8176,52.565534 2712.66959,51.8107489 2714.54526,51.8061466 L2944.71161,79.0299557 L2945.91714,79.0299557 C2948.51303,79.0308761 2951.11074,79.0308761 2953.70936,79.0317966 L2956.47005,79.0317966 L2714.62448,50.4300445 Z" id="Fill-42"></path>
                    <polygon id="Fill-43" points="2245.38354 19.0894351 2231.72576 30.1350704 2345.11081 30.1350704 2352.16096 22.7795977"></polygon>
                    <polygon id="Fill-44" points="2348.03294 30.1350704 2565.88635 30.1350704 2355.05122 22.848633"></polygon>
                </g>
            </g>
            <g id="Large-Mid" transform="translate(1540.608711, 2432.626368) rotate(125.000000) translate(-1540.608711, -2432.626368) translate(-2459.391289, 1807.626368)">
                <g id="ShaftSegment" class="svg-shaft-segment" transform="translate(0.000000, 0.636016)" style="fill: {{customize.userStick.customColor.shaft}}">
                    <mask id="mask-6" fill="white">
                        <use xlink:href="#path-5"></use>
                    </mask>
                    <g id="Clip-2"></g>
                    <path d="M7994.81789,998.445001 C7989.69012,971.802597 7982.05072,948.664588 7970.62045,920.333948 C7954.59934,880.607272 7930.31902,835.12402 7905.68376,791.835294 C7875.13157,738.16311 7838.58858,686.492666 7798.88532,635.883449 C7738.70343,559.174154 7639.56061,457.674649 7560.48743,371.522407 C7481.41604,285.370166 7331.52167,148.450155 7241.83981,80.0162747 C7202.61402,50.0802808 7155.12002,29.3494023 7114.4222,18.5803721 C7062.09952,4.72675447 6968.88264,0.591749586 6945.88156,0.953900341 C6917.35994,1.4043366 6659.15366,2.80789599 6659.15366,2.80789599 L3880.17453,1.78270306 L3868.53165,1.77909957 L3594.40335,1.67820185 L3594.40335,1.67820185 L3559.7648,1.66558963 L3377.96332,1.59892507 L3327.8622,1.57910587 L3222.06193,1.54126923 L3177.04353,1.52325178 L2756.29822,1.3683017 L2629.21213,1.32145633 L-0.000540523513,0.352117495 L-0.000540523513,128.324663 L-0.000540523513,129.171483 L-0.000540523513,130.353428 L-0.000540523513,130.71738 L-0.000540523513,131.535373 L-0.000540523513,148.421327 L-0.000540523513,149.844706 C18.0673588,149.848309 36.0992232,149.851913 54.1022597,149.857318 L58.8516597,149.857318 C71.831431,149.860921 84.7841761,149.864525 97.731516,149.868128 C105.394338,149.86993 113.046349,149.871732 120.700162,149.873534 C131.092627,149.877137 141.47248,149.878939 151.845127,149.882542 C158.479152,149.884344 165.116781,149.886146 171.743599,149.887948 C182.919824,149.889749 194.079832,149.893353 205.232634,149.896956 C210.450488,149.898758 215.679152,149.90056 220.893402,149.902362 C234.307394,149.905965 247.690756,149.909569 261.068713,149.913172 C271.270194,149.916776 281.453657,149.920379 291.635318,149.923982 C300.589991,149.925784 309.550069,149.927586 318.490328,149.931189 C325.508125,149.932991 332.515111,149.936595 339.523899,149.938396 C350.238877,149.942 360.950252,149.945603 371.643608,149.949207 C375.654293,149.951009 379.663176,149.951009 383.670257,149.95281 C397.985121,149.958216 412.276563,149.963621 426.551789,149.967224 C429.926457,149.969026 433.306531,149.970828 436.679398,149.970828 C470.026095,149.98344 503.270093,149.996052 536.407788,150.008665 C540.782425,150.010466 545.146251,150.012268 549.517285,150.01407 C560.336764,150.017673 571.147234,150.021277 581.946894,150.026682 C591.901535,150.030285 601.850771,150.033889 611.789197,150.037492 C616.929575,150.041096 622.069954,150.042898 627.204927,150.044699 C634.905586,150.048303 642.599037,150.051906 650.288885,150.053708 C664.998332,150.060915 679.691562,150.06632 694.361371,150.073527 L697.919817,150.073527 C731.334981,150.089743 764.643841,150.104157 797.860813,150.118571 C801.947171,150.120373 806.02452,150.122174 810.107274,150.123976 C821.206024,150.129381 832.290359,150.134787 843.367488,150.140192 C851.841095,150.143795 860.3129,150.147399 868.775696,150.151002 C877.598842,150.156408 886.418384,150.160011 895.228917,150.165416 C899.524277,150.167218 903.823241,150.16902 908.116799,150.170822 C940.05273,150.187037 971.898574,150.203253 1003.66334,150.219469 C1009.97665,150.22127 1016.27555,150.224874 1022.58166,150.228477 C1034.12004,150.233883 1045.65841,150.24109 1057.17697,150.246495 C1060.11561,150.248297 1063.05246,150.250098 1065.99111,150.250098 C1080.48254,150.259107 1094.96136,150.266314 1109.41857,150.273521 C1110.68159,150.275323 1111.94461,150.275323 1113.20764,150.275323 C1129.29001,150.284331 1145.35257,150.29334 1161.39531,150.302349 C1162.18447,150.302349 1162.97183,150.302349 1163.7592,150.304151 C1194.81227,150.320366 1225.78067,150.338384 1256.686,150.356401 C1262.71464,150.358203 1268.73427,150.361807 1274.7593,150.36541 C1302.12781,150.381626 1329.44227,150.397841 1356.70087,150.414057 C1363.22859,150.417661 1369.75811,150.421264 1376.27863,150.426669 C1385.92157,150.432075 1395.5555,150.43748 1405.18583,150.442885 L1405.32816,150.442885 C1802.40935,150.684319 2188.28188,150.967193 2570.04283,151.262679 C2600.02206,151.286102 2629.98688,151.309524 2659.91927,151.331145 C2738.28077,151.392405 2816.49632,151.453664 2894.61999,151.514923 C2922.47497,151.536544 2950.32634,151.558165 2978.1615,151.581588 C3016.96388,151.612218 3055.74825,151.641046 3094.5254,151.671675 L3094.5236,151.671675 C3098.92887,151.675279 3103.33233,151.678882 3107.7358,151.682486 C3212.83519,151.763564 3317.87693,151.846444 3423.01055,151.927523 C3432.57962,151.93473 3442.15049,151.941937 3451.72136,151.949144 C3546.67332,152.021214 3641.71357,152.093284 3736.94841,152.163552 C3740.19696,152.165353 3743.4419,152.168957 3746.69045,152.170759 C3845.54679,152.242828 3944.62115,152.314898 4044.03784,152.383364 C4045.60896,152.385166 4047.18368,152.385166 4048.7548,152.386968 C4068.73796,152.401382 4088.73733,152.413994 4108.74931,152.428408 C4119.01746,152.435615 4129.29461,152.442822 4139.57176,152.450029 C4150.67952,152.457236 4161.79269,152.464443 4172.90945,152.47165 C4184.10189,152.478857 4195.29073,152.486064 4206.49398,152.495073 C4227.83205,152.507685 4249.19534,152.522099 4270.57304,152.536513 C4272.65406,152.538315 4274.73507,152.538315 4276.81789,152.540116 C4321.72639,152.568944 4366.72317,152.597772 4411.82085,152.6266 C4420.73047,152.632005 4429.64191,152.637411 4438.56054,152.642816 C4458.3401,152.655428 4478.13948,152.66804 4497.96047,152.678851 C4503.03419,152.682454 4508.11151,152.686058 4513.18702,152.687859 C4532.92874,152.700472 4552.69028,152.711282 4572.47344,152.723894 C4577.74174,152.727498 4583.01005,152.7293 4588.28195,152.732903 C4607.57684,152.743713 4626.89335,152.756326 4646.23148,152.767136 C4654.7231,152.77074 4663.22013,152.776145 4671.72257,152.78155 C4688.88599,152.790559 4706.06743,152.799568 4723.26689,152.810378 C4734.87914,152.815783 4746.5076,152.82299 4758.13606,152.828396 C4771.78248,152.835602 4785.4361,152.842809 4799.10594,152.850016 C4808.91644,152.855422 4818.72875,152.860827 4828.55006,152.866232 C4849.52237,152.877043 4870.5145,152.887853 4891.54267,152.898664 C4896.07046,152.900465 4900.61446,152.904069 4905.14585,152.905871 C4921.27507,152.913078 4937.42231,152.922086 4953.58756,152.929293 C4963.83949,152.934698 4974.09142,152.940104 4984.35596,152.945509 C4998.4348,152.950914 5012.53165,152.958121 5026.63751,152.963526 C5042.38116,152.972535 5058.14103,152.979742 5073.91891,152.986949 C5087.75631,152.992354 5101.60813,152.999561 5115.47255,153.004967 C5122.3372,153.00857 5129.19284,153.012173 5136.0629,153.013975 C5157.41358,153.022984 5178.80029,153.031993 5200.21763,153.041001 C5210.302,153.046407 5220.40799,153.05001 5230.50857,153.053614 C5243.39105,153.059019 5256.28974,153.064424 5269.19744,153.069829 C5276.0747,153.073433 5282.92314,153.075235 5289.8076,153.078838 L5289.8076,153.078838 C5296.65243,153.08064 5303.50807,153.084243 5310.36011,153.086045 C5311.48079,153.086045 5312.60148,153.087847 5313.72397,153.087847 C5480.66826,153.15271 5649.80527,153.20496 5821.65211,153.242797 C5823.44665,153.242797 5825.23578,153.242797 5827.03032,153.244599 L5827.03032,153.244599 C5883.12765,153.255409 5939.52047,153.26622 5996.21418,153.275228 C5999.23571,153.27703 6002.25903,153.27703 6005.28236,153.27703 C6016.03518,153.278832 6026.7934,153.280634 6037.56783,153.282435 L6038.85788,153.282435 C6075.35223,153.28784 6111.9781,153.293246 6148.7337,153.296849 C6152.77321,153.296849 6156.81993,153.296849 6160.86485,153.298651 C6177.21028,153.300453 6193.58274,153.302254 6209.98222,153.302254 C6216.85408,153.304056 6223.72233,153.304056 6230.60319,153.304056 C6237.53991,153.305858 6244.48384,153.305858 6251.43137,153.305858 C6260.84368,153.30766 6270.26501,153.30766 6279.69534,153.30766 C6308.5647,153.309461 6337.52055,153.311263 6366.55927,153.313065 L6396.85741,153.313065 L6406.27153,153.313065 L6458.24287,153.313065 C6458.81582,153.313065 6459.44103,153.314867 6460.09506,153.314867 L6460.87522,153.314867 C6461.29322,153.314867 6461.71663,153.316668 6462.16166,153.316668 L6463.10037,153.316668 C6463.50937,153.31847 6463.93638,153.31847 6464.367,153.31847 C6464.80302,153.320272 6465.23904,153.320272 6465.69489,153.320272 C6466.05524,153.322074 6466.4318,153.322074 6466.80656,153.322074 C6467.27141,153.323875 6467.72906,153.323875 6468.21373,153.325677 C6468.62092,153.325677 6469.05514,153.327479 6469.47315,153.327479 C6470.47131,153.331082 6471.50732,153.332884 6472.58296,153.334686 C6473.00096,153.336488 6473.40996,153.336488 6473.83877,153.338289 C6474.25858,153.340091 6474.6964,153.340091 6475.12702,153.341893 C6475.83691,153.343695 6476.55941,153.345496 6477.29632,153.347298 C6477.77559,153.3491 6478.25845,153.350902 6478.74853,153.350902 C6479.2368,153.352703 6479.73769,153.354505 6480.23857,153.356307 C6480.96468,153.358109 6481.69078,153.35991 6482.4403,153.363514 C6483.09974,153.365316 6483.7736,153.367117 6484.44925,153.368919 C6484.89248,153.370721 6485.3231,153.372523 6485.77173,153.374324 C6486.96629,153.377928 6488.19508,153.381531 6489.44189,153.386936 C6490.42744,153.39054 6491.43462,153.394143 6492.4526,153.397747 C6492.63458,153.397747 6492.81295,153.399549 6492.99673,153.399549 C6494.15345,153.403152 6495.32819,153.408557 6496.52274,153.413963 L6496.6795,153.413963 C6504.19818,153.442791 6512.45377,153.480627 6521.27151,153.525671 C6521.28232,153.527473 6521.29313,153.527473 6521.30575,153.527473 C6537.52866,153.610353 6555.64881,153.722061 6574.56533,153.866201 L6574.59416,153.866201 C6576.31122,153.880615 6578.03189,153.893227 6579.75976,153.907641 C6659.27437,154.53645 6750.89311,155.752628 6774.50137,157.941748 C6801.25729,160.415544 6824.2908,165.779339 6843.3965,171.647623 C6875.26397,181.441909 6883.84928,183.937325 6912.54568,196.288288 C6938.92863,207.633876 6981.6444,232.326792 7007.57151,251.174847 C7033.49502,270.026506 7088.41581,324.314885 7103.75587,337.296459 C7119.09953,350.278032 7245.38024,478.915421 7272.52352,507.240655 C7299.66862,535.565889 7428.30781,718.495261 7450.73052,750.360924 C7473.15504,782.224785 7556.9488,912.045921 7556.9488,912.045921 C7556.9488,912.045921 7673.78656,1128.0193 7693.84899,1159.88496 C7713.91322,1191.74882 7728.07494,1216.53363 7746.95903,1229.5152 C7765.84132,1242.49677 7791.80446,1254.3 7849.63327,1243.67511 C7907.46208,1233.05563 7941.68803,1194.11091 7964.11075,1161.0633 C7986.53347,1128.0193 7997.74933,1084.34139 7999.51504,1048.94611 C8000.23574,1034.57179 7998.31868,1016.66965 7994.81789,998.445001" id="Fill-1" mask="url(#mask-6)"></path>
                </g>
                <g id="LogoSegment" class="svg-logo-segment" style="fill: {{customize.userStick.customColor.logo}}">
                    <path d="M3177.04262,2.15998847 L2949.36511,2.07530646 L2907.28896,51.3962753 L3064.80472,51.3962753 L2978.1624,152.216523 C3016.96298,152.247153 3055.74915,152.277782 3094.5245,152.308412 L3190.56292,36.6616044 C3200.43288,24.8457603 3193.89254,9.56335887 3177.04262,2.15998847" id="Fill-4"></path>
                    <path d="M3328.1539,129.512553 L3327.87823,72.1521981 L3378.68384,72.1521981 L3328.1539,129.512553 Z M3442.17734,2.25710253 L3421.75275,24.7554929 L3327.86202,24.9464779 L3327.86202,2.2156624 L3222.06175,2.17602401 L3222.06355,129.636874 L3183.61071,129.636874 C3157.69801,129.636874 3134.12758,137.874452 3123.14775,150.764136 L3121.81445,152.329853 C3222.2167,152.407328 3322.57209,152.486604 3423.01037,152.56408 C3460.24884,111.669872 3540.6355,23.3249074 3559.76462,2.30214616 L3442.17734,2.25710253 Z" id="Fill-6"></path>
                    <path d="M3594.40389,2.3138575 C3588.29057,4.61468593 3583.19524,7.74972231 3579.7539,11.5315852 L3543.32082,51.5501444 L3669.63576,51.5969897 L3650.62554,72.4323695 L3524.49979,72.4323695 L3490.83598,109.38616 L3623.23722,109.38616 L3604.54591,130.246764 L3471.99874,130.246764 L3451.7219,152.5848 C3540.50469,152.653266 3629.36315,152.71993 3718.38737,152.786595 L3848.51481,2.40754824 L3594.40389,2.3138575 Z" id="Fill-8"></path>
                    <path d="M3866.77585,11.3375372 L3831.25085,52.16508 L3972.74549,51.6804105 L3770.61131,128.238359 L3746.68955,152.806955 C3845.54769,152.879025 3944.62205,152.951094 4044.03694,153.019561 L4066.12813,129.432916 L3921.4426,129.717592 L4081.45558,71.9049987 C4113.25638,58.6279394 4137.90605,36.3944056 4152.77585,22.8560933 L4172.99504,2.52700394 L3880.17543,2.41889924 C3874.58281,4.72333115 3869.94152,7.75026283 3866.77585,11.3375372" id="Fill-10"></path>
                    <polygon id="Fill-12" points="4940.20276 74.3355527 4940.20276 102.286024 4929.0896 74.3355527 4922.75106 74.3355527 4911.86311 102.286024 4911.86311 74.3355527 4904.98585 74.3355527 4904.98585 114.464018 4912.42345 114.464018 4925.75096 84.0145271 4939.36495 114.464018 4947.08002 114.464018 4947.08002 74.3355527"></polygon>
                    <mask id="mask-8" fill="white">
                        <use xlink:href="#path-7"></use>
                    </mask>
                    <g id="Clip-15"></g>
                    <polygon id="Fill-14" mask="url(#mask-8)" points="4889.12887 114.464919 4896.56648 114.464919 4896.56648 74.3364536 4889.12887 74.3364536"></polygon>
                    <path d="M4873.27568,108.010528 L4864.99846,108.010528 C4856.6726,108.010528 4852.50877,103.837686 4852.50877,95.4956069 C4852.50877,85.6923121 4856.6726,80.7897639 4864.99846,80.7897639 L4873.27568,80.7897639 L4873.27568,108.010528 Z M4845.07477,95.4956069 C4845.07477,108.142055 4851.716,114.464379 4864.99846,114.464379 L4880.71328,114.464379 L4880.71328,74.3359131 L4864.99846,74.3359131 C4851.716,74.3359131 4845.07477,81.3879432 4845.07477,95.4956069 L4845.07477,95.4956069 Z" id="Fill-16" mask="url(#mask-8)"></path>
                    <polygon id="Fill-17" mask="url(#mask-8)" points="4822.52737 92.015176 4836.55756 92.015176 4836.55756 86.121668 4822.52737 86.121668"></polygon>
                    <polygon id="Fill-18" mask="url(#mask-8)" points="4778.04967 74.3355527 4796.96079 95.7492926 4779.84601 114.464018 4788.93761 114.464018 4803.86687 97.9077832 4803.86687 93.0809082 4788.34664 74.3355527"></polygon>
                    <polygon id="Fill-19" mask="url(#mask-8)" points="4808.07377 114.464919 4815.51137 114.464919 4815.51137 74.3364536 4808.07377 74.3364536"></polygon>
                    <polygon id="Fill-20" mask="url(#mask-8)" points="4767.80297 114.464919 4775.24057 114.464919 4775.24057 74.3364536 4767.80297 74.3364536"></polygon>
                    <path d="M4739.18152,74.0552012 C4734.78346,74.0552012 4730.85566,74.7092347 4727.39451,76.0191033 L4727.39451,82.7540263 C4730.85566,81.2585779 4734.59969,80.509052 4738.61938,80.509052 C4748.25331,80.509052 4753.07118,85.3251165 4753.07118,94.9626507 C4753.07118,103.847056 4748.25331,108.290159 4738.61938,108.290159 C4734.59969,108.290159 4730.85566,107.542435 4727.39451,106.046986 L4727.39451,112.781909 C4730.85566,114.091778 4734.78346,114.745811 4739.18152,114.745811 C4753.58648,114.745811 4760.78985,108.149623 4760.78985,94.9626507 C4760.78985,81.0243511 4753.58648,74.0552012 4739.18152,74.0552012" id="Fill-21" mask="url(#mask-8)"></path>
                    <polygon id="Fill-22" mask="url(#mask-8)" points="4712.94163 114.464919 4720.37923 114.464919 4720.37923 74.3364536 4712.94163 74.3364536"></polygon>
                    <polygon id="Fill-23" mask="url(#mask-8)" points="4682.91843 74.3355527 4701.82955 95.7492926 4684.71477 114.464018 4693.80638 114.464018 4708.73564 97.9077832 4708.73564 93.0809082 4693.2154 74.3355527"></polygon>
                    <polygon id="Fill-24" mask="url(#mask-8)" points="4673.00703 81.6383858 4664.83071 81.6383858 4664.83071 83.3536471 4673.00703 83.3536471 4673.00703 88.8435642 4664.43073 88.8435642 4664.43073 90.5588255 4675.12408 90.5588255 4675.12408 74.2043857 4673.00703 74.2043857"></polygon>
                    <polygon id="Fill-25" mask="url(#mask-8)" points="4651.24141 75.9200073 4659.7961 75.9200073 4659.7961 90.5591858 4661.91315 90.5591858 4661.91315 74.2047461 4651.24141 74.2047461"></polygon>
                    <polygon id="Fill-26" mask="url(#mask-8)" points="4637.86201 75.9200073 4646.60949 75.9200073 4646.60949 81.6387461 4638.43317 81.6387461 4638.43317 83.3540074 4646.60949 83.3540074 4646.60949 88.8439246 4638.03498 88.8439246 4638.03498 90.5591858 4648.72654 90.5591858 4648.72654 74.2047461 4637.86201 74.2047461"></polygon>
                    <polygon id="Fill-27" mask="url(#mask-8)" points="4633.74521 74.2047461 4628.59762 80.7468823 4623.45184 74.2047461 4620.87714 74.2047461 4627.30757 82.3828668 4620.87714 90.5591858 4623.45184 90.5591858 4628.59762 84.0170496 4633.74521 90.5591858 4636.3199 90.5591858 4629.87866 82.3828668 4636.3199 74.2047461"></polygon>
                    <path d="M4610.69854,88.8084302 L4606.37796,88.8084302 C4604.41045,88.8084302 4603.4249,87.9021524 4603.4249,86.0877952 C4603.4249,83.9527273 4605.10413,82.6374534 4608.45717,82.1419735 L4608.02476,80.3582459 C4603.45553,81.0591247 4601.17272,82.9978024 4601.17272,86.1796842 C4601.17272,89.0985111 4602.84294,90.5597264 4606.18157,90.5597264 L4612.8156,90.5597264 L4612.8156,74.2052866 L4610.69854,74.2052866 L4610.69854,88.8084302 Z" id="Fill-28" mask="url(#mask-8)"></path>
                    <path d="M4596.25341,88.8084302 L4591.58689,88.8084302 C4589.84821,88.8084302 4588.97977,88.0553008 4588.97977,86.5454384 C4588.97977,84.6391921 4590.54368,83.4392299 4593.66971,82.9419483 L4593.66971,81.5600099 L4588.46447,74.2052866 L4585.67537,74.2052866 L4591.29141,81.9131519 C4588.24646,82.9347413 4586.72759,84.5076648 4586.72759,86.6373274 C4586.72759,89.2516595 4588.28249,90.5597264 4591.39231,90.5597264 L4598.37046,90.5597264 L4598.37046,74.2052866 L4596.25341,74.2052866 L4596.25341,88.8084302 Z" id="Fill-29" mask="url(#mask-8)"></path>
                    <path d="M4575.80559,88.957975 C4571.90121,88.957975 4569.94992,86.781467 4569.94992,82.428451 C4569.94992,78.0123739 4571.90121,75.8052362 4575.80559,75.8052362 C4579.79285,75.8052362 4581.78738,78.0123739 4581.78738,82.428451 C4581.78738,86.781467 4579.79285,88.957975 4575.80559,88.957975 M4575.80559,74.0899749 C4570.41477,74.0899749 4567.72116,76.8466448 4567.72116,82.3581829 C4567.72116,87.9021524 4570.41477,90.6732363 4575.80559,90.6732363 C4581.27929,90.6732363 4584.01794,87.9021524 4584.01794,82.3581829 C4584.01794,76.8466448 4581.27929,74.0899749 4575.80559,74.0899749" id="Fill-30" mask="url(#mask-8)"></path>
                    <polygon id="Fill-31" mask="url(#mask-8)" points="4562.28728 81.6383858 4554.11096 81.6383858 4554.11096 83.3536471 4562.28728 83.3536471 4562.28728 88.8435642 4553.71097 88.8435642 4553.71097 90.5588255 4564.40433 90.5588255 4564.40433 74.2043857 4562.28728 74.2043857"></polygon>
                    <polygon id="Fill-32" mask="url(#mask-8)" points="4548.73599 90.559366 4550.85124 90.559366 4550.85124 74.2049262 4548.73599 74.2049262"></polygon>
                    <polygon id="Fill-33" mask="url(#mask-8)" points="4533.83232 75.9200073 4542.387 75.9200073 4542.387 90.5591858 4544.50405 90.5591858 4544.50405 74.2047461 4533.83232 74.2047461"></polygon>
                    <polygon id="Fill-34" mask="url(#mask-8)" points="4520.45346 75.9200073 4529.20093 75.9200073 4529.20093 81.6387461 4521.02461 81.6387461 4521.02461 83.3540074 4529.20093 83.3540074 4529.20093 88.8439246 4520.62643 88.8439246 4520.62643 90.5591858 4531.31798 90.5591858 4531.31798 74.2047461 4520.45346 74.2047461"></polygon>
                </g>
                <g id="AccentSegment" class="svg-accent-segment" transform="translate(0.000000, -0.000000)" style="fill: {{customize.userStick.customColor.accent}}">
                    <path d="M1337.45427,65.8468111 C1337.22544,65.8468111 1336.99842,65.8522164 1336.77501,65.8630268 L1325.06547,66.4359818 C1329.66893,67.8665673 1334.20031,70.4628819 1336.91735,73.5420642 L1405.3278,151.080162 C1411.29338,151.083766 1417.26076,151.087369 1423.22093,151.090973 L1354.70417,73.4321578 C1351.0142,69.2503075 1343.2757,65.8468111 1337.45427,65.8468111" id="Fill-39"></path>
                    <path d="M5325.83115,153.728007 C5332.02916,153.729809 5338.21635,153.733412 5344.42156,153.735214 C5439.51946,153.771249 5535.35428,153.80368 5631.98727,153.830706 C5668.0438,153.839715 5704.21383,153.850525 5740.50278,153.859534 L5370.42614,112.246431 L5325.83115,153.728007 Z" id="Fill-40"></path>
                    <path d="M1318.10983,67.6125213 C1317.88461,67.6125213 1317.6612,67.6179265 1317.43958,67.628737 L2.72848411e-12,132.170848 L2.72848411e-12,149.056803 L1317.49363,83.2877032 L1379.75293,151.063947 C1387.23198,151.069352 1394.70562,151.072955 1402.17745,151.076559 L1335.14893,75.1041772 C1331.504,70.9727758 1323.861,67.6125213 1318.10983,67.6125213" id="Fill-41"></path>
                    <path d="M5371.73133,97.8984141 C5371.0791,97.8984141 5370.43227,97.9434577 5369.79085,98.0137258 L5357.31737,96.5471053 C5352.86165,96.5471053 5348.64377,98.2497544 5345.44567,101.33254 L5289.80778,153.714674 L5292.43473,153.714674 L5346.68887,102.637004 C5349.55545,99.8731267 5353.33191,98.3488504 5357.21107,98.3416434 L5364.96938,99.2533264 C5362.97665,100.085733 5361.13527,101.28029 5359.54072,102.815376 L5306.45591,153.720079 C5307.75677,153.721881 5309.05943,153.721881 5310.35849,153.721881 L5361.41454,104.764864 C5364.19823,102.078463 5367.86298,100.601032 5371.57458,100.592023 L5827.0305,153.880434 L5829.41601,153.880434 C5834.55279,153.882236 5839.69316,153.882236 5844.83534,153.884038 L5850.29824,153.884038 L5371.73133,97.8984141 Z" id="Fill-42"></path>
                    <polygon id="Fill-43" points="4443.19175 36.5516979 4416.16557 58.1726385 4640.53328 58.1726385 4654.48419 43.7748938"></polygon>
                    <polygon id="Fill-44" points="4646.31562 58.1726385 5077.40655 58.1726385 4660.20347 43.9100247"></polygon>
                    <path d="M1730.96583,50.5015288 C1745.78699,50.5015288 1753.19757,58.8994624 1753.19757,75.693528 C1753.19757,92.5830861 1745.78699,101.026063 1730.96583,101.026063 C1716.40053,101.026063 1709.11968,92.5830861 1709.11968,75.693528 C1709.11968,58.8994624 1716.40053,50.5015288 1730.96583,50.5015288 L1730.96583,50.5015288 Z M1781.3174,50.5015288 C1796.13856,50.5015288 1803.55094,58.8994624 1803.55094,75.693528 C1803.55094,92.5830861 1796.13856,101.026063 1781.3174,101.026063 C1766.7539,101.026063 1759.47124,92.5830861 1759.47124,75.693528 C1759.47124,58.8994624 1766.7539,50.5015288 1781.3174,50.5015288 L1781.3174,50.5015288 Z M1812.78488,50.8492656 L1822.01882,50.8492656 L1822.01882,93.0479363 L1827.24568,93.0479363 L1827.24568,96.8460148 L1812.78488,101.723339 L1812.78488,50.8492656 Z M1857.45554,50.8492656 L1876.72521,74.1260098 L1876.72521,80.1186138 L1858.18885,100.678327 L1846.89912,100.678327 L1868.15431,77.4358154 L1844.66856,50.8492656 L1857.45554,50.8492656 Z M1881.95387,100.678327 L1891.18781,100.678327 L1891.18781,50.8492656 L1881.95387,50.8492656 L1881.95387,100.678327 Z M1918.15633,68.2018721 L1919.48062,76.4268382 C1911.11872,77.9367006 1906.93687,81.2465062 1906.93687,86.3562552 C1906.93687,90.4912601 1909.00527,92.5596634 1913.14028,92.5596634 L1925.61376,92.5596634 L1925.61376,50.8492656 L1934.8477,50.8492656 L1934.8477,100.678327 L1912.5457,100.678327 C1902.37125,100.678327 1897.28492,95.9973929 1897.28492,86.6355257 C1897.28492,76.4826923 1904.24326,70.3387417 1918.15633,68.2018721 L1918.15633,68.2018721 Z M1976.41035,56.5427799 C1981.0985,51.8582428 1987.27848,49.5159742 1994.96653,49.5159742 C2002.62935,49.5159742 2008.80933,51.863648 2013.50468,56.5607973 C2018.20003,61.2561449 2020.55491,67.4361304 2020.55491,75.0989521 C2020.55491,82.7833947 2018.20904,88.9687855 2013.5191,93.6551244 C2008.83636,98.3414632 2002.65097,100.683732 1994.96653,100.683732 C1987.24245,100.683732 1981.04444,98.3522737 1976.37973,93.6875558 C1971.72041,89.0192344 1969.38355,82.8266366 1969.38355,75.0989521 C1969.38355,67.4145095 1971.72402,61.2291188 1976.41035,56.5427799 L1976.41035,56.5427799 Z M2026.28266,49.7339854 L2031.65366,49.5159742 C2033.17433,49.6601138 2034.22835,50.4727008 2034.81032,51.9501318 L2047.64595,85.0662057 C2048.81708,88.7291534 2049.98281,88.7291534 2051.14494,85.0662057 L2063.13915,53.2672074 C2064.64181,50.7645835 2066.13906,49.5159742 2067.63811,49.5159742 L2070.88846,49.5159742 C2072.55507,49.5159742 2074.22349,50.8474638 2075.8901,53.510443 L2088.13296,85.0662057 C2089.30229,88.7291534 2090.46442,88.7291534 2091.63015,85.0662057 L2104.28561,51.9195021 C2104.84775,50.4618904 2105.87294,49.6601138 2107.3756,49.5159742 L2112.62588,49.5159742 C2114.45646,49.6601138 2114.96635,50.7339539 2114.15557,52.7338909 L2096.16154,97.7162577 C2095.32913,99.8405151 2093.2355,100.881924 2089.88426,100.840484 C2086.54923,100.818863 2084.44659,99.7360139 2083.57455,97.5901355 L2069.63805,63.0092429 L2055.67993,97.7162577 C2054.84752,99.8405151 2052.75029,100.881924 2049.39724,100.840484 C2046.06762,100.818863 2043.96138,99.7360139 2043.08753,97.5901355 L2024.90432,52.7032612 C2024.11516,50.7249451 2024.5728,49.7339854 2026.28266,49.7339854 L2026.28266,49.7339854 Z M2129.83255,90.5957613 C2133.45946,90.5092775 2135.26841,92.1758917 2135.26841,95.5920003 C2135.26841,98.9864879 2133.52613,100.714361 2130.05056,100.777423 C2126.57319,100.818863 2124.83631,99.1306275 2124.83631,95.7181224 C2124.83631,92.3002121 2126.50292,90.5957613 2129.83255,90.5957613 L2129.83255,90.5957613 Z M2125.02189,69.976591 L2125.02189,54.7950872 C2124.89757,51.2762791 2126.57319,49.5466039 2130.05056,49.6114667 C2133.52613,49.672726 2135.26841,51.418617 2135.26841,54.8563465 L2135.26841,67.8217039 L2135.26841,79.6285392 C2135.10085,82.2753026 2133.28289,83.5761626 2129.80192,83.5347224 C2126.78219,83.615801 2125.19125,82.3996231 2125.02189,79.8789817 L2125.02189,69.976591 Z M2148.17251,64.8560315 L2148.17251,55.9211779 L2148.17251,54.7626558 C2148.17251,51.3681681 2149.90579,49.6420964 2153.39037,49.5772335 C2156.73801,49.6420964 2158.37399,51.3807803 2158.28931,54.7950872 L2158.20102,65.0091799 C2158.20102,66.1334688 2158.36498,67.0415483 2158.69831,67.7280131 C2159.44783,69.2847209 2161.20273,70.06848 2163.92877,70.1171271 C2163.96481,70.1171271 2163.98282,70.1027131 2164.01345,70.1027131 C2167.64037,70.0162294 2169.45472,71.6846453 2169.45472,75.0989521 C2169.45472,78.4934398 2167.71604,80.223115 2164.23507,80.2843744 C2164.11075,80.2879779 2164.02787,80.2465377 2163.90355,80.2429342 C2161.19372,80.2951848 2159.44243,81.0789439 2158.69831,82.6284447 C2158.36498,83.3149095 2158.20102,84.2211873 2158.20102,85.3454762 C2158.20102,86.7021902 2158.41904,87.678736 2158.85326,88.2823206 C2159.29649,88.8859052 2160.14331,89.3867903 2161.42074,89.7813725 C2162.91439,90.2390157 2165.24585,90.5092775 2168.41332,90.5957613 L2185.40737,90.5957613 C2187.74063,90.5957613 2188.90636,89.3453502 2188.90636,86.8463298 L2188.90636,54.6995947 C2188.78204,51.2438477 2190.45406,49.5375952 2193.93864,49.5772335 C2197.4106,49.6420964 2199.15289,51.3681681 2199.15289,54.7626558 L2199.15289,94.3415892 C2199.15289,98.5702848 2197.23763,100.734181 2193.40172,100.840484 L2168.54124,100.840484 C2159.66945,100.734181 2153.61558,98.3919121 2150.38866,93.8136779 C2148.78871,91.5002373 2147.98513,88.6787045 2147.98513,85.3454762 C2148.27341,79.3492687 2150.75261,75.763796 2155.41733,74.5998687 C2150.75261,73.601702 2148.33647,70.3531557 2148.17251,64.8560315 L2148.17251,64.8560315 Z M2214.31277,73.8665585 C2217.73609,71.3819521 2221.19003,70.1621707 2224.68362,70.1333428 C2224.71965,70.1333428 2224.74127,70.1189288 2224.78091,70.1189288 C2224.80253,70.1189288 2224.82415,70.1225323 2224.84757,70.1225323 C2224.94487,70.1225323 2225.04216,70.1027131 2225.13585,70.1027131 L2225.13585,70.1333428 C2228.51052,70.1711794 2230.21677,71.8215779 2230.21677,75.1169696 C2230.21677,78.5114572 2228.47449,80.237529 2224.99892,80.3023918 C2224.86919,80.3041936 2224.78451,80.2627534 2224.66199,80.2591499 C2222.08009,80.3510389 2220.39186,81.1221858 2219.67296,82.6284447 C2219.33604,83.3149095 2219.16667,84.2211873 2219.16667,85.3454762 C2219.16667,86.7021902 2219.38829,87.678736 2219.82431,88.2823206 C2220.26213,88.8859052 2221.11436,89.3867903 2222.38639,89.7813725 C2223.88544,90.2390157 2226.26194,90.5092775 2229.51229,90.5957613 L2246.37843,90.5957613 C2248.71529,90.5957613 2249.87742,89.3453502 2249.87742,86.8463298 L2249.87742,70.1027131 L2249.87742,54.6995947 C2249.7531,51.2438477 2251.42872,49.5375952 2254.90428,49.5772335 C2258.38526,49.6420964 2260.12394,51.3681681 2260.12394,54.7626558 L2260.12394,71.1621392 L2260.12394,94.3415892 C2260.12394,98.5702848 2258.20869,100.734181 2254.37637,100.840484 L2229.38797,100.840484 C2220.59546,100.734181 2214.58664,98.3919121 2211.36331,93.8136779 C2209.75796,91.5002373 2208.95618,88.6787045 2208.95618,85.3454762 C2208.95618,80.2843744 2210.73811,76.4592696 2214.31277,73.8665585 L2214.31277,73.8665585 Z M0.000540523514,128.960319 L1336.65753,63.4758948 C1336.92059,63.4632826 1337.18545,63.4560756 1337.45391,63.4560756 C1343.92758,63.4560756 1352.32371,67.1208251 1356.49655,71.8522076 L1426.40966,151.091153 C1811.13628,151.327182 2185.44161,151.601047 2555.7921,151.887524 L2629.21141,1.95711198 L0.000540523514,0.987773147 L0.000540523514,128.960319 Z" id="Fill-37"></path>
                    <path d="M1994.74942,70.1198297 C1998.37092,70.0333459 2000.18528,71.6999601 2000.18528,75.1160687 C2000.18528,78.5123581 1998.4466,80.2384299 1994.96743,80.3014909 C1991.49006,80.3447328 1989.74777,78.6582995 1989.74777,75.2439926 C1989.74777,71.8242805 1991.41439,70.1198297 1994.74942,70.1198297 M1984.34254,86.5949864 C1987.26136,89.1750853 1990.8036,90.47054 1994.96743,90.47054 C1999.52945,90.47054 2003.22302,89.0273422 2006.05537,86.1427484 C2008.88951,83.2581546 2010.30749,79.5753877 2010.30749,75.099853 C2010.30749,68.6225796 2007.67874,64.082182 2002.43386,61.4804622 C2000.1006,60.3129314 1997.60879,59.7309678 1994.96743,59.7309678 C1989.0523,59.7309678 1984.64883,62.0624258 1981.75343,66.7289455 C1980.31203,69.0405844 1979.59854,71.8314875 1979.59854,75.099853 C1979.59854,79.9519524 1981.18228,83.7824624 1984.34254,86.5949864" id="Fill-35"></path>
                    <path d="M1781.31812,93.0129824 C1789.75209,93.0129824 1793.96817,87.3086576 1793.96817,75.9036115 C1793.96817,64.3111838 1789.75209,58.51497 1781.31812,58.51497 C1773.1436,58.51497 1769.05364,64.3111838 1769.05364,75.9036115 C1769.05364,87.3086576 1773.1436,93.0129824 1781.31812,93.0129824" id="Fill-36"></path>
                    <path d="M1730.96583,93.0129824 C1739.3998,93.0129824 1743.61589,87.3086576 1743.61589,75.9036115 C1743.61589,64.3111838 1739.3998,58.51497 1730.96583,58.51497 C1722.78952,58.51497 1718.69955,64.3111838 1718.69955,75.9036115 C1718.69955,87.3086576 1722.78952,93.0129824 1730.96583,93.0129824" id="Fill-38"></path>
                </g>
            </g>
            <g id="Small-Bottom" transform="translate(3118.863188, 2668.742854) rotate(125.000000) translate(-3118.863188, -2668.742854) translate(1097.363188, 2353.242854)">
                <g id="ShaftSegment" class="svg-shaft-segment" transform="translate(0.000000, 0.675650)" style="fill: {{customize.userStick.customColor.shaft}}">
                    <mask id="mask-10" fill="white">
                        <use xlink:href="#path-9"></use>
                    </mask>
                    <g id="Clip-2"></g>
                    <path d="M4042.89243,100.457428 C4042.00218,82.6186308 4036.34963,60.6031703 4025.04727,43.9474423 C4013.74582,27.2926237 3996.49537,7.66330809 3967.34785,2.30903169 C3938.20214,-3.04342599 3925.11563,2.90465857 3915.59742,9.44746065 C3906.08012,15.9911721 3898.9426,28.4829681 3888.83059,44.5430692 C3878.71766,60.6031703 3819.82971,169.458301 3819.82971,169.458301 C3819.82971,169.458301 3777.59568,234.890869 3766.29332,250.951879 C3754.99186,267.01198 3690.15492,359.211383 3676.47278,373.488241 C3662.79155,387.764189 3599.14496,452.60113 3591.41181,459.143932 C3583.67866,465.687644 3555.99884,494.262275 3542.93051,503.762296 C3529.864,513.263227 3508.33414,525.705008 3495.03665,531.426664 C3480.56974,537.651192 3476.24849,538.910647 3460.18475,543.846621 C3450.55378,546.806568 3438.9477,549.504621 3425.46016,550.754983 C3413.58854,551.85712 3367.1933,553.304812 3326.84254,554.312376 C3321.53373,554.444232 3316.3304,554.569723 3311.3235,554.685211 L3311.31895,554.685211 C3310.50963,554.703398 3309.70576,554.721585 3308.90644,554.739772 C3308.84187,554.741591 3308.77822,554.74341 3308.71274,554.744319 C3305.48363,554.817977 3302.34545,554.887088 3299.32457,554.951652 C3299.29729,554.951652 3299.27001,554.952561 3299.24364,554.95347 C3298.59527,554.967111 3297.95509,554.980751 3297.31672,554.994391 C3297.07847,554.998938 3296.84022,555.004394 3296.60288,555.008941 C3296.06818,555.019853 3295.53711,555.031675 3295.01151,555.041678 C3294.71597,555.048043 3294.42316,555.054409 3294.13034,555.059865 C3293.60565,555.070777 3293.08095,555.081689 3292.56535,555.091692 C3292.55261,555.092602 3292.53988,555.092602 3292.52715,555.092602 C3291.13038,555.120792 3289.76726,555.148072 3288.44052,555.173534 C3288.40687,555.174443 3288.37231,555.174443 3288.33867,555.175353 C3287.82488,555.185356 3287.32201,555.195359 3286.81914,555.204452 C3286.56634,555.208999 3286.31263,555.214455 3286.06346,555.219002 C3285.62879,555.227186 3285.20049,555.234461 3284.77582,555.242645 C3284.4821,555.248101 3284.19292,555.253557 3283.90375,555.259013 C3283.5,555.266288 3283.09715,555.273563 3282.70158,555.279929 C3282.35512,555.286294 3282.01593,555.292659 3281.67674,555.298116 C3281.36119,555.303572 3281.04292,555.309937 3280.73374,555.314484 C3280.16994,555.324487 3279.61887,555.33358 3279.07417,555.342674 C3278.75499,555.34813 3278.44581,555.353586 3278.1339,555.358133 C3277.74287,555.364498 3277.35185,555.370864 3276.97356,555.377229 C3276.71621,555.380867 3276.46614,555.384504 3276.21516,555.389051 C3275.88506,555.393598 3275.5577,555.399054 3275.2367,555.403601 C3274.97025,555.407238 3274.70654,555.411785 3274.44738,555.415422 C3274.09818,555.419969 3273.75536,555.425425 3273.4189,555.429972 C3273.22339,555.4327 3273.02424,555.435428 3272.83327,555.438156 C3272.43679,555.442703 3272.05396,555.448159 3271.67748,555.452706 C3271.54199,555.454524 3271.39922,555.456343 3271.26646,555.458162 C3270.76813,555.464527 3270.28799,555.469984 3269.82604,555.47453 C3269.72419,555.47544 3269.62962,555.476349 3269.52959,555.478168 C3269.17858,555.481805 3268.83757,555.484533 3268.50929,555.488171 C3268.35561,555.48908 3268.20921,555.490899 3268.06098,555.491808 C3267.79272,555.494536 3267.53174,555.496355 3267.27985,555.498173 C3267.13981,555.499083 3267.00068,555.499992 3266.86518,555.500902 C3266.60147,555.50272 3266.3514,555.50363 3266.10769,555.504539 C3266.0013,555.505448 3265.89035,555.506358 3265.78851,555.506358 C3265.45568,555.507267 3265.13832,555.508176 3264.84642,555.508176 L3225.24041,555.508176 L3219.43419,555.508176 L3205.48106,555.508176 L3196.84401,555.508176 C3184.48407,555.508176 3172.14869,555.508176 3159.84786,555.507267 L3158.96124,555.507267 L3150.62064,555.507267 L3135.85273,555.507267 C3109.16956,555.507267 3082.62006,555.506358 3056.20151,555.505448 L3054.54102,555.505448 C3013.56371,555.504539 2972.89377,555.50363 2932.50844,555.501811 L2920.63865,555.501811 C2905.62521,555.500902 2890.6527,555.499992 2875.71656,555.499992 C2815.66828,555.497264 2756.22744,555.493627 2697.31585,555.490899 C2694.70692,555.489989 2692.10162,555.489989 2689.4945,555.489989 L2687.51756,555.489989 L2687.45936,555.489989 C2684.73676,555.489989 2682.0087,555.489989 2679.28882,555.48908 C2664.07442,555.488171 2648.89457,555.487261 2633.74746,555.486352 L2632.92086,555.486352 C2339.61236,555.468165 2058.7511,555.441794 1779.75129,555.422697 C1778.92832,555.422697 1778.10627,555.421788 1777.28421,555.421788 C1729.2194,555.41906 1681.20732,555.415422 1633.19707,555.412694 C1623.7216,555.411785 1614.24704,555.411785 1604.77157,555.410875 C1579.38786,555.409966 1554.00143,555.408147 1528.60408,555.407238 C1509.56494,555.406329 1490.52033,555.405419 1471.46664,555.40451 C1469.33784,555.40451 1467.20995,555.40451 1465.08207,555.403601 L1459.01849,555.403601 C1449.45391,555.403601 1439.8875,555.402691 1430.31837,555.402691 C1404.64003,555.401782 1378.93987,555.400873 1353.21152,555.399963 C1342.75031,555.399054 1332.28364,555.399054 1321.81152,555.399054 C1123.18587,555.393598 922.585108,555.395416 716.233587,555.410875 L715.433356,555.410875 L714.631305,555.410875 C644.977517,555.416332 574.662627,555.422697 503.552053,555.430881 C497.882231,555.431791 492.209681,555.431791 486.528946,555.4327 C430.177188,555.439975 373.310735,555.44725 315.87048,555.456343 L314.680135,555.456343 C288.080621,555.46089 261.355616,555.465437 234.499665,555.469984 C231.131417,555.469984 227.765898,555.470893 224.393104,555.471802 C210.600932,555.473621 196.769657,555.476349 182.906556,555.479077 C180.894155,555.479077 178.878117,555.479986 176.864808,555.479986 C171.786975,555.480896 166.71187,555.481805 161.624034,555.482714 C137.877164,555.487261 114.024808,555.491808 90.0615115,555.497264 C83.851533,555.498173 77.6324609,555.499992 71.4079328,555.500902 C69.1527348,555.501811 66.8948088,555.501811 64.6387015,555.50272 C60.4674947,555.50363 56.2990159,555.504539 52.1214436,555.505448 C35.615759,555.508176 19.06006,555.511814 2.44616228,555.515451 C1.79779287,555.516361 1.15306088,555.516361 0.50378212,555.516361 L0.50378212,557.941608 L0.50378212,566.676862 L-9.09494702e-13,566.65231 L-9.09494702e-13,567.011505 L-9.09494702e-13,567.248846 L-9.09494702e-13,567.844473 L-9.09494702e-13,568.219127 L0.50378212,568.243679 L0.50378212,628.971249 L1234.51808,629.08219 L3326.84254,629.269517 L3364.77897,629.273155 C3364.77897,629.273155 3497.46281,628.442914 3511.83879,628.667525 C3523.4285,628.849396 3570.41573,626.766066 3596.78791,619.783136 C3617.30021,614.355202 3641.23713,603.908543 3661.0074,588.818723 C3706.20957,554.326926 3781.7587,485.316959 3821.61387,441.894396 C3861.46812,398.470924 3911.43713,347.312486 3941.77045,308.650391 C3961.78169,283.142102 3980.19975,257.099112 3995.59966,230.04583 C4008.01598,208.228609 4020.25316,185.303795 4028.32913,165.280729 C4034.08898,151.002052 4037.94009,139.340496 4040.52448,125.911156 C4042.28953,116.725772 4043.25527,107.70407 4042.89243,100.457428" id="Fill-1" mask="url(#mask-10)"></path>
                </g>
                <g id="AccentSegment" class="svg-accent-segment" style="fill: {{customize.userStick.customColor.accent}}">
                    <path d="M1151.33538,601.771198 L1140.12668,614.908635 L1090.74512,614.926822 C1082.78828,614.92955 1078.55069,609.35612 1081.86892,605.384971 L1111.78667,569.357274 L1140.56317,569.357274 L1112.70784,601.771198 L1151.33538,601.771198 Z M1048.19918,614.933188 L1048.19918,608.25762 L1025.17433,608.303997 L1019.15623,614.933188 L990.307883,614.933188 C990.307883,614.933188 1025.72722,576.005561 1029.26188,572.138079 C1029.44011,571.942568 1029.5647,571.837083 1029.57197,571.831626 C1031.10423,570.477598 1033.78137,569.455484 1037.20509,569.381827 L1105.23295,569.381827 L1098.40098,577.403238 C1095.70838,580.564153 1089.92761,582.583828 1083.57396,582.583828 L1074.14396,582.583828 L1074.14487,614.933188 L1048.19918,614.933188 Z M976.677576,614.860439 L919.564688,614.888629 L956.077071,572.693694 C957.885776,570.604908 961.72234,569.272704 965.934468,569.273614 L1024.79695,569.276342 L1012.85259,582.434694 L980.348638,582.434694 L975.764585,587.54981 L1008.23307,587.54981 L999.977954,596.612432 L969.048096,596.612432 L964.386747,601.722093 L995.362073,601.733005 L986.428579,611.546753 C984.581681,613.575522 980.807862,614.857711 976.677576,614.860439 L976.677576,614.860439 Z M906.243562,614.98593 L839.820708,614.888629 L845.907014,608.769586 C849.553523,605.450444 855.598,599.997048 863.39662,596.741561 L902.636154,582.564732 L867.155889,582.634752 L876.456762,572.702788 C878.327303,570.704937 882.070204,569.446391 886.155932,569.440025 L952.887966,569.305441 L939.625038,582.927564 L890.055242,601.701177 L924.753462,601.582961 L916.041851,611.594949 C914.220415,613.659183 910.416587,614.975927 906.243562,614.98593 L906.243562,614.98593 Z M726.818013,556.085252 L689.101646,597.998288 C686.972849,600.364427 682.717981,602.195866 679.450672,602.195866 C679.31336,602.195866 679.177866,602.192229 679.0451,602.185863 L0.519695815,568.920784 L0.504236797,568.919875 L0.504236797,629.647445 L0.519695815,629.647445 L1234.51854,629.757477 L1270.60171,556.073431 C1092.10006,556.069793 911.743335,556.072521 726.818013,556.085252 L726.818013,556.085252 Z" id="Fill-7"></path>
                    <path d="M673.398376,600.701525 L679.103663,600.981606 C679.217332,600.987062 679.33282,600.98979 679.450127,600.98979 C682.393706,600.98979 686.321206,599.28566 688.205387,597.191418 L725.19518,556.085889 C722.207043,556.085889 719.224362,556.085889 716.233496,556.086798 L679.239157,597.197784 C677.886947,598.700036 675.668123,599.97586 673.398376,600.701525" id="Fill-9"></path>
                    <polygon id="Fill-11" points="1035.73603 596.681089 1048.19509 596.681089 1048.12779 582.614292"></polygon>
                    <path d="M2875.7162,556.175188 C2856.46062,556.174278 2837.26689,556.173369 2818.13408,556.172459 C2780.76327,556.170641 2743.61525,556.168822 2706.68184,556.167003 C2703.55729,556.166094 2700.43821,556.166094 2697.3164,556.166094 L2716.48285,573.994889 L2875.7162,556.175188 Z" id="Fill-13"></path>
                    <path d="M2931.76796,556.177461 L2923.8293,556.177461 L2920.63837,556.177461 L2717.14132,579.668803 C2715.18893,579.668803 2713.33931,578.923133 2711.93435,577.567286 C2711.93345,577.566377 2711.93254,577.565467 2711.93163,577.564558 L2689.49423,556.165639 L2687.51729,556.165639 L2710.99045,578.552116 C2711.80068,579.333251 2712.73641,579.938881 2713.75761,580.358093 L2709.86648,580.805495 C2707.85499,580.805495 2705.9499,580.037091 2704.49766,578.636686 L2680.6162,556.165639 C2680.17426,556.16473 2679.73049,556.16473 2679.28855,556.16473 L2703.8702,579.295058 C2705.48613,580.853691 2707.61129,581.712121 2709.9065,581.712121 L2709.91832,581.712121 L2716.27106,580.981001 C2716.57752,581.011009 2716.88761,581.029197 2717.20133,581.029197 L2717.21952,581.029197 L2932.50908,556.177461 L2931.76796,556.177461 Z" id="Fill-15"></path>
                    <mask id="mask-12" fill="white">
                        <use xlink:href="#path-11"></use>
                    </mask>
                    <g id="Clip-18"></g>
                    <g id="Group-6" mask="url(#mask-12)">
                        <g transform="translate(0.000000, 555.381594)">
                            <mask id="mask-14" fill="white">
                                <use xlink:href="#path-13"></use>
                            </mask>
                            <g id="Clip-5" stroke="none" fill="none"></g>
                            <path d="M0.519695815,11.9716455 L669.364118,44.7620416 C669.476878,44.7684071 669.591456,44.7702258 669.706944,44.7702258 C672.613239,44.7702258 676.492544,43.0879209 678.353082,41.0200499 L714.630851,0.704749355 C711.093464,0.704749355 707.546983,0.705658709 704.005049,0.705658709 L670.938209,36.7042558 L0.519695815,3.23730026 L0.504236797,3.23639091 L-0.000454677003,3.210929 L-0.000454677003,11.9461836 L0.504236797,11.9707361 L0.519695815,11.9716455 Z" id="Fill-4" stroke="none" fill-rule="evenodd" mask="url(#mask-14)"></path>
                        </g>
                    </g>
                    <polygon id="Fill-17" mask="url(#mask-12)" points="2032.71266 597.70202 2036.78929 597.70202 2036.78929 593.149794 2032.71266 593.149794"></polygon>
                    <polygon id="Fill-19" mask="url(#mask-12)" points="2011.24645 597.974827 2016.24789 597.974827 2016.24789 592.876079 2011.24645 592.876079"></polygon>
                    <polygon id="Fill-20" mask="url(#mask-12)" points="1989.78024 598.248542 1995.70559 598.248542 1995.70559 592.603273 1989.78024 592.603273"></polygon>
                    <polygon id="Fill-21" mask="url(#mask-12)" points="1968.31494 598.521348 1975.16419 598.521348 1975.16419 592.329557 1968.31494 592.329557"></polygon>
                    <polygon id="Fill-22" mask="url(#mask-12)" points="1946.84872 598.795064 1954.62188 598.795064 1954.62188 592.056751 1946.84872 592.056751"></polygon>
                    <polygon id="Fill-23" mask="url(#mask-12)" points="1925.38251 599.06787 1934.07958 599.06787 1934.07958 591.783945 1925.38251 591.783945"></polygon>
                    <polygon id="Fill-24" mask="url(#mask-12)" points="1903.9163 599.340676 1913.53727 599.340676 1913.53727 591.510229 1903.9163 591.510229"></polygon>
                    <polygon id="Fill-25" mask="url(#mask-12)" points="1882.45009 599.614392 1892.99496 599.614392 1892.99496 591.237423 1882.45009 591.237423"></polygon>
                    <polygon id="Fill-26" mask="url(#mask-12)" points="1860.98479 599.887198 1872.45356 599.887198 1872.45356 590.963707 1860.98479 590.963707"></polygon>
                    <polygon id="Fill-27" mask="url(#mask-12)" points="1839.51858 600.160914 1851.91217 600.160914 1851.91217 590.690901 1839.51858 590.690901"></polygon>
                    <polygon id="Fill-28" mask="url(#mask-12)" points="1818.05237 600.43372 1831.36986 600.43372 1831.36986 590.417185 1818.05237 590.417185"></polygon>
                    <polygon id="Fill-29" mask="url(#mask-12)" points="1796.58616 600.707435 1810.82755 600.707435 1810.82755 590.144379 1796.58616 590.144379"></polygon>
                    <polygon id="Fill-30" mask="url(#mask-12)" points="1490.53034 597.70202 1494.60697 597.70202 1494.60697 593.149794 1490.53034 593.149794"></polygon>
                    <polygon id="Fill-31" mask="url(#mask-12)" points="1511.07264 597.974827 1516.07318 597.974827 1516.07318 592.876079 1511.07264 592.876079"></polygon>
                    <polygon id="Fill-32" mask="url(#mask-12)" points="1531.61495 598.248542 1537.5403 598.248542 1537.5403 592.603273 1531.61495 592.603273"></polygon>
                    <polygon id="Fill-33" mask="url(#mask-12)" points="1552.15635 598.521348 1559.0056 598.521348 1559.0056 592.329557 1552.15635 592.329557"></polygon>
                    <polygon id="Fill-34" mask="url(#mask-12)" points="1572.69866 598.795064 1580.47181 598.795064 1580.47181 592.056751 1572.69866 592.056751"></polygon>
                    <polygon id="Fill-35" mask="url(#mask-12)" points="1593.24096 599.06787 1601.93802 599.06787 1601.93802 591.783945 1593.24096 591.783945"></polygon>
                    <polygon id="Fill-36" mask="url(#mask-12)" points="1613.78236 599.340676 1623.40333 599.340676 1623.40333 591.510229 1613.78236 591.510229"></polygon>
                    <polygon id="Fill-37" mask="url(#mask-12)" points="1634.32467 599.614392 1644.86954 599.614392 1644.86954 591.237423 1634.32467 591.237423"></polygon>
                    <polygon id="Fill-38" mask="url(#mask-12)" points="1654.86607 599.887198 1666.33484 599.887198 1666.33484 590.963707 1654.86607 590.963707"></polygon>
                    <polygon id="Fill-39" mask="url(#mask-12)" points="1675.40837 600.160914 1687.80196 600.160914 1687.80196 590.690901 1675.40837 590.690901"></polygon>
                    <polygon id="Fill-40" mask="url(#mask-12)" points="1695.95068 600.43372 1709.26817 600.43372 1709.26817 590.417185 1695.95068 590.417185"></polygon>
                </g>
                <g id="LogoSegment" class="svg-logo-segment" transform="translate(1716.000000, 575.000000)" style="fill: {{customize.userStick.customColor.logo}}">
                    <path d="M557.870976,10.8140355 C557.870976,8.65977585 557.352644,6.83652106 556.3178,5.34154307 C554.232651,2.38250514 550.321519,0.870249422 544.588042,0.801138518 L528.523394,0.801138518 C526.044495,0.870249422 524.806865,2.26792653 524.806865,4.99962597 L524.806865,30.5761168 C524.806865,32.7694786 525.932645,33.885256 528.176021,33.9270863 C530.428491,33.9525482 531.508804,32.8495018 531.42878,30.6161283 L531.42878,9.84375476 C531.42878,8.22874205 532.181726,7.42123569 533.689435,7.42123569 L544.670793,7.42123569 C546.71684,7.47670628 548.22364,7.65130225 549.189374,7.9468423 C550.015067,8.20237078 550.561589,8.52519145 550.848945,8.91530432 C551.129026,9.30632655 551.269976,9.93741823 551.269976,10.8140355 C551.269976,11.5406093 551.163581,12.1262333 550.948974,12.5699981 C550.467925,13.5702875 549.33578,14.0767977 547.585273,14.1113531 C547.50525,14.1086251 547.450689,14.0813444 547.369756,14.0840725 C545.120924,14.1240841 543.997872,15.2416801 543.997872,17.435042 C543.997872,19.6420442 545.170029,20.7187193 547.513434,20.6641581 C547.53344,20.6641581 547.545262,20.6532458 547.567995,20.6532458 C549.330323,20.6850732 550.464288,21.1924928 550.948974,22.1982383 C551.163581,22.6410937 551.269976,23.227627 551.269976,23.9551102 L551.212686,30.5552016 C551.158125,32.7622038 552.215704,33.885256 554.378148,33.9270863 C556.630617,33.885256 557.750942,32.7694786 557.750942,30.5761168 L557.750942,29.8277184 L557.750942,24.0542298 C557.644547,20.5022931 556.083186,18.4016853 553.068678,17.7569533 C556.083186,17.0049176 557.684559,14.6878836 557.870976,10.8140355" id="Fill-41"></path>
                    <path d="M569.621103,11.983101 C567.372271,11.9567297 566.197385,12.7978822 566.088263,14.5083771 L566.088263,22.1369478 L566.088263,30.5148263 C566.088263,32.7372875 567.214043,33.8648865 569.460147,33.904898 C571.707161,33.9467283 572.790202,32.8291323 572.709269,30.5548379 L572.709269,20.7447269 L572.709269,14.3465121 C572.601056,12.7169497 571.572577,11.9312678 569.621103,11.983101" id="Fill-42"></path>
                    <path d="M569.460602,0.841150094 C567.214498,0.882071025 566.088717,1.9996671 566.088717,4.19211961 C566.088717,6.39912178 567.257237,7.47670628 569.600643,7.42123569 C571.753084,7.42123569 572.829759,6.31909863 572.829759,4.1111871 C572.829759,1.90600364 571.706707,0.814778828 569.460602,0.841150094" id="Fill-43"></path>
                    <path d="M625.655133,2.90047318 C625.090424,1.51461767 623.730031,0.814415086 621.57759,0.800774776 C619.412418,0.773494156 618.056571,1.44732548 617.518234,2.81954067 L608.498351,25.2469385 L599.493019,2.90047318 C598.929219,1.51461767 597.570644,0.814415086 595.416384,0.800774776 C593.250303,0.773494156 591.898094,1.44732548 591.358847,2.81954067 L579.732756,31.8870415 C579.208059,33.1792335 579.537245,33.8730707 580.720314,33.9658248 L584.113114,33.9658248 C585.084304,33.8730707 585.746314,33.3547389 586.110056,32.4126481 L594.286967,10.9937238 C595.040821,8.62667536 595.791038,8.62667536 596.547621,10.9937238 L604.459001,31.3850781 C605.535676,33.1055759 606.61326,33.9658248 607.690845,33.9658248 L609.790543,33.9658248 C610.759005,33.9658248 611.727467,33.1601371 612.698657,31.5423963 L620.449082,10.9937238 C621.200208,8.62667536 621.953153,8.62667536 622.709736,10.9937238 L631.004863,32.3926423 C631.379517,33.347464 632.061532,33.8730707 633.044544,33.9658248 L636.513729,33.8248749 C637.620413,33.8248749 637.915044,33.185599 637.404896,31.9070473 L625.655133,2.90047318 Z" id="Fill-44"></path>
                    <path d="M665.288873,22.843425 C663.418332,25.8588429 660.572963,27.3656424 656.750948,27.3656424 C655.043181,27.3656424 653.432715,26.9900792 651.925916,26.2353154 C648.536753,24.5539199 646.837171,21.6203438 646.837171,17.4345873 C646.837171,14.5419322 647.7538,12.1630622 649.585239,10.2979771 C651.415768,8.43471073 653.802823,7.50171352 656.750948,7.50171352 C659.440817,7.50171352 661.730571,8.3383192 663.615662,10.0060745 C665.658071,11.8229638 666.681094,14.2991347 666.681094,17.4345873 C666.681094,19.5461073 666.220052,21.3502657 665.288873,22.843425 M656.750948,0.901622136 C651.785875,0.901622136 647.788355,2.41569656 644.762934,5.4438454 C641.731148,8.47199424 640.216164,12.4695145 640.216164,17.4345873 C640.216164,22.3860199 641.737514,26.3808121 644.772028,29.4135077 C647.805633,32.4498407 651.799516,33.9657338 656.750948,33.9657338 C661.718749,33.9657338 665.713541,32.4525688 668.74169,29.4253293 C671.769839,26.3971804 673.283004,22.4005696 673.283004,17.4345873 C673.283004,12.4413245 671.772567,8.4392575 668.761696,5.42293026 C665.747187,2.40842173 661.742392,0.901622136 656.750948,0.901622136" id="Fill-45"></path>
                    <path d="M505.269485,0.800956647 L489.121176,0.800956647 C486.645915,0.870067552 485.408284,2.26774466 485.408284,4.9994441 L485.408284,19.9792327 L485.408284,30.5759349 C485.408284,32.7692968 486.531336,33.8850741 488.780168,33.9269044 C491.026273,33.9523663 492.110223,32.8493199 492.02929,30.6168558 L492.02929,20.6639762 L492.02929,9.84357289 C492.02929,8.22856018 492.780417,7.42105382 494.289944,7.42105382 L505.189462,7.42105382 C507.28916,7.47652441 508.825059,7.65112038 509.793521,7.94666043 C510.615577,8.20218891 511.165736,8.52500958 511.449454,8.91512245 C511.730445,9.30614467 511.874123,9.93723636 511.874123,10.8138536 C511.874123,11.5404275 511.765,12.1260515 511.546755,12.5698162 C511.082985,13.542825 509.99176,14.041151 508.324005,14.100259 C508.243982,14.0984403 508.18942,14.072069 508.10576,14.072069 C505.859655,14.1138993 504.733875,15.2296767 504.733875,17.4230385 C504.733875,19.5518363 505.836922,20.6194179 508.017552,20.6439704 L508.017552,20.6639762 C508.07757,20.6639762 508.140315,20.6503359 508.20397,20.6503359 C508.21761,20.6503359 508.23216,20.6521546 508.24671,20.6521546 C508.272172,20.6521546 508.286721,20.6439704 508.309455,20.6439704 C510.567381,20.624874 512.798936,19.8364641 515.011394,18.2314543 C517.320244,16.5555148 518.472395,14.0838906 518.472395,10.8138536 C518.472395,8.65959398 517.953154,6.83633919 516.916491,5.3413612 C514.833161,2.38232327 510.951128,0.870067552 505.269485,0.800956647" id="Fill-46"></path>
                    <path d="M710.01063,0.905350487 L695.599188,0.905350487 L695.599188,33.1046665 L701.566369,33.1046665 L701.566369,6.15232311 L709.626883,6.15232311 C712.298565,6.15232311 713.636225,7.48816414 713.636225,10.1598462 C713.636225,13.46262 710.932715,15.6014206 705.530243,16.5771574 L706.385036,21.8914223 C715.376728,20.5101135 719.872574,16.5398739 719.872574,9.97979412 C719.872574,3.93077127 716.58526,0.905350487 710.01063,0.905350487" id="Fill-47"></path>
                    <polygon id="Fill-48" points="752.431267 0.905350487 745.136429 0.905350487 733.157509 14.1901032 733.157509 18.0630419 745.609293 33.1046665 753.872593 33.1046665 738.696384 15.9242413"></polygon>
                    <polygon id="Fill-49" points="723.81226 33.1050303 729.779441 33.1050303 729.779441 0.905714229 723.81226 0.905714229"></polygon>
                    <polygon id="Fill-50" points="765.131305 5.83623165 768.508646 5.83623165 768.508646 33.1050303 774.475827 33.1050303 774.475827 0.230064201 765.131305 3.38188519"></polygon>
                    <path d="M794.809437,28.1511424 C789.359679,28.1511424 786.635254,24.4055133 786.635254,16.9151643 C786.635254,9.5448501 789.359679,5.85832896 794.809437,5.85832896 C800.092784,5.85832896 802.735367,9.5448501 802.735367,16.9151643 C802.735367,24.4055133 800.092784,28.1511424 794.809437,28.1511424 M794.809437,0.680467241 C785.232121,0.680467241 780.442553,6.13750064 780.442553,17.0497487 C780.442553,27.9028888 785.232121,33.3299135 794.809437,33.3299135 C804.221251,33.3299135 808.926249,27.9028888 808.926249,17.0497487 C808.926249,6.13750064 804.221251,0.680467241 794.809437,0.680467241" id="Fill-51"></path>
                    <path d="M827.346851,28.1511424 C821.897093,28.1511424 819.172668,24.4055133 819.172668,16.9151643 C819.172668,9.5448501 821.897093,5.85832896 827.346851,5.85832896 C832.630198,5.85832896 835.272781,9.5448501 835.272781,16.9151643 C835.272781,24.4055133 832.630198,28.1511424 827.346851,28.1511424 M827.346851,0.680467241 C817.769535,0.680467241 812.979967,6.13750064 812.979967,17.0497487 C812.979967,27.9028888 817.769535,33.3299135 827.346851,33.3299135 C836.758665,33.3299135 841.463663,27.9028888 841.463663,17.0497487 C841.463663,6.13750064 836.758665,0.680467241 827.346851,0.680467241" id="Fill-52"></path>
                    <polygon id="Fill-53" points="1.41052437 16.8425069 0.492076824 16.8425069 0.116513619 16.8425069 0.116513619 23.8272551 0.492076824 23.8272551 4.18496345 23.8272551 4.18496345 22.7032935 1.41052437 22.7032935"></polygon>
                    <path d="M7.93586685,22.7523986 C6.4936314,22.7523986 5.77160432,21.9403455 5.77160432,20.3153299 C5.77160432,18.7166856 6.4936314,17.9173634 7.93586685,17.9173634 C9.3426375,17.9173634 10.0455682,18.7166856 10.0455682,20.3153299 C10.0455682,21.9403455 9.3426375,22.7523986 7.93586685,22.7523986 M7.93586685,16.7934018 C5.5979177,16.7934018 4.42848845,17.9773807 4.42848845,20.3444292 C4.53306416,22.6987467 5.70249341,23.8754508 7.93586685,23.8754508 C10.2374418,23.8754508 11.3895934,22.6987467 11.3895934,20.3444292 C11.3895934,17.9773807 10.2374418,16.7934018 7.93586685,16.7934018" id="Fill-54"></path>
                    <polygon id="Fill-55" points="14.9647187 16.8425069 14.7337427 17.3863006 12.0002246 23.8272551 13.3287908 23.8272551 14.7337427 20.3753473 15.6285471 18.1756199 16.7279561 20.7991062 15.3211854 20.7991062 14.8765113 21.9221584 17.1971827 21.9221584 17.9928675 23.8272551 19.3850885 23.8272551 16.3569396 16.8425069"></polygon>
                    <path d="M22.9747634,22.7035663 L21.5334373,22.7035663 L21.5334373,17.9658319 L22.9747634,17.9658319 C24.4242737,17.9658319 25.1481195,18.6914964 25.1481195,20.1446441 C25.1481195,21.8505923 24.4242737,22.7035663 22.9747634,22.7035663 M22.9747634,16.8427797 L21.034202,16.8427797 L20.2394266,16.8427797 L20.2394266,23.8266185 L21.034202,23.8266185 L22.9747634,23.8266185 C25.2863413,23.8266185 26.4421303,22.5989906 26.4421303,20.1446441 C26.4421303,17.9430981 25.2863413,16.8427797 22.9747634,16.8427797" id="Fill-56"></path>
                    <polygon id="Fill-57" points="27.5417211 23.8268913 28.8357319 23.8268913 28.8357319 16.8421432 27.5417211 16.8421432"></polygon>
                    <polygon id="Fill-58" points="35.2839611 16.8425069 35.2839611 21.9321613 31.5956213 16.8425069 30.3016105 16.8425069 30.3016105 23.8272551 31.5483349 23.8272551 31.5483349 18.6302969 35.234856 23.8272551 36.1996806 23.8272551 36.5297761 23.8272551 36.5297761 16.8425069 36.1996806 16.8425069"></polygon>
                    <path d="M41.5108536,16.7936746 C39.0037646,16.7936746 37.7497655,17.9412794 37.7497655,20.2373983 C37.7497655,22.6626454 38.9828495,23.8757236 41.4481082,23.8757236 C41.4926665,23.8757236 41.5317688,23.8720862 41.5763271,23.8711769 C42.3638277,23.8584459 43.0285655,23.7393205 43.5623563,23.5047072 L43.5623563,20.6038679 L42.2683455,20.6038679 L42.2683455,22.6353648 C42.0119077,22.7017476 41.7845692,22.7344844 41.5763271,22.7435779 C41.5408623,22.7453966 41.5008507,22.7526714 41.4672046,22.7526714 C39.8849287,22.7526714 39.0928813,21.914247 39.0928813,20.2373983 C39.0928813,18.7014993 39.9222122,17.9294578 41.5763271,17.9185455 C41.5872394,17.9185455 41.5972423,17.9167268 41.6081545,17.9167268 C42.3083571,17.9167268 42.9603639,18.0467645 43.5623563,18.3077491 L43.5623563,17.1355917 C42.978551,16.9146187 42.3138132,16.8054962 41.5763271,16.7991308 C41.5535933,16.7982214 41.5335875,16.7936746 41.5108536,16.7936746" id="Fill-59"></path>
                    <polygon id="Fill-60" points="46.9571566 17.9659229 50.7364319 17.9659229 46.8598558 22.7036573 46.8598558 23.8267095 52.0368081 23.8267095 52.0368081 22.7036573 48.319369 22.7036573 52.0368081 17.9659229 52.0368081 16.8428707 46.9571566 16.8428707"></polygon>
                    <path d="M57.6657094,22.3819278 C57.3319765,22.626544 56.8945772,22.7520349 56.3489648,22.7520349 C54.9067294,22.7520349 54.1847023,21.9399818 54.1847023,20.3149662 C54.1847023,18.7163218 54.9067294,17.9169996 56.3489648,17.9169996 C56.8945772,17.9169996 57.3319765,18.0406718 57.6657094,18.2816506 C58.1922254,18.6608512 58.4586661,19.3365012 58.4586661,20.3149662 C58.4586661,21.3097994 58.1922254,21.9963617 57.6657094,22.3819278 M57.6657094,16.9694528 C57.2765059,16.8594209 56.8445628,16.7939474 56.3489648,16.7939474 C55.1949946,16.7939474 54.3283802,17.0849407 53.7436656,17.6614712 C53.1444013,18.2534606 52.8424958,19.1464463 52.8424958,20.3449748 C52.8925103,21.4816673 53.1971438,22.3373695 53.7436656,22.9248122 C54.3292896,23.5549945 55.1940852,23.8759964 56.3489648,23.8759964 C56.8445628,23.8759964 57.2765059,23.810523 57.6657094,23.7014005 C58.2877076,23.5258952 58.7714839,23.20944 59.1206758,22.754763 C59.5662593,22.1745951 59.8026914,21.3807291 59.8026914,20.3449748 C59.8026914,19.3028551 59.5662593,18.5044423 59.1206758,17.9215464 C58.7714839,17.4641413 58.2877076,17.1449581 57.6657094,16.9694528" id="Fill-61"></path>
                    <polygon id="Fill-62" points="66.0047585 21.9318885 62.3164186 16.8422341 61.0233172 16.8422341 61.0233172 23.8269823 62.2691322 23.8269823 62.2691322 18.6300241 65.9556534 23.8269823 67.2505735 23.8269823 67.2505735 16.8422341 66.0047585 16.8422341"></polygon>
                    <polygon id="Fill-63" points="69.9858194 20.8720364 73.3313328 20.8720364 73.3313328 19.7144288 70.0003691 19.7144288 70.0003691 17.9557381 73.4968352 17.9557381 73.4968352 16.8426888 68.7163612 16.8426888 68.7163612 23.8274369 73.5659461 23.8274369 73.5659461 22.7034754 69.9858194 22.7034754"></polygon>
                </g>
            </g>
        </g>
    </g>
</svg>
