<svg class="scene-svg pk100-scene" width="100%" height="100%" viewBox="0 0 4634 4634" xmlns="http://www.w3.org/2000/svg"><title>PK100 (Scene)</title><defs><pattern id="weave_alt" width="15" height="15" patternUnits="userSpaceOnUse"><rect width='50' height='50' fill='#2E2E2E'/><circle cx='3' cy='4.3' r='5.8' fill='#5A5A5A'/><circle cx='3' cy='3' r='5.8' fill='#878787'/><circle cx='10.5' cy='12.5' r='5.8' fill='#5A5A5A'/><circle cx='10.5' cy='11.3' r='5.8' fill='#878787'/></pattern><pattern id="weave" width="55" height="60" patternUnits="userSpaceOnUse"><rect width='60' height='60' fill='#2e2e2e'/><rect width='42.42' height='42.42' transform='translate(30 0) rotate(45)' fill='black'/></pattern></defs><g fill="none" fill-rule="evenodd"><path d="M314.947 3257.958c12.636 5.684 24.533 9.302 39.702 12.872 21.269 5.008 47.341 8.285 72.597 10.772 31.317 3.08 63.533 3.093 96.22 1.487 49.547-2.435 120.76-13.734 179.734-21.222 58.973-7.488 159.72-29.417 214.354-46.489 23.897-7.466 46.34-21.052 62.643-34.744 20.964-17.6 49.714-54.976 56.23-64.604 8.078-11.939 82.334-119.237 82.334-119.237l805.941-1150.09 3.376-4.82 79.501-113.448 10.046-14.336 52.725-75.239 14.53-20.734 30.683-43.786 13.057-18.63 122.021-174.128 36.857-52.595 762.507-1088.109-53.555-37.499-.355-.248-.494-.347-.152-.106-.343-.24-7.066-4.948-.596-.417-15.687 22.393-1.377 1.966-11.274 16.091-6.66 9.507-9.032 12.89-5.77 8.236-9.71 13.86-4.542 6.482a28309398.141 28309398.141 0 0 1-20.514 29.278l-7.788 11.115-6.1 8.705-9.314 13.293-3.488 4.977-12.435 17.747a20900236.96 20900236.96 0 0 1-31.86 45.464c-1.27 1.81-2.535 3.617-3.803 5.426l-9.405 13.42-8.654 12.35-4.472 6.38-6.695 9.554-12.783 18.238-1.031 1.473-28.988 41.359-3.552 5.068a17487533.407 17487533.407 0 0 1-17.017 24.278l-7.674 10.947-3.737 5.333-27.716 39.538-5.487 7.83-10.036 14.315-2.556 3.648-12.598 17.97-1.099 1.568a17404756.955 17404756.955 0 0 1-41.622 59.371l-5.243 7.479-23.771 33.906-5.68 8.101-8.386 11.962-.041.059a3486076.078 3486076.078 0 0 1-337.947 481.907 49338666.959 49338666.959 0 0 1-118.43 168.852l-33.767 48.143-3.833 5.466-91.488 130.44-8.331 11.878a6729465.35 6729465.35 0 0 0-82.766 118.01l-2.826 4.031c-28.685 40.902-57.433 81.894-86.278 123.028l-1.369 1.952-17.407 24.823a24311433.598 24311433.598 0 0 0-28.36 40.443c-6.19 8.83-12.39 17.67-18.592 26.514l-1.811 2.585a25057634.533 25057634.533 0 0 0-68.576 97.804l-17.2 24.532-4.586 6.541-16.811 23.979-7.395 10.548-14.953 21.33-10.114 14.428a23004965.62 23004965.62 0 0 0-38.699 55.205l-3.946 5.629-14.05 20.046-8.926 12.732-12.263 17.498c-4.568 6.515-9.139 13.036-13.715 19.566l-12.052 17.196c-1.992 2.84-3.98 5.678-5.972 8.521l-18.608 26.55-8.785 12.535-11.221 16.011-5.978 8.53-5.96 8.505-.976 1.392a1507163.627 1507163.627 0 0 0-148.852 212.443l-49.052 70.027-2.63 3.753-9.36 13.364-.374.534a1095752.008 1095752.008 0 0 0-49.61 70.833c-1.993 2.844-3.984 5.687-5.978 8.536-2.012 2.87-4.024 5.745-6.038 8.621-2.73 3.896-5.46 7.796-8.194 11.7l-25.18 35.957-8.782 12.542-2.729 3.897-15.064 21.514-.538.766-.226.323-.374.532-.272.389c-.12.169-.243.345-.368.524l-.385.549c-.106.148-.215.304-.323.46l-.41.581-.366.52-.904 1.286-.366.519-.374.532a11641.411 11641.411 0 0 0-1.054 1.497l-.434.615-.641.91-.585.83-.386.545-1.069 1.516-.877 1.243-.158.225-1.028 1.455-.046.065c-2.191 3.104-4.6 6.51-7.175 10.147l-.01.014c-4.737 6.691-10.037 14.16-15.58 21.948l-.008.012-1.515 2.126c-23.311 32.732-50.377 70.302-58.136 79.434-8.79 10.35-17.712 18.314-25.705 24.503-13.336 10.322-16.869 13.145-30.356 21.405-12.395 7.597-35.11 18.044-50.513 23.254-15.403 5.207-54.042 12.034-63.92 14.58-9.88 2.548-100.317 17.13-120.039 20.066-19.722 2.937-133.562 2.585-153.397 2.53-19.834-.054-98.451-3.408-98.451-3.408s-124.248-14.92-143.399-15.952c-19.15-1.031-33.627-2.431-44.534 1.582-10.905 4.013-23.37 11.302-35.686 38.354-12.318 27.05-5.941 52.63 1.39 71.597 7.328 18.965 22.356 36.406 36.656 47.509 5.807 4.51 13.854 8.963 22.496 12.854" class="svg-shaft-segment" style="fill: {{customize.userStick.customColor.shaft.hex}}"/><g class="svg-logo-segment" style="fill: {{customize.userStick.customColor.logo}}" fill="#FFF"><path d="M2128.62 1555.709l66.03-94.225-8.445-31.87-45.657 65.205-17.078-65.41-33.767 48.143 20.56 73.644c2.083 7.548 10.374 9.318 18.357 4.513M2031.523 1580.945l24.085 16.694-14.727 21.032-9.358-37.726zm20.204 84.49l-3.495-15.047 27.135-38.923 9.513 6.66 30.684-43.785-53.341-37.349 11.146-15.918c7.51-10.726 10.895-22.897 8.684-31.22l-.269-1.01-87.402 124.614c6.32 27.399 19.99 86.563 23.243 100.642l34.102-48.663zM2007.58 1728.435c.808-3.205.973-6.233.388-8.765l-6.187-26.809-36.633 52.276-3.209-13.975 36.559-52.211-5.707-24.764-38.378 54.809-3.312-13.85 38.42-54.87-3.47-14.94-77.38 110.33 25.213 97.934 73.695-105.165zM1924.854 1838.542l-6.789-26.67-40.81 58.716 26.551-106.11-3.347-17.101c-28.685 40.902-57.433 81.894-86.278 123.028l3.467 16.056 41.82-59.977-22.188 83.18c-3.661 17.055-1.502 33.774-.146 43.896l2.646 14.327 84.922-121.184c.657-2.99.735-5.799.152-8.16M1587.347 2264.44l-11.697-8.19 14.919 3.59 1.837-2.625-8.541-12.697 11.697 8.19 1.993-2.847-16.793-11.758-2.156 3.078 8.88 14.44-16.689-3.287-2.236 3.194 16.793 11.759zM1585.358 2231.538l-2.156 3.08 16.793 11.758 2.156-3.08zM1592.654 2226.867l2.4-3.427c2.413-3.446 5.366-3.947 8.857-1.503 4.103 2.873 4.947 6.033 2.534 9.48l-2.4 3.426-11.39-7.976zm13.412-8.007c-5.293-3.706-9.863-2.81-13.713 2.69l-4.555 6.505 16.793 11.758 4.555-6.505c3.85-5.498 2.824-10.314-3.08-14.448zM1614.058 2210.546l-4.067 5.808 2.466 1.727 4.067-5.808zM1634.349 2197.315l-14.443 1.553-2.871-12.568-2.635 3.763 2.6 11.032 2.02 1.414 12.344-.932zM1608.853 2197.984l-2.156 3.08 16.793 11.758 2.156-3.079zM1620.525 2181.314l-2.155 3.079 16.793 11.759 2.156-3.08zM1645.732 2181.307c1.275-1.82 2.14-3.638 2.595-5.455l-2.818-1.973c-.378 1.87-1.15 3.64-2.314 5.304-2.793 3.988-6.205 4.571-10.238 1.747-3.718-2.603-4.18-5.9-1.388-9.888 1.165-1.664 2.563-2.994 4.192-3.989l-2.819-1.973c-1.551 1.048-2.963 2.483-4.238 4.303-4.175 5.964-3.503 10.878 2.016 14.742 5.833 4.085 10.837 3.145 15.012-2.818M1636.427 2158.603l-2.155 3.08 16.793 11.758 2.156-3.079zM1661.923 2157.934l-14.442 1.554-2.871-12.57-2.636 3.764 2.602 11.032 2.02 1.414 12.343-.931zM1661.74 2151.691l2.37-3.385-.718-.502-2.37 3.384-2.297-1.608 2.486-3.55-.718-.503-3.1 4.427 6.845 4.792.613-.877zM1670.442 2144.357l-2.48 3.54-6.126-4.289-.613.877 6.844 4.792 3.093-4.418zM1674.32 2138.818l-2.535 3.621-2.393-1.676 2.37-3.384-.718-.503-2.37 3.385-2.298-1.609 2.486-3.55-.718-.502-3.099 4.426 6.844 4.792 3.15-4.497zM1676.232 2137.616l-1.246-4.047 4.23-.214.745-1.065-5.286.265-1.558-5.058-.746 1.066 1.246 4.047-4.23.214-.746 1.066 5.289-.27 1.555 5.062zM1676.8 2123.797l1.253-1.789c.57-.814 1.235-.957 1.994-.425.894.626.957 1.706.193 3.24l.872.343c1.03-2.097.881-3.61-.45-4.542-1.222-.856-2.317-.592-3.285.79l-1.923 2.746 6.844 4.792.614-.876-6.112-4.28zM1680.987 2117.817l1.353-1.932c.504-.72 1.07-.858 1.703-.416.798.559.846 1.558.148 2.998l.579.404h4.586l.809-1.154-4.854.066c.455-1.56.237-2.65-.654-3.273-1.094-.766-2.092-.506-2.993.782l-2.023 2.888 6.844 4.793.614-.877-6.112-4.279zM1686.852 2109.309c1.132-1.617 2.608-1.787 4.43-.511 1.848 1.294 2.206 2.748 1.074 4.365-1.156 1.65-2.657 1.83-4.506.535-1.821-1.275-2.154-2.739-.998-4.39m6.222 4.357c1.562-2.231 1.19-4.154-1.117-5.77-2.32-1.624-4.26-1.32-5.823.911-1.587 2.266-1.22 4.212 1.1 5.836 2.306 1.615 4.253 1.29 5.84-.977M1693.833 2105.857l2.37-3.384-.717-.503-2.37 3.385-2.298-1.609 2.486-3.55-.718-.503-3.1 4.427 6.845 4.792.613-.876zM1694.028 2097.634l-.613.875 6.844 4.792.613-.875zM1704.474 2095.754l-2.48 3.541-6.126-4.29-.613.877 6.844 4.792 3.093-4.418zM1708.352 2090.215l-2.535 3.622-2.393-1.676 2.37-3.385-.718-.503-2.37 3.385-2.298-1.609 2.486-3.549-.718-.503-3.1 4.426 6.845 4.793 3.15-4.498z"/></g><g class="svg-accent-segment" style="fill: {{customize.userStick.customColor.accent}}"><path d="M2442.878 1046.37c-1.014 1.525-2.237 1.788-3.667.787-1.421-.995-1.64-2.22-.657-3.68.99-1.452 2.2-1.679 3.63-.678 1.43 1.002 1.66 2.191.694 3.572m-3.878-9.136c-1.926.452-3.495 1.539-4.702 3.263-1.322 1.888-1.789 3.84-1.403 5.858.386 2.018 1.516 3.684 3.389 4.996 2.71 1.898 5.373 2.14 7.982.731a8.248 8.248 0 0 0 2.896-2.578c1.715-2.448 2.015-4.955.902-7.52-.55-1.275-1.511-2.388-2.879-3.345-2.03-1.422-4.092-1.89-6.185-1.405M2495.162 951.31c-2.444 3.491-1.28 6.908 3.493 10.25 4.852 3.397 8.5 3.35 10.944-.141 2.37-3.384 1.13-6.776-3.722-10.172-4.773-3.342-8.345-3.32-10.715.063"/><path d="M2527.548 942.923c-4.296 6.136-9.959 6.742-16.987 1.821-7.068-4.949-8.453-10.49-4.157-16.626 4.222-6.03 9.865-6.57 16.934-1.62 7.028 4.92 8.432 10.396 4.21 16.425zm-14.595 20.844c-4.296 6.135-9.96 6.743-16.987 1.822-7.068-4.95-8.453-10.492-4.157-16.627 4.221-6.029 9.866-6.57 16.934-1.62 7.028 4.92 8.431 10.396 4.21 16.425zm-9.267 12.924l-2.676 3.823-17.66-12.366-1.515 2.164-1.59-1.113 2.151-7.415 21.29 14.907zm-12.948 18.492l-15.326 1.156-2.508-1.756-3.231-13.698 3.272-4.673 3.566 15.61 17.933-1.932-3.706 5.293zm-27.954-4.46l-2.676 3.823 20.852 14.601 2.677-3.823-20.853-14.6zm3.098 24.503l-3.826-1.862c1.792-3.904 1.619-6.605-.52-8.102-1.73-1.212-3.195-.962-4.394.75l-3.615 5.164 17.455 12.222-2.677 3.822-20.853-14.6 6.465-9.233c2.949-4.212 6.382-4.946 10.3-2.202 4.249 2.975 4.803 7.655 1.665 14.041zm-12.007 27.531c.602 3.314-.21 6.558-2.438 9.741-2.221 3.172-4.995 5.043-8.321 5.61-3.326.568-6.595-.268-9.802-2.514-3.216-2.252-5.124-5.035-5.726-8.35-.604-3.312.209-6.558 2.436-9.74 2.24-3.197 5.011-5.08 8.316-5.644 3.304-.56 6.573.287 9.807 2.551 3.215 2.252 5.125 5.033 5.728 8.346zm-11.606 22.64l-1.466 2.288c-.501.587-1.147.786-1.934.594l-17.579-4.39c-1.872-.59-2.21-.107-1.014 1.448l9.83 14.283c.613 1.355.701 2.34.267 2.961l-.942 1.346c-.484.69-1.524.99-3.122.9l-16.754-4.179c-1.872-.59-2.209-.108-1.014 1.448l10.203 14.952c.447.66.486 1.319.11 1.983l-1.521 2.173c-.591.716-1.189.612-1.79-.31l-13.61-20.63c-.647-.966-.476-2.138.513-3.513.976-1.374 2.038-1.927 3.189-1.66l18.511 4.364-10.478-15.948c-.648-.967-.476-2.14.513-3.516.975-1.372 2.038-1.927 3.19-1.66l24.055 5.626c1.056.253 1.338.733.843 1.44zm-47.115 30.893c-1.015 1.527-2.237 1.787-3.667.786-1.42-.995-1.638-2.222-.657-3.68.99-1.451 2.2-1.675 3.628-.675 1.43 1.001 1.66 2.19.696 3.569zm10.023 4.05l6.353 4.449c1.509.98 1.747 2.18.712 3.6-1.033 1.421-2.269 1.631-3.707.624l-5.426-3.8-4.941-3.46c-1.06-.844-1.077-1.978-.05-3.407.84-1.274 1.811-1.576 2.915-.907l4.144 2.901zm-4.568 11.084l3.74 2.619.484.339c1.42.995 1.64 2.218.658 3.68-.998 1.366-2.2 1.534-3.604.498l-4.249-3.03c-.47-.329-.898-.527-1.281-.59-.87-.146-1.706.351-2.516 1.465-.01.015-.01.027-.019.04-1.015 1.526-2.24 1.788-3.668.788-1.42-.995-1.64-2.221-.657-3.68.035-.053.076-.075.113-.125.764-1.137.944-2.092.51-2.854-.19-.34-.521-.673-.992-1.002-.568-.398-1.04-.594-1.418-.59-.381.006-.836.21-1.372.623-.624.484-1.413 1.37-2.367 2.656l-4.926 7.035c-.676.966-.491 1.815.555 2.547l13.453 9.42c1.482.96 1.711 2.153.685 3.584-1.034 1.418-2.261 1.634-3.682.639l-16.563-11.598c-1.77-1.239-2.12-2.666-1.053-4.285l7.206-10.291c2.616-3.642 5.351-5.461 8.203-5.456 1.432.016 2.845.51 4.24 1.487 2.426 1.876 3.208 3.953 2.343 6.225 1.77-1.638 3.83-1.687 6.177-.144zm-22.942 24.74c.048 2.145-.443 3.932-1.443 5.387-.01.015-.011.028-.023.044-.006.01-.014.017-.02.027-.029.04-.049.086-.076.125l-.013-.01c-.994 1.387-2.179 1.61-3.558.644-1.42-.995-1.638-2.222-.657-3.68.036-.054.078-.077.115-.126.71-1.096.877-2.021.455-2.76-.19-.34-.52-.676-.99-1.006-.568-.397-1.041-.592-1.42-.588-.38.004-.836.21-1.37.621-.626.487-1.428 1.391-2.406 2.711l-4.89 6.982c-.677.968-.49 1.815.556 2.548l7.007 4.906 6.446 4.513c1.482.962 1.71 2.155.686 3.582-1.036 1.422-2.262 1.636-3.683.642l-6.863-4.806-9.7-6.792c-1.77-1.24-2.12-2.666-1.054-4.284l7.243-10.344c2.594-3.609 5.315-5.41 8.166-5.402 1.433.013 2.846.508 4.241 1.485 2.118 1.483 3.202 3.341 3.251 5.58zM2996.45 203.38l-360.038 572.513a8.3 8.3 0 0 1-.223.335c-1.876 2.68-5.843 5.082-9.033 5.423l-53.425 5.722a3507718.209 3507718.209 0 0 1-327.695 467.288l41.462 74.326L3050.004 240.88l-53.554-37.5z"/><path d="M2509.757 930.466c-2.444 3.491-1.28 6.908 3.494 10.25 4.85 3.397 8.499 3.35 10.943-.141 2.37-3.385 1.13-6.776-3.721-10.173-4.773-3.342-8.346-3.32-10.716.064M2635.189 775.528c.066-.095.13-.19.19-.286l3.154-5.015c-1.933 1.486-4.333 2.601-6.409 2.824l-52.278 5.598-5.19 7.404 52.358-5.607c2.82-.302 6.487-2.508 8.175-4.918M1442.345 2400.811l-5.392 7.694c-27.58 39.356-55.372 79.018-83.393 119.013l-31.466 44.913 124.684-141.004-4.433-30.616z"/><path d="M2640.057 767.003c.065-.094.128-.188.188-.283l354.861-564.281-7.066-4.949-354.364 564.664-46.41 5.913-6.505 9.28 51.222-5.486c2.785-.298 6.407-2.478 8.074-4.858M1452.404 2436.171c.19-.27.358-.55.514-.837l4.23-4.733a8.556 8.556 0 0 0 1.438-6.317l-5.794-38.381-.761 1.087 5.649 37.426a7.648 7.648 0 0 1-1.252 5.615l-2.63 2.944a8.88 8.88 0 0 0 .082-3.29l-5.916-36.892-1.132 1.615 5.69 35.48c.316 1.94-.128 3.89-1.2 5.43l-154.318 172.926-.692.987-4.47 6.382-1.584 2.261 162.146-181.703zM1747.222 2069.768l-1.214-17.523-65.035 92.88 1.982 9.993zM1679.297 2147.518l-124.955 178.455 126.898-168.527z"/></g><g><path d="M-1057.154 5490.426c24.765 11.08 48.1 18.094 77.864 24.98 41.732 9.663 92.916 15.862 142.506 20.512 61.49 5.758 124.776 5.46 189.005 1.966 97.356-5.3 237.365-28.295 353.292-43.653 115.925-15.357 314.06-59.609 421.556-93.82 47.021-14.961 91.245-41.975 123.41-69.136 41.359-34.914 98.213-108.901 111.11-127.95 15.99-23.622 162.94-235.938 162.94-235.938L2119.328 2691.57l6.68-9.535 157.317-224.495 19.878-28.367 104.332-148.885 28.753-41.029 60.715-86.645 25.836-36.866 241.457-344.566 72.932-104.076L4346.075-486.064l-104.829-73.402-.693-.486-.968-.677-.299-.21-.67-.468-13.832-9.686-1.166-.816a536950.486 536950.486 0 0 1-31.042 44.311l-2.724 3.89-22.31 31.843-13.178 18.812c-5.964 8.51-11.92 17.012-17.872 25.507l-11.418 16.297c-6.412 9.154-12.816 18.293-19.216 27.427l-8.987 12.825c-7.696 10.987-15.376 21.947-23.052 32.904l-17.541 25.032-15.41 21.995-12.07 17.225-18.432 26.305c-2.302 3.284-4.601 6.568-6.9 9.85-8.216 11.722-16.418 23.426-24.609 35.118-1.937 2.763-3.877 5.53-5.811 8.294l-57.233 81.67-7.524 10.736c-6.209 8.861-12.412 17.714-18.611 26.558l-17.126 24.44c-2.951 4.208-5.901 8.417-8.848 12.623-4.42 6.306-8.836 12.606-13.248 18.904l-25.295 36.09-2.04 2.915c-19.18 27.363-38.297 54.64-57.362 81.842l-7.028 10.028a34981175.623 34981175.623 0 0 1-33.673 48.043c-5.065 7.224-10.127 14.447-15.185 21.66l-7.397 10.555-54.843 78.24c-3.622 5.17-7.238 10.327-10.858 15.491l-19.858 28.328c-1.687 2.407-3.373 4.811-5.059 7.219-8.319 11.865-16.63 23.721-24.928 35.56-.726 1.033-1.45 2.068-2.175 3.103a33324833.041 33324833.041 0 0 1-82.362 117.484l-10.374 14.8-47.04 67.094a45859619.75 45859619.75 0 0 1-27.833 39.7l-.081.117a6973720.242 6973720.242 0 0 1-668.725 953.608l-51.607 73.583a99128912.195 99128912.195 0 0 1-182.741 260.545c-22.281 31.768-44.55 63.521-66.818 95.268l.002-.001-7.588 10.816-181.034 258.118-16.486 23.506c-54.521 77.739-109.093 155.55-163.775 233.521-1.865 2.66-3.73 5.316-5.594 7.976-56.76 80.937-113.646 162.053-170.725 243.451l-2.709 3.862c-11.474 16.36-22.955 32.736-34.445 49.12l-17.697 25.237a63469814.493 63469814.493 0 0 0-38.422 54.793l-36.788 52.467-3.585 5.113a50129966.678 50129966.678 0 0 0-92.856 132.433 644047.95 644047.95 0 0 0-42.84 61.105c-11.335 16.164-22.678 32.346-34.036 48.544l-9.074 12.944c-11.076 15.8-22.166 31.615-33.267 47.45-4.873 6.954-9.752 13.911-14.633 20.873-9.852 14.054-19.714 28.123-29.588 42.206-6.665 9.51-13.34 19.03-20.015 28.553a49257691.606 49257691.606 0 0 0-76.576 109.24l-7.809 11.139-27.804 39.667-17.661 25.195c-8.08 11.53-16.172 23.073-24.267 34.625-9.037 12.891-18.083 25.797-27.138 38.717l-23.85 34.028c-3.94 5.622-7.875 11.235-11.817 16.862l-36.82 52.537a47203571.258 47203571.258 0 0 0-39.589 56.488l-11.828 16.878-11.795 16.831c-.642.918-1.287 1.835-1.93 2.755a3014997.295 3014997.295 0 0 0-294.55 420.386c-32.184 45.946-64.539 92.134-97.064 138.57a75241718.022 75241718.022 0 0 0-23.725 33.87l-.74 1.057c-20.937 29.892-41.95 59.89-63.035 89.997-2.317 3.309-4.638 6.624-6.96 9.936a445286.34 445286.34 0 0 0-40.004 57.123l-11.948 17.06-16.213 23.152-49.828 71.152-17.378 24.819-5.4 7.711-29.81 42.573c-.328.47-.688.98-1.063 1.516l-.447.639c-.24.342-.485.688-.74 1.053l-.538.769c-.236.334-.481.683-.728 1.036-.252.356-.502.714-.763 1.087-.209.294-.425.603-.64.91l-.81 1.15c-.233.334-.484.688-.723 1.03-.576.816-1.172 1.664-1.79 2.544l-.723 1.027c-.243.343-.494.701-.742 1.053a23298.217 23298.217 0 0 0-2.085 2.961l-.859 1.218-1.269 1.8c-.38.538-.767 1.09-1.156 1.642l-.763 1.08-2.116 3c-.568.804-1.149 1.627-1.735 2.46-.105.148-.209.293-.314.444-.666.945-1.345 1.904-2.034 2.88l-.09.128c-4.336 6.143-9.103 12.884-14.197 20.08-.008.009-.014.018-.021.028a21397.02 21397.02 0 0 1-30.826 43.433l-.017.024-2.996 4.208c-46.123 64.773-99.67 139.126-115.004 157.209-17.373 20.498-34.978 36.29-50.744 48.574-26.301 20.486-33.27 26.088-59.847 42.51-24.426 15.104-69.154 35.932-99.465 46.36C90.924 5120.76 14.952 5134.61-4.48 5139.73c-19.434 5.122-197.24 34.782-236.01 40.77-38.773 5.99-262.405 6.44-301.369 6.53-38.963.093-193.369-5.73-193.369-5.73s-243.93-28.169-281.54-30.012c-37.61-1.84-66.035-4.456-87.5 3.567-21.465 8.022-46.025 22.52-70.491 75.984-24.47 53.462-12.2 103.836 2.01 141.159 14.207 37.32 43.552 71.56 71.534 93.309 11.361 8.835 27.125 17.533 44.062 25.119" class="svg-shaft-segment" style="fill: {{customize.userStick.customColor.shaft.hex}}"/><g class="svg-logo-segment" style="fill: {{customize.userStick.customColor.logo}}" fill="#FFF"><path d="M2522.838 2115.746l130.66-186.454-16.267-62.757-90.348 129.03-32.89-128.802-66.819 95.266 39.647 145.002c4.018 14.863 20.288 18.27 36.017 8.715M2331.843 2166.482l47.145 32.675-29.14 41.617-18.005-74.292zm38.84 166.393l-6.714-29.635 53.697-77.02 18.62 13.038 60.717-86.644-104.41-73.107 22.055-31.499c14.863-21.226 21.635-45.26 17.374-61.646l-.518-1.99c-57.652 82.2-115.278 164.36-172.95 246.59 12.139 53.96 38.399 170.482 44.648 198.21l67.482-96.297zM2283.324 2457.54c1.621-6.328 1.976-12.3.852-17.288l-11.884-52.798-72.49 103.444-6.163-27.523 72.342-103.316-10.962-48.771-75.942 108.456-6.367-27.276 76.026-108.576-6.668-29.423c-50.98 72.688-102.002 145.438-153.118 218.324l48.545 192.848 145.829-208.101zM2119.706 2675.478l-13.068-52.518-80.76 116.183 53.226-209.49-6.404-33.688a7365965.534 7365965.534 0 0 0-170.726 243.451l6.65 31.625 82.755-118.683-44.422 164.235c-7.365 33.665-3.29 66.61-.73 86.556l5.056 28.222 168.043-239.801c1.32-5.903 1.503-11.441.38-16.092M1452.408 3518.644l-22.895-16.032 29.27 6.928 3.635-5.192-16.65-24.95 22.895 16.031 3.945-5.633-32.871-23.017-4.266 6.092 17.298 28.383-32.751-6.314-4.425 6.32 32.87 23.017zM1448.831 3453.789l-4.266 6.093 32.871 23.016 4.267-6.092zM1463.211 3444.505l4.748-6.78c4.775-6.82 10.582-7.838 17.415-3.053 8.03 5.623 9.658 11.846 4.883 18.666l-4.748 6.78-22.298-15.613zm26.427-15.923c-10.359-7.253-19.347-5.44-26.966 5.44l-9.013 12.874 32.87 23.016 9.015-12.872c7.618-10.88 5.65-20.366-5.906-28.458zM1505.422 3412.109l-8.047 11.493 4.827 3.38 8.048-11.493zM1545.416 3385.815l-28.388 3.21-5.514-24.755-5.215 7.448 5 21.725 3.953 2.769 24.258-1.962zM1495.322 3387.393l-4.266 6.092 32.872 23.017 4.266-6.093zM1518.42 3354.405l-4.265 6.092 32.871 23.017 4.266-6.093zM1567.94 3354.137c2.522-3.602 4.239-7.195 5.151-10.781l-5.517-3.863c-.76 3.693-2.293 7.19-4.6 10.482-5.525 7.892-12.233 9.076-20.128 3.548-7.278-5.096-8.154-11.59-2.628-19.482 2.306-3.293 5.066-5.931 8.276-7.909l-5.517-3.863c-3.058 2.084-5.847 4.927-8.37 8.53-8.262 11.8-6.99 21.483 3.812 29.047 11.417 7.995 21.258 6.091 29.52-5.709M1549.888 3309.465l-4.266 6.092 32.871 23.017 4.266-6.092zM1599.98 3307.889l-28.387 3.208-5.514-24.754-5.215 7.448 5 21.725 3.953 2.769 24.258-1.962zM1599.684 3295.58l4.69-6.697-1.406-.984-4.69 6.698-4.497-3.149 4.92-7.025-1.406-.984-6.133 8.76 13.397 9.38 1.214-1.734zM1616.852 3281.031l-4.907 7.008-11.991-8.397-1.215 1.735 13.397 9.38 6.121-8.742zM1624.526 3270.072l-5.017 7.165-4.685-3.28 4.69-6.698-1.405-.983-4.69 6.697-4.497-3.149 4.918-7.023-1.405-.984-6.132 8.758 13.397 9.38 6.231-8.9zM1628.292 3267.683l-2.406-7.969 8.31-.463 1.477-2.109-10.387.577-3.01-9.957-1.476 2.109 2.407 7.967-8.311.465-1.477 2.109 10.392-.587 3.005 9.967zM1629.549 3240.428l2.478-3.539c1.129-1.612 2.436-1.9 3.922-.859 1.75 1.225 1.864 3.355.346 6.386l1.71.669c2.046-4.145 1.767-7.127-.839-8.952-2.391-1.674-4.546-1.144-6.46 1.59l-3.806 5.435 13.397 9.38 1.214-1.734-11.962-8.376zM1637.834 3228.595l2.677-3.822c.997-1.424 2.112-1.704 3.349-.838 1.561 1.094 1.647 3.063.262 5.909l1.132.792 9.01-.045 1.6-2.285-9.535.18c.91-3.08.492-5.227-1.253-6.448-2.141-1.5-4.104-.976-5.888 1.57l-4.003 5.717 13.397 9.38 1.214-1.734-11.962-8.376zM1649.44 3211.76c2.24-3.199 5.142-3.549 8.707-1.052 3.618 2.533 4.307 5.398 2.067 8.596-2.287 3.266-5.239 3.634-8.856 1.1-3.566-2.496-4.205-5.378-1.918-8.644m12.18 8.528c3.091-4.416 2.378-8.204-2.137-11.365-4.541-3.18-8.356-2.563-11.448 1.853-3.14 4.484-2.44 8.317 2.1 11.496 4.516 3.162 8.345 2.5 11.484-1.984M1663.19 3204.885l4.69-6.698-1.406-.984-4.69 6.698-4.496-3.15 4.919-7.024-1.405-.984-6.134 8.76 13.397 9.38 1.214-1.734zM1663.655 3188.667l-1.213 1.733 13.396 9.38 1.214-1.732zM1684.195 3184.856l-4.907 7.007-11.991-8.397-1.215 1.735 13.397 9.38 6.121-8.742zM1691.869 3173.896l-5.017 7.166-4.685-3.28 4.69-6.698-1.405-.984-4.69 6.698-4.497-3.15 4.918-7.023-1.405-.984-6.132 8.758 13.396 9.38 6.232-8.899z"/></g><g class="svg-accent-segment" style="fill: {{customize.userStick.customColor.accent}}"><path d="M3525.814 572.314c.13-.188.257-.377.376-.566l6.247-9.92c-3.812 2.95-8.538 5.173-12.619 5.632l-102.754 11.565-10.272 14.65 102.914-11.582c5.542-.624 12.769-5.01 16.108-9.78M1166.187 3788.994l-10.67 15.224c-54.575 77.88-109.57 156.364-165.018 235.506l-62.266 88.874 246.355-279.28-8.401-60.324z"/><path d="M3535.463 555.455c.129-.185.253-.37.371-.558l702.782-1116.204-13.832-9.685-701.808 1116.951-91.23 12.125-12.872 18.362 100.679-11.33c5.475-.617 12.611-4.95 15.91-9.661M1185.592 3858.616c.374-.534.708-1.09 1.019-1.656l8.356-9.376a17.027 17.027 0 0 0 2.889-12.47l-10.996-75.62-1.507 2.151 10.721 73.74c.62 3.933-.297 7.9-2.516 11.082l-5.197 5.833c.461-2.11.539-4.304.196-6.49l-11.25-72.683c-.748 1.065-1.495 2.132-2.24 3.196l10.818 69.903c.604 3.822-.288 7.671-2.41 10.717l-304.89 342.522-1.368 1.954-8.847 12.629-3.133 4.475 320.355-359.907zM1768.433 3133.188l-2.21-34.54-128.691 183.791 3.792 19.686zM1634.215 3287.176l-247.264 353.129 250.982-333.572z"/><path d="M3312.675 903.461c-8.501 12.141-19.63 13.394-33.388 3.762-13.835-9.688-16.5-20.6-8-32.742 8.355-11.93 19.447-13.052 33.282-3.365 13.757 9.633 16.46 20.414 8.106 32.345zm-28.88 41.246c-8.502 12.14-19.632 13.396-33.39 3.763-13.834-9.688-16.499-20.602-7.998-32.743 8.353-11.93 19.447-13.053 33.282-3.365 13.757 9.633 16.459 20.415 8.105 32.345zm-18.334 25.577l-5.297 7.564-34.567-24.204-2.998 4.281-3.111-2.178 4.299-14.643 41.674 29.18zm-25.623 36.592l-30.12 2.434-4.908-3.437-6.21-26.977 6.476-9.248 6.847 30.743 35.25-3.99-7.335 10.475zm-54.869-8.513l-5.296 7.564 40.817 28.58 5.297-7.563-40.818-28.58zm5.839 48.283l-7.498-3.633c3.56-7.715 3.247-13.04-.938-15.97-3.388-2.372-6.268-1.864-8.64 1.523l-7.155 10.218 34.168 23.924-5.297 7.564-40.817-28.58 12.791-18.27c5.836-8.334 12.588-9.816 20.257-4.446 8.317 5.824 9.358 15.048 3.129 27.67zm-23.863 54.406c1.148 6.528-.478 12.933-4.887 19.231-4.396 6.277-9.863 9.993-16.404 11.145-6.54 1.153-12.953-.463-19.23-4.858-6.294-4.407-10.016-9.877-11.164-16.407-1.153-6.523.476-12.934 4.883-19.228 4.43-6.328 9.896-10.067 16.392-11.213 6.497-1.14 12.91.499 19.24 4.931 6.295 4.408 10.02 9.873 11.17 16.4zm-23.028 44.759l-2.902 4.525c-.99 1.163-2.26 1.56-3.805 1.19l-34.49-8.481c-3.671-1.142-4.34-.187-2.006 2.866l19.169 28.064c1.188 2.667 1.352 4.61.492 5.837l-1.864 2.663c-.956 1.365-3.004 1.968-6.141 1.806l-32.872-8.071c-3.67-1.143-4.337-.191-2.005 2.865l19.893 29.379c.871 1.296.94 2.596.196 3.91l-3.011 4.3c-1.168 1.417-2.34 1.219-3.513-.593l-26.527-40.54c-1.262-1.9-.915-4.213 1.041-6.934 1.931-2.72 4.024-3.821 6.282-3.305l36.32 8.42-20.424-31.342c-1.262-1.9-.912-4.215 1.045-6.938 1.927-2.715 4.022-3.82 6.281-3.305l47.2 10.852c2.072.488 2.622 1.431 1.64 2.832zm-92.866 61.386c-2.01 3.02-4.412 3.546-7.21 1.587-2.781-1.947-3.197-4.366-1.255-7.249 1.96-2.872 4.34-3.327 7.135-1.37 2.8 1.961 3.24 4.304 1.33 7.032zm19.65 7.886l12.435 8.707c2.954 1.917 3.41 4.281 1.362 7.093-2.043 2.812-4.473 3.237-7.289 1.266l-10.62-7.437-9.672-6.772c-2.072-1.655-2.095-3.89-.064-6.718 1.665-2.52 3.574-3.126 5.736-1.82l8.112 5.68zm-9.085 21.9l7.32 5.125.948.665c2.781 1.947 3.2 4.357 1.255 7.248-1.973 2.705-4.336 3.048-7.084 1.02l-8.316-5.93c-.921-.645-1.759-1.032-2.513-1.153-1.705-.279-3.353.71-4.957 2.915-.02.03-.019.052-.036.077-2.01 3.02-4.417 3.55-7.214 1.592-2.78-1.947-3.2-4.364-1.254-7.25.068-.104.15-.148.224-.248 1.512-2.25 1.874-4.134 1.032-5.632-.371-.667-1.02-1.321-1.94-1.966-1.112-.778-2.037-1.16-2.78-1.15-.75.017-1.645.423-2.701 1.243-1.232.961-2.79 2.716-4.678 5.261l-9.747 13.92c-1.339 1.912-.983 3.584 1.064 5.018l26.333 18.438c2.902 1.88 3.34 4.229 1.31 7.06-2.045 2.807-4.458 3.244-7.239 1.297l-32.42-22.701c-3.465-2.426-4.139-5.236-2.026-8.439l14.26-20.364c5.175-7.207 10.566-10.822 16.168-10.84 2.812.017 5.584.977 8.315 2.889 4.746 3.675 6.261 7.763 4.54 12.251 3.492-3.248 7.54-3.364 12.136-.346zm-45.317 49.011c.072 4.23-.91 7.758-2.89 10.637-.021.03-.022.055-.044.088-.013.017-.028.033-.042.052-.055.08-.095.171-.149.248l-.025-.018c-1.967 2.743-4.297 3.194-6.997 1.304-2.78-1.947-3.195-4.364-1.254-7.249.073-.107.155-.153.228-.25 1.406-2.169 1.743-3.994.921-5.447-.369-.67-1.014-1.328-1.935-1.973-1.112-.778-2.039-1.157-2.783-1.146-.746.013-1.645.424-2.698 1.24-1.234.965-2.819 2.756-4.754 5.37l-9.674 13.815c-1.34 1.915-.983 3.584 1.064 5.017l13.716 9.604 12.618 8.835c2.902 1.88 3.338 4.231 1.312 7.056-2.05 2.814-4.46 3.248-7.241 1.301l-13.434-9.406-18.987-13.296c-3.464-2.425-4.138-5.235-2.027-8.435l14.332-20.47c5.13-7.141 10.496-10.72 16.095-10.734 2.816.012 5.587.973 8.317 2.885 4.146 2.903 6.257 6.557 6.33 10.972zM4241.246-559.465L3528.213 573.021c-.14.223-.287.444-.44.664-3.714 5.303-11.532 10.078-17.8 10.783l-105.01 11.82a7017061.323 7017061.323 0 0 1-648.44 924.679l80.705 146.138L4346.075-486.063l-104.829-73.402z"/><path d="M3145.304 1108.287c-2.006 3.017-4.412 3.547-7.21 1.588-2.782-1.949-3.199-4.363-1.255-7.249 1.96-2.873 4.34-3.333 7.137-1.375 2.801 1.962 3.241 4.305 1.328 7.036m-7.526-17.974c-3.788.91-6.88 3.07-9.269 6.48-2.617 3.737-3.553 7.59-2.815 11.565.738 3.976 2.941 7.25 6.607 9.817 5.306 3.716 10.533 4.167 15.673 1.363a16.467 16.467 0 0 0 5.715-5.113c3.393-4.846 4.01-9.79 1.847-14.838-1.067-2.507-2.944-4.692-5.62-6.567-3.975-2.783-8.022-3.683-12.138-2.707M3248.97 920.324c-4.837 6.908-2.582 13.634 6.76 20.176 9.496 6.649 16.662 6.52 21.5-.389 4.688-6.696 2.286-13.371-7.21-20.02-9.342-6.542-16.36-6.463-21.05.233M3277.851 879.078c-4.837 6.908-2.583 13.634 6.76 20.175 9.496 6.65 16.662 6.52 21.5-.388 4.69-6.698 2.287-13.373-7.209-20.022-9.342-6.541-16.36-6.463-21.05.235"/></g></g><g><path d="M2135.04 4447.526c15.123 9.503 36.399 17.5 56.525 17.795 20.125.296 46.099-2.576 67.203-23.381 21.102-20.805 23.736-34.937 23.836-46.486.098-11.55-6.04-24.562-13.396-42.057-7.355-17.495-62.747-128.17-62.747-128.17s-29.375-72.127-36.049-90.597c-6.673-18.47-45.01-124.464-48.857-143.861-3.847-19.395-20.452-108.72-21.376-118.808-.925-10.088-8.455-49.152-8.741-65.306-.288-16.153 1.869-40.925 4.81-55.1 3.198-15.42 4.645-19.683 9.815-35.672 3.1-9.587 7.547-20.642 14.259-32.408 5.906-10.356 31.331-49.192 53.65-82.823 2.937-4.424 5.82-8.758 8.596-12.926l.003-.004 1.339-2.007.107-.162a6538.452 6538.452 0 0 1 6.332-9.478l.398-.593.885-1.323.491-.732.872-1.3.02-.032 2.278-3.394.057-.084.848-1.262.422-.627.719-1.068.487-.724c.225-.335.45-.67.672-.997l.573-.85.527-.782.93-1.375a2141.261 2141.261 0 0 0 1.602-2.369l.548-.81.443-.653.578-.85.33-.485.65-.955.232-.34a491.953 491.953 0 0 1 .98-1.435l.577-.841.254-.37.443-.643.235-.341.432-.623.181-.262.54-.773 22.716-32.443 3.33-4.756 8.004-11.43 4.954-7.075 21.22-30.305.51-.726 4.783-6.833 8.47-12.097 45.688-65.245.953-1.36 69.998-99.962 6.808-9.723 25.768-36.797 102.334-146.132 4.487-6.406 1.133-1.62.034-.047 4.687-6.693 26.124-37.303.474-.678c168.25-240.253 329.367-470.306 489.41-698.839l1.416-2.02 82.652-118.024 16.306-23.284 43.69-62.39 32.776-46.803 3.662-5.23 3.478-4.967 16.463-23.509c14.729-21.034 29.47-42.086 44.229-63.16l18.01-25.721a5886593.977 5886593.977 0 0 0 347.336-496.068l.46-.655.46-.657c39.947-57.06 80.272-114.662 121.053-172.918l9.763-13.945c32.316-46.165 64.927-92.751 97.866-139.809l.683-.975 45.978-65.688 5.796-8.28 23.79-33.988 3.464-4.95 8.74-12.485 41.034-58.63 10.696-15.281 3.882-5.547 7.177-10.255 28.484-40.697c.371-.532.741-1.06 1.114-1.592l-1.987-1.39-7.156-5.011.31-.399-.295-.206-.194-.136-.488-.341-.307-.215-.309.398-49.745-34.832-707.892 1010.782L2112.57 3557.66l-21.762 31.073s-75.425 109.165-83.854 120.812c-6.797 9.39-32.041 49.074-41.447 74.682-7.32 19.916-12.492 45.516-11.47 70.366 2.326 56.811 15.523 158.28 28.233 215.833 12.71 57.554 25.956 127.83 40.228 174.853 9.417 31.023 20.186 61.048 33.514 89.18 10.75 22.684 22.51 45.858 34.28 63.958 8.392 12.908 15.736 22.751 25.254 32.571 6.512 6.714 13.348 12.68 19.492 16.54" class="svg-shaft-segment" style="fill: {{customize.userStick.customColor.shaft.hex}}"/><g class="svg-accent-segment" style="fill: {{customize.userStick.customColor.accent}}"><path d="M3383.47 1791.747l-4.333-16.717 28.31-40.461c4.56-6.52 11.557-6.794 12.907-1.798l12.352 45.172-16.506 23.572-10.575-41.41-22.156 31.642zm48.374-92.033l5.469 3.829 13.168-18.888-1.978-8.732 16.546-23.631s11.572 51.342 12.713 56.455c.058.259.073.421.073.43.23 2.032-.468 4.811-2.371 7.658l-39.02 55.725-2.652-10.197c-1.044-4.019.617-9.913 4.261-15.117l5.409-7.725-26.5-18.554 14.882-21.253zm41.083-58.546l32.736-46.8 13.62 54.111c.675 2.68-.435 6.587-2.851 10.037l-33.765 48.215-3.928-17.331 18.644-26.626-1.56-6.689-18.624 26.597-2.689-11.96 17.741-25.337-1.512-6.749-17.776 25.367-2.915-12.946c-.602-2.677.512-6.504 2.879-9.889zm40.296-57.768l38.179-54.354 1.521 8.495c.628 4.89 1.628 12.97-.179 21.226l-10.893 40.274 20.293-29.104 2.8 13.316c.564 2.678-.551 6.466-2.89 9.816l-38.165 54.741-3.552-18.677 13.054-51.374-19.805 28.491-3.205-12.879c-.646-2.676.457-6.547 2.842-9.97zm151.163-113.193l-12.7-54.935c-.717-3.101.224-7.637 2.098-10.314.078-.112.159-.221.24-.326l416.436-536.735.01-.013-49.746-34.832-.009.013-707.882 1010.77 39.662 71.82a6073130.782 6073130.782 0 0 0 311.891-445.448z"/><path d="M3658.48 1400.858l-3.503 4.513c-.07.09-.138.183-.205.279-1.689 2.411-2.545 6.606-1.91 9.35l12.455 53.878 5.14-7.342-12.458-53.884c-.455-1.97-.227-4.519.48-6.794M3453.944 1699.973l-7.146 10.206 11.561 8.014zM2431.755 3230.43A190017716.809 190017716.809 0 0 1 2534.09 3084.3l-25.598 5.474-76.736 140.657z"/><path d="M2399.604 3276.344l4.553-6.503 1.83-2.614 97.478-180.17a7.462 7.462 0 0 1 4.708-3.06h.004l30.399-6.105 1.134-1.62-31.802 6.388a8.777 8.777 0 0 0-3.067 1.23l1.866-3.443a7.694 7.694 0 0 1 4.856-3.154l32.105-6.674.762-1.087-33.047 6.87c-2.203.429-4.125 1.677-5.442 3.557l-.007.01-3.044 5.623c-.2.234-.394.478-.573.735l-.01.015-103.129 190.609.426-.607zM4071.744 868.796l-410.494 529.077c-.07.089-.137.182-.203.276-1.667 2.38-2.514 6.524-1.888 9.234l12.217 52.84 6.094-8.704-10.522-47.735 411.95-529.979.01-.012.31-.399-7.155-5.01-.31.4-.01.012zM2881.266 2516.063l-2.339 3.34 3.73 2.61 2.337-3.339zM2893.355 2498.323l-2.87 4.097 4.177 2.924 2.87-4.097zM2905.443 2480.582l-3.399 4.853 4.625 3.238 3.398-4.853zM2917.531 2462.842l-3.928 5.61 5.072 3.552 3.928-5.61zM2929.62 2445.1l-4.459 6.368 5.52 3.865 4.458-6.367zM2941.709 2427.36l-4.989 7.124 5.967 4.178 4.988-7.124zM2953.798 2409.62l-5.519 7.88 6.415 4.492 5.518-7.881zM2965.886 2391.879l-6.048 8.637 6.862 4.805 6.048-8.638zM2977.975 2374.139l-6.579 9.394 7.31 5.119 6.578-9.395zM2990.063 2356.398l-7.109 10.152 7.758 5.432 7.108-10.153zM3002.152 2338.657l-7.639 10.91 8.205 5.744 7.639-10.909zM3014.24 2320.916l-8.168 11.666 8.652 6.059 8.169-11.666zM3192.249 2071.934l-2.339 3.339 3.73 2.611 2.337-3.34zM3180.242 2088.604l-2.868 4.097 4.177 2.924 2.868-4.096zM3168.236 2105.275l-3.399 4.853 4.624 3.238 3.399-4.853zM3156.23 2121.945l-3.928 5.61 5.072 3.552 3.928-5.61zM3144.223 2138.615l-4.458 6.367 5.52 3.865 4.458-6.367zM3132.217 2155.286l-4.988 7.124 5.966 4.178 4.989-7.124zM3120.212 2171.956l-5.519 7.88 6.415 4.492 5.518-7.88zM3108.205 2188.626l-6.048 8.638 6.862 4.805 6.048-8.638zM3096.2 2205.296l-6.579 9.395 7.31 5.118 6.578-9.395zM3084.193 2221.966l-7.109 10.153 7.757 5.431 7.109-10.152zM3072.187 2238.637l-7.639 10.91 8.205 5.744 7.639-10.909z"/></g><g class="svg-logo-segment" style="fill: {{customize.userStick.customColor.logo}}" fill="#FFF"><path d="M2752.68 2720.427c1.766 1.236 3.556 1.857 5.375 1.867 3.62-.01 7.102-2.347 10.447-7.004l9.214-13.16c1.365-2.07.93-3.885-1.307-5.452l-20.952-14.67c-1.796-1.258-3.356-.976-4.677.838-1.313 1.83-1.029 3.348.847 4.563l17.015 11.915c1.323.926 1.553 2.006.688 3.241l-6.299 8.995c-1.219 1.645-2.226 2.779-3.022 3.4-.683.53-1.26.793-1.745.804-.481.005-1.079-.241-1.797-.744-.595-.417-1.014-.84-1.254-1.27-.544-.968-.31-2.186.666-3.64.049-.064.102-.093.146-.16 1.258-1.866.986-3.426-.81-4.685-1.808-1.265-3.363-.923-4.662 1.028-.012.016-.01.032-.022.051-1.037 1.425-2.103 2.063-3.205 1.883-.486-.078-1.028-.327-1.624-.744l-5.373-3.833c-1.777-1.31-3.303-1.088-4.578.659-1.258 1.87-.986 3.427.81 4.685l.614.43 4.729 3.31c2.97 1.95 5.587 1.877 7.844-.223-1.113 2.9-.133 5.542 2.933 7.916M2744.984 2729.382c1.311-1.827 1.296-3.272-.043-4.342l-6.249-4.376-6.862-4.805c-1.82-1.275-3.39-1-4.711.817-1.323 1.817-1.03 3.345.88 4.583l8.036 5.627 5.241 3.67c1.397.846 2.63.454 3.708-1.174M2754.203 2735.641c1.254-1.863.985-3.426-.811-4.684-1.808-1.266-3.361-.927-4.66 1.025-1.234 1.763-.95 3.277.86 4.543 1.806 1.265 3.344.971 4.61-.884M2720.284 2780.492c1.459.332 2.813-.38 4.059-2.136 1.264-1.758 1.49-3.255.674-4.483l-13.198-20.253 23.47 5.441c1.46.333 2.812-.378 4.06-2.135 1.264-1.759 1.487-3.253.673-4.482l-17.143-26.196c-.757-1.17-1.514-1.299-2.269-.383l-1.946 2.78c-.48.848-.436 1.688.127 2.526l12.855 18.983c1.507 1.976 1.077 2.59-1.296 1.852l-21.242-5.215c-2.027-.105-3.35.284-3.967 1.167l-1.205 1.72c-.555.793-.45 2.049.317 3.772l12.387 18.135c1.508 1.973 1.077 2.59-1.296 1.852l-22.287-5.479c-.997-.24-1.819.017-2.459.769l-1.874 2.922c-.635.907-.28 1.515 1.06 1.83l30.5 7.013zM2681.215 2801.52c-1.398-3.263-1-6.458 1.192-9.589a10.632 10.632 0 0 1 3.694-3.304c3.321-1.812 6.699-1.521 10.128.88 2.37 1.659 3.792 3.774 4.27 6.344.476 2.568-.13 5.059-1.82 7.474-1.543 2.203-3.542 3.6-5.989 4.187-2.66.63-5.275.048-7.843-1.75-1.73-1.211-2.943-2.624-3.632-4.243m22.87 5.592c2.848-4.068 3.9-8.21 3.156-12.426-.742-4.22-3.148-7.754-7.215-10.602-4.056-2.84-8.2-3.885-12.425-3.139-4.228.744-7.76 3.146-10.6 7.202-2.85 4.07-3.901 8.21-3.158 12.426.743 4.218 3.15 7.75 7.217 10.598 4.09 2.864 8.235 3.922 12.433 3.186 4.198-.74 7.73-3.157 10.592-7.245M2791.054 2683.082l9.262-13.228c1.363-2.067.928-3.883-1.31-5.45l-12.27-8.592-8.68-6.078c-1.797-1.258-3.355-.978-4.68.84-1.308 1.826-1.027 3.346.849 4.56l8.152 5.71 8.864 6.206c1.323.926 1.554 2.004.688 3.24l-6.252 8.93c-1.25 1.687-2.274 2.845-3.071 3.47-.681.526-1.261.792-1.743.8-.482.006-1.081-.238-1.8-.741-.594-.417-1.012-.842-1.25-1.275-.531-.938-.313-2.118.595-3.518.047-.065.1-.094.148-.163 1.254-1.864.986-3.426-.81-4.684-1.745-1.22-3.252-.93-4.523.843l-.016-.012c-.034.05-.06.108-.096.16l-.026.035c-.014.02-.016.037-.029.056-1.28 1.86-1.914 4.14-1.868 6.873.049 2.853 1.412 5.214 4.091 7.09 1.765 1.236 3.556 1.856 5.375 1.864 3.62-.009 7.085-2.322 10.4-6.936M2673.534 2850.736l8.266-11.805-26.376-18.469-3.423 4.888 22.078 15.46-4.623 6.602c-1.533 2.189-3.394 2.518-5.583.986-2.705-1.894-2.906-5.336-.607-10.32l-4.843-2.349c-4.026 8.158-3.353 14.118 2.02 17.88 4.956 3.47 9.32 2.513 13.09-2.873M2649.202 2885.485l4.185-5.975-4.012-17.433-3.172-2.221-19.464 1.572-4.74 6.769 22.779-2.577zM2639.241 2843.573l-3.423 4.888 26.377 18.469 3.422-4.888zM2637.879 2893.06l-1.937 2.767-22.338-15.641-3.422 4.888 26.93 18.856 2.777-9.462zM2602.577 2904.572c3.126-4.464 7.757-4.548 13.892-.251 6.038 4.227 7.495 8.573 4.369 13.037-3.03 4.328-7.566 4.378-13.603.151-6.136-4.296-7.689-8.61-4.658-12.937m22.502 15.756c5.494-7.845 3.77-14.898-5.168-21.157-8.89-6.226-16.083-5.415-21.576 2.43-5.399 7.71-3.652 14.677 5.238 20.902 8.94 6.26 16.108 5.535 21.506-2.175M2583.914 2931.225c3.126-4.464 7.757-4.548 13.893-.251 6.037 4.227 7.494 8.573 4.368 13.037-3.03 4.328-7.566 4.379-13.603.151-6.136-4.296-7.688-8.61-4.658-12.937m22.503 15.756c5.493-7.845 3.77-14.898-5.169-21.157-8.89-6.225-16.083-5.415-21.576 2.43-5.398 7.71-3.652 14.677 5.239 20.902 8.939 6.26 16.107 5.535 21.506-2.175M3066.915 2261.144l.527-.753.215-.307-5.721-4.006-.216.307-2.118 3.025.921.645 1.591-2.273zM3058.331 2263.1c.828-1.182 1.907-1.308 3.238-.376 1.31.917 1.55 1.967.723 3.149-.807 1.152-1.865 1.27-3.174.352-1.332-.932-1.594-1.973-.787-3.126m4.882 3.418c1.34-1.915 1.042-3.552-.897-4.91-1.989-1.264-3.624-.981-4.905.848-1.32 1.885-1.017 3.504.912 4.855 1.939 1.357 3.57 1.093 4.89-.793M3059.14 2272.247l-.312-.501-3.708-5.934-.762 1.088 2.021 3.131 1.29 1.995-2.78-.604.806-1.153-.665-1.008-1.33 1.9-2.018-.44-.798 1.14 7.458 1.526zM3049.745 2275.446l.827-1.18 3.881 2.717-.827 1.18c-.831 1.188-1.84 1.365-3.031.531-1.397-.978-1.681-2.06-.85-3.248m4.801 3.362l1.113-1.59.456-.65-5.72-4.006-.457.65-1.113 1.59c-1.325 1.894-.983 3.545 1.028 4.952 1.803 1.263 3.367.948 4.693-.946M3046.206 2278.543l-.743 1.06 5.722 4.006.742-1.06zM3047.486 2288.891l-4.169-2.919 6.285-.102.742-1.06-5.722-4.006-.715 1.021 4.257 2.98-6.371.04-.554.79-.189.27 5.722 4.007.189-.27zM3043.955 2294.02c1.438-2.054 1.217-3.74-.664-5.056-1.987-1.391-3.688-1.077-5.102.943-.025.036-.045.07-.07.107-.44.653-.724 1.265-.838 1.837l2.376 1.664.742-1.06-1.664-1.165c.093-.248.196-.453.308-.629.019-.03.036-.067.055-.095.908-1.296 2.049-1.464 3.423-.502 1.258.881 1.414 2.003.475 3.364-.007.01-.01.019-.017.028a4.861 4.861 0 0 1-1.441 1.376l.96.672c.516-.351.986-.833 1.415-1.433.013-.019.029-.032.042-.05M3039.87 2297.809l-2.167 3.096-1.658-5.893-.92-.644-2.969 4.24.92.645 2.132-3.046 1.749 5.763.92.644 2.913-4.16zM3030.11 2304.048c-.008-.414.14-.844.453-1.29.827-1.182 1.907-1.308 3.238-.376 1.31.917 1.55 1.967.723 3.148-.313.447-.665.735-1.054.87-.613.214-1.32.044-2.12-.517-.816-.57-1.225-1.182-1.24-1.835m4.435 3.105c.313-.256.614-.572.899-.978.661-.946.92-1.822.783-2.632-.14-.83-.7-1.59-1.681-2.278-.96-.61-1.835-.852-2.63-.741-.852.118-1.611.642-2.274 1.588a4.824 4.824 0 0 0-.612 1.18c-.213.61-.231 1.187-.059 1.734.22.698.734 1.347 1.583 1.94.853.599 1.643.863 2.376.832.575-.023 1.114-.237 1.615-.645M3025.697 2311.137l6.284-.102.742-1.06-5.722-4.005-.714 1.02 4.257 2.981-6.372.039-.742 1.06 5.721 4.007.715-1.02zM3024.281 2315.006l-1.919 2.74.949.665 1.91-2.729 1.44 1.009-2.005 2.864.912.638 2.742-3.916-5.722-4.006-2.781 3.973.92.644 2.054-2.932z"/></g></g></g></svg>
