<svg viewBox="0 0 884 53" xmlns="http://www.w3.org/2000/svg"><title>pk 1000</title><g fill="none" fill-rule="evenodd"><path class="svg-shaft-segment" fill="#1A1A1A" d="M-1 53.36h884.813V0H-1z"/><g class="svg-accent-segment" fill="#E4AD24"><path d="M871.864 0V4.22h7.646V0zM862.04 0v4.22h7.647V0zM852.215 0V4.22h7.647V0zM842.392 0V4.22h7.647V0zM832.567 0V4.22h7.647V0zM822.743 0V4.22h7.647V0zM812.92 0V4.22h7.647V0zM803.095 0V4.22h7.647V.001zM793.272 0V4.22h7.646V0zM783.447 0V4.22h7.647V0zM773.623 0V4.22h7.647V0zM763.8 0V4.22h7.646V0zM753.975 0v4.22h7.647V0zM744.15 0V4.22h7.648V0zM734.327 0V4.22h7.647V0zM724.503 0V4.22h7.647V0zM714.68 0V4.22h7.645V.001zM704.855 0V4.22h7.647V0zM695.03 0V4.22h7.647V0zM685.207 0v4.22h7.647V0zM675.382 0V4.22h7.647V0zM665.558 0v4.22h7.647V0zM655.735 0V4.22h7.646V0zM645.91 0V4.22h7.647V0zM636.087 0V4.22h7.646V0zM626.262 0V4.22h7.647V0zM616.438 0V4.22h7.647V0zM606.614 0V4.22h7.647V.001zM596.79 0V4.22h7.647V0zM586.966 0V4.22h7.646V0zM577.142 0v4.22h7.647V0zM567.318 0V4.22h7.647V0zM557.494 0V4.22h7.646V0zM547.67 0V4.22h7.647V0zM537.845 0V4.22h7.647V0zM528.022 0V4.22h7.647V0zM518.197 0V4.22h7.647V0zM508.373 0V4.22h7.647V0zM498.55 0V4.22h7.647V0zM488.725 0V4.22h7.647V0zM478.902 0V4.22h7.646V0zM478.901 51.8h7.647v-4.219h-7.647zM478.901 45.003h7.647v-4.219h-7.647zM478.901 11.016h7.647V6.797h-7.647zM469.077 0v4.22h7.647V0zM469.077 51.8h7.647v-4.219h-7.647zM469.077 45.003h7.647v-4.219h-7.647zM469.077 11.016h7.647V6.797h-7.647zM459.253 0V4.22h7.647V0zM459.253 51.8h7.647v-4.219h-7.647zM459.253 45.003h7.647v-4.219h-7.647zM459.253 11.016h7.647V6.797h-7.647zM449.43 0V4.22h7.646V0zM449.429 51.8h7.647v-4.219h-7.647zM449.429 45.003h7.647v-4.219h-7.647zM449.429 11.016h7.647V6.797h-7.647zM439.693 0V4.22h7.647V0zM439.693 51.8h7.647v-4.219h-7.647zM439.693 45.003h7.647v-4.219h-7.647zM439.693 11.016h7.647V6.797h-7.647zM429.87 0v4.22h7.647V0zM429.869 51.8h7.647v-4.219h-7.647zM429.869 45.003h7.647v-4.219h-7.647zM429.869 11.016h7.647V6.797h-7.647zM420.045 4.22h7.647V0h-7.647zM420.045 51.8h7.647v-4.219h-7.647zM420.045 45.003h7.647v-4.219h-7.647zM420.045 11.016h7.647V6.797h-7.647zM410.221 4.22h7.647V0h-7.647zM410.221 51.8h7.647v-4.219h-7.647zM410.221 45.003h7.647v-4.219h-7.647zM410.221 11.016h7.647V6.797h-7.647zM400.397 4.22h7.647V0h-7.647zM400.397 51.8h7.647v-4.219h-7.647zM400.397 45.003h7.647v-4.219h-7.647zM400.397 11.016h7.647V6.797h-7.647zM390.573 4.22h7.647V0h-7.647zM390.573 51.8h7.647v-4.219h-7.647zM390.573 45.003h7.647v-4.219h-7.647zM390.573 11.016h7.647V6.797h-7.647zM380.749 4.22h7.646V0h-7.646zM380.749 51.8h7.647v-4.219h-7.647zM380.749 45.003h7.647v-4.219h-7.647zM380.749 11.016h7.647V6.797h-7.647zM370.925 4.22h7.647V0h-7.647zM370.925 51.8h7.647v-4.219h-7.647zM370.925 45.003h7.647v-4.219h-7.647zM370.925 11.016h7.647V6.797h-7.647zM361.101 4.22h7.647V0h-7.647zM361.101 51.8h7.647v-4.219h-7.647zM361.101 45.003h7.647v-4.219h-7.647zM361.101 11.016h7.647V6.797h-7.647zM351.277 4.22h7.647V0h-7.647zM351.277 51.8h7.647v-4.219h-7.647zM351.277 45.003h7.647v-4.219h-7.647zM351.277 11.016h7.647V6.797h-7.647zM36.767 4.22h7.647V0h-7.647zM46.591 4.22h7.647V0h-7.647zM56.415 4.22h7.647V0h-7.647zM66.239 4.22h7.647V0h-7.647zM76.063 4.22h7.647V0h-7.647zM85.887 4.22h7.647V0h-7.647zM95.711 4.22h7.647V0h-7.647zM105.536 4.22h7.647V0h-7.647zM115.359 4.22h7.647V0h-7.647zM125.184 4.22h7.647V0h-7.647zM135.008 4.22h7.646V0h-7.646zM144.831 4.22h7.647V0h-7.647zM154.656 4.22h7.647V0h-7.647zM164.479 4.22h7.647V0h-7.647zM174.304 4.22h7.647V0h-7.647zM184.128 4.22h7.646V0h-7.646zM193.952 4.22h7.647V0h-7.647zM193.952 51.8h7.647v-4.219h-7.647zM193.952 45.003h7.647v-4.219h-7.647zM193.952 38.205h7.647v-4.219h-7.647zM193.952 31.408h7.647V27.19h-7.647zM193.952 24.611h7.647v-4.219h-7.647zM193.952 17.813h7.647v-4.219h-7.647zM193.952 11.016h7.647V6.797h-7.647zM203.776 4.22h7.647V0h-7.647zM203.776 51.8h7.647v-4.219h-7.647zM203.776 45.003h7.647v-4.219h-7.647zM203.776 38.205h7.647v-4.219h-7.647zM203.776 31.408h7.647V27.19h-7.647zM203.776 24.611h7.647v-4.219h-7.647zM203.776 17.813h7.647v-4.219h-7.647zM203.776 11.016h7.647V6.797h-7.647zM213.6 4.22h7.646V0H213.6zM213.6 45.003h7.647v-4.219H213.6zM213.6 38.205h7.647v-4.219H213.6zM213.6 31.408h7.647V27.19H213.6zM213.6 24.611h7.647v-4.219H213.6zM213.6 17.813h7.647v-4.219H213.6zM213.6 11.016h7.647V6.797H213.6zM223.424 4.22h7.647V0h-7.647zM223.424 51.8h7.647v-4.219h-7.647zM223.424 45.003h7.647v-4.219h-7.647zM223.424 38.205h7.647v-4.219h-7.647zM223.424 31.408h7.647V27.19h-7.647zM223.424 24.611h7.647v-4.219h-7.647zM223.424 17.813h7.647v-4.219h-7.647zM223.424 11.016h7.647V6.797h-7.647zM233.248 4.22h7.647V0h-7.647zM233.248 51.8h7.647v-4.219h-7.647zM233.248 45.003h7.647v-4.219h-7.647zM233.248 38.205h7.647v-4.219h-7.647zM233.248 31.408h7.647V27.19h-7.647zM233.248 24.611h7.647v-4.219h-7.647zM233.248 17.813h7.647v-4.219h-7.647zM233.248 11.016h7.647V6.797h-7.647zM243.072 4.22h7.647V0h-7.647zM243.072 51.8h7.647v-4.219h-7.647zM243.072 45.003h7.647v-4.219h-7.647zM243.072 38.205h7.647v-4.219h-7.647zM243.072 31.408h7.647V27.19h-7.647zM243.072 24.611h7.647v-4.219h-7.647zM243.072 17.813h7.647v-4.219h-7.647zM243.072 11.016h7.647V6.797h-7.647zM252.896 4.22h7.647V0h-7.647zM252.896 51.8h7.647v-4.219h-7.647zM252.896 45.003h7.647v-4.219h-7.647zM252.896 38.205h7.647v-4.219h-7.647zM252.896 31.408h7.647V27.19h-7.647zM252.896 24.611h7.647v-4.219h-7.647zM252.896 17.813h7.647v-4.219h-7.647zM252.896 11.016h7.647V6.797h-7.647zM262.721 4.22h7.646V0h-7.646zM262.72 51.8h7.647v-4.219h-7.647zM262.72 45.003h7.647v-4.219h-7.647zM262.72 38.205h7.647v-4.219h-7.647zM262.72 31.408h7.647V27.19h-7.647zM262.72 24.611h7.647v-4.219h-7.647zM262.72 17.813h7.647v-4.219h-7.647zM262.72 11.016h7.647V6.797h-7.647zM272.544 4.22h7.647V0h-7.647zM272.544 51.8h7.647v-4.219h-7.647zM272.544 45.003h7.647v-4.219h-7.647zM272.544 38.205h7.647v-4.219h-7.647zM272.544 31.408h7.647V27.19h-7.647zM272.544 24.611h7.647v-4.219h-7.647zM272.544 17.813h7.647v-4.219h-7.647zM272.544 11.016h7.647V6.797h-7.647zM282.369 4.22h7.647V0h-7.647zM282.369 51.8h7.647v-4.219h-7.647zM282.369 45.003h7.647v-4.219h-7.647zM282.369 38.205h7.647v-4.219h-7.647zM282.369 31.408h7.647V27.19h-7.647zM282.369 24.611h7.647v-4.219h-7.647zM282.369 17.813h7.647v-4.219h-7.647zM282.369 11.016h7.647V6.797h-7.647zM292.193 4.22h7.646V0h-7.646zM292.193 51.8h7.647v-4.219h-7.647zM292.193 45.003h7.647v-4.219h-7.647zM292.193 11.016h7.647V6.797h-7.647zM302.016 4.22h7.647V0h-7.647zM302.017 51.8h7.647v-4.219h-7.647zM302.017 45.003h7.647v-4.219h-7.647zM302.017 11.016h7.647V6.797h-7.647zM311.841 4.22h7.647V0h-7.647zM311.841 51.8h7.647v-4.219h-7.647zM311.841 45.003h7.647v-4.219h-7.647zM311.841 11.016h7.647V6.797h-7.647zM321.664 4.22h7.647V0h-7.647zM321.665 51.8h7.647v-4.219h-7.647zM321.665 45.003h7.647v-4.219h-7.647zM321.665 11.016h7.647V6.797h-7.647zM331.489 4.22h7.647V0h-7.647zM331.489 51.8h7.647v-4.219h-7.647zM331.489 45.003h7.647v-4.219h-7.647zM331.489 11.016h7.647V6.797h-7.647zM341.313 4.22h7.646V0h-7.646zM341.313 51.8h7.647v-4.219h-7.647zM341.313 45.003h7.647v-4.219h-7.647zM341.313 11.016h7.647V6.797h-7.647zM36.767 10.624h7.647V6.405h-7.647zM46.591 24.22h7.647V20h-7.647zM46.591 17.422h7.647v-4.219h-7.647zM46.591 10.624h7.647V6.405h-7.647zM56.415 17.422h7.647v-4.219h-7.647zM66.239 31.016h7.647v-4.219h-7.647zM66.239 17.422h7.647v-4.219h-7.647zM76.239 17.422h7.647v-4.219h-7.647zM66.239 10.624h7.647V6.405h-7.647zM76.063 10.624h7.647V6.405h-7.647zM85.887 24.22h7.647V20h-7.647zM85.887 10.624h7.647V6.405h-7.647zM95.711 37.813h7.647v-4.219h-7.647zM95.711 31.016h7.647v-4.219h-7.647zM95.711 24.22h7.647V20h-7.647zM95.711 17.422h7.647v-4.219h-7.647zM95.711 10.624h7.647V6.405h-7.647zM105.535 24.22h7.647V20h-7.647zM105.535 17.422h7.647v-4.219h-7.647zM105.535 10.624h7.647V6.405h-7.647zM115.359 31.016h7.647v-4.219h-7.647zM115.359 24.22h7.647V20h-7.647zM115.359 17.422h7.647v-4.219h-7.647zM115.359 10.624h7.647V6.405h-7.647zM125.184 44.611h7.647v-4.219h-7.647zM125.184 31.016h7.647v-4.219h-7.647zM125.184 24.22h7.647V20h-7.647zM125.184 17.422h7.647v-4.219h-7.647zM125.184 10.624h7.647V6.405h-7.647zM135.008 31.016h7.647v-4.219h-7.647zM135.008 17.422h7.647v-4.219h-7.647zM135.008 10.624h7.647V6.405h-7.647zM144.832 51.408h7.647V47.19h-7.647zM144.832 37.813h7.647v-4.219h-7.647zM144.832 31.016h7.647v-4.219h-7.647zM144.832 24.22h7.647V20h-7.647zM144.832 17.422h7.647v-4.219h-7.647zM144.832 10.624h7.647V6.405h-7.647zM154.656 44.611h7.647v-4.219h-7.647zM154.656 37.813h7.647v-4.219h-7.647zM154.656 31.016h7.647v-4.219h-7.647zM154.656 24.22h7.647V20h-7.647zM154.656 17.422h7.647v-4.219h-7.647zM154.656 10.624h7.647V6.405h-7.647zM164.48 51.408h7.647V47.19h-7.647zM164.48 44.611h7.647v-4.219h-7.647zM164.48 37.813h7.647v-4.219h-7.647zM164.48 31.016h7.647v-4.219h-7.647zM164.48 24.22h7.647V20h-7.647zM164.48 17.422h7.647v-4.219h-7.647zM164.48 10.624h7.647V6.405h-7.647zM174.304 51.408h7.647V47.19h-7.647zM174.304 37.813h7.647v-4.219h-7.647zM174.304 31.016h7.647v-4.219h-7.647zM174.304 24.22h7.647V20h-7.647zM174.304 17.422h7.647v-4.219h-7.647zM174.304 10.624h7.647V6.405h-7.647zM184.128 51.408h7.647V47.19h-7.647zM184.128 44.611h7.647v-4.219h-7.647zM184.128 37.813h7.647v-4.219h-7.647zM184.128 31.016h7.647v-4.219h-7.647zM184.128 24.22h7.647V20h-7.647zM184.128 17.422h7.647v-4.219h-7.647zM184.128 10.624h7.647V6.405h-7.647zM-.5 4.22h5.669V0H-.5zM7.346 11.016h7.647V6.797H7.346zM7.347 4.22h7.646V0H7.347zM7.346 24.611h7.647v-4.219H7.346zM17.17 11.016h7.647V6.797H17.17zM17.17 17.813h7.647v-4.219H17.17zM26.994 11.016h7.647V6.797h-7.647zM26.995 4.22h7.647V0h-7.647zM26.994 31.408h7.647V27.19h-7.647zM26.994 24.611h7.647v-4.219h-7.647zM793.121 11.016h7.647V6.797h-7.647zM783.296 11.016h7.647V6.797h-7.647zM773.472 11.016h7.647V6.797h-7.647zM763.648 11.016h7.647V6.797h-7.647zM753.824 11.016h7.647V6.797h-7.647zM744 11.016h7.647V6.797H744zM734.176 11.016h7.647V6.797h-7.647zM724.352 11.016h7.647V6.797h-7.647zM714.528 11.016h7.647V6.797h-7.647zM704.704 11.016h7.647V6.797h-7.647zM694.88 11.016h7.647V6.797h-7.647zM685.056 11.016h7.647V6.797h-7.647zM675.232 11.016h7.647V6.797h-7.647zM665.408 11.016h7.647V6.797h-7.647zM655.584 11.016h7.647V6.797h-7.647zM645.76 11.016h7.647V6.797h-7.647zM635.936 11.016h7.647V6.797h-7.647zM635.936 51.8h7.647v-4.219h-7.647zM635.936 45.003h7.647v-4.219h-7.647zM635.936 38.205h7.647v-4.219h-7.647zM635.936 31.408h7.647V27.19h-7.647zM635.936 24.611h7.647v-4.219h-7.647zM635.936 17.813h7.647v-4.219h-7.647zM626.111 11.016h7.647V6.797h-7.647zM626.111 51.8h7.647v-4.219h-7.647zM626.111 45.003h7.647v-4.219h-7.647zM626.111 38.205h7.647v-4.219h-7.647zM626.111 31.408h7.647V27.19h-7.647zM626.111 24.611h7.647v-4.219h-7.647zM626.111 17.813h7.647v-4.219h-7.647zM616.287 11.016h7.647V6.797h-7.647zM616.287 51.8h7.647v-4.219h-7.647zM616.287 45.003h7.647v-4.219h-7.647zM616.287 38.205h7.647v-4.219h-7.647zM616.287 31.408h7.647V27.19h-7.647zM616.287 24.611h7.647v-4.219h-7.647zM616.287 17.813h7.647v-4.219h-7.647zM606.463 11.016h7.647V6.797h-7.647zM606.463 51.8h7.647v-4.219h-7.647zM606.463 45.003h7.647v-4.219h-7.647zM606.463 38.205h7.647v-4.219h-7.647zM606.463 31.408h7.647V27.19h-7.647zM606.463 24.611h7.647v-4.219h-7.647zM606.463 17.813h7.647v-4.219h-7.647zM596.639 11.016h7.647V6.797h-7.647zM596.639 51.8h7.647v-4.219h-7.647zM596.639 45.003h7.647v-4.219h-7.647zM602.326 38.205h1.961v-4.219h-1.961zM602.326 31.408h1.961V27.19h-1.961zM602.326 24.611h1.961v-4.219h-1.961zM602.326 17.813h1.961v-4.219h-1.961zM586.815 11.016h7.647V6.797h-7.647zM586.815 51.8h7.647v-4.219h-7.647zM586.815 45.003h7.647v-4.219h-7.647zM576.991 11.016h7.647V6.797h-7.647zM576.991 51.8h7.647v-4.219h-7.647zM576.991 45.003h7.647v-4.219h-7.647zM567.167 11.016h7.647V6.797h-7.647zM567.167 51.8h7.647v-4.219h-7.647zM567.167 45.003h7.647v-4.219h-7.647zM557.343 11.016h7.647V6.797h-7.647zM557.343 51.8h7.647v-4.219h-7.647zM557.343 45.003h7.647v-4.219h-7.647zM547.519 11.016h7.647V6.797h-7.647zM547.519 51.8h7.647v-4.219h-7.647zM547.519 45.003h7.647v-4.219h-7.647zM537.695 11.016h7.647V6.797h-7.647zM537.695 51.8h7.647v-4.219h-7.647zM537.695 45.003h7.647v-4.219h-7.647zM527.871 11.016h7.647V6.797h-7.647zM527.871 51.8h7.647v-4.219h-7.647zM527.871 45.003h7.647v-4.219h-7.647zM518.047 11.016h7.647V6.797h-7.647zM518.047 51.8h7.647v-4.219h-7.647zM518.047 45.003h7.647v-4.219h-7.647zM508.223 11.016h7.647V6.797h-7.647zM508.223 51.8h7.647v-4.219h-7.647zM508.223 45.003h7.647v-4.219h-7.647zM498.399 11.016h7.647V6.797h-7.647zM498.399 51.8h7.647v-4.219h-7.647zM498.399 45.003h7.647v-4.219h-7.647zM488.575 11.016h7.647V6.797h-7.647zM488.575 51.8h7.647v-4.219h-7.647zM488.575 45.003h7.647v-4.219h-7.647zM793.121 17.422h7.647v-4.219h-7.647zM783.296 31.016h7.647v-4.219h-7.647zM783.296 24.22h7.647V20h-7.647zM783.296 17.422h7.647v-4.219h-7.647zM773.472 24.22h7.647V20h-7.647zM763.648 37.813h7.647v-4.219h-7.647zM763.648 24.22h7.647V20h-7.647zM753.648 24.22h7.647V20h-7.647zM763.648 17.422h7.647v-4.219h-7.647zM753.824 17.422h7.647v-4.219h-7.647zM744 31.016h7.647v-4.219H744zM744 17.422h7.647v-4.219H744zM734.176 44.611h7.647v-4.219h-7.647zM734.176 37.813h7.647v-4.219h-7.647zM734.176 31.016h7.647v-4.219h-7.647zM734.176 24.22h7.647V20h-7.647zM734.176 17.422h7.647v-4.219h-7.647zM724.352 31.016h7.647v-4.219h-7.647zM724.352 24.22h7.647V20h-7.647zM724.352 17.422h7.647v-4.219h-7.647zM714.528 37.813h7.647v-4.219h-7.647zM714.528 31.016h7.647v-4.219h-7.647zM714.528 24.22h7.647V20h-7.647zM714.528 17.422h7.647v-4.219h-7.647zM704.704 51.408h7.647V47.19h-7.647zM704.704 37.813h7.647v-4.219h-7.647zM704.704 31.016h7.647v-4.219h-7.647zM704.704 24.22h7.647V20h-7.647zM704.704 17.422h7.647v-4.219h-7.647zM694.88 37.813h7.647v-4.219h-7.647zM694.88 24.22h7.647V20h-7.647zM694.88 17.422h7.647v-4.219h-7.647zM685.056 44.611h7.647v-4.219h-7.647zM685.056 37.813h7.647v-4.219h-7.647zM685.056 31.016h7.647v-4.219h-7.647zM685.056 24.22h7.647V20h-7.647zM685.056 17.422h7.647v-4.219h-7.647zM675.232 51.408h7.647V47.19h-7.647zM675.232 44.611h7.647v-4.219h-7.647zM675.232 37.813h7.647v-4.219h-7.647zM675.232 31.016h7.647v-4.219h-7.647zM675.232 24.22h7.647V20h-7.647zM675.232 17.422h7.647v-4.219h-7.647zM665.408 51.408h7.647V47.19h-7.647zM665.408 44.611h7.647v-4.219h-7.647zM665.408 37.813h7.647v-4.219h-7.647zM665.408 31.016h7.647v-4.219h-7.647zM665.408 24.22h7.647V20h-7.647zM665.408 17.422h7.647v-4.219h-7.647zM655.584 44.611h7.647v-4.219h-7.647zM655.584 37.813h7.647v-4.219h-7.647zM655.584 31.016h7.647v-4.219h-7.647zM655.584 24.22h7.647V20h-7.647zM655.584 17.422h7.647v-4.219h-7.647zM645.76 51.408h7.647V47.19h-7.647zM645.76 44.611h7.647v-4.219h-7.647zM645.76 37.813h7.647v-4.219h-7.647zM645.76 31.016h7.647v-4.219h-7.647zM645.76 24.22h7.647V20h-7.647zM645.76 17.422h7.647v-4.219h-7.647zM861.838 11.016h7.647V6.797h-7.647zM842.189 17.813h7.647v-4.219h-7.647zM832.365 11.016h7.647V6.797h-7.647zM822.541 17.813h7.647v-4.219h-7.647zM822.541 11.016h7.647V6.797h-7.647zM822.541 31.408h7.647V27.19h-7.647zM812.717 17.813h7.647v-4.219h-7.647zM812.717 24.611h7.647v-4.219h-7.647zM802.893 17.813h7.647v-4.219h-7.647zM802.893 11.016h7.647V6.797h-7.647zM802.893 38.205h7.647v-4.219h-7.647zM802.893 31.408h7.647V27.19h-7.647z"/></g></g></svg>