<svg viewBox="0 0 4634 878" xmlns="http://www.w3.org/2000/svg" xmlns:xlink="http://www.w3.org/1999/xlink"><title>PK1000 (Checkout)</title><defs><path id="a" d="M0 .6v641.42h4113.332V.6H0z"/></defs><g fill="none" fill-rule="evenodd"><g transform="rotate(180 2187.102 380.287)"><mask id="b" fill="#fff"><use xlink:href="#a"/></mask><path d="M4110.84 513.807c-2.637-13.699-6.565-25.596-12.442-40.164-8.238-20.427-20.723-43.814-33.39-66.072-15.71-27.598-34.5-54.166-54.915-80.189-30.944-39.443-81.922-91.632-122.58-135.93-40.658-44.3-117.732-114.702-163.846-149.89-20.17-15.393-44.59-26.052-65.516-31.59-26.904-7.123-74.835-9.249-86.662-9.063-14.665.232-147.432.954-147.432.954l-35.25-.013-168.771-.063-975.523-.359-285.438-.106-12.364-.004-57.088-.022-56.556-.02-51.363-.02h-2.447L0 .6v76.867l55.84.013 6.902.002a28573437.803 28573437.803 0 0 1 68.512.02l5.64.001 12.765.004 17.151.005 6.717.003 18.337.006 15.026.005 12.698.005c4.421 0 8.832.003 13.245.005a22513242.97 22513242.97 0 0 1 28.883.01l12.186.004 10.124.004 16.859.008c4.514.001 9.021.002 13.528.005l11.622.005a21237332.998 21237332.998 0 0 1 44.287.018l8.136.004 15.005.006 16.54.008a19537082.099 19537082.099 0 0 1 24.064.011l14.669.007 7.758.004 19.618.01a80998.623 80998.623 0 0 1 22.2.011l16.849.008 9.244.004 10.897.006 17.696.01 8.386.004 18.976.01 8.454.005 12.168.006 17.866.01 8.976.005 19.85.012 3.866.002a106351.275 106351.275 0 0 1 29.542.018 18160970.727 18160970.727 0 0 1 78.94.047h.352l24.358.016h2.529l45.023.03 46.66.03 6.293.004h.53l24.158.017 3.594.003 74.324.05c11.57.01 23.121.017 34.664.025a20582747.913 20582747.913 0 0 1 57.825.042c5.373.003 10.741.008 16.109.012l63.334.046 6.942.006a1406741.03 1406741.03 0 0 1 134.035.101l7.885.006 62.023.048 16.373.013a49706005.382 49706005.382 0 0 1 46.827.036l183.675.144 1.909.002h.695l96.996.076 4.551.003.926.001h.952c.054.347.102.698.15 1.047-.022-.35-.05-.697-.074-1.046h1.146l.295.001.008.07-.004-.07H1725.997l.366.001 1.853.001a3688595.582 3688595.582 0 0 0 148.517.113l.625.001h1.318l1.65.002h.502c.424 0 .846 0 1.27.002H1882.871c-.015.45-.033.9-.054 1.346.067-.386.128-.776.186-1.167l.03-.18h.085c.2.002.399.002.598.002h.081v.035c0-.012.002-.023.004-.035H1884.006a3085566.762 3085566.762 0 0 0 352.91.245h.036l58.373.037h.199l.954.001.058.264c-.017-.087-.032-.177-.048-.264l4.845.003h1.974a24434352.928 24434352.928 0 0 0 48.064.03l4.37.002c-.089.488-.178.972-.26 1.464.103-.49.212-.977.322-1.464 7.09.004 14.188.009 21.29.012 12.083.008 24.176.014 36.293.02.32.002.64.002.958.002.09.389.178.78.265 1.174-.073-.393-.147-.784-.222-1.174l5.053.002h.103l.92.001h.424l.912.001h.802l.918.001 3.794.002 22.481.012 6.687.004c8.421.004 16.852.01 25.29.013l3.13.002 2.77.001h.427l2.12.001h.001l3.697.002h.043l.942.001h1.136l1.668.001a1782064.798 1782064.798 0 0 0 101.005.05l2.32.001 20.082.01h1.803l26.16.011 8.478.004 21.842.01 11.91.004 12.786.006 17.687.006 20.269.008 6.412.003h1.042l1.384.001h1.694l3.598.002h4.585c.281.002.562.002.843.002h3.14c1.149.002 2.296.002 3.445.002l3.893.001 2.077.001h1.702l3.553.002 4.8.002 4.341.001 28.362.01h1.487a28559556.92 28559556.92 0 0 0 35.783.012h.983l26.354.009h2.357l4.18.001 3.736.001h.98c.072.434.152.87.236 1.31l.055-.08a255.6 255.6 0 0 1-.286-1.23l.95.001.033.144c.028-.048.053-.096.08-.144h1.064l-.037.067c.119.495.235.989.351 1.483l.045-.14c-.09-.47-.188-.94-.286-1.41 28.472.009 57.08.016 85.836.023H2987.276l1.37.001h2.224l.952.001h3.682l.9.001h3.075l1.046.001h1.173l27.016.006h2.267l24.533.004 2.423.001 23.27.004h5.538l23.52.005h.988l76.586.009h10.624l20.577.003h27.869l1.228.002h32.417l40.197.001h1.448a153.27 153.27 0 0 0 1.087.002l.728.001.675.001.64.001c.27 0 .542 0 .824.002h.566c.276.002.554.002.841.003l1.098.002.466.001 3.662.01.222.001 1.68.006.537.002a12760.146 12760.146 0 0 0 3.75.013c.196 0 .39.002.587.003l1.659.006.679.003 1.512.006.834.004 4.836.022.833.004 1.882.01.49.002a21628.468 21628.468 0 0 0 2.897.015l1.894.01.878.005 1.921.01a24101.808 24101.808 0 0 0 3.249.02l.404.002 5.821.037 1.12.008 1.797.012 1.295.009 1.625.011 1.577.012 1.333.01 1.583.011 1.68.013 1.282.01 2.127.017.909.008c40.298.329 85.791.951 97.688 2.054 13.758 1.272 25.602 4.03 35.426 7.048 16.385 5.036 20.8 6.32 35.555 12.67 13.566 5.834 35.53 18.53 48.861 28.222 13.33 9.693 41.57 37.608 49.457 44.283 7.89 6.674 72.822 72.818 86.779 87.383 13.957 14.564 80.102 108.624 91.631 125.01 11.53 16.383 54.617 83.136 54.617 83.136s60.076 111.05 70.392 127.436c10.317 16.384 17.599 29.128 27.309 35.803 9.709 6.675 23.059 12.744 52.793 7.28 29.735-5.46 47.334-25.485 58.863-42.477 11.53-16.991 17.297-39.45 18.205-57.65.37-7.39-.615-16.596-2.415-25.967" fill="#1B1C1C" mask="url(#b)"/></g><g fill="#FFF"><path d="M1265.593 743.144h-1.061v6.794h1.061zM1268.064 744.206h.55c.787 0 1.382.22 1.786.668.356.394.549.97.549 1.666 0 .687-.193 1.273-.55 1.667-.403.44-.998.669-1.786.669h-.549v-4.67zm.55 5.732c.549 0 1.044-.092 1.483-.265.43-.165.796-.422 1.09-.752.54-.594.824-1.419.824-2.38 0-.961-.284-1.786-.824-2.381a2.774 2.774 0 0 0-1.09-.75c-.44-.184-.934-.267-1.484-.267H1267.002v6.795h1.611zM1276.036 746.083h-2.856v.915h2.856zM1278.515 746.861l2.692 3.077h1.328l-2.994-3.525 2.49-3.27h-1.336l-2.18 2.803v-2.803h-1.061v6.795h1.061zM1284.492 743.144h-1.062v6.794h1.062zM1286.615 748.94a3.37 3.37 0 0 0 1.08.733c.412.173.86.265 1.318.265.459 0 .907-.092 1.329-.265.191-.083.375-.184.549-.294v-1.446a3.33 3.33 0 0 1-.229.256 2.324 2.324 0 0 1-3.296 0 2.321 2.321 0 0 1 0-3.297 2.282 2.282 0 0 1 1.647-.686c.55 0 1.063.183 1.475.521v-1.254c-.045-.019-.101-.046-.146-.064a3.304 3.304 0 0 0-1.329-.265c-.458 0-.906.081-1.318.265a3.202 3.202 0 0 0-1.08.723 3.474 3.474 0 0 0-.733 1.08c-.174.422-.265.87-.265 1.328 0 .458.09.907.265 1.32.174.412.421.768.733 1.08M1293.158 746.861l2.692 3.077h1.328l-2.994-3.525 2.49-3.27h-1.336l-2.18 2.803v-2.803h-1.061v6.795h1.061zM1301.754 747.965h1.684v-.652h-1.684v-1.23h2.05v-.647h-2.771v4.611h.72zM1307.3 750.047v-.652h-1.925v-3.959h-.721v4.611h.714zM1310.592 750.047v-.652h-2.045v-1.43h1.685v-.652h-1.685v-1.23h2.045v-.647h-2.765v4.611h.714zM1312.025 750.047l1.224-1.802 1.23 1.802h.908l-1.684-2.467 1.467-2.144h-.907l-1.014 1.479-1.006-1.479h-.908l1.461 2.144-1.678 2.467zM1318.807 746.082h.647c.297 0 .521.088.67.249.168.187.205.447.205.628 0 .186-.037.447-.205.634-.149.16-.373.241-.67.241h-.647v-1.752zm0 2.405h.647c.608 0 .962-.248 1.148-.46.25-.267.374-.64.374-1.068 0-.43-.125-.796-.374-1.07-.186-.204-.54-.453-1.148-.453H1318.086v4.61h.72v-1.559zM1322.29 746.088h.647c.299 0 .522.082.665.243.174.186.204.448.204.634 0 .18-.03.44-.204.627-.143.162-.366.25-.665.25h-.646v-1.754zm0 2.399h.529l1.162 1.56h.814l-1.242-1.666c.248-.087.422-.23.533-.354.243-.266.373-.64.373-1.062 0-.43-.13-.802-.373-1.07-.186-.21-.54-.459-1.149-.459H1321.57v4.611h.722v-1.56zM1326.297 746.623a1.575 1.575 0 0 1 2.237 0 1.575 1.575 0 0 1 0 2.237 1.574 1.574 0 0 1-2.237 0 1.573 1.573 0 0 1 0-2.237m-.51 2.747a2.285 2.285 0 0 0 1.628.677c.311 0 .616-.062.901-.18.274-.118.516-.286.733-.497.211-.211.373-.454.491-.734.119-.28.18-.583.18-.895 0-.31-.061-.615-.18-.9a2.411 2.411 0 0 0-.49-.734 2.412 2.412 0 0 0-.734-.49 2.36 2.36 0 0 0-.901-.18 2.311 2.311 0 0 0-1.628.67c-.211.218-.379.46-.497.734a2.36 2.36 0 0 0-.18.9c0 .312.062.615.18.895s.286.523.497.734M1331.252 747.965h1.684v-.652h-1.684v-1.23h2.051v-.647h-2.772v4.611h.721zM1334.872 745.436h-.72v4.61h.72zM1338.476 750.047v-.652h-1.927v-3.959h-.72v4.611h.714zM1341.767 750.047v-.652h-2.044v-1.43h1.684v-.652h-1.684v-1.23h2.044v-.647h-2.765v4.611h.714zM2617.695 759.326l106.193.039 3.991-4.678 17.432-20.432h-76.469l1.597-1.858.688-.8 2.701-3.144.72-.84 2.949-3.43.75-.872 3.15-3.666.803-.934 3.49-4.06.908-1.058 4.285-4.986 1.405-1.635 9.231-10.742 1.792-2.085.53-.617 1.027-1.195.21-.244.329-.383.033-.039.18-.208.053-.062.063-.074.03-.034.182-.212.372-.434.094-.108.098-.115.12-.14.01-.012.051-.058 6.959-8.097-6.964-.006h-.023l-.027-1.491c-.013.5-.029.997-.046 1.491h-.043c-.023-.693-.048-1.387-.075-2.084a123.533 123.533 0 0 1-.133 2.084h-.22l-.073-1.332c-.048.448-.1.89-.153 1.331h-.05l-.075-1.22-.046-.733-.038-.6c.01.373.02.748.028 1.12-.013.482-.03.957-.046 1.433h-.046c-.022-.678-.047-1.358-.074-2.04l.009-.152-.011.077c-.051.332-.11.653-.164.98-.062.372-.122.745-.19 1.11-.023-.434-.048-.868-.073-1.303-.047.445-.095.89-.149 1.327H2704.25l-47.181-.037-3.395 4.089-.731.88-.284.342-.759.913-.042.051-.612.737-.174.209-.279.336-.33.399-.03.036-.219.262-.21.254-.051.06-.169.204-.182.22-.092.11-.17.205-.214.259-.212.255-.255.306-40.868 49.213c-5.398 6.461-.688 15.06 9.904 17.918M2540.942 696.392l.053-.061.002.345.133 27.502h-24.666l24.478-27.786zm-66.55 11.327l-1.228 1.349-4.137 4.546c-.32.353-.642.705-.964 1.058-1.218 1.34-2.439 2.68-3.659 4.021l-.86.945-3.362 3.694-.777.855-3.018 3.316c-.234.257-.469.516-.703.771l-2.669 2.933-.643.708-2.32 2.55-.603.662-1.972 2.166c-.195.216-.387.426-.582.64l-1.625 1.787-.58.636-17.197 18.9 57.088.02 10.975-12.09 45.581-.091v12.203l51.363.018-.001-25.188V696.27h18.667c12.58 0 24.023-3.998 29.353-10.256l3.37-3.956-48.268-.037h-.394c0-.1 0-.199-.002-.3 0-.177-.002-.355-.004-.534-.002.28-.007.556-.012.834h-.044c-.012-.625-.023-1.25-.036-1.873-.018.456-.04.907-.064 1.358l-.005-.344-.025-1.686-.021.133a62.845 62.845 0 0 0-.325 2.412h-.388l-.002-.287-.003-.476-.014.762h-.043l-.038-1.894c-.017.464-.038.925-.063 1.385l-.004-.352c-.008.288-.018.573-.022.861H2593.704l-48.994-.037H2543.792a80.616 80.616 0 0 1-.165-1.102l.08 1.101h-1.161a85.863 85.863 0 0 0-.2-1.51l.104 1.51-.35-.002h-.294a48.818 48.818 0 0 0-.487-2.228c.112.734.213 1.477.304 2.228h-.996l-.926-.001h-.987l-.985-.001-2.31-.002-1.242-.001c-12.035-.01-24.074-.019-36.117-.027h-.207l-3.801 4.174-1.225 1.345-.983 1.08-.223.245c-.061.067-.12.133-.184.2-.06.07-.124.138-.186.206l-.124.136-.18.198-.139.152-.244.27-.104.113-.164.18-.125.137-.213.234-.264.29-.212.233-1.124 1.234-1.216 1.337-7.124 7.825-5.626 6.182zM2340.236 698.106l-2.06 2.381-.582.673-1.732 2-.577.668-1.388 1.605-.589.68-1.025 1.185-.628.725-.656.759-.67.773-.313.362-.728.84-41.922 48.447 120.466.044c4.704-1.076 8.66-3.048 11.02-5.64l17.686-19.428-61.32-.023 9.228-10.115H2445.676l.682-.75.58-.636 1.892-2.076.6-.66 2.235-2.453.641-.703 2.58-2.833.7-.768 2.926-3.212.775-.85 2.732-3h-64.277l9.073-10.126H2471.163l12.742-14.038-44.941-.033-.765-.001h-.909c-.016-.129-.036-.256-.052-.385.008.128.017.257.027.385l-.313-.001h-.214c-.068-.7-.133-1.403-.193-2.11l.128 2.11h-1.15c-.054-.442-.109-.882-.167-1.32.032.44.064.878.094 1.32h-.841c-.222-.002-.445-.002-.669-.002l-52.374-.038h-.865l.032-.9c-.04.299-.076.6-.112.9h-.847c-.07-.002-.142-.002-.213-.002.019-.332.036-.668.053-1.002-.056.335-.11.672-.173 1.002h-.915a52.12 52.12 0 0 0 .361-2.215 32.958 32.958 0 0 1-.644 2.214h-2.08l-1.036-.001-2.898-.002-1.426-.001c-5.496-.005-10.994-.009-16.493-.012l-3.488 4.03-.736.851-2.903 3.355-.689.796-2.645 3.056-.643.743-2.368 2.736-.602.696zM2269.53 759.197c4.271-1.148 7.829-3.055 9.982-5.496l17.246-19.82-34.852.12-1.134.004-2.148.007-1.334.004-4.208.015-1.986.006-23.029.08 1.786-.677 1.856-.703 11.878-4.498 9.314-3.528 6.226-2.358 1.643-.623 1.778-.673 1.262-.478.688-.26 1.116-.423.156-.06 1.034-.391 59.393-22.496 1.054-1.082.387-.397.47-.482.013-.015.362-.372.3-.307.157-.162.612-.63.13-.13.721-.743.476-.488.673-.691.863-.887.63-.645 1.281-1.318.615-.632 1.681-1.726.617-.633 2.102-2.159.643-.66.931-.957-2.455-.001-1.453-.001-3.127-.003h-1.042l-1.362-.002H2329.139l-.521-.002h-.353a87.914 87.914 0 0 1-.188-1.351l.036.439.077.912h-.906l-.066-.507.042.506h-1.626c-17.855-.014-35.73-.026-53.627-.038h-1.729l-.188-.002h-2.492l-.312-.001h-.631l-.82-.001a83.31 83.31 0 0 0 .374-1.993 65.89 65.89 0 0 1-.496 1.993l-.98-.001-56.495-.038h-.989l-.366-.001h-1.078l-.864-.001h-.087l-.613-.001h-1.044l-.393-.001h-1.551l-4.813-.004-13.707 14.636 19.573-.039h.477l.455-.002h.48l.352-.001h.231l.64-.002h.074l.882-.002h.13l.967-.002h.394l.989-.003h.75l1.03-.003 1.264-.002 1.1-.003 2.075-.004 1.257-.003 37.12-.073-22.373 8.084-1.785.645-5.395 1.95-1.239.447-3.433 1.24-1.05.38-2.362.853-.96.347-1.663.601-.922.333-1.159.418-.896.325-.78.281-.89.322-.48.173-.886.32-.238.087-.887.32-.042.014-.89.322-25.467 9.202-3.883 1.403c-15.44 6.445-27.406 17.24-34.625 23.81l-10.976 11.037 49.484.019 90.354.033zM1257.787 749.938v-3.608l2.133 3.169 2.125-3.169v3.608h1.071v-7.106l-3.196 4.762-3.195-4.762v7.106z"/></g><g fill="#E4AD24"><path d="M1983.394 719.654c22.753 0 31.282-15.634 35.33-34.776-3.597 21.217-11.288 38.565-35.33 38.565-16.23 0-20.886-13.075-23.799-28.88 3.09 14.093 8.462 25.091 23.8 25.091m0 8.506c-16.232 0-20.887-13.077-23.8-28.884 3.09 14.095 8.461 25.094 23.8 25.094 22.753 0 31.28-15.635 35.329-34.78-3.596 21.22-11.287 38.57-35.33 38.57m0 4.716c-16.23 0-20.886-13.077-23.799-28.883 3.09 14.094 8.461 25.093 23.8 25.093 22.752 0 31.28-15.633 35.329-34.777-3.597 21.218-11.288 38.567-35.33 38.567m0 4.717c-16.23 0-20.886-13.078-23.799-28.884 3.09 14.094 8.461 25.094 23.8 25.094 22.753 0 31.28-15.635 35.329-34.779-3.596 21.218-11.287 38.569-35.33 38.569m0 4.715c-16.23 0-20.886-13.076-23.799-28.881 3.09 14.093 8.462 25.092 23.8 25.092 22.752 0 31.28-15.634 35.329-34.777-3.597 21.218-11.288 38.566-35.33 38.566m0 4.717c-16.23 0-20.886-13.078-23.799-28.884 3.09 14.094 8.461 25.094 23.8 25.094 22.753 0 31.28-15.636 35.329-34.78-3.596 21.22-11.287 38.57-35.33 38.57m0 .926c32.803 0 36.049-32.488 38.913-61.151.174-1.735.348-3.461.526-5.174h-.955l-.455-.001h-.979l-.291-.001h-.915l-.774-.001c-3.706 20.545-11.584 37.105-35.07 37.105-16.23 0-20.886-13.078-23.799-28.884 3.09 14.094 8.461 25.094 23.8 25.094 22.168 0 30.831-14.846 35.006-33.315h-.884c-4.08 18.304-12.464 32.388-34.123 32.388-16.23 0-20.886-13.076-23.799-28.883 3.09 14.094 8.461 25.093 23.8 25.093 20.246 0 29.227-12.383 33.813-28.598l-.87-.001c-4.476 15.951-13.186 27.673-32.944 27.673-15.826 0-20.646-12.433-23.576-27.705h-.945l-.663-.001h-.938l-.613-.001h-.91c-.057-.274-.117-.545-.175-.817l.149.817-.904-.001c.267 1.289.516 2.59.755 3.9a109.088 109.088 0 0 0-.913-3.9h-.92c.704 2.797 1.3 5.684 1.833 8.617-.633-2.943-1.367-5.835-2.256-8.618h-.913c1.34 4.209 2.33 8.719 3.169 13.334-1.001-4.649-2.248-9.175-3.971-13.335h-.917c3.39 8.132 4.937 17.874 6.457 27.484 3.163 19.996 6.15 38.882 26.251 38.882M1625.24 724.54c8 15.544 14.909 28.97 38.358 28.97 53.83 0 65.29-10.805 74.496-19.487 5.906-5.567 10.572-9.966 25.043-9.966 18.706 0 27.413 6.065 36.631 12.487 10.72 7.468 21.805 15.19 49.173 15.19 25.406 0 29.54-22.234 33.538-43.736 1.716-9.228 3.456-18.583 6.825-26.446h-1.026c-2.15 5.155-3.633 10.91-4.879 16.84 1.12-5.813 2.365-11.56 4.13-16.84-.332-.002-.663-.002-.995-.002-1.262 3.858-2.258 7.95-3.135 12.13.793-4.123 1.649-8.215 2.707-12.13h-.966a142.791 142.791 0 0 0-1.74 7.409c.48-2.492.982-4.972 1.54-7.41h-.953c-.202.893-.398 1.792-.588 2.695.174-.9.352-1.799.532-2.695h-.916c.127-.673.255-1.345.384-2.017-.14.67-.278 1.343-.414 2.016h-2.697c-3.843 19.427-9.235 36.246-31.347 36.246-27.534 0-39.098-7.825-50.28-15.393-9.337-6.317-18.155-12.284-35.524-12.284-16.048 0-21.13 4.88-27.015 10.53-8.78 8.431-19.707 18.923-72.524 18.923-23.076 0-29.868-13.232-37.733-28.554-1.6-3.118-3.257-6.345-5.116-9.585h-1.073c1.964 3.382 3.696 6.755 5.365 10.008 8.003 15.592 14.915 29.058 38.557 29.058 53.19 0 64.266-10.636 73.166-19.181 5.977-5.74 10.698-10.273 26.373-10.273 17.085 0 25.79 5.89 35.004 12.126 10.772 7.29 22.982 15.552 50.8 15.552 21.818 0 27.946-16.4 31.775-34.65-3.89 20.337-8.835 38.44-31.775 38.44-27.466 0-38.943-7.798-50.043-15.338-9.34-6.346-18.162-12.34-35.761-12.34-15.875 0-20.949 4.86-26.825 10.487-8.824 8.45-19.807 18.967-72.714 18.967-23.05 0-29.84-13.228-37.704-28.544-2.38-4.634-4.886-9.509-7.994-14.313h-1.115c3.252 4.939 5.836 9.966 8.284 14.737 8.003 15.585 14.914 29.046 38.529 29.046 53.28 0 64.41-10.66 73.354-19.224 5.968-5.715 10.683-10.23 26.185-10.23 17.315 0 26.023 5.916 35.24 12.18 10.694 7.264 22.812 15.498 50.564 15.498 21.818 0 27.946-16.4 31.775-34.65-3.89 20.338-8.835 38.44-31.775 38.44-27.4 0-38.79-7.77-49.806-15.285-9.343-6.373-18.167-12.393-35.998-12.393-15.701 0-20.768 4.84-26.635 10.443-8.869 8.47-19.906 19.01-72.904 19.01-23.022 0-29.813-13.221-37.676-28.53-3.168-6.166-6.555-12.758-11.295-19.043l-1.185-.001c4.943 6.405 8.416 13.162 11.656 19.468 8.002 15.578 14.913 29.033 38.5 29.033 53.37 0 64.555-10.683 73.544-19.267 5.959-5.692 10.665-10.187 25.995-10.187 17.546 0 26.255 5.942 35.476 12.233 10.613 7.24 22.642 15.446 50.328 15.446 21.82 0 27.946-16.402 31.775-34.654-3.89 20.34-8.834 38.444-31.775 38.444-27.335 0-38.638-7.744-49.57-15.233-9.345-6.4-18.17-12.446-36.234-12.446-15.528 0-20.587 4.819-26.445 10.399-8.913 8.489-20.005 19.055-73.094 19.055-22.994 0-29.785-13.216-37.648-28.518-3.975-7.737-8.299-16.145-15.202-23.774h-1.29c7.2 7.725 11.616 16.313 15.668 24.198 8.001 15.571 14.913 29.02 38.472 29.02 53.46 0 64.701-10.707 73.733-19.31 5.95-5.668 10.65-10.143 25.806-10.143 17.776 0 26.487 5.966 35.71 12.283 10.534 7.216 22.473 15.395 50.094 15.395 21.817 0 27.946-16.399 31.774-34.649-3.89 20.337-8.835 38.438-31.774 38.438-27.27 0-38.487-7.716-49.337-15.179-9.345-6.427-18.17-12.498-36.467-12.498-15.355 0-20.406 4.798-26.254 10.354-8.956 8.51-20.103 19.1-73.285 19.1-22.966 0-29.757-13.21-37.62-28.506-4.82-9.377-10.15-19.737-19.964-28.505h-1.445c10.248 8.825 15.684 19.391 20.586 28.928 8 15.565 14.91 29.009 38.443 29.009 53.552 0 64.847-10.731 73.923-19.355 5.94-5.642 10.63-10.099 25.616-10.099 18.008 0 26.72 5.992 35.942 12.336 10.966 7.542 22.305 15.342 49.862 15.342 21.818 0 27.946-16.4 31.774-34.65-3.89 20.338-8.835 38.44-31.774 38.44-27.204 0-38.337-7.69-49.104-15.127-9.345-6.455-18.171-12.552-36.7-12.552-15.183 0-20.224 4.779-26.063 10.31-9 8.53-20.201 19.144-73.476 19.144-22.939 0-29.73-13.204-37.591-28.493-5.723-11.128-12.163-23.642-25.963-33.235h-1.702c14.457 9.587 21.024 22.347 26.84 33.66 8.002 15.557 14.911 28.994 38.416 28.994 53.644 0 64.994-10.755 74.114-19.397 5.929-5.618 10.611-10.056 25.425-10.056 18.24 0 26.95 6.017 36.174 12.387 10.882 7.517 22.137 15.291 49.63 15.291 21.82 0 27.946-16.402 31.775-34.653-3.89 20.338-8.834 38.443-31.775 38.443-27.14 0-38.189-7.664-48.874-15.076-9.343-6.48-18.168-12.602-36.93-12.602-15.01 0-20.044 4.756-25.87 10.265-9.045 8.548-20.3 19.188-73.67 19.188-22.91 0-29.7-13.198-37.561-28.48-6.724-13.07-14.436-28.05-33.893-37.967h-2.154c20.505 9.795 28.381 25.093 35.223 38.391 8 15.551 14.91 28.983 38.386 28.983 53.737 0 65.141-10.78 74.305-19.443 5.918-5.592 10.592-10.01 25.234-10.01 18.472 0 27.182 6.04 36.403 12.437 10.802 7.492 21.97 15.24 49.4 15.24 21.818 0 27.947-16.398 31.775-34.648-3.89 20.336-8.835 38.438-31.774 38.438-27.077 0-38.04-7.638-48.644-15.024-9.341-6.508-18.164-12.654-37.16-12.654-14.839 0-19.862 4.735-25.678 10.219-9.088 8.57-20.398 19.235-73.861 19.235-22.884 0-29.673-13.193-37.534-28.469-7.91-15.37-17.183-33.385-45.312-42.698l-3.165-.002c30.048 8.93 39.572 27.421 47.653 43.125M1481.25 718.125c.066.362.131.721.19 1.078-.075-.334-.152-.668-.23-1.004l.04-.074m-.718-2.763l-.13-.542c.04-.06.084-.117.124-.176.145.64.283 1.273.413 1.903-.024.063-.05.124-.076.187l-.331-1.372m-.977-4.15c.041-.048.086-.095.126-.143.186.763.367 1.523.545 2.278-.043.076-.08.153-.124.228-.188-.787-.37-1.575-.547-2.363m-.762-3.878c.198.862.404 1.723.61 2.581-.035.05-.066.1-.102.149a75.876 75.876 0 0 1-.529-2.71l.02-.02m.88-24.605c.158.653.312 1.302.466 1.948-.042.063-.093.125-.133.188-.15-.631-.295-1.262-.438-1.894.036-.08.068-.161.104-.242m1.52 2.064c.09.469.173.935.25 1.396-.1-.437-.201-.877-.306-1.318.018-.026.038-.052.055-.078m.06 28.616c.066.36.131.72.19 1.077-.075-.334-.152-.668-.23-1.004.012-.024.027-.048.04-.073m-1.112-24.016c-.042.063-.093.124-.133.188-.15-.63-.295-1.262-.438-1.894.036-.08.068-.16.104-.241.159.653.313 1.301.467 1.947m1.112 19.3c.066.36.131.721.19 1.078-.075-.334-.152-.669-.23-1.004.012-.025.027-.05.04-.074m-1.695-6.913c.041-.049.086-.095.126-.144.185.764.367 1.523.545 2.279-.043.075-.08.153-.124.228a180.91 180.91 0 0 1-.547-2.363m.671-7.298c-.043.076-.08.153-.124.228-.184-.768-.361-1.537-.535-2.306.036-.08.068-.161.104-.242.19.778.373 1.551.555 2.32m1.024 9.495c.066.36.131.72.19 1.077-.075-.333-.152-.669-.23-1.004.012-.024.027-.048.04-.073m-1.695-6.913c.041-.048.086-.096.126-.144.186.764.367 1.523.545 2.278-.043.075-.08.153-.124.228a180.91 180.91 0 0 1-.547-2.362m1.695 2.196c.066.362.131.721.19 1.078-.075-.334-.152-.668-.23-1.004l.04-.074m0-4.715c.066.36.131.72.19 1.076a254.57 254.57 0 0 0-.23-1.003c.012-.025.027-.049.04-.073m-.724 1.234c.145.64.283 1.273.413 1.903-.024.063-.05.125-.076.187l-.331-1.372-.13-.541c.04-.06.084-.118.124-.177m-1.123-.012c-.035.049-.066.1-.102.148a79.798 79.798 0 0 1-.365-1.792c.013-.047.03-.093.044-.14.14.595.28 1.19.423 1.784m-.102 4.865a75.876 75.876 0 0 1-.529-2.71l.02-.02c.2.862.405 1.722.611 2.581-.035.049-.066.1-.102.149m1.23.58l-.129-.54c.04-.06.084-.117.124-.177.145.639.283 1.273.413 1.903-.024.063-.05.124-.076.187l-.331-1.373m.658-11.703c.09.469.174.935.25 1.396-.1-.437-.2-.876-.305-1.317l.055-.08m-.752 1.165c.178.771.344 1.535.501 2.293-.024.062-.05.124-.076.187l-.331-1.373-.214-.89c.04-.072.079-.145.12-.217m-1.107.076c-.029.055-.062.108-.09.161a73.26 73.26 0 0 1-.305-1.503c.013-.046.03-.094.044-.14.116.495.233.989.351 1.482m-.03 14.598a75.876 75.876 0 0 1-.529-2.71c.007-.006.014-.012.02-.02.2.862.405 1.723.611 2.582-.035.049-.066.1-.102.148m1.23.582l-.129-.541c.04-.06.084-.117.124-.177.145.64.283 1.274.413 1.904-.024.062-.05.124-.076.187l-.331-1.373m-.094-19.972c.178.774.345 1.54.503 2.3-.033.042-.058.086-.09.128-.106-.44-.212-.88-.32-1.321-.07-.297-.142-.594-.213-.89.04-.073.079-.145.12-.217m-1.107.077c-.029.053-.062.106-.09.16a73.26 73.26 0 0 1-.305-1.504c.013-.046.03-.093.044-.14.116.495.233.99.351 1.484m.224 20.462c.041-.048.086-.095.126-.144.185.765.367 1.523.545 2.278-.043.076-.08.153-.124.228-.188-.786-.37-1.574-.547-2.362m.977 4.15l-.13-.542c.04-.059.084-.116.124-.177.145.64.283 1.273.413 1.903-.024.063-.05.125-.076.187l-.331-1.372m-33.704 37.306c17.82 0 28.329-2.807 33.071-8.833 2.709-3.443 3.274-7.605 2.871-12.168.158-1.512.144-3.087 0-4.717.158-1.512.144-3.087 0-4.716.158-1.512.144-3.087 0-4.716.158-1.512.144-3.088 0-4.716.158-1.512.144-3.087 0-4.717.158-1.512.144-3.087 0-4.715.158-1.512.144-3.088 0-4.717.158-1.512.144-3.087 0-4.716.061-.582.103-1.171.114-1.773 2.337-2.405 5.594-4.422 9.795-6.058l-2.358-.001c-3.026 1.365-5.504 2.959-7.452 4.78a32.933 32.933 0 0 0-.261-3.144 19.12 19.12 0 0 1 1.73-1.638h-1.398c-.169.156-.34.312-.5.472-.025-.157-.046-.314-.072-.473h-.941l.013.087-.02-.087c-.092-.409-.188-.82-.285-1.23-.248.357-.483.718-.697 1.085l.033.145c.165.724.322 1.442.47 2.156-.033.042-.058.086-.09.128a1238.784 1238.784 0 0 1-.533-2.212l.04-.072.08-.145c-.097-.424-.198-.852-.3-1.28-.042.064-.093.125-.133.189-.247.384-.464.775-.674 1.168l-.038.067c-.017.031-.036.063-.052.094l-.02-.094c-.097-.47-.196-.94-.285-1.41a17.88 17.88 0 0 0-.37 1.41H1478.277c-.064-.305-.125-.61-.185-.914-.038-.191-.077-.382-.113-.574a19.17 19.17 0 0 0-.371 1.488H1477.143c-.002.842.024 1.69.09 2.548a29.033 29.033 0 0 0 0 4.715 29.044 29.044 0 0 0 0 4.717 29.058 29.058 0 0 0-.001 4.709c-5.26 4.373-15.258 6.506-30.404 6.506-21.728 0-36.606-9.314-48.48-23.215l-1.229-.001c12.096 14.42 27.29 24.143 49.709 24.143 14.966 0 24.756-1.989 30.324-6.193a30.827 30.827 0 0 0 .08 3.476c-5.26 4.372-15.258 6.506-30.404 6.506-24.105 0-39.784-11.458-52.276-27.932l-1.166-.001c12.697 16.98 28.654 28.86 53.442 28.86 15.133 0 24.977-2.033 30.51-6.336.109 1.036.254 2.078.432 3.128-5.096 4.699-15.246 6.997-30.942 6.997-26.344 0-42.624-13.685-55.679-32.65h-1.134c13.252 19.46 29.785 33.577 56.813 33.577 15.71 0 25.73-2.185 31.135-6.831.177.946.376 1.895.585 2.847-4.797 5.224-15.182 7.774-31.72 7.774-28.48 0-45.197-15.999-58.793-37.367h-1.107c13.789 21.853 30.734 38.293 59.9 38.293 16.555 0 26.792-2.427 31.965-7.603.198.86.404 1.721.61 2.58-.08.11-.147.225-.231.333-4.492 5.705-15.07 8.48-32.344 8.48-30.543 0-47.558-18.393-61.702-42.084h-1.08c14.334 24.161 31.553 43.01 62.782 43.01 17.567 0 28.016-2.734 32.853-8.586.185.765.367 1.523.545 2.278-.308.556-.647 1.1-1.054 1.618-4.492 5.706-15.07 8.48-32.344 8.48-32.542 0-49.728-20.88-64.447-46.8l-1.07-.001c14.91 26.383 32.28 47.727 65.517 47.727 17.82 0 28.329-2.807 33.071-8.833.229-.291.428-.592.627-.894.145.64.283 1.274.413 1.903-.43 1.106-1 2.157-1.767 3.135-4.492 5.705-15.07 8.48-32.344 8.48-34.494 0-51.736-23.46-67.072-51.518h-1.055c15.53 28.506 32.93 52.444 68.127 52.444 17.82 0 28.329-2.807 33.071-8.834a13.05 13.05 0 0 0 1.35-2.127c.089.473.17.944.243 1.41-.424 1.757-1.161 3.387-2.32 4.86-4.492 5.707-15.07 8.48-32.344 8.48-36.412 0-53.6-26.138-69.615-56.233l-1.052-.001c16.214 30.535 33.544 57.161 70.667 57.161 17.82 0 28.329-2.807 33.071-8.833a13.121 13.121 0 0 0 1.88-3.298c.02.177.037.355.053.531-.275 2.544-1.062 4.878-2.66 6.91-4.492 5.705-15.07 8.48-32.344 8.48-38.303 0-55.334-28.923-72.104-60.951h-1.045c16.976 32.454 34.127 61.877 73.149 61.877 17.82 0 28.329-2.807 33.071-8.834a13.146 13.146 0 0 0 2.011-3.61c-.18 2.875-.964 5.5-2.738 7.754-4.492 5.706-15.07 8.48-32.344 8.48-40.176 0-56.95-31.82-74.564-65.668h-1.044c17.829 34.264 34.701 66.594 75.608 66.594M2109.792 738.497c16.386 0 24.042-13.202 28.094-31.57-3.715 20.287-11.03 35.359-28.094 35.359-21.092 0-28.338-16.796-32.123-37.31 4.102 18.79 11.935 33.52 32.123 33.52m0-4.716c16.387 0 24.043-13.201 28.094-31.572-3.715 20.29-11.03 35.362-28.094 35.362-21.093 0-28.338-16.798-32.124-37.313 4.102 18.791 11.935 33.523 32.124 33.523m0-4.716c16.387 0 24.043-13.202 28.094-31.571-3.715 20.288-11.03 35.36-28.094 35.36-21.092 0-28.338-16.796-32.124-37.311 4.103 18.79 11.936 33.522 32.124 33.522m0-4.716c16.386 0 24.042-13.2 28.094-31.569-3.715 20.287-11.03 35.358-28.094 35.358-21.092 0-28.338-16.796-32.124-37.31 4.103 18.79 11.936 33.521 32.124 33.521m0-4.716c16.387 0 24.043-13.202 28.094-31.571-3.715 20.288-11.03 35.36-28.094 35.36-21.093 0-28.338-16.797-32.124-37.312 4.102 18.79 11.935 33.523 32.124 33.523m0 27.37c-21.093 0-28.338-16.798-32.124-37.313 4.102 18.791 11.935 33.523 32.124 33.523 16.386 0 24.042-13.2 28.094-31.57-3.715 20.288-11.03 35.36-28.094 35.36m0 .927c25.65 0 29.913-32.342 32.436-66.23h-.929l-.297-.001H2140.53l.164-1.858c-.07.622-.144 1.24-.218 1.858h-.618l-.317-.001H2137.288c-3.89 18.72-11.303 32.292-27.496 32.292-19.356 0-27.05-14.147-31.112-32.33h-.954c4.119 18.664 11.973 33.256 32.066 33.256 16.387 0 24.043-13.201 28.094-31.57-3.715 20.287-11.03 35.36-28.094 35.36-21.002 0-28.276-16.651-32.077-37.046h-1.751c-.132 0-.264 0-.395-.002h-2.698c.312 2.406.61 4.846.91 7.3 3.543 28.992 7.206 58.972 36.011 58.972M2765.334 756.139v1.084h7.084v-3.909h-7.084v1.85c-1.482-.333-2.785-1.093-3.946-2.312-4.768-5.01-6.444-17.182-6.704-32.914.155-8.45.742-17.8 1.345-27.343.217-3.445.436-6.939.64-10.449H2754.94l-.093-.002h-.088c-.604 12.47-1.1 24.21-1.066 34.514V723.654c-.048 13.76 1.318 24.45 6.08 29.522 1.53 1.63 3.397 2.615 5.56 2.963"/><path d="M2109.792 710.2c15.459 0 23.147-11.75 27.37-28.504h-.96c-4.145 16.242-11.612 27.577-26.41 27.577-17.646 0-25.597-11.76-29.943-27.613h-.97c4.41 16.346 12.549 28.54 30.913 28.54M1663.598 715.78c53.1 0 64.122-10.612 72.978-19.14 5.985-5.762 10.712-10.313 26.56-10.313 16.857 0 25.556 5.864 34.768 12.072 10.852 7.315 23.152 15.606 51.037 15.606 20.941 0 27.427-15.107 31.3-32.458h-.938c-3.856 17.354-10.063 31.532-30.362 31.532-27.601 0-39.778-8.207-50.52-15.448-9.332-6.29-18.146-12.23-35.285-12.23-16.22 0-21.31 4.9-27.203 10.573-8.736 8.412-19.608 18.88-72.335 18.88-23.103 0-29.896-13.24-37.761-28.567a431.142 431.142 0 0 0-2.517-4.855h-1.05a399.656 399.656 0 0 1 2.743 5.277c8.004 15.599 14.915 29.071 38.585 29.071M1983.394 705.506c18.234 0 27.328-10.045 32.308-23.884h-.866c-4.858 13.49-13.688 22.957-31.442 22.957-14.16 0-19.507-9.955-22.576-22.988l-.958-.001c3.134 13.525 8.626 23.916 23.534 23.916"/><path d="M2109.792 705.483c13.964 0 21.588-9.586 26.045-23.788h-.983c-4.364 13.677-11.742 22.862-25.062 22.862-15.845 0-23.874-9.482-28.494-22.896h-.995c4.697 13.918 12.94 23.822 29.49 23.822M1663.598 711.064c53.013 0 63.979-10.589 72.791-19.096 5.992-5.787 10.725-10.357 26.747-10.357 16.628 0 25.323 5.837 34.528 12.019 10.933 7.339 23.324 15.658 51.277 15.658 19.018 0 26.115-12.458 30.16-27.742h-.934c-3.984 15.136-10.8 26.816-29.226 26.816-27.67 0-39.937-8.236-50.76-15.502-7.28-4.886-14.261-9.548-25.006-11.366-3.022-.51-6.327-.81-10.039-.81-3.95 0-7.238.289-10.045.8-8.847 1.618-12.867 5.493-17.346 9.817-8.692 8.392-19.509 18.837-72.147 18.837-23.132 0-29.924-13.245-37.79-28.58-.02-.042-.042-.083-.063-.125h-1.042l.281.548c8.004 15.605 14.916 29.083 38.614 29.083M3090.458 696.874h-7.085v3.908h7.085zM3090.458 703.17h-7.085v3.91h7.085zM3090.458 709.469h-7.085v3.908h7.085zM3090.458 715.766h-7.085v3.908h7.085zM3090.458 722.063h-7.085v3.908h7.085zM3090.458 728.36h-7.085v3.91h7.085zM3090.458 734.657h-7.085v3.91h7.085zM3090.458 740.954h-7.085v3.91h7.085zM3090.458 747.252h-7.085v3.909h7.085zM3090.458 684.279h-7.085v3.908h7.085zM3090.458 690.577h-7.085v3.908h7.085zM3090.458 753.55h-7.085v3.908h7.085zM3099.56 696.874h-7.085v3.908h7.084zM3099.56 703.17h-7.085v3.91h7.084zM3099.56 709.469h-7.085v3.908h7.084zM3099.56 715.766h-7.085v3.908h7.084zM3099.56 722.063h-7.085v3.908h7.084zM3099.56 728.36h-7.085v3.91h7.084zM3099.56 734.657h-7.085v3.91h7.084zM3099.56 740.954h-7.085v3.91h7.084zM3099.56 747.252h-7.085v3.909h7.084zM3099.56 684.279h-7.085v3.908h7.084zM3099.56 690.577h-7.085v3.908h7.084zM3099.56 753.55h-7.085v3.908h7.084zM3108.66 696.874h-7.084v3.908h7.084zM3108.66 703.17h-7.084v3.91h7.084zM3108.66 709.469h-7.084v3.908h7.084zM3108.66 715.766h-7.084v3.908h7.084zM3108.66 722.063h-7.084v3.908h7.084zM3108.66 728.36h-7.084v3.91h7.084zM3108.66 734.657h-7.084v3.91h7.084zM3108.66 740.954h-7.084v3.91h7.084zM3108.66 747.252h-7.084v3.909h7.084zM3108.66 684.279h-7.084v3.908h7.084zM3108.66 690.577h-7.084v3.908h7.084zM3108.66 753.55h-7.084v3.908h7.084zM3117.762 696.874h-7.085v3.908h7.085zM3117.762 703.17h-7.085v3.91h7.085zM3117.762 709.469h-7.085v3.908h7.085zM3117.762 715.766h-7.085v3.908h7.085zM3117.762 722.063h-7.085v3.908h7.085zM3117.762 728.36h-7.085v3.91h7.085zM3117.762 734.657h-7.085v3.91h7.085zM3117.762 740.954h-7.085v3.91h7.085zM3117.762 747.252h-7.085v3.909h7.085zM3117.762 684.279h-7.085v3.908h7.085zM3117.762 690.577h-7.085v3.908h7.085zM3117.762 753.55h-7.085v3.908h7.085zM3126.863 696.874h-7.084v3.908h7.084zM3126.863 703.17h-7.084v3.91h7.084zM3126.863 709.469h-7.084v3.908h7.084zM3126.863 715.766h-7.084v3.908h7.084zM3126.863 722.063h-7.084v3.908h7.084zM3126.863 728.36h-7.084v3.91h7.084zM3126.863 734.657h-7.084v3.91h7.084zM3126.863 740.954h-7.084v3.91h7.084zM3126.863 747.252h-7.084v3.909h7.084zM3126.863 684.279h-7.084v3.908h7.084zM3126.863 690.577h-7.084v3.908h7.084zM3126.863 753.55h-7.084v3.908h7.084zM3135.964 696.874h-7.084v3.908h7.084zM3135.964 703.17h-7.084v3.91h7.084zM3135.964 709.469h-7.084v3.908h7.084zM3135.964 715.766h-7.084v3.908h7.084zM3135.964 722.063h-7.084v3.908h7.084zM3135.964 728.36h-7.084v3.91h7.084zM3135.964 734.657h-7.084v3.91h7.084zM3135.964 740.954h-7.084v3.91h7.084zM3135.964 747.252h-7.084v3.909h7.084zM3135.964 684.279h-7.084v3.908h7.084zM3135.964 690.577h-7.084v3.908h7.084zM3135.964 753.55h-7.084v3.908h7.084zM3145.066 696.874h-7.085v3.908h7.085zM3145.066 703.17h-7.085v3.91h7.085zM3145.066 709.469h-7.085v3.908h7.085zM3145.066 715.766h-7.085v3.908h7.085zM3145.066 722.063h-7.085v3.908h7.085zM3145.066 728.36h-7.085v3.91h7.085zM3145.066 734.657h-7.085v3.91h7.085zM3145.066 740.954h-7.085v3.91h7.085zM3145.066 747.252h-7.085v3.909h7.085zM3145.066 684.279h-7.085v3.908h7.085zM3145.066 690.577h-7.085v3.908h7.085zM3145.066 753.55h-7.085v3.908h7.085zM3154.168 696.874h-7.085v3.908h7.085zM3154.168 703.17h-7.085v3.91h7.085zM3154.168 709.469h-7.085v3.908h7.085zM3154.168 715.766h-7.085v3.908h7.085zM3154.168 722.063h-7.085v3.908h7.085zM3154.168 728.36h-7.085v3.91h7.085zM3154.168 734.657h-7.085v3.91h7.085zM3154.168 740.954h-7.085v3.91h7.085zM3154.168 747.252h-7.085v3.909h7.085zM3154.168 684.279h-7.085v3.908h7.085zM3154.168 690.577h-7.085v3.908h7.085zM3154.168 753.55h-7.085v3.908h7.085zM3163.27 696.874h-7.085v3.908h7.084zM3163.27 703.17h-7.085v3.91h7.084zM3163.27 709.469h-7.085v3.908h7.084zM3163.27 715.766h-7.085v3.908h7.084zM3163.27 722.063h-7.085v3.908h7.084zM3163.27 728.36h-7.085v3.91h7.084zM3163.27 734.657h-7.085v3.91h7.084zM3163.27 740.954h-7.085v3.91h7.084zM3163.27 747.252h-7.085v3.909h7.084zM3163.27 684.279h-7.085v3.908h7.084zM3163.27 690.577h-7.085v3.908h7.084zM3163.27 753.55h-7.085v3.908h7.084zM3172.37 696.874h-7.084v3.908h7.085zM3172.37 703.17h-7.084v3.91h7.085zM3172.37 709.469h-7.084v3.908h7.085zM3172.37 715.766h-7.084v3.908h7.085zM3172.37 722.063h-7.084v3.908h7.085zM3172.37 728.36h-7.084v3.91h7.085zM3172.37 734.657h-7.084v3.91h7.085zM3172.37 740.954h-7.084v3.91h7.085zM3172.37 747.252h-7.084v3.909h7.085zM3172.37 684.279h-7.084v3.908h7.085zM3172.37 690.577h-7.084v3.908h7.085zM3172.37 753.55h-7.084v3.908h7.085zM3181.472 696.874h-7.085v3.908h7.085zM3181.472 703.17h-7.085v3.91h7.085zM3181.472 709.469h-7.085v3.908h7.085zM3181.472 715.766h-7.085v3.908h7.085zM3181.472 722.063h-7.085v3.908h7.085zM3181.472 728.36h-7.085v3.91h7.085zM3181.472 734.657h-7.085v3.91h7.085zM3181.472 740.954h-7.085v3.91h7.085zM3181.472 747.252h-7.085v3.909h7.085zM3181.472 684.279h-7.085v3.908h7.085zM3181.472 690.577h-7.085v3.908h7.085zM3181.472 753.55h-7.085v3.908h7.085zM3190.573 696.874h-7.084v3.908h7.084zM3190.573 703.17h-7.084v3.91h7.084zM3190.573 709.469h-7.084v3.908h7.084zM3190.573 715.766h-7.084v3.908h7.084zM3190.573 722.063h-7.084v3.908h7.084zM3190.573 728.36h-7.084v3.91h7.084zM3190.573 734.657h-7.084v3.91h7.084zM3190.573 740.954h-7.084v3.91h7.084zM3190.573 747.252h-7.084v3.909h7.084zM3190.573 684.279h-7.084v3.908h7.084zM3190.573 690.577h-7.084v3.908h7.084zM3190.573 753.55h-7.084v3.908h7.084zM3199.674 696.874h-7.084v3.908h7.084zM3199.674 703.17h-7.084v3.91h7.084zM3199.674 709.469h-7.084v3.908h7.084zM3199.674 715.766h-7.084v3.908h7.084zM3199.674 722.063h-7.084v3.908h7.084zM3199.674 728.36h-7.084v3.91h7.084zM3199.674 734.657h-7.084v3.91h7.084zM3199.674 740.954h-7.084v3.91h7.084zM3199.674 747.252h-7.084v3.909h7.084zM3199.674 684.279h-7.084v3.908h7.084zM3199.674 690.577h-7.084v3.908h7.084zM3199.674 753.55h-7.084v3.908h7.084zM3208.776 696.874h-7.085v3.908h7.085zM3208.776 703.17h-7.085v3.91h7.085zM3208.776 709.469h-7.085v3.908h7.085zM3208.776 715.766h-7.085v3.908h7.085zM3208.776 722.063h-7.085v3.908h7.085zM3208.776 728.36h-7.085v3.91h7.085zM3208.776 734.657h-7.085v3.91h7.085zM3208.776 740.954h-7.085v3.91h7.085zM3208.776 747.252h-7.085v3.909h7.085zM3208.776 684.279h-7.085v3.908h7.085zM3208.776 690.577h-7.085v3.908h7.085zM3208.776 753.55h-7.085v3.908h7.085zM3217.877 696.874h-7.084v3.908h7.084zM3217.877 703.17h-7.084v3.91h7.084zM3217.877 709.469h-7.084v3.908h7.084zM3217.877 715.766h-7.084v3.908h7.084zM3217.877 722.063h-7.084v3.908h7.084zM3217.877 728.36h-7.084v3.91h7.084zM3217.877 734.657h-7.084v3.91h7.084zM3217.877 740.954h-7.084v3.91h7.084zM3217.877 747.252h-7.084v3.909h7.084zM3217.877 684.279h-7.084v3.908h7.084zM3217.877 690.577h-7.084v3.908h7.084zM3217.877 753.55h-7.084v3.908h7.084zM3226.978 696.874h-7.084v3.908h7.084zM3226.978 703.17h-7.084v3.91h7.084zM3226.978 709.469h-7.084v3.908h7.084zM3226.978 715.766h-7.084v3.908h7.084zM3226.978 722.063h-7.084v3.908h7.084zM3226.978 728.36h-7.084v3.91h7.084zM3226.978 734.657h-7.084v3.91h7.084zM3226.978 740.954h-7.084v3.91h7.084zM3226.978 747.252h-7.084v3.909h7.084zM3226.978 684.279h-7.084v3.908h7.084zM3226.978 690.577h-7.084v3.908h7.084zM3226.978 753.55h-7.084v3.908h7.084zM3236.08 696.874h-7.085v3.908h7.085zM3236.08 703.17h-7.085v3.91h7.085zM3236.08 709.469h-7.085v3.908h7.085zM3236.08 715.766h-7.085v3.908h7.085zM3236.08 722.063h-7.085v3.908h7.085zM3236.08 728.36h-7.085v3.91h7.085zM3236.08 734.657h-7.085v3.91h7.085zM3236.08 740.954h-7.085v3.91h7.085zM3236.08 747.252h-7.085v3.909h7.085zM3236.08 684.279h-7.085v3.908h7.085zM3236.08 690.577h-7.085v3.908h7.085zM3236.08 753.55h-7.085v3.908h7.085zM3245.181 696.874h-7.084v3.908h7.084zM3245.181 703.17h-7.084v3.91h7.084zM3245.181 709.469h-7.084v3.908h7.084zM3245.181 715.766h-7.084v3.908h7.084zM3245.181 722.063h-7.084v3.908h7.084zM3245.181 728.36h-7.084v3.91h7.084zM3245.181 734.657h-7.084v3.91h7.084zM3245.181 740.954h-7.084v3.91h7.084zM3245.181 747.252h-7.084v3.909h7.084zM3245.181 684.279h-7.084v3.908h7.084zM3245.181 690.577h-7.084v3.908h7.084zM3245.181 753.55h-7.084v3.908h7.084zM3254.282 696.874h-7.084v3.908h7.084zM3254.282 703.17h-7.084v3.91h7.084zM3254.282 709.469h-7.084v3.908h7.084zM3254.282 715.766h-7.084v3.908h7.084zM3254.282 722.063h-7.084v3.908h7.084zM3254.282 728.36h-7.084v3.91h7.084zM3254.282 734.657h-7.084v3.91h7.084zM3254.282 740.954h-7.084v3.91h7.084zM3254.282 747.252h-7.084v3.909h7.084zM3254.282 684.279h-7.084v3.908h7.084zM3254.282 690.577h-7.084v3.908h7.084zM3254.282 753.55h-7.084v3.908h7.084zM3263.384 684.279h-7.085v3.908h7.085zM3272.485 684.279h-7.085v3.908h7.085zM3281.587 684.279h-7.084v3.908h7.084zM3290.688 684.279h-7.084v3.908h7.084zM3299.79 684.279h-7.085v3.908h7.085zM3308.891 684.279h-7.084v3.908h7.084zM3317.992 684.279h-7.084v3.908h7.084zM3327.094 684.279h-7.085v3.908h7.085zM3336.195 684.279h-7.085v3.908h7.085zM3345.296 684.279h-7.084v3.908h7.084zM3354.398 684.279h-7.085v3.908h7.085zM3363.499 684.279h-7.085v3.908h7.085zM3372.6 684.279h-7.084v3.908h7.084zM3381.701 684.279h-7.084v3.908h7.084zM3390.803 684.279h-7.085v3.908h7.085zM3399.904 684.279h-7.084v3.908h7.084zM3409.005 684.279h-7.084v3.908h7.084zM3418.107 684.279h-7.085v3.908h7.085zM3427.208 684.279h-7.084v3.908h7.084zM3436.31 684.279h-7.084v3.908h7.084zM3445.412 684.279h-7.085v3.908h7.085zM3454.513 684.279h-7.085v3.908h7.085zM3463.614 684.279h-7.084v3.908h7.084zM3472.715 684.279h-7.084v3.908h7.084zM3481.817 684.279h-7.085v3.908h7.085zM3490.918 684.279h-7.084v3.908h7.084zM3499.938 684.279h-7.085v3.908h7.085zM3509.04 684.279h-7.085v3.908h7.084zM3518.14 684.279h-7.084v3.908h7.084zM3527.242 684.279h-7.085v3.908h7.085zM3536.343 684.279h-7.084v3.908h7.084zM3545.444 684.279h-7.084v3.908h7.084zM3554.546 684.279h-7.085v3.908h7.085zM3563.647 684.279h-7.084v3.908h7.084zM3572.748 684.279h-7.084v3.908h7.084zM3581.85 684.279h-7.085v3.908h7.085zM3736.655 703.17h-7.084v3.91h7.084zM3736.655 709.469h-7.084v3.908h7.084zM3736.655 715.766h-7.084v3.908h7.084zM3736.655 722.063h-7.084v3.908h7.084zM3736.655 728.36h-7.084v3.91h7.084zM3736.655 734.657h-7.084v3.91h7.084zM3736.655 740.954h-7.084v3.91h7.084zM3736.655 747.252h-7.084v3.909h7.084zM3736.655 753.55h-7.084v3.908h7.084zM3745.756 703.17h-7.084v3.91h7.084zM3745.756 709.469h-7.084v3.908h7.084zM3745.756 715.766h-7.084v3.908h7.084zM3745.756 722.063h-7.084v3.908h7.084zM3745.756 728.36h-7.084v3.91h7.084zM3745.756 734.657h-7.084v3.91h7.084zM3745.756 740.954h-7.084v3.91h7.084zM3745.756 747.252h-7.084v3.909h7.084zM3745.756 753.55h-7.084v3.908h7.084zM3754.858 703.17h-7.085v3.91h7.085zM3754.858 709.469h-7.085v3.908h7.085zM3754.858 715.766h-7.085v3.908h7.085zM3754.858 722.063h-7.085v3.908h7.085zM3754.858 728.36h-7.085v3.91h7.085zM3754.858 734.657h-7.085v3.91h7.085zM3754.858 740.954h-7.085v3.91h7.085zM3754.858 747.252h-7.085v3.909h7.085zM3754.858 753.55h-7.085v3.908h7.085zM3763.959 703.17h-7.084v3.91h7.084zM3763.959 709.469h-7.084v3.908h7.084zM3763.959 715.766h-7.084v3.908h7.084zM3763.959 722.063h-7.084v3.908h7.084zM3763.959 728.36h-7.084v3.91h7.084zM3763.959 734.657h-7.084v3.91h7.084zM3763.959 740.954h-7.084v3.91h7.084zM3763.959 747.252h-7.084v3.909h7.084zM3763.959 753.55h-7.084v3.908h7.084zM3773.06 703.17h-7.084v3.91h7.084zM3773.06 709.469h-7.084v3.908h7.084zM3773.06 715.766h-7.084v3.908h7.084zM3773.06 722.063h-7.084v3.908h7.084zM3773.06 728.36h-7.084v3.91h7.084zM3773.06 734.657h-7.084v3.91h7.084zM3773.06 740.954h-7.084v3.91h7.084zM3773.06 747.252h-7.084v3.909h7.084zM3773.06 753.55h-7.084v3.908h7.084zM3782.162 703.17h-7.085v3.91h7.085zM3782.162 709.469h-7.085v3.908h7.085zM3782.162 715.766h-7.085v3.908h7.085zM3782.162 722.063h-7.085v3.908h7.085zM3782.162 728.36h-7.085v3.91h7.085zM3782.162 734.657h-7.085v3.91h7.085zM3782.162 740.954h-7.085v3.91h7.085zM3782.162 747.252h-7.085v3.909h7.085zM3782.162 753.55h-7.085v3.908h7.085zM3791.263 703.17h-7.084v3.91h7.084zM3791.263 709.469h-7.084v3.908h7.084zM3791.263 715.766h-7.084v3.908h7.084zM3791.263 722.063h-7.084v3.908h7.084zM3791.263 728.36h-7.084v3.91h7.084zM3791.263 734.657h-7.084v3.91h7.084zM3791.263 740.954h-7.084v3.91h7.084zM3791.263 747.252h-7.084v3.909h7.084zM3791.263 753.55h-7.084v3.908h7.084zM3800.364 703.17h-7.084v3.91h7.084zM3800.364 709.469h-7.084v3.908h7.084zM3800.364 715.766h-7.084v3.908h7.084zM3800.364 722.063h-7.084v3.908h7.084zM3800.364 728.36h-7.084v3.91h7.084zM3800.364 734.657h-7.084v3.91h7.084zM3800.364 740.954h-7.084v3.91h7.084zM3800.364 747.252h-7.084v3.909h7.084zM3800.364 753.55h-7.084v3.908h7.084zM3809.466 703.17h-7.085v3.91h7.085zM3809.466 709.469h-7.085v3.908h7.085zM3809.466 715.766h-7.085v3.908h7.085zM3809.466 722.063h-7.085v3.908h7.085zM3809.466 728.36h-7.085v3.91h7.085zM3809.466 734.657h-7.085v3.91h7.085zM3809.466 740.954h-7.085v3.91h7.085zM3809.466 747.252h-7.085v3.909h7.085zM3809.466 753.55h-7.085v3.908h7.085zM3818.567 703.17h-7.085v3.91h7.085zM3818.567 709.469h-7.085v3.908h7.085zM3818.567 715.766h-7.085v3.908h7.085zM3818.567 722.063h-7.085v3.908h7.085zM3818.567 728.36h-7.085v3.91h7.085zM3818.567 734.657h-7.085v3.91h7.085zM3818.567 740.954h-7.085v3.91h7.085zM3818.567 747.252h-7.085v3.909h7.085zM3818.567 753.55h-7.085v3.908h7.085zM3827.668 703.17h-7.084v3.91h7.084zM3827.668 709.469h-7.084v3.908h7.084zM3827.668 715.766h-7.084v3.908h7.084zM3827.668 722.063h-7.084v3.908h7.084zM3827.668 728.36h-7.084v3.91h7.084zM3827.668 734.657h-7.084v3.91h7.084zM3827.668 740.954h-7.084v3.91h7.084zM3827.668 747.252h-7.084v3.909h7.084zM3827.668 753.55h-7.084v3.908h7.084zM3836.77 703.17h-7.085v3.91h7.084zM3836.77 709.469h-7.085v3.908h7.084zM3836.77 715.766h-7.085v3.908h7.084zM3836.77 722.063h-7.085v3.908h7.084zM3836.77 728.36h-7.085v3.91h7.084zM3836.77 734.657h-7.085v3.91h7.084zM3836.77 740.954h-7.085v3.91h7.084zM3836.77 747.252h-7.085v3.909h7.084zM3836.77 753.55h-7.085v3.908h7.084zM3845.87 703.17h-7.084v3.91h7.085zM3845.87 709.469h-7.084v3.908h7.085zM3845.87 715.766h-7.084v3.908h7.085zM3845.87 722.063h-7.084v3.908h7.085zM3845.87 728.36h-7.084v3.91h7.085zM3845.87 734.657h-7.084v3.91h7.085zM3845.87 740.954h-7.084v3.91h7.085zM3845.87 747.252h-7.084v3.909h7.085zM3845.87 753.55h-7.084v3.908h7.085zM3854.972 703.17h-7.084v3.91h7.084zM3854.972 709.469h-7.084v3.908h7.084zM3854.972 715.766h-7.084v3.908h7.084zM3854.972 722.063h-7.084v3.908h7.084zM3854.972 728.36h-7.084v3.91h7.084zM3854.972 734.657h-7.084v3.91h7.084zM3854.972 740.954h-7.084v3.91h7.084zM3854.972 747.252h-7.084v3.909h7.084zM3854.972 753.55h-7.084v3.908h7.084zM3864.074 703.17h-7.084v3.91h7.084zM3864.074 709.469h-7.084v3.908h7.084zM3864.074 715.766h-7.084v3.908h7.084zM3864.074 722.063h-7.084v3.908h7.084zM3864.074 728.36h-7.084v3.91h7.084zM3864.074 734.657h-7.084v3.91h7.084zM3864.074 740.954h-7.084v3.91h7.084zM3864.074 747.252h-7.084v3.909h7.084zM3864.074 753.55h-7.084v3.908h7.084zM3873.176 703.17h-7.085v3.91h7.085zM3873.176 709.469h-7.085v3.908h7.085zM3873.176 715.766h-7.085v3.908h7.085zM3873.176 722.063h-7.085v3.908h7.085zM3873.176 728.36h-7.085v3.91h7.085zM3873.176 734.657h-7.085v3.91h7.085zM3873.176 740.954h-7.085v3.91h7.085zM3873.176 747.252h-7.085v3.909h7.085zM3873.176 753.55h-7.085v3.908h7.085zM3882.277 703.17h-7.085v3.91h7.085zM3882.277 709.469h-7.085v3.908h7.085zM3882.277 715.766h-7.085v3.908h7.085zM3882.277 722.063h-7.085v3.908h7.085zM3882.277 728.36h-7.085v3.91h7.085zM3882.277 734.657h-7.085v3.91h7.085zM3882.277 740.954h-7.085v3.91h7.085zM3882.277 747.252h-7.085v3.909h7.085zM3882.277 753.55h-7.085v3.908h7.085zM3891.378 703.17h-7.084v3.91h7.084zM3891.378 709.469h-7.084v3.908h7.084zM3891.378 715.766h-7.084v3.908h7.084zM3891.378 722.063h-7.084v3.908h7.084zM3891.378 728.36h-7.084v3.91h7.084zM3891.378 734.657h-7.084v3.91h7.084zM3891.378 740.954h-7.084v3.91h7.084zM3891.378 747.252h-7.084v3.909h7.084zM3891.378 753.55h-7.084v3.908h7.084zM3900.48 703.17h-7.085v3.91h7.085zM3900.48 709.469h-7.085v3.908h7.085zM3900.48 715.766h-7.085v3.908h7.085zM3900.48 722.063h-7.085v3.908h7.085zM3900.48 728.36h-7.085v3.91h7.085zM3900.48 734.657h-7.085v3.91h7.085zM3900.48 740.954h-7.085v3.91h7.085zM3900.48 747.252h-7.085v3.909h7.085zM3900.48 753.55h-7.085v3.908h7.085zM3909.58 703.17h-7.084v3.91h7.085zM3909.58 709.469h-7.084v3.908h7.085zM3909.58 715.766h-7.084v3.908h7.085zM3909.58 722.063h-7.084v3.908h7.085zM3909.58 728.36h-7.084v3.91h7.085zM3909.58 734.657h-7.084v3.91h7.085zM3909.58 740.954h-7.084v3.91h7.085zM3909.58 747.252h-7.084v3.909h7.085zM3909.58 753.55h-7.084v3.908h7.085zM3918.682 703.17h-7.084v3.91h7.084zM3918.682 709.469h-7.084v3.908h7.084zM3918.682 715.766h-7.084v3.908h7.084zM3918.682 722.063h-7.084v3.908h7.084zM3918.682 728.36h-7.084v3.91h7.084zM3918.682 734.657h-7.084v3.91h7.084zM3918.682 740.954h-7.084v3.91h7.084zM3918.682 747.252h-7.084v3.909h7.084zM3918.682 753.55h-7.084v3.908h7.084zM3927.783 703.17h-7.084v3.91h7.084zM3927.783 709.469h-7.084v3.908h7.084zM3927.783 715.766h-7.084v3.908h7.084zM3927.783 722.063h-7.084v3.908h7.084zM3927.783 728.36h-7.084v3.91h7.084zM3927.783 734.657h-7.084v3.91h7.084zM3927.783 740.954h-7.084v3.91h7.084zM3927.783 747.252h-7.084v3.909h7.084zM3927.783 753.55h-7.084v3.908h7.084zM3936.885 703.17h-7.085v3.91h7.085zM3936.885 709.469h-7.085v3.908h7.085zM3936.885 715.766h-7.085v3.908h7.085zM3936.885 722.063h-7.085v3.908h7.085zM3936.885 728.36h-7.085v3.91h7.085zM3936.885 734.657h-7.085v3.91h7.085zM3936.885 740.954h-7.085v3.91h7.085zM3936.885 747.252h-7.085v3.909h7.085zM3936.885 753.55h-7.085v3.908h7.085zM3945.986 709.469h-7.084v3.908h7.084zM3945.986 715.766h-7.084v3.908h7.084zM3945.986 722.063h-7.084v3.908h7.084zM3945.986 728.36h-7.084v3.91h7.084zM3945.986 734.657h-7.084v3.91h7.084zM3945.986 740.954h-7.084v3.91h7.084zM3945.986 747.252h-7.084v3.909h7.084zM3945.986 753.55h-7.084v3.908h7.084zM3955.087 709.469h-7.084v3.908h7.084zM3955.087 715.766h-7.084v3.908h7.084zM3955.087 722.063h-7.084v3.908h7.084zM3955.087 728.36h-7.084v3.91h7.084zM3955.087 734.657h-7.084v3.91h7.084zM3955.087 740.954h-7.084v3.91h7.084zM3955.087 747.252h-7.084v3.909h7.084zM3955.087 753.55h-7.084v3.908h7.084zM3964.189 709.469h-7.085v3.908h7.085zM3964.189 715.766h-7.085v3.908h7.085zM3964.189 722.063h-7.085v3.908h7.085zM3964.189 728.36h-7.085v3.91h7.085zM3964.189 734.657h-7.085v3.91h7.085zM3964.189 740.954h-7.085v3.91h7.085zM3964.189 747.252h-7.085v3.909h7.085zM3964.189 753.55h-7.085v3.908h7.085zM3973.29 709.469h-7.084v3.908h7.084zM3973.29 715.766h-7.084v3.908h7.084zM3973.29 722.063h-7.084v3.908h7.084zM3973.29 728.36h-7.084v3.91h7.084zM3973.29 734.657h-7.084v3.91h7.084zM3973.29 740.954h-7.084v3.91h7.084zM3973.29 747.252h-7.084v3.909h7.084zM3973.29 753.55h-7.084v3.908h7.084zM3982.391 709.469h-7.084v3.908h7.084zM3982.391 715.766h-7.084v3.908h7.084zM3982.391 722.063h-7.084v3.908h7.084zM3982.391 728.36h-7.084v3.91h7.084zM3982.391 734.657h-7.084v3.91h7.084zM3982.391 740.954h-7.084v3.91h7.084zM3982.391 747.252h-7.084v3.909h7.084zM3982.391 753.55h-7.084v3.908h7.084zM3991.493 709.469h-7.085v3.908h7.085zM3991.493 715.766h-7.085v3.908h7.085zM3991.493 722.063h-7.085v3.908h7.085zM3991.493 728.36h-7.085v3.91h7.085zM3991.493 734.657h-7.085v3.91h7.085zM3991.493 740.954h-7.085v3.91h7.085zM3991.493 747.252h-7.085v3.909h7.085zM3991.493 753.55h-7.085v3.908h7.085zM4000.594 709.469h-7.085v3.908h7.085zM4000.594 715.766h-7.085v3.908h7.085zM4000.594 722.063h-7.085v3.908h7.085zM4000.594 728.36h-7.085v3.91h7.085zM4000.594 734.657h-7.085v3.91h7.085zM4000.594 740.954h-7.085v3.91h7.085zM4000.594 747.252h-7.085v3.909h7.085zM4000.594 753.55h-7.085v3.908h7.085zM4009.696 709.469h-7.084v3.908h7.084zM4009.696 715.766h-7.084v3.908h7.084zM4009.696 722.063h-7.084v3.908h7.084zM4009.696 728.36h-7.084v3.91h7.084zM4009.696 734.657h-7.084v3.91h7.084zM4009.696 740.954h-7.084v3.91h7.084zM4009.696 747.252h-7.084v3.909h7.084zM4009.696 753.55h-7.084v3.908h7.084zM4018.797 709.469h-7.084v3.908h7.084zM4018.797 715.766h-7.084v3.908h7.084zM4018.797 722.063h-7.084v3.908h7.084zM4018.797 728.36h-7.084v3.91h7.084zM4018.797 734.657h-7.084v3.91h7.084zM4018.797 740.954h-7.084v3.91h7.084zM4018.797 747.252h-7.084v3.909h7.084zM4018.797 753.55h-7.084v3.908h7.084zM3945.986 703.17h-7.084v3.91h7.084zM3955.087 703.17h-7.084v3.91h7.084zM3964.189 703.17h-7.085v3.91h7.085zM3973.29 703.17h-7.084v3.91h7.084zM3982.391 703.17h-7.084v3.91h7.084zM3991.493 703.17h-7.085v3.91h7.085zM4000.594 703.17h-7.085v3.91h7.085zM4009.696 703.17h-7.084v3.91h7.084zM4018.797 703.17h-7.084v3.91h7.084zM3873.223 696.874h-7.085v3.908h7.085zM3873.223 684.279h-7.085v3.908h7.085zM3873.223 690.577h-7.085v3.908h7.085zM3864.122 696.874h-7.085v3.908h7.085zM3864.122 684.279h-7.085v3.908h7.085zM3864.122 690.577h-7.085v3.908h7.085zM3855.02 696.874h-7.084v3.908h7.084zM3855.02 684.279h-7.084v3.908h7.084zM3855.02 690.577h-7.084v3.908h7.084zM3845.919 696.874h-7.084v3.908h7.084zM3845.919 684.279h-7.084v3.908h7.084zM3845.919 690.577h-7.084v3.908h7.084zM3836.818 696.874h-7.085v3.908h7.085zM3836.818 684.279h-7.085v3.908h7.085zM3836.818 690.577h-7.085v3.908h7.085zM3827.716 696.874h-7.084v3.908h7.084zM3827.716 684.279h-7.084v3.908h7.084zM3827.716 690.577h-7.084v3.908h7.084zM3818.615 696.874h-7.084v3.908h7.084zM3818.615 684.279h-7.084v3.908h7.084zM3818.615 690.577h-7.084v3.908h7.084zM3809.513 696.874h-7.085v3.908h7.085zM3809.513 684.279h-7.085v3.908h7.085zM3809.513 690.577h-7.085v3.908h7.085zM3800.412 696.874h-7.084v3.908h7.084zM3800.412 684.279h-7.084v3.908h7.084zM3800.412 690.577h-7.084v3.908h7.084zM3791.311 696.874h-7.084v3.908h7.084zM3791.311 684.279h-7.084v3.908h7.084zM3791.311 690.577h-7.084v3.908h7.084zM3782.209 696.874h-7.085v3.908h7.085zM3782.209 684.279h-7.085v3.908h7.085zM3782.209 690.577h-7.085v3.908h7.085zM3773.108 696.874h-7.085v3.908h7.085zM3773.108 684.279h-7.085v3.908h7.085zM3773.108 690.577h-7.085v3.908h7.085zM3764.006 696.874h-7.084v3.908h7.084zM3764.006 684.279h-7.084v3.908h7.084zM3764.006 690.577h-7.084v3.908h7.084zM3754.905 696.874h-7.084v3.908h7.084zM3754.905 684.279h-7.084v3.908h7.084zM3754.905 690.577h-7.084v3.908h7.084zM3745.804 696.874h-7.085v3.908h7.085zM3745.804 684.279h-7.085v3.908h7.085zM3745.804 690.577h-7.085v3.908h7.085zM3736.702 696.874h-7.084v3.908h7.084zM3736.702 684.279h-7.084v3.908h7.084zM3736.702 690.577h-7.084v3.908h7.084zM3727.601 684.279h-7.084v3.908h7.084zM3718.5 684.279h-7.085v3.908h7.085zM3709.398 684.279h-7.084v3.908h7.084zM3700.297 684.279h-7.084v3.908h7.084zM3691.196 684.279h-7.085v3.908h7.085zM3682.095 684.279h-7.085v3.908h7.085zM3672.993 684.279h-7.084v3.908h7.084zM3663.892 684.279h-7.085v3.908h7.085zM3654.79 684.279h-7.085v3.908h7.085zM3645.688 684.279h-7.084v3.908h7.084zM3636.587 684.279h-7.084v3.908h7.084zM3627.486 684.279h-7.085v3.908h7.085zM3618.384 684.279h-7.084v3.908h7.084zM3609.283 684.279h-7.084v3.908h7.084zM3600.182 684.279h-7.085v3.908h7.085zM3591.08 684.279h-7.084v3.908h7.085zM4009.696 690.577h-7.084v3.908h7.084zM4009.696 696.874h-7.084v3.908h7.084zM4000.594 696.874h-7.085v3.908h7.085zM3991.493 684.279h-7.085v3.908h7.085zM3991.493 696.874h-7.085v3.908h7.085zM3982.228 696.874h-7.084v3.908h7.084zM3973.29 690.577h-7.084v3.908h7.084zM3964.189 684.279h-7.085v3.908h7.085zM3964.189 690.577h-7.085v3.908h7.085zM3964.189 696.874h-7.085v3.908h7.085zM3955.087 690.577h-7.084v3.908h7.084zM3955.087 696.874h-7.084v3.908h7.084zM3945.986 684.279h-7.084v3.908h7.084zM3945.986 690.577h-7.084v3.908h7.084zM3945.986 696.874h-7.084v3.908h7.084zM3936.885 684.279h-7.085v3.908h7.085zM3936.885 690.577h-7.085v3.908h7.085zM3936.885 696.874h-7.085v3.908h7.085zM3927.783 684.279h-7.084v3.908h7.084zM3927.783 696.874h-7.084v3.908h7.084zM3918.682 684.279h-7.084v3.908h7.084zM3918.682 690.577h-7.084v3.908h7.084zM3918.682 696.874h-7.084v3.908h7.084zM3909.58 684.279h-7.084v3.908h7.085zM3909.58 690.577h-7.084v3.908h7.085zM3909.58 696.874h-7.084v3.908h7.085zM3900.48 684.279h-7.085v3.908h7.085zM3900.48 690.577h-7.085v3.908h7.085zM3900.48 696.874h-7.085v3.908h7.085zM3891.378 684.279h-7.084v3.908h7.084zM3891.378 690.577h-7.084v3.908h7.084zM3891.378 696.874h-7.084v3.908h7.084zM3882.277 684.279h-7.085v3.908h7.085zM3882.277 690.577h-7.085v3.908h7.085zM3882.277 696.874h-7.085v3.908h7.085zM4082.554 734.294h-7.085v3.909h7.085zM4082.554 740.591h-7.085v3.909h7.085zM4082.554 746.89h-7.085v3.908h7.085zM4082.554 753.186h-7.085v3.909h7.085zM4073.453 734.294h-7.085v3.909h7.085zM4073.453 740.591h-7.085v3.909h7.085zM4073.453 746.89h-7.085v3.908h7.085zM4073.453 753.186h-7.085v3.909h7.085zM4064.351 734.294h-7.084v3.909h7.084zM4064.351 740.591h-7.084v3.909h7.084zM4064.351 746.89h-7.084v3.908h7.084zM4064.351 753.186h-7.084v3.909h7.084zM4055.25 734.294h-7.085v3.909h7.085zM4055.25 740.591h-7.085v3.909h7.085zM4055.25 746.89h-7.085v3.908h7.085zM4055.25 753.186h-7.085v3.909h7.085zM4046.149 734.294h-7.085v3.909h7.085zM4046.149 740.591h-7.085v3.909h7.085zM4046.149 746.89h-7.085v3.908h7.085zM4046.149 753.186h-7.085v3.909h7.085zM4037.047 734.294h-7.084v3.909h7.084zM4037.047 740.591h-7.084v3.909h7.084zM4037.047 746.89h-7.084v3.908h7.084zM4037.047 753.186h-7.084v3.909h7.084zM4027.946 734.294h-7.084v3.909h7.084zM4027.946 740.591h-7.084v3.909h7.084zM4027.946 746.89h-7.084v3.908h7.084zM4027.946 753.186h-7.084v3.909h7.084zM4082.554 728.36h-7.085v3.91h7.085zM4073.453 715.766h-7.085v3.908h7.085zM4073.453 722.063h-7.085v3.908h7.085zM4073.453 728.36h-7.085v3.91h7.085zM4064.351 722.063h-7.084v3.908h7.084zM4055.25 709.469h-7.085v3.908h7.085zM4055.25 722.063h-7.085v3.908h7.085zM4045.986 722.063h-7.085v3.908h7.085zM4055.25 728.36h-7.085v3.91h7.085zM4046.149 728.36h-7.085v3.91h7.085zM4037.047 715.766h-7.084v3.908h7.084zM4037.047 728.36h-7.084v3.91h7.084zM4027.946 703.17h-7.084v3.91h7.084zM4027.946 709.469h-7.084v3.908h7.084zM4027.946 715.766h-7.084v3.908h7.084zM4027.946 722.063h-7.084v3.908h7.084zM4027.946 728.36h-7.084v3.91h7.084zM4182.622 753.186h-7.085v3.909h7.085zM4173.52 740.591h-7.084v3.909h7.085zM4173.52 746.89h-7.084v3.908h7.085zM4173.52 753.186h-7.084v3.909h7.085zM4164.42 753.186h-7.085v3.909h7.084zM4155.318 746.89h-7.085v3.908h7.085zM4155.318 753.186h-7.085v3.909h7.085zM4146.216 734.294h-7.085v3.909h7.085zM4146.216 746.89h-7.085v3.908h7.085zM4146.216 753.186h-7.085v3.909h7.085zM4137.114 746.89h-7.084v3.908h7.084zM4237.066 753.186h-7.085v3.909h7.085zM4227.964 746.89h-7.084v3.908h7.084zM4227.964 753.186h-7.084v3.909h7.084zM4218.863 753.186h-7.084v3.909h7.084zM4263.932 753.186h-7.084v3.909h7.084zM4254.831 753.186h-7.084v3.909h7.084zM4245.73 753.186h-7.085v3.909h7.085zM4209.762 746.89h-7.085v3.908h7.085zM4209.762 753.186h-7.085v3.909h7.085zM4200.66 746.89h-7.084v3.908h7.084zM4200.66 753.186h-7.084v3.909h7.084zM4191.558 746.89h-7.084v3.908h7.084zM4128.013 727.997h-7.084v3.909h7.084zM4128.013 740.591h-7.084v3.909h7.084zM4128.013 746.89h-7.084v3.908h7.084zM4128.013 753.186h-7.084v3.909h7.084zM4118.912 734.294h-7.085v3.909h7.085zM4118.912 740.591h-7.085v3.909h7.085zM4118.912 746.89h-7.085v3.908h7.085zM4118.912 753.186h-7.085v3.909h7.085zM4109.81 727.997h-7.084v3.909h7.084zM4109.81 734.294h-7.084v3.909h7.084zM4109.81 740.591h-7.084v3.909h7.084zM4109.81 746.89h-7.084v3.908h7.084zM4109.81 753.186h-7.084v3.909h7.084zM4109.81 715.402h-7.084v3.909h7.084zM4100.71 727.997h-7.085v3.909h7.084zM4100.71 740.591h-7.085v3.909h7.084zM4100.71 746.89h-7.085v3.908h7.084zM4100.71 753.186h-7.085v3.909h7.084zM4100.71 721.7h-7.085v3.908h7.084zM4091.608 727.997h-7.085v3.909h7.085zM4091.608 734.294h-7.085v3.909h7.085zM4091.608 740.591h-7.085v3.909h7.085zM4091.608 746.89h-7.085v3.908h7.085zM4091.608 753.186h-7.085v3.909h7.085zM4091.608 709.105h-7.085v3.909h7.085zM4091.608 715.402h-7.085v3.909h7.085zM2827.063 734.422h-7.085v3.909h7.085zM2827.063 740.72h-7.085v3.908h7.085zM2827.063 747.016h-7.085v3.909h7.085zM2827.063 753.314h-7.085v3.909h7.085zM2817.943 753.314h-7.084v3.909h7.084zM2836.164 734.422h-7.084v3.909h7.084zM2836.164 740.72h-7.084v3.908h7.084zM2836.164 747.016h-7.084v3.909h7.084zM2836.164 753.314h-7.084v3.909h7.084zM2845.266 734.422h-7.085v3.909h7.085zM2845.266 740.72h-7.085v3.908h7.085zM2845.266 747.016h-7.085v3.909h7.085zM2845.266 753.314h-7.085v3.909h7.085zM2854.367 734.422h-7.085v3.909h7.085zM2854.367 740.72h-7.085v3.908h7.085zM2854.367 747.016h-7.085v3.909h7.085zM2854.367 753.314h-7.085v3.909h7.085zM2863.468 734.422h-7.084v3.909h7.084zM2863.468 740.72h-7.084v3.908h7.084zM2863.468 747.016h-7.084v3.909h7.084zM2863.468 753.314h-7.084v3.909h7.084zM2872.57 734.422h-7.085v3.909h7.084zM2872.57 740.72h-7.085v3.908h7.084zM2872.57 747.016h-7.085v3.909h7.084zM2872.57 753.314h-7.085v3.909h7.084zM2881.67 734.422h-7.084v3.909h7.085zM2881.67 740.72h-7.084v3.908h7.085zM2881.67 747.016h-7.084v3.909h7.085zM2881.67 753.314h-7.084v3.909h7.085zM2890.772 734.422h-7.084v3.909h7.084zM2890.772 740.72h-7.084v3.908h7.084zM2890.772 747.016h-7.084v3.909h7.084zM2890.772 753.314h-7.084v3.909h7.084zM2899.873 734.422h-7.084v3.909h7.084zM2899.873 740.72h-7.084v3.908h7.084zM2899.873 747.016h-7.084v3.909h7.084zM2899.873 753.314h-7.084v3.909h7.084zM2908.975 734.422h-7.085v3.909h7.085zM2908.975 740.72h-7.085v3.908h7.085zM2908.975 747.016h-7.085v3.909h7.085zM2908.975 753.314h-7.085v3.909h7.085zM2918.076 734.422h-7.084v3.909h7.084zM2918.076 740.72h-7.084v3.908h7.084zM2918.076 747.016h-7.084v3.909h7.084zM2918.076 753.314h-7.084v3.909h7.084zM2927.177 734.422h-7.084v3.909h7.084zM2927.177 740.72h-7.084v3.908h7.084zM2927.177 747.016h-7.084v3.909h7.084zM2927.177 753.314h-7.084v3.909h7.084zM2936.279 734.422h-7.085v3.909h7.085zM2936.279 740.72h-7.085v3.908h7.085zM2936.279 747.016h-7.085v3.909h7.085zM2936.279 753.314h-7.085v3.909h7.085zM2945.38 734.422h-7.085v3.909h7.085zM2945.38 740.72h-7.085v3.908h7.085zM2945.38 747.016h-7.085v3.909h7.085zM2945.38 753.314h-7.085v3.909h7.085zM2954.481 734.422h-7.084v3.909h7.084zM2954.481 740.72h-7.084v3.908h7.084zM2954.481 747.016h-7.084v3.909h7.084zM2954.481 753.314h-7.084v3.909h7.084zM2963.583 734.422h-7.085v3.909h7.085zM2963.583 740.72h-7.085v3.908h7.085zM2963.583 747.016h-7.085v3.909h7.085zM2963.583 753.314h-7.085v3.909h7.085zM2972.685 734.422h-7.085v3.909h7.085zM2972.685 740.72h-7.085v3.908h7.085zM2972.685 747.016h-7.085v3.909h7.085zM2972.685 753.314h-7.085v3.909h7.085zM2981.786 734.422h-7.084v3.909h7.084zM2981.786 740.72h-7.084v3.908h7.084zM2981.786 747.016h-7.084v3.909h7.084zM2981.786 753.314h-7.084v3.909h7.084zM2990.887 734.422h-7.084v3.909h7.084zM2990.887 740.72h-7.084v3.908h7.084zM2990.887 747.016h-7.084v3.909h7.084zM2990.887 753.314h-7.084v3.909h7.084zM2999.989 734.422h-7.085v3.909h7.085zM2999.989 740.72h-7.085v3.908h7.085zM2999.989 747.016h-7.085v3.909h7.085zM2999.989 753.314h-7.085v3.909h7.085zM3009.09 734.422h-7.085v3.909h7.085zM3009.09 740.72h-7.085v3.908h7.085zM3009.09 747.016h-7.085v3.909h7.085zM3009.09 753.314h-7.085v3.909h7.085zM3018.191 734.422h-7.084v3.909h7.084zM3018.191 740.72h-7.084v3.908h7.084zM3018.191 747.016h-7.084v3.909h7.084zM3018.191 753.314h-7.084v3.909h7.084zM3027.293 734.422h-7.085v3.909h7.085zM3027.293 740.72h-7.085v3.908h7.085zM3027.293 747.016h-7.085v3.909h7.085zM3027.293 753.314h-7.085v3.909h7.085zM3036.394 734.422h-7.085v3.909h7.085zM3036.394 740.72h-7.085v3.908h7.085zM3036.394 747.016h-7.085v3.909h7.085zM3036.394 753.314h-7.085v3.909h7.085zM3045.495 734.422h-7.084v3.909h7.084zM3045.495 740.72h-7.084v3.908h7.084zM3045.495 747.016h-7.084v3.909h7.084zM3045.495 753.314h-7.084v3.909h7.084zM3054.596 734.422h-7.084v3.909h7.084zM3054.596 740.72h-7.084v3.908h7.084zM3054.596 747.016h-7.084v3.909h7.084zM3054.596 753.314h-7.084v3.909h7.084zM3063.698 734.422h-7.085v3.909h7.085zM3063.698 740.72h-7.085v3.908h7.085zM3063.698 747.016h-7.085v3.909h7.085zM3063.698 753.314h-7.085v3.909h7.085zM3072.8 734.422h-7.085v3.909h7.084zM3072.8 740.72h-7.085v3.908h7.084zM3072.8 747.016h-7.085v3.909h7.084zM3072.8 753.314h-7.085v3.909h7.084zM3081.9 734.422h-7.084v3.909h7.084zM3081.9 740.72h-7.084v3.908h7.084zM3081.9 747.016h-7.084v3.909h7.084zM3081.9 753.314h-7.084v3.909h7.084zM2909.115 728.124h-7.085v3.909h7.085zM2918.216 728.124h-7.085v3.909h7.085zM2927.317 728.124h-7.084v3.909h7.084zM2936.418 728.124h-7.084v3.909h7.084zM2945.52 728.124h-7.085v3.909h7.085zM2954.621 728.124h-7.084v3.909h7.084zM2963.722 728.124h-7.084v3.909h7.084zM2972.824 728.124h-7.085v3.909h7.085zM2981.925 728.124h-7.084v3.909h7.084zM2991.026 728.124h-7.084v3.909h7.084zM3000.128 728.124h-7.085v3.909h7.085zM3009.229 728.124h-7.085v3.909h7.085zM3018.331 728.124h-7.084v3.909h7.084zM3027.432 728.124h-7.084v3.909h7.084zM3036.534 728.124h-7.085v3.909h7.085zM3045.635 728.124h-7.084v3.909h7.084zM3054.736 728.124h-7.084v3.909h7.084zM3054.736 684.043h-7.084v3.91h7.084zM3054.736 690.34h-7.084v3.91h7.084zM3054.736 696.638h-7.084v3.909h7.084zM3054.736 702.935h-7.084v3.909h7.084zM3054.736 709.232h-7.084v3.909h7.084zM3054.736 715.53h-7.084v3.909h7.084zM3054.736 721.827h-7.084v3.909h7.084zM3063.838 728.124h-7.085v3.909h7.085zM3063.838 684.043h-7.085v3.91h7.085zM3063.838 690.34h-7.085v3.91h7.085zM3063.838 696.638h-7.085v3.909h7.085zM3063.838 702.935h-7.085v3.909h7.085zM3063.838 709.232h-7.085v3.909h7.085zM3063.838 715.53h-7.085v3.909h7.085zM3063.838 721.827h-7.085v3.909h7.085zM3072.939 728.124h-7.084v3.909h7.084zM3072.939 690.34h-7.084v3.91h7.084zM3072.939 696.638h-7.084v3.909h7.084zM3072.939 702.935h-7.084v3.909h7.084zM3072.939 709.232h-7.084v3.909h7.084zM3072.939 715.53h-7.084v3.909h7.084zM3072.939 721.827h-7.084v3.909h7.084zM3082.04 728.124h-7.084v3.909h7.084zM3082.04 684.043h-7.084v3.91h7.084zM3082.04 690.34h-7.084v3.91h7.084zM3082.04 696.638h-7.084v3.909h7.084zM3082.04 702.935h-7.084v3.909h7.084zM3082.04 709.232h-7.084v3.909h7.084zM3082.04 715.53h-7.084v3.909h7.084zM3082.04 721.827h-7.084v3.909h7.084zM2909.115 722.19h-7.085v3.909h7.085zM2918.216 709.595h-7.085v3.91h7.085zM2918.216 715.893h-7.085v3.909h7.085zM2918.216 722.19h-7.085v3.909h7.085zM2927.317 715.893h-7.084v3.909h7.084zM2936.418 703.299h-7.084v3.908h7.084zM2936.418 715.893h-7.084v3.909h7.084zM2945.683 715.893h-7.085v3.909h7.085zM2936.418 722.19h-7.084v3.909h7.084zM2945.52 722.19h-7.085v3.909h7.085zM2954.621 709.595h-7.084v3.91h7.084zM2954.621 722.19h-7.084v3.909h7.084zM2963.722 697.002h-7.084v3.908h7.084zM2963.722 703.299h-7.084v3.908h7.084zM2963.722 709.595h-7.084v3.91h7.084zM2963.722 715.893h-7.084v3.909h7.084zM2963.722 722.19h-7.084v3.909h7.084zM2972.824 709.595h-7.085v3.91h7.085zM2972.824 715.893h-7.085v3.909h7.085zM2972.824 722.19h-7.085v3.909h7.085zM2981.925 703.299h-7.084v3.908h7.084zM2981.925 709.595h-7.084v3.91h7.084zM2981.925 715.893h-7.084v3.909h7.084zM2981.925 722.19h-7.084v3.909h7.084zM2991.026 690.704h-7.084v3.908h7.084zM2991.026 703.299h-7.084v3.908h7.084zM2991.026 709.595h-7.084v3.91h7.084zM2991.026 715.893h-7.084v3.909h7.084zM2991.026 722.19h-7.084v3.909h7.084zM3000.128 703.299h-7.085v3.908h7.085zM3000.128 715.893h-7.085v3.909h7.085zM3000.128 722.19h-7.085v3.909h7.085zM3009.229 684.407h-7.085v3.908h7.085zM3009.229 697.002h-7.085v3.908h7.085zM3009.229 703.299h-7.085v3.908h7.085zM3009.229 709.595h-7.085v3.91h7.085zM3009.229 715.893h-7.085v3.909h7.085zM3009.229 722.19h-7.085v3.909h7.085zM3018.331 690.704h-7.084v3.908h7.084zM3018.331 697.002h-7.084v3.908h7.084zM3018.331 703.299h-7.084v3.908h7.084zM3018.331 709.595h-7.084v3.91h7.084zM3018.331 715.893h-7.084v3.909h7.084zM3018.331 722.19h-7.084v3.909h7.084zM3027.432 684.407h-7.084v3.908h7.084zM3027.432 690.704h-7.084v3.908h7.084zM3027.432 697.002h-7.084v3.908h7.084zM3027.432 703.299h-7.084v3.908h7.084zM3027.432 709.595h-7.084v3.91h7.084zM3027.432 715.893h-7.084v3.909h7.084zM3027.432 722.19h-7.084v3.909h7.084zM3036.534 684.407h-7.085v3.908h7.085zM3036.534 697.002h-7.085v3.908h7.085zM3036.534 703.299h-7.085v3.908h7.085zM3036.534 709.595h-7.085v3.91h7.085zM3036.534 715.893h-7.085v3.909h7.085zM3036.534 722.19h-7.085v3.909h7.085zM3045.635 684.407h-7.084v3.908h7.084zM3045.635 690.704h-7.084v3.908h7.084zM3045.635 697.002h-7.084v3.908h7.084zM3045.635 703.299h-7.084v3.908h7.084zM3045.635 709.595h-7.084v3.91h7.084zM3045.635 715.893h-7.084v3.909h7.084zM3045.635 722.19h-7.084v3.909h7.084zM2845.453 728.124h-7.085v3.909h7.085zM2863.655 721.827h-7.084v3.909h7.084zM2872.757 728.124h-7.085v3.909h7.085zM2881.858 721.827h-7.085v3.909h7.085zM2881.858 728.124h-7.085v3.909h7.085zM2881.858 709.232h-7.085v3.909h7.085zM2890.96 721.827h-7.085v3.909h7.084zM2890.96 715.53h-7.085v3.909h7.084zM2790.622 747.016h-7.085v3.909h7.085zM2799.723 753.314h-7.085v3.909h7.085zM2808.824 747.016h-7.084v3.909h7.084zM2808.824 753.314h-7.084v3.909h7.084zM2808.824 734.422h-7.084v3.909h7.084zM2817.925 747.016h-7.084v3.909h7.084zM2817.925 740.72h-7.084v3.908h7.084zM2900.06 721.827h-7.084v3.909h7.085zM2900.06 728.124h-7.084v3.909h7.085zM2900.06 702.935h-7.084v3.909h7.085zM2900.06 709.232h-7.084v3.909h7.085zM3727.554 690.577h-7.085v3.908h7.085zM3727.554 696.874h-7.085v3.908h7.085zM3727.554 703.17h-7.085v3.91h7.085zM3727.554 709.469h-7.085v3.908h7.085zM3727.554 715.766h-7.085v3.908h7.085zM3727.554 722.063h-7.085v3.908h7.085zM3727.554 728.36h-7.085v3.91h7.085zM3727.554 734.657h-7.085v3.91h7.085zM3727.554 740.954h-7.085v3.91h7.085zM3727.554 747.252h-7.085v3.909h7.085zM3727.554 753.55h-7.085v3.908h7.085zM3718.452 753.574h-7.085v3.909h7.085zM3718.452 690.389h-7.085v3.908h7.085zM3718.452 696.686h-7.085v3.908h7.085zM3718.452 734.47h-7.085v3.908h7.085zM3718.452 740.767h-7.085v3.909h7.085zM3718.452 747.064h-7.085v3.909h7.085zM3709.351 753.574h-7.084v3.909h7.084zM3709.351 690.389h-7.084v3.908h7.084zM3709.351 696.686h-7.084v3.908h7.084zM3709.351 709.28h-7.084v3.91h7.084zM3709.351 715.577h-7.084v3.91h7.084zM3709.351 721.875h-7.084v3.909h7.084zM3709.351 734.47h-7.084v3.908h7.084zM3709.351 740.767h-7.084v3.909h7.084zM3709.351 747.064h-7.084v3.909h7.084zM3700.249 753.574h-7.084v3.909h7.084zM3700.249 690.389h-7.084v3.908h7.084zM3700.249 696.686h-7.084v3.908h7.084zM3700.249 734.47h-7.084v3.908h7.084zM3700.249 740.767h-7.084v3.909h7.084zM3700.249 747.064h-7.084v3.909h7.084zM3691.148 753.574h-7.085v3.909h7.085zM3691.148 690.389h-7.085v3.908h7.085zM3691.148 696.686h-7.085v3.908h7.085zM3691.148 702.984h-7.085v3.908h7.085zM3691.148 709.28h-7.085v3.91h7.085zM3691.148 715.577h-7.085v3.91h7.085zM3691.148 721.875h-7.085v3.909h7.085zM3691.148 728.172h-7.085v3.909h7.085zM3691.148 734.47h-7.085v3.908h7.085zM3691.148 740.767h-7.085v3.909h7.085zM3691.148 747.064h-7.085v3.909h7.085zM3682.046 753.574h-7.084v3.909h7.084zM3682.046 690.389h-7.084v3.908h7.084zM3682.046 696.686h-7.084v3.908h7.084zM3682.046 734.47h-7.084v3.908h7.084zM3682.046 740.767h-7.084v3.909h7.084zM3682.046 747.064h-7.084v3.909h7.084zM3672.945 753.574h-7.084v3.909h7.084zM3672.945 690.389h-7.084v3.908h7.084zM3672.945 696.686h-7.084v3.908h7.084zM3672.945 709.28h-7.084v3.91h7.084zM3672.945 715.577h-7.084v3.91h7.084zM3672.945 721.875h-7.084v3.909h7.084zM3672.945 734.47h-7.084v3.908h7.084zM3672.945 740.767h-7.084v3.909h7.084zM3672.945 747.064h-7.084v3.909h7.084zM3663.844 753.574h-7.085v3.909h7.085zM3663.844 690.389h-7.085v3.908h7.085zM3663.844 696.686h-7.085v3.908h7.085zM3663.844 734.47h-7.085v3.908h7.085zM3663.844 740.767h-7.085v3.909h7.085zM3663.844 747.064h-7.085v3.909h7.085zM3654.742 753.574h-7.084v3.909h7.084zM3654.742 690.389h-7.084v3.908h7.084zM3654.742 696.686h-7.084v3.908h7.084zM3654.742 702.984h-7.084v3.908h7.084zM3654.742 709.28h-7.084v3.91h7.084zM3654.742 715.577h-7.084v3.91h7.084zM3654.742 721.875h-7.084v3.909h7.084zM3654.742 728.172h-7.084v3.909h7.084zM3654.742 734.47h-7.084v3.908h7.084zM3654.742 740.767h-7.084v3.909h7.084zM3654.742 747.064h-7.084v3.909h7.084zM3645.641 753.574h-7.084v3.909h7.084zM3645.641 690.389h-7.084v3.908h7.084zM3645.641 696.686h-7.084v3.908h7.084zM3645.641 734.47h-7.084v3.908h7.084zM3645.641 740.767h-7.084v3.909h7.084zM3645.641 747.064h-7.084v3.909h7.084zM3636.54 753.574h-7.085v3.909h7.085zM3636.54 690.389h-7.085v3.908h7.085zM3636.54 696.686h-7.085v3.908h7.085zM3636.54 709.28h-7.085v3.91h7.085zM3636.54 715.577h-7.085v3.91h7.085zM3636.54 721.875h-7.085v3.909h7.085zM3636.54 734.47h-7.085v3.908h7.085zM3636.54 740.767h-7.085v3.909h7.085zM3636.54 747.064h-7.085v3.909h7.085zM3627.439 753.574h-7.085v3.909h7.085zM3627.439 690.389h-7.085v3.908h7.085zM3627.439 696.686h-7.085v3.908h7.085zM3627.439 734.47h-7.085v3.908h7.085zM3627.439 740.767h-7.085v3.909h7.085zM3627.439 747.064h-7.085v3.909h7.085zM3618.337 753.574h-7.084v3.909h7.084zM3618.337 690.389h-7.084v3.908h7.084zM3618.337 696.686h-7.084v3.908h7.084zM3618.337 702.984h-7.084v3.908h7.084zM3618.337 709.28h-7.084v3.91h7.084zM3618.337 715.577h-7.084v3.91h7.084zM3618.337 721.875h-7.084v3.909h7.084zM3618.337 728.172h-7.084v3.909h7.084zM3618.337 734.47h-7.084v3.908h7.084zM3618.337 740.767h-7.084v3.909h7.084zM3618.337 747.064h-7.084v3.909h7.084zM3609.236 753.574h-7.085v3.909h7.085zM3609.236 690.389h-7.085v3.908h7.085zM3609.236 696.686h-7.085v3.908h7.085zM3609.236 734.47h-7.085v3.908h7.085zM3609.236 740.767h-7.085v3.909h7.085zM3609.236 747.064h-7.085v3.909h7.085zM3600.135 753.574h-7.085v3.909h7.085zM3600.135 690.389h-7.085v3.908h7.085zM3600.135 696.686h-7.085v3.908h7.085zM3600.135 709.28h-7.085v3.91h7.085zM3600.135 715.577h-7.085v3.91h7.085zM3600.135 721.875h-7.085v3.909h7.085zM3600.135 728.172h-7.085v3.909h7.085zM3600.135 734.47h-7.085v3.908h7.085zM3600.135 740.767h-7.085v3.909h7.085zM3600.135 747.064h-7.085v3.909h7.085zM3591.033 753.574h-7.084v3.909h7.084zM3591.033 690.389h-7.084v3.908h7.084zM3591.033 696.686h-7.084v3.908h7.084zM3591.033 702.984h-7.084v3.908h7.084zM3591.033 709.28h-7.084v3.91h7.084zM3591.033 715.577h-7.084v3.91h7.084zM3591.033 721.875h-7.084v3.909h7.084zM3591.033 728.172h-7.084v3.909h7.084zM3591.033 734.47h-7.084v3.908h7.084zM3591.033 740.767h-7.084v3.909h7.084zM3591.033 747.064h-7.084v3.909h7.084zM3581.931 753.574h-7.084v3.909h7.084zM3581.931 690.389h-7.084v3.908h7.084zM3581.931 696.686h-7.084v3.908h7.084zM3581.931 709.28h-7.084v3.91h7.084zM3581.931 715.577h-7.084v3.91h7.084zM3581.931 721.875h-7.084v3.909h7.084zM3581.931 734.47h-7.084v3.908h7.084zM3581.931 740.767h-7.084v3.909h7.084zM3581.931 747.064h-7.084v3.909h7.084zM3572.83 753.574h-7.085v3.909h7.085zM3572.83 690.389h-7.085v3.908h7.085zM3572.83 696.686h-7.085v3.908h7.085zM3572.83 702.984h-7.085v3.908h7.085zM3572.83 715.577h-7.085v3.91h7.085zM3572.83 728.172h-7.085v3.909h7.085zM3572.83 734.47h-7.085v3.908h7.085zM3572.83 740.767h-7.085v3.909h7.085zM3572.83 747.064h-7.085v3.909h7.085zM3563.728 753.574h-7.084v3.909h7.084zM3563.728 690.389h-7.084v3.908h7.084zM3563.728 696.686h-7.084v3.908h7.084zM3563.728 702.984h-7.084v3.908h7.084zM3563.728 709.28h-7.084v3.91h7.084zM3563.728 721.875h-7.084v3.909h7.084zM3563.728 728.172h-7.084v3.909h7.084zM3563.728 734.47h-7.084v3.908h7.084zM3563.728 740.767h-7.084v3.909h7.084zM3563.728 747.064h-7.084v3.909h7.084zM3554.627 753.574h-7.084v3.909h7.084zM3554.627 690.389h-7.084v3.908h7.084zM3554.627 696.686h-7.084v3.908h7.084zM3554.627 734.47h-7.084v3.908h7.084zM3554.627 740.767h-7.084v3.909h7.084zM3554.627 747.064h-7.084v3.909h7.084zM3545.526 753.574h-7.085v3.909h7.085zM3545.526 690.389h-7.085v3.908h7.085zM3545.526 696.686h-7.085v3.908h7.085zM3545.526 702.984h-7.085v3.908h7.085zM3545.526 709.28h-7.085v3.91h7.085zM3545.526 715.577h-7.085v3.91h7.085zM3545.526 721.875h-7.085v3.909h7.085zM3545.526 728.172h-7.085v3.909h7.085zM3545.526 734.47h-7.085v3.908h7.085zM3545.526 740.767h-7.085v3.909h7.085zM3545.526 747.064h-7.085v3.909h7.085zM3536.425 753.574h-7.085v3.909h7.085zM3536.425 690.389h-7.085v3.908h7.085zM3536.425 696.686h-7.085v3.908h7.085zM3536.425 721.875h-7.085v3.909h7.085zM3536.425 728.172h-7.085v3.909h7.085zM3536.425 734.47h-7.085v3.908h7.085zM3536.425 740.767h-7.085v3.909h7.085zM3536.425 747.064h-7.085v3.909h7.085zM3527.323 753.574h-7.084v3.909h7.084zM3527.323 690.389h-7.084v3.908h7.084zM3527.323 696.686h-7.084v3.908h7.084zM3527.323 709.28h-7.084v3.91h7.084zM3527.323 721.875h-7.084v3.909h7.084zM3527.323 728.172h-7.084v3.909h7.084zM3527.323 734.47h-7.084v3.908h7.084zM3527.323 740.767h-7.084v3.909h7.084zM3527.323 747.064h-7.084v3.909h7.084zM3518.222 753.574h-7.084v3.909h7.084zM3518.222 690.389h-7.084v3.908h7.084zM3518.222 696.686h-7.084v3.908h7.084zM3518.222 734.47h-7.084v3.908h7.084zM3518.222 740.767h-7.084v3.909h7.084zM3518.222 747.064h-7.084v3.909h7.084zM3509.12 753.574h-7.084v3.909h7.085zM3509.12 690.389h-7.084v3.908h7.085zM3509.12 696.686h-7.084v3.908h7.085zM3509.12 702.984h-7.084v3.908h7.085zM3509.12 709.28h-7.084v3.91h7.085zM3509.12 715.577h-7.084v3.91h7.085zM3509.12 721.875h-7.084v3.909h7.085zM3509.12 728.172h-7.084v3.909h7.085zM3509.12 734.47h-7.084v3.908h7.085zM3509.12 740.767h-7.084v3.909h7.085zM3509.12 747.064h-7.084v3.909h7.085zM3500.02 690.577h-7.085v3.908h7.084zM3500.02 696.874h-7.085v3.908h7.084zM3500.02 703.17h-7.085v3.91h7.084zM3500.02 709.469h-7.085v3.908h7.084zM3500.02 715.766h-7.085v3.908h7.084zM3500.02 722.063h-7.085v3.908h7.084zM3500.02 728.36h-7.085v3.91h7.084zM3500.02 734.657h-7.085v3.91h7.084zM3500.02 740.954h-7.085v3.91h7.084zM3500.02 747.252h-7.085v3.909h7.084zM3500.02 753.55h-7.085v3.908h7.084zM3490.918 747.252h-7.084v3.909h7.084zM3490.918 753.55h-7.084v3.908h7.084zM3481.817 747.252h-7.085v3.909h7.085zM3481.817 753.55h-7.085v3.908h7.085zM3472.715 747.252h-7.084v3.909h7.084zM3472.715 753.55h-7.084v3.908h7.084zM3463.614 747.252h-7.084v3.909h7.084zM3463.614 753.55h-7.084v3.908h7.084zM3454.513 747.252h-7.085v3.909h7.085zM3454.513 753.55h-7.085v3.908h7.085zM3445.412 747.252h-7.085v3.909h7.085zM3445.412 753.55h-7.085v3.908h7.085zM3436.31 747.252h-7.084v3.909h7.084zM3436.31 753.55h-7.084v3.908h7.084zM3427.208 747.252h-7.084v3.909h7.084zM3427.208 753.55h-7.084v3.908h7.084zM3418.107 747.252h-7.085v3.909h7.085zM3418.107 753.55h-7.085v3.908h7.085zM3409.005 747.252h-7.084v3.909h7.084zM3409.005 753.55h-7.084v3.908h7.084zM3399.904 747.252h-7.084v3.909h7.084zM3399.904 753.55h-7.084v3.908h7.084zM3390.803 747.252h-7.085v3.909h7.085zM3390.803 753.55h-7.085v3.908h7.085zM3381.701 747.252h-7.084v3.909h7.084zM3381.701 753.55h-7.084v3.908h7.084zM3372.6 747.252h-7.084v3.909h7.084zM3372.6 753.55h-7.084v3.908h7.084zM3363.499 747.252h-7.085v3.909h7.085zM3363.499 753.55h-7.085v3.908h7.085zM3354.398 747.252h-7.085v3.909h7.085zM3354.398 753.55h-7.085v3.908h7.085zM3345.296 747.252h-7.084v3.909h7.084zM3345.296 753.55h-7.084v3.908h7.084zM3336.195 747.252h-7.085v3.909h7.085zM3336.195 753.55h-7.085v3.908h7.085zM3327.094 747.252h-7.085v3.909h7.085zM3327.094 753.55h-7.085v3.908h7.085zM3317.992 747.252h-7.084v3.909h7.084zM3317.992 753.55h-7.084v3.908h7.084zM3308.891 747.252h-7.084v3.909h7.084zM3308.891 753.55h-7.084v3.908h7.084zM3299.79 747.252h-7.085v3.909h7.085zM3299.79 753.55h-7.085v3.908h7.085zM3290.688 747.252h-7.084v3.909h7.084zM3290.688 753.55h-7.084v3.908h7.084zM3281.587 747.252h-7.084v3.909h7.084zM3281.587 753.55h-7.084v3.908h7.084zM3272.485 747.252h-7.085v3.909h7.085zM3272.485 753.55h-7.085v3.908h7.085zM3263.384 747.252h-7.085v3.909h7.085zM3263.384 753.55h-7.085v3.908h7.085zM3490.918 690.577h-7.084v3.908h7.084zM3490.918 696.874h-7.084v3.908h7.084zM3490.918 703.17h-7.084v3.91h7.084zM3490.918 709.469h-7.084v3.908h7.084zM3490.918 715.766h-7.084v3.908h7.084zM3490.918 722.063h-7.084v3.908h7.084zM3490.918 728.36h-7.084v3.91h7.084zM3490.918 734.657h-7.084v3.91h7.084zM3490.918 740.954h-7.084v3.91h7.084zM3481.817 690.577h-7.085v3.908h7.085zM3481.817 740.954h-7.085v3.91h7.085zM3472.715 690.577h-7.084v3.908h7.084zM3472.715 703.17h-7.084v3.91h7.084zM3472.715 709.469h-7.084v3.908h7.084zM3472.715 715.766h-7.084v3.908h7.084zM3472.715 722.063h-7.084v3.908h7.084zM3472.715 728.36h-7.084v3.91h7.084zM3472.715 740.954h-7.084v3.91h7.084zM3463.614 690.577h-7.084v3.908h7.084zM3463.614 703.17h-7.084v3.91h7.084zM3463.614 709.469h-7.084v3.908h7.084zM3463.614 715.766h-7.084v3.908h7.084zM3463.614 722.063h-7.084v3.908h7.084zM3463.614 728.36h-7.084v3.91h7.084zM3463.614 740.954h-7.084v3.91h7.084zM3454.513 690.577h-7.085v3.908h7.085zM3454.513 740.954h-7.085v3.91h7.085zM3445.412 690.577h-7.085v3.908h7.085zM3445.412 696.874h-7.085v3.908h7.085zM3445.412 703.17h-7.085v3.91h7.085zM3445.412 709.469h-7.085v3.908h7.085zM3445.412 715.766h-7.085v3.908h7.085zM3445.412 722.063h-7.085v3.908h7.085zM3445.412 728.36h-7.085v3.91h7.085zM3445.412 734.657h-7.085v3.91h7.085zM3445.412 740.954h-7.085v3.91h7.085zM3436.31 690.577h-7.084v3.908h7.084zM3436.31 740.954h-7.084v3.91h7.084zM3427.208 690.577h-7.084v3.908h7.084zM3427.208 709.469h-7.084v3.908h7.084zM3427.208 715.766h-7.084v3.908h7.084zM3427.208 722.063h-7.084v3.908h7.084zM3427.208 728.36h-7.084v3.91h7.084zM3427.208 734.657h-7.084v3.91h7.084zM3427.208 740.954h-7.084v3.91h7.084zM3418.107 690.577h-7.085v3.908h7.085zM3418.107 696.874h-7.085v3.908h7.085zM3418.107 715.766h-7.085v3.908h7.085zM3418.107 722.063h-7.085v3.908h7.085zM3418.107 728.36h-7.085v3.91h7.085zM3418.107 734.657h-7.085v3.91h7.085zM3418.107 740.954h-7.085v3.91h7.085zM3409.005 690.577h-7.084v3.908h7.084zM3409.005 696.874h-7.084v3.908h7.084zM3409.005 703.17h-7.084v3.91h7.084zM3409.005 722.063h-7.084v3.908h7.084zM3409.005 728.36h-7.084v3.91h7.084zM3409.005 734.657h-7.084v3.91h7.084zM3409.005 740.954h-7.084v3.91h7.084zM3399.904 690.577h-7.084v3.908h7.084zM3399.904 696.874h-7.084v3.908h7.084zM3399.904 715.766h-7.084v3.908h7.084zM3399.904 722.063h-7.084v3.908h7.084zM3399.904 728.36h-7.084v3.91h7.084zM3399.904 734.657h-7.084v3.91h7.084zM3399.904 740.954h-7.084v3.91h7.084zM3390.803 690.577h-7.085v3.908h7.085zM3390.803 709.469h-7.085v3.908h7.085zM3390.803 715.766h-7.085v3.908h7.085zM3390.803 722.063h-7.085v3.908h7.085zM3390.803 728.36h-7.085v3.91h7.085zM3390.803 734.657h-7.085v3.91h7.085zM3390.803 740.954h-7.085v3.91h7.085zM3381.701 690.577h-7.084v3.908h7.084zM3381.701 740.954h-7.084v3.91h7.084zM3372.6 690.577h-7.084v3.908h7.084zM3372.6 696.874h-7.084v3.908h7.084zM3372.6 703.17h-7.084v3.91h7.084zM3372.6 709.469h-7.084v3.908h7.084zM3372.6 715.766h-7.084v3.908h7.084zM3372.6 722.063h-7.084v3.908h7.084zM3372.6 728.36h-7.084v3.91h7.084zM3372.6 734.657h-7.084v3.91h7.084zM3372.6 740.954h-7.084v3.91h7.084zM3363.499 690.577h-7.085v3.908h7.085zM3363.499 709.469h-7.085v3.908h7.085zM3363.499 740.954h-7.085v3.91h7.085zM3354.398 690.577h-7.085v3.908h7.085zM3354.398 696.874h-7.085v3.908h7.085zM3354.398 703.17h-7.085v3.91h7.085zM3354.398 709.469h-7.085v3.908h7.085zM3354.398 715.766h-7.085v3.908h7.085zM3354.398 722.063h-7.085v3.908h7.085zM3354.398 728.36h-7.085v3.91h7.085zM3354.398 734.657h-7.085v3.91h7.085zM3354.398 740.954h-7.085v3.91h7.085zM3345.296 690.577h-7.084v3.908h7.084zM3345.296 722.063h-7.084v3.908h7.084zM3345.296 728.36h-7.084v3.91h7.084zM3345.296 740.954h-7.084v3.91h7.084zM3336.195 690.577h-7.085v3.908h7.085zM3336.195 703.17h-7.085v3.91h7.085zM3336.195 709.469h-7.085v3.908h7.085zM3336.195 722.063h-7.085v3.908h7.085zM3336.195 734.657h-7.085v3.91h7.085zM3336.195 740.954h-7.085v3.91h7.085zM3327.094 690.577h-7.085v3.908h7.085zM3327.094 703.17h-7.085v3.91h7.085zM3327.094 709.469h-7.085v3.908h7.085zM3327.094 728.36h-7.085v3.91h7.085zM3327.094 734.657h-7.085v3.91h7.085zM3327.094 740.954h-7.085v3.91h7.085zM3317.992 690.577h-7.084v3.908h7.084zM3317.992 740.954h-7.084v3.91h7.084zM3308.891 690.577h-7.084v3.908h7.084zM3308.891 696.874h-7.084v3.908h7.084zM3308.891 703.17h-7.084v3.91h7.084zM3308.891 709.469h-7.084v3.908h7.084zM3308.891 715.766h-7.084v3.908h7.084zM3308.891 722.063h-7.084v3.908h7.084zM3308.891 728.36h-7.084v3.91h7.084zM3308.891 734.657h-7.084v3.91h7.084zM3308.891 740.954h-7.084v3.91h7.084zM3299.79 690.577h-7.085v3.908h7.085zM3299.79 722.063h-7.085v3.908h7.085zM3299.79 728.36h-7.085v3.91h7.085zM3299.79 734.657h-7.085v3.91h7.085zM3299.79 740.954h-7.085v3.91h7.085zM3290.688 690.577h-7.084v3.908h7.084zM3290.688 703.17h-7.084v3.91h7.084zM3290.688 709.469h-7.084v3.908h7.084zM3290.688 722.063h-7.084v3.908h7.084zM3290.688 728.36h-7.084v3.91h7.084zM3290.688 734.657h-7.084v3.91h7.084zM3290.688 740.954h-7.084v3.91h7.084zM3281.587 690.577h-7.084v3.908h7.084zM3281.587 703.17h-7.084v3.91h7.084zM3281.587 709.469h-7.084v3.908h7.084zM3281.587 722.063h-7.084v3.908h7.084zM3281.587 728.36h-7.084v3.91h7.084zM3281.587 734.657h-7.084v3.91h7.084zM3281.587 740.954h-7.084v3.91h7.084zM3272.323 740.954h-7.085v3.91h7.085zM3272.485 690.577h-7.085v3.908h7.085zM3263.384 690.577h-7.085v3.908h7.085zM3263.384 696.874h-7.085v3.908h7.085zM3263.384 703.17h-7.085v3.91h7.085zM3263.384 709.469h-7.085v3.908h7.085zM3263.384 715.766h-7.085v3.908h7.085zM3263.384 722.063h-7.085v3.908h7.085zM3263.384 728.36h-7.085v3.91h7.085zM3263.384 734.657h-7.085v3.91h7.085zM3263.384 740.954h-7.085v3.91h7.085zM1247.478 682.582h-7.945v67.803h7.945zM1263.347 701.151h-7.945v30.697h7.945zM1231.608 698.87h-7.945v35.154h7.945zM1215.74 712.454h-7.946v8.606h7.945zM1184 714.503h-7.945v5.516H1184zM1168.132 714.774h-7.946v2.758h7.946zM1199.87 704.615h-7.946v23.722h7.945zM1279.216 706.97h-7.945v20.05h7.945zM1295.086 704.615h-7.945v23.722h7.945zM1310.955 714.503h-7.946v4.509h7.946zM1326.824 712.454h-7.945v8.606h7.945zM1342.693 714.217h-7.945v3.627h7.945z"/></g></g></svg>