<svg class="scene-svg-mobile pk100-scene" viewBox="0 0 4634 2000" xmlns="http://www.w3.org/2000/svg"><title>PK100 (Mobile)</title>
<defs>
  <pattern id="weave_alt" width="15" height="15" patternUnits="userSpaceOnUse">
    <rect width='50' height='50' fill='#2E2E2E'/>
    <circle cx='3' cy='4.3' r='5.8' fill='#5A5A5A'/>
    <circle cx='3' cy='3' r='5.8' fill='#878787'/>
    <circle cx='10.5' cy='12.5' r='5.8' fill='#5A5A5A'/>
    <circle cx='10.5' cy='11.3' r='5.8' fill='#878787'/>
  </pattern>
  <pattern id="weave" width="55" height="60" patternUnits="userSpaceOnUse">
    <rect width='60' height='60' fill='#2e2e2e'/>
    <rect width='42.42' height='42.42' transform='translate(30 0) rotate(45)' fill='black'/>
  </pattern>
</defs>
<g fill="none" fill-rule="evenodd"><path d="M-2453.818 607.919c5.128 26.642 12.767 49.78 24.198 78.111 16.02 39.727 40.301 85.21 64.936 128.499 30.552 53.672 67.095 105.342 106.799 155.952 60.182 76.709 159.324 178.208 238.398 264.36 79.071 86.153 228.965 223.073 318.647 291.507 39.226 29.936 86.72 50.667 127.418 61.436 52.322 13.853 145.54 17.988 168.54 17.626 28.522-.45 286.728-1.854 286.728-1.854l2778.98 1.025 11.642.004 274.129.1 34.638.013 181.802.067 50.1.02 105.801.038 45.018.018 420.746.155 127.086.047 2629.213.969v-149.493c-18.068-.003-36.1-.007-54.103-.012h-4.75l-38.88-.011-22.968-.006c-10.393-.003-20.772-.005-31.145-.009l-19.899-.005c-11.176-.002-22.336-.005-33.489-.009l-15.66-.005-40.176-.011-30.566-.011-26.855-.007c-7.018-.002-14.025-.006-21.034-.007l-32.12-.011-12.026-.004-42.882-.014a41288051.259 41288051.259 0 0 1-109.856-.041l-13.11-.006c-10.819-.004-21.63-.007-32.429-.013l-29.842-.01c-5.14-.004-10.281-.006-15.416-.008l-23.084-.009c-14.71-.007-29.403-.012-44.072-.02h-3.559l-99.94-.045-12.247-.005a34981175.622 34981175.622 0 0 1-58.669-.027l-26.453-.014-12.888-.006-95.546-.048c-6.314-.002-12.613-.006-18.919-.01-11.538-.005-23.076-.012-34.595-.018-2.939-.001-5.875-.003-8.814-.003-14.492-.01-28.97-.016-43.428-.024l-3.789-.001-48.187-.027c-.79 0-1.577 0-2.364-.002-31.053-.016-62.022-.034-92.927-.052-6.029-.002-12.048-.006-18.073-.01l-81.942-.048c-6.528-.004-13.057-.007-19.578-.013l-28.907-.016h-.142c-397.081-.241-782.954-.524-1164.715-.82-29.98-.023-59.944-.047-89.876-.068a99128912.213 99128912.213 0 0 1-318.242-.25l-116.364-.09h.001l-13.212-.012c-105.1-.08-210.14-.163-315.275-.245l-28.71-.021-285.227-.215c-3.249-.001-6.494-.005-9.742-.007-98.857-.072-197.931-.144-297.348-.212l-4.717-.004-59.994-.041-30.823-.022a63469814.49 63469814.49 0 0 0-66.922-.045l-64.079-.042-6.245-.003a50129966.668 50129966.668 0 0 0-161.743-.103 644047.95 644047.95 0 0 0-74.626-.045l-59.286-.036c-5.269-.004-10.537-.005-15.809-.009-19.295-.01-38.611-.023-57.95-.034l-25.49-.015-51.545-.028c-11.612-.006-23.24-.013-34.87-.018a49257691.585 49257691.585 0 0 0-133.406-.07l-13.603-.008-48.442-.023-30.768-.017-42.282-.018c-15.743-.009-31.503-.016-47.28-.023-13.838-.005-27.69-.013-41.555-.018a47175986.803 47175986.803 0 0 0-84.745-.036l-30.29-.013-38.69-.016-20.61-.009-20.552-.007-3.364-.002c-166.944-.065-336.081-.117-507.928-.155-1.795 0-3.584 0-5.378-.002-56.098-.01-112.49-.021-169.184-.03-3.022-.002-6.045-.002-9.068-.002l-32.286-.005h-1.29c-36.494-.006-73.12-.011-109.876-.015-4.04 0-8.086 0-12.13-.002-16.346-.001-32.719-.003-49.118-.003-6.872-.002-13.74-.002-20.621-.002-6.937-.002-13.88-.002-20.828-.002-9.413-.002-18.834-.002-28.264-.002l-86.864-.005H-917.242l-1.853-.002h-.78l-1.287-.002h-.938l-1.267-.001c-.436-.002-.872-.002-1.328-.002-.36-.002-.737-.002-1.112-.002l-1.407-.004-1.26-.001c-.997-.004-2.033-.006-3.109-.008-.418-.002-.827-.002-1.256-.003l-1.288-.004a23298.217 23298.217 0 0 0-3.622-.009l-1.49-.005c-.726-.002-1.452-.004-2.201-.008l-2.01-.005-1.322-.005-3.67-.013-3.01-.01c-.183 0-.36-.003-.545-.003-1.156-.003-2.331-.009-3.526-.014h-.156c-7.52-.029-15.775-.067-24.593-.112l-.034-.001a21397.02 21397.02 0 0 1-53.26-.34h-.028l-5.166-.04c-79.514-.63-171.133-1.846-194.741-4.035-26.756-2.474-49.79-7.837-68.895-13.706-31.868-9.794-40.453-12.29-69.15-24.64-26.383-11.346-69.098-36.039-95.026-54.887-25.923-18.852-80.844-73.14-96.184-86.121-15.344-12.982-141.624-141.62-168.768-169.945-27.145-28.325-155.784-211.254-178.207-243.12-22.424-31.864-106.218-161.685-106.218-161.685s-116.838-215.973-136.9-247.839c-20.064-31.864-34.226-56.649-53.11-69.63-18.882-12.982-44.845-24.785-102.674-14.16-57.83 10.62-92.055 49.564-114.478 82.612-22.422 33.044-33.638 76.722-35.404 112.117-.72 14.374 1.196 32.276 4.697 50.501" class="svg-shaft-segment" style="fill: {{customize.userStick.customColor.shaft.hex}}" /><g class="svg-logo-segment" style="fill: {{customize.userStick.customColor.logo.hex}}" fill="#FFF"><path d="M2363.957 1604.84l227.678.085 42.076-49.321h-157.516l86.643-100.82-116.363-.092-96.038 115.646c-9.87 11.816-3.33 27.099 13.52 34.502M2212.846 1477.487l.276 57.36h-50.806l50.53-57.36zm-114.023 127.256l20.424-22.498 93.891-.191v22.73l105.8.04-.002-127.46h38.453c25.913 0 49.483-8.238 60.463-21.128l1.334-1.566c-100.403-.077-200.758-.157-301.196-.234-37.239 40.894-117.625 129.24-136.755 150.262l117.588.045zM1946.596 1604.686c6.113-2.3 11.209-5.436 14.65-9.218l36.433-40.018-126.315-.047 19.01-20.835H2016.5l33.664-36.954h-132.401l18.691-20.86h132.547l20.277-22.339-266.665-.202-130.128 150.38 254.111.093zM1674.224 1595.662l35.525-40.827-141.494.485 202.134-76.558 23.921-24.569c-98.858-.072-197.932-.144-297.347-.213l-22.091 23.587 144.685-.285-160.013 57.813c-31.8 13.277-56.45 35.51-71.32 49.049l-20.219 20.329 292.82.108c5.592-2.304 10.233-5.331 13.4-8.919M600.797 1532.664v-27.95l11.113 27.95h6.339l10.888-27.95v27.95h6.877v-40.128h-7.437l-13.328 30.45-13.614-30.45h-7.715v40.128zM651.871 1492.535h-7.437v40.129h7.437zM667.724 1498.99h8.278c8.325 0 12.49 4.172 12.49 12.514 0 9.804-4.165 14.706-12.49 14.706h-8.278v-27.22zm28.201 12.514c0-12.646-6.641-18.968-19.923-18.968h-15.715v40.128h15.715c13.282 0 19.923-7.052 19.923-21.16zM718.473 1514.985h-14.03v5.893h14.03zM762.95 1532.664l-18.91-21.413 17.114-18.715h-9.092l-14.929 16.556v4.827l15.52 18.745zM732.926 1492.535h-7.437v40.129h7.437zM773.197 1492.535h-7.438v40.129h7.438zM801.818 1532.945c4.399 0 8.326-.654 11.787-1.964v-6.735c-3.46 1.495-7.205 2.245-11.224 2.245-9.634 0-14.452-4.816-14.452-14.454 0-8.884 4.818-13.327 14.452-13.327 4.02 0 7.763.748 11.224 2.243v-6.735c-3.46-1.31-7.388-1.964-11.787-1.964-14.404 0-21.608 6.596-21.608 19.783 0 13.939 7.204 20.908 21.608 20.908M828.058 1492.535h-7.437v40.129h7.437zM858.082 1532.664l-18.912-21.413 17.115-18.715h-9.091l-14.93 16.556v4.827l15.52 18.745zM867.993 1525.362h8.176v-1.716h-8.176v-5.49h8.576v-1.715h-10.693v16.355h2.117zM889.759 1531.08h-8.555v-14.64h-2.117v16.355h10.672zM903.138 1531.08h-8.747v-5.719h8.176v-1.715h-8.176v-5.49h8.574v-1.715h-10.692v16.354h10.865zM907.255 1532.795l5.147-6.542 5.146 6.542h2.575l-6.43-8.178 6.43-8.176h-2.575l-5.146 6.542-5.147-6.542h-2.575l6.441 8.176-6.44 8.178zM930.301 1518.192h4.321c1.968 0 2.953.906 2.953 2.72 0 2.135-1.68 3.45-5.032 3.946l.432 1.784c4.57-.701 6.852-2.64 6.852-5.822 0-2.919-1.67-4.38-5.009-4.38h-6.634v16.355h2.117v-14.603zM944.747 1518.192h4.666c1.739 0 2.607.753 2.607 2.263 0 1.906-1.564 3.106-4.69 3.603v1.382l5.206 7.355h2.789l-5.616-7.708c3.045-1.022 4.563-2.595 4.563-4.724 0-2.615-1.554-3.923-4.664-3.923h-6.978v16.355h2.117v-14.603zM965.194 1518.042c3.905 0 5.856 2.177 5.856 6.53 0 4.416-1.951 6.623-5.856 6.623-3.987 0-5.981-2.207-5.981-6.623 0-4.353 1.994-6.53 5.981-6.53m0 14.868c5.391 0 8.085-2.757 8.085-8.268 0-5.544-2.694-8.315-8.085-8.315-5.473 0-8.212 2.77-8.212 8.315 0 5.511 2.739 8.268 8.212 8.268M978.713 1525.362h8.176v-1.716h-8.176v-5.49h8.576v-1.715h-10.693v16.355h2.117zM992.264 1516.44h-2.115v16.355h2.115zM1007.168 1531.08h-8.555v-14.64h-2.117v16.355h10.672zM1020.547 1531.08h-8.748v-5.719h8.176v-1.715h-8.176v-5.49h8.575v-1.715h-10.692v16.354h10.865z"/></g><g class="svg-accent-segment" style="fill: {{customize.userStick.customColor.accent.hex}}"><path d="M4203.546 1541.153c.229 0 .456-.005.679-.016l11.71-.573c-4.604-1.43-9.135-4.027-11.852-7.106l-68.41-77.538-17.894-.011 68.517 77.659c3.69 4.182 11.428 7.585 17.25 7.585M215.169 1453.272l-18.59-.007c-95.098-.036-190.933-.069-287.566-.096l-108.516-.029 370.077 41.614 44.595-41.482z"/><path d="M4222.89 1539.387c.225 0 .449-.005.67-.016L5541 1474.83v-16.886l-1317.494 65.77-62.259-67.777-22.424-.013 67.028 75.973c3.645 4.131 11.288 7.491 17.04 7.491M169.269 1509.102c.652 0 1.299-.045 1.94-.116l12.474 1.467c4.455 0 8.673-1.703 11.871-4.786l55.638-52.382h-2.627l-54.254 51.078c-2.866 2.764-6.643 4.288-10.522 4.295l-7.758-.911a17.587 17.587 0 0 0 5.428-3.562l53.085-50.905c-1.3-.002-2.603-.002-3.902-.002l-51.057 48.957c-2.783 2.687-6.448 4.164-10.16 4.173l-455.455-53.288h-2.386l-15.42-.004h-5.462l478.567 55.986zM1097.808 1570.448l27.026-21.62H900.467l-13.951 14.397zM894.684 1548.827h-431.09l417.203 14.263z"/><path d="M3810.034 1556.498c-14.821 0-22.232-8.397-22.232-25.192 0-16.89 7.411-25.332 22.232-25.332 14.565 0 21.846 8.443 21.846 25.332 0 16.795-7.28 25.192-21.846 25.192zm-50.351 0c-14.822 0-22.234-8.397-22.234-25.192 0-16.89 7.412-25.332 22.234-25.332 14.563 0 21.846 8.443 21.846 25.332 0 16.795-7.283 25.192-21.846 25.192zm-31.468-.347h-9.234v-42.199h-5.227v-3.798l14.461-4.877v50.874zm-44.67 0l-19.27-23.277v-5.993l18.536-20.56h11.29l-21.255 23.243 23.485 26.587h-12.787zm-24.499-49.83h-9.234v49.83h9.234v-49.83zm-36.202 32.477l-1.325-8.225c8.362-1.51 12.544-4.82 12.544-9.93 0-4.134-2.068-6.203-6.203-6.203h-12.474v41.71h-9.234v-49.828h22.302c10.175 0 15.261 4.68 15.261 14.042 0 10.153-6.958 16.297-20.871 18.434zm-58.254 11.66c-4.689 4.684-10.868 7.026-18.557 7.026-7.662 0-13.842-2.348-18.538-7.045-4.695-4.695-7.05-10.875-7.05-18.538 0-7.684 2.346-13.87 7.036-18.556 4.683-4.686 10.868-7.029 18.552-7.029 7.725 0 13.923 2.332 18.587 6.996 4.66 4.669 6.996 10.861 6.996 18.589 0 7.684-2.34 13.87-7.026 18.556zm-49.873 6.808l-5.37.218c-1.521-.144-2.575-.957-3.157-2.434l-12.836-33.116c-1.171-3.663-2.337-3.663-3.499 0l-11.994 31.799c-1.503 2.502-3 3.751-4.5 3.751h-3.25c-1.666 0-3.334-1.331-5.001-3.994l-12.243-31.556c-1.17-3.663-2.331-3.663-3.497 0l-12.656 33.146c-.562 1.458-1.587 2.26-3.09 2.404h-5.25c-1.83-.144-2.34-1.218-1.53-3.218l17.994-44.982c.833-2.125 2.927-3.166 6.278-3.124 3.335.021 5.437 1.104 6.31 3.25l13.936 34.58 13.958-34.706c.832-2.125 2.93-3.166 6.283-3.124 3.33.021 5.436 1.104 6.31 3.25l18.183 44.887c.789 1.978.331 2.969-1.379 2.969zm-103.55-40.862c-3.626.087-5.435-1.58-5.435-4.996 0-3.394 1.742-5.122 5.217-5.185 3.478-.042 5.215 1.646 5.215 5.059 0 3.418-1.667 5.122-4.997 5.122zm4.811 20.62v15.18c.124 3.52-1.551 5.25-5.029 5.185-3.475-.062-5.217-1.808-5.217-5.245v-24.773c.167-2.646 1.985-3.947 5.466-3.906 3.02-.08 4.61 1.135 4.78 3.656v9.902zm-23.15 5.12v10.093c0 3.395-1.734 5.12-5.218 5.186-3.348-.065-4.984-1.804-4.9-5.218l.089-10.214c0-1.124-.164-2.033-.497-2.719-.75-1.557-2.505-2.34-5.23-2.39-.037 0-.055.015-.085.015-3.627.087-5.442-1.582-5.442-4.996 0-3.394 1.739-5.124 5.22-5.185.124-.004.207.037.331.041 2.71-.052 4.462-.836 5.206-2.385.333-.687.497-1.593.497-2.717 0-1.357-.218-2.334-.652-2.937-.443-.604-1.29-1.105-2.568-1.5-1.493-.457-3.825-.727-6.992-.814h-16.994c-2.334 0-3.5 1.25-3.5 3.75v32.146c.125 3.456-1.547 5.162-5.032 5.123-3.472-.065-5.214-1.791-5.214-5.186v-39.579c0-4.228 1.915-6.392 5.751-6.498h24.86c8.873.106 14.926 2.448 18.153 7.026 1.6 2.314 2.404 5.135 2.404 8.469-.288 5.996-2.768 9.581-7.432 10.745 4.664.998 7.08 4.247 7.244 9.744zm-66.14-9.01c-3.424 2.484-6.878 3.704-10.372 3.733-.036 0-.057.014-.097.014-.022 0-.043-.004-.067-.004-.097 0-.194.02-.288.02v-.03c-3.375-.038-5.08-1.689-5.08-4.984 0-3.394 1.742-5.12 5.217-5.185.13-.002.214.04.337.043 2.582-.092 4.27-.863 4.989-2.37.337-.686.506-1.592.506-2.716 0-1.357-.221-2.334-.657-2.937-.438-.604-1.29-1.105-2.562-1.5-1.5-.457-3.876-.727-7.126-.814h-16.866c-2.337 0-3.5 1.25-3.5 3.75v32.146c.125 3.456-1.55 5.162-5.026 5.123-3.481-.065-5.22-1.791-5.22-5.186V1512.658c0-4.228 1.915-6.392 5.748-6.498h24.988c8.793.106 14.801 2.448 18.025 7.026 1.605 2.314 2.407 5.135 2.407 8.469 0 5.06-1.782 8.886-5.357 11.478zm2214.311-55.094l-1336.657 65.484c-.263.013-.527.02-.796.02-6.474 0-14.87-3.665-19.043-8.396l-69.913-79.24c-384.726-.235-759.032-.509-1129.382-.796l-73.42 149.93 2629.211.97V1478.04z"/><path d="M3546.25 1536.88c-3.62.087-5.435-1.58-5.435-4.996 0-3.396 1.738-5.122 5.218-5.185 3.477-.044 5.22 1.643 5.22 5.057 0 3.42-1.667 5.124-5.002 5.124m10.406-16.475c-2.918-2.58-6.46-3.876-10.624-3.876-4.562 0-8.256 1.444-11.088 4.328-2.835 2.885-4.252 6.568-4.252 11.043 0 6.477 2.628 11.018 7.873 13.62a16.467 16.467 0 0 0 7.467 1.749c5.915 0 10.318-2.331 13.214-6.998 1.441-2.312 2.154-5.102 2.154-8.37 0-4.853-1.583-8.683-4.744-11.496M3759.682 1513.987c-8.434 0-12.65 5.704-12.65 17.11 0 11.592 4.216 17.388 12.65 17.388 8.174 0 12.264-5.796 12.264-17.389 0-11.405-4.09-17.109-12.264-17.109M3810.034 1513.987c-8.434 0-12.65 5.704-12.65 17.11 0 11.592 4.216 17.388 12.65 17.388 8.176 0 12.266-5.796 12.266-17.389 0-11.405-4.09-17.109-12.266-17.109"/></g><g><path d="M4338.892 312.133c-.89-17.839-6.542-39.854-17.845-56.51-11.301-16.655-28.552-36.284-57.7-41.638-29.145-5.353-42.231.595-51.75 7.138-9.517 6.544-16.654 19.036-26.766 35.096-10.113 16.06-69.001 124.915-69.001 124.915s-42.234 65.433-53.537 81.494c-11.301 16.06-76.138 108.259-89.82 122.536-13.681 14.276-77.328 79.113-85.061 85.656-7.733 6.543-35.413 35.118-48.481 44.618-13.067 9.5-34.597 21.943-47.894 27.664-14.467 6.225-18.789 7.484-34.852 12.42-9.631 2.96-21.237 5.658-34.725 6.909-11.871 1.102-58.267 2.55-98.617 3.557-5.31.132-10.513.257-15.52.373h-.004l-2.413.054-.193.005a6538.452 6538.452 0 0 1-11.396.25l-.714.015-1.591.032-.882.019-1.565.031-.038.001c-1.397.028-2.76.056-4.086.081l-.102.002-1.52.03-.756.014-1.287.023-.872.017-1.202.02-1.025.019c-.316.005-.634.012-.943.016-.564.01-1.115.02-1.66.028l-.94.016a2141.261 2141.261 0 0 0-1.919.03l-.978.015-.79.012-1.028.015-.586.008-1.156.014-.41.006a491.953 491.953 0 0 1-1.737.02l-1.02.01c-.154 0-.3.003-.449.003l-.781.007c-.14 0-.28.002-.415.003l-.757.003-.32.002-.942.002h-68.002l-36.996-.001h-23.995l-79.651-.002h-1.661c-40.977 0-81.647-.002-122.033-.004h-11.87l-44.921-.001-178.401-.01h-9.857l-8.17-.001-45.542-.003h-.826c-293.309-.018-574.17-.045-853.17-.064h-2.467l-144.087-.01-28.425-.001-76.168-.004-57.137-.003h-12.449l-28.7-.002-77.106-.002-31.4-.001c-198.626-.006-399.227-.004-605.578.012H1010.63c-69.653.005-139.968.011-211.079.02l-17.023.001-170.659.024h-1.19l-80.18.014-10.107.001-41.486.008h-6.042c-5.078.002-10.153.002-15.241.003l-71.562.015c-6.21 0-12.43.003-18.654.004l-6.77.001-12.517.003-49.675.01-1.942.001V778.353l-.504-.025v1.567l.504.024v60.728l1234.014.11 2092.325.188 37.936.004s132.684-.83 147.06-.606c11.59.182 58.577-1.901 84.949-8.884 20.512-5.428 44.45-15.875 64.22-30.965 45.202-34.491 120.75-103.501 160.606-146.924 39.854-43.423 89.823-94.582 120.156-133.244 20.012-25.508 38.43-51.551 53.83-78.605 12.416-21.817 24.653-44.742 32.73-64.765 5.759-14.278 9.61-25.94 12.194-39.37 1.766-9.185 2.731-18.206 2.368-25.453" class="svg-shaft-segment" style="fill: {{customize.userStick.customColor.shaft.hex}}" /><g class="svg-accent-segment" style="fill: {{customize.userStick.customColor.accent.hex}}"><path d="M1447.335 812.771l-11.208 13.138-49.382.018c-7.957.003-12.194-5.57-8.876-9.542l29.918-36.028h28.776l-27.855 32.414h38.627zM1344.2 825.933v-6.675l-23.025.046-6.018 6.63h-28.848s35.42-38.928 38.954-42.796c.178-.195.303-.3.31-.306 1.532-1.354 4.21-2.377 7.633-2.45h68.028l-6.832 8.021c-2.693 3.161-8.473 5.18-14.827 5.18h-9.43v32.35H1344.2zm-71.521-.073l-57.113.029 36.512-42.195c1.809-2.09 5.645-3.421 9.857-3.42l58.863.002-11.944 13.159h-32.504l-4.584 5.115h32.468l-8.255 9.062h-30.93l-4.661 5.11 30.975.011-8.933 9.814c-1.847 2.029-5.621 3.31-9.751 3.313zm-70.434.126l-66.423-.097 6.086-6.12c3.647-3.319 9.691-8.772 17.49-12.027l39.24-14.177-35.481.07 9.3-9.932c1.871-1.998 5.614-3.257 9.7-3.263l66.732-.135-13.263 13.623-49.57 18.773 34.698-.118-8.711 10.012c-1.822 2.064-5.625 3.38-9.798 3.39zm-179.426-58.9l-37.716 41.912c-2.13 2.366-6.384 4.198-9.651 4.198-.138 0-.273-.004-.406-.01L296.52 779.92l-.016-.001v60.727h.016l1233.999.11 36.083-73.684c-178.502-.003-358.859 0-543.784.012z"/><path d="M969.398 811.702l5.706.28c.113.005.229.008.346.008 2.944 0 6.871-1.704 8.755-3.799l36.99-41.105h-8.962l-36.994 41.112c-1.352 1.502-3.57 2.778-5.84 3.504M1331.736 807.681h12.46l-.068-14.067zM3171.716 767.175a190017716.903 190017716.903 0 0 1-169.034-.008h-9.366l19.167 17.828 159.233-17.82z"/><path d="M3227.768 767.177h-11.129L3013.14 790.67a7.462 7.462 0 0 1-5.207-2.102l-.002-.002-22.438-21.4h-1.977l23.473 22.387a8.777 8.777 0 0 0 2.768 1.806l-3.892.447a7.694 7.694 0 0 1-5.368-2.168l-23.882-22.471-1.327-.001 24.581 23.13c1.616 1.559 3.741 2.417 6.037 2.417h.011l6.353-.731c.307.03.617.048.93.048h.019l215.29-24.852h-.742z"/><path d="M296.52 778.353l668.844 32.79c.113.007.227.009.343.009 2.906 0 6.786-1.682 8.646-3.75l36.278-40.316-10.626.001-33.067 35.999-670.418-33.467-.016-.001-.504-.025v8.735l.504.024.016.001z"/><path d="M2328.713 808.702h4.076v-4.552h-4.076zM2307.246 808.975h5.002v-5.099h-5.002zM2285.78 809.249h5.926v-5.646h-5.926zM2264.315 809.521h6.85v-6.191h-6.85zM2242.849 809.795h7.773v-6.738h-7.773zM2221.383 810.068h8.697v-7.284h-8.697zM2199.916 810.34h9.621v-7.83h-9.62zM2178.45 810.614h10.545v-8.377h-10.545zM2156.985 810.887h11.469v-8.923h-11.47zM2135.519 811.16h12.393v-9.47h-12.393zM2114.052 811.434h13.318v-10.017h-13.318zM2092.586 811.707h14.242v-10.563h-14.242zM1786.53 808.702h4.077v-4.552h-4.077zM1807.073 808.975h5v-5.099h-5zM1827.615 809.249h5.925v-5.646h-5.925zM1848.156 809.521h6.85v-6.191h-6.85zM1868.699 809.795h7.773v-6.738h-7.773zM1889.241 810.068h8.697v-7.284h-8.697zM1909.782 810.34h9.621v-7.83h-9.62zM1930.325 810.614h10.545v-8.377h-10.545zM1950.866 810.887h11.469v-8.923h-11.469zM1971.408 811.16h12.394v-9.47h-12.394zM1991.95 811.434h13.318v-10.017h-13.317z"/></g><g class="svg-logo-segment" style="fill: {{customize.userStick.customColor.logo.hex}}" fill="#FFF"><path d="M2569.871 796.814c0-2.154-.518-3.977-1.553-5.472-2.085-2.96-5.996-4.472-11.73-4.54h-16.065c-2.479.068-3.716 1.466-3.716 4.198v25.576c0 2.193 1.126 3.31 3.369 3.351 2.252.026 3.333-1.077 3.253-3.31v-20.773c0-1.615.753-2.423 2.26-2.423h10.982c2.046.056 3.553.23 4.518.526.826.255 1.373.578 1.66.968.28.391.421 1.022.421 1.899 0 .727-.106 1.312-.321 1.756-.481 1-1.613 1.507-3.364 1.541-.08-.002-.134-.03-.215-.027-2.25.04-3.372 1.158-3.372 3.351 0 2.207 1.172 3.284 3.515 3.23.02 0 .032-.012.055-.012 1.762.032 2.896.54 3.381 1.545.215.443.321 1.03.321 1.757l-.057 6.6c-.055 2.207 1.003 3.33 3.165 3.372 2.253-.042 3.373-1.158 3.373-3.35v-6.523c-.106-3.552-1.668-5.652-4.682-6.297 3.014-.752 4.616-3.07 4.802-6.943M2581.621 797.983c-2.249-.026-3.424.815-3.533 2.525V816.515c0 2.222 1.126 3.35 3.372 3.39 2.247.042 3.33-1.076 3.25-3.35v-16.208c-.109-1.63-1.137-2.416-3.089-2.364M2581.46 786.841c-2.246.041-3.371 1.159-3.371 3.351 0 2.207 1.168 3.285 3.512 3.23 2.152 0 3.229-1.103 3.229-3.31 0-2.206-1.123-3.297-3.37-3.27M2637.655 788.9c-.565-1.385-1.925-2.086-4.077-2.1-2.166-.027-3.521.647-4.06 2.02l-9.02 22.427-9.005-22.347c-.564-1.385-1.922-2.086-4.077-2.1-2.166-.027-3.518.647-4.057 2.02l-11.626 29.067c-.525 1.292-.196 1.986.987 2.079h3.393c.971-.093 1.633-.611 1.997-1.553l8.177-21.42c.754-2.366 1.504-2.366 2.26 0l7.912 20.392c1.077 1.72 2.154 2.58 3.232 2.58h2.1c.968 0 1.936-.805 2.908-2.423l7.75-20.548c.751-2.367 1.504-2.367 2.26 0l8.296 21.399c.375.954 1.057 1.48 2.04 1.573l3.469-.141c1.106 0 1.401-.64.89-1.918l-11.749-29.007zM2677.289 808.843c-1.87 3.016-4.716 4.523-8.538 4.523-1.708 0-3.318-.376-4.825-1.13-3.39-1.682-5.089-4.616-5.089-8.801 0-2.893.917-5.272 2.748-7.137 1.83-1.863 4.218-2.796 7.166-2.796 2.69 0 4.98.836 6.865 2.504 2.042 1.817 3.065 4.293 3.065 7.429 0 2.111-.46 3.915-1.392 5.408m-8.538-21.941c-4.965 0-8.963 1.514-11.988 4.542-3.032 3.028-4.547 7.026-4.547 11.99 0 4.952 1.522 8.947 4.556 11.98 3.034 3.036 7.028 4.552 11.979 4.552 4.968 0 8.963-1.513 11.99-4.54 3.029-3.029 4.542-7.025 4.542-11.991 0-4.994-1.51-8.996-4.521-12.012-3.015-3.015-7.02-4.521-12.011-4.521M2517.27 786.801h-16.149c-2.475.07-3.713 1.467-3.713 4.198V816.576c0 2.193 1.123 3.31 3.372 3.35 2.246.026 3.33-1.077 3.25-3.31v-20.772c0-1.615.75-2.423 2.26-2.423h10.9c2.1.056 3.635.23 4.604.526.822.255 1.372.578 1.655.968.281.391.425 1.022.425 1.899 0 .726-.109 1.312-.327 1.756-.464.973-1.555 1.471-3.223 1.53-.08-.002-.135-.028-.218-.028-2.246.042-3.372 1.158-3.372 3.351 0 2.129 1.103 3.196 3.284 3.221v.02c.06 0 .122-.014.186-.014l.043.002c.025 0 .04-.008.062-.008 2.258-.02 4.49-.808 6.702-2.413 2.31-1.675 3.461-4.147 3.461-7.417 0-2.154-.519-3.978-1.556-5.473-2.083-2.959-5.965-4.47-11.647-4.54M2722.01 786.905h-14.41v32.2h5.966v-26.953h8.06c2.673 0 4.01 1.336 4.01 4.008 0 3.303-2.703 5.441-8.106 6.417l.855 5.314c8.992-1.38 13.488-5.351 13.488-11.911 0-6.05-3.288-9.075-9.862-9.075M2764.431 786.905h-7.295l-11.978 13.285v3.873l12.451 15.042h8.264l-15.177-17.18zM2735.812 819.105h5.967v-32.2h-5.967zM2777.131 791.836h3.378v27.269h5.967V786.23l-9.345 3.152zM2806.81 814.151c-5.45 0-8.175-3.745-8.175-11.236 0-7.37 2.725-11.057 8.174-11.057 5.284 0 7.926 3.687 7.926 11.057 0 7.49-2.642 11.236-7.926 11.236m0-27.47c-9.577 0-14.366 5.457-14.366 16.369 0 10.853 4.79 16.28 14.366 16.28 9.412 0 14.117-5.427 14.117-16.28 0-10.912-4.705-16.37-14.117-16.37M2839.347 814.151c-5.45 0-8.174-3.745-8.174-11.236 0-7.37 2.724-11.057 8.174-11.057 5.283 0 7.926 3.687 7.926 11.057 0 7.49-2.643 11.236-7.926 11.236m0-27.47c-9.577 0-14.367 5.457-14.367 16.369 0 10.853 4.79 16.28 14.367 16.28 9.412 0 14.117-5.427 14.117-16.28 0-10.912-4.705-16.37-14.117-16.37M2013.41 802.843H2012.118v6.984h4.068v-1.124h-2.774zM2019.936 808.752c-1.442 0-2.164-.812-2.164-2.437 0-1.598.722-2.398 2.164-2.398 1.407 0 2.11.8 2.11 2.398 0 1.625-.703 2.437-2.11 2.437m0-5.959c-2.338 0-3.508 1.184-3.508 3.551.105 2.355 1.274 3.531 3.508 3.531 2.301 0 3.454-1.176 3.454-3.53 0-2.368-1.153-3.552-3.454-3.552M2026.965 802.843l-.231.543-2.734 6.441h1.329l1.405-3.452.895-2.2 1.099 2.624h-1.407l-.444 1.123h2.32l.796 1.905h1.392l-3.028-6.984zM2034.975 808.704h-1.442v-4.738h1.442c1.45 0 2.173.725 2.173 2.179 0 1.706-.724 2.559-2.173 2.559m0-5.861H2032.239v6.984h2.735c2.312 0 3.468-1.228 3.468-3.682 0-2.202-1.156-3.302-3.467-3.302M2039.542 809.827h1.294v-6.985h-1.294zM2047.284 802.843v5.09l-3.688-5.09h-1.294v6.984h1.246v-5.197l3.687 5.197h1.295v-6.984h-.33zM2053.51 802.794c-2.506 0-3.76 1.147-3.76 3.443 0 2.426 1.233 3.639 3.698 3.639.045 0 .084-.004.128-.005.788-.013 1.453-.132 1.986-.366v-2.901h-1.294v2.031c-.256.067-.483.1-.692.109-.035.001-.075.009-.109.009-1.582 0-2.374-.839-2.374-2.516 0-1.536.83-2.308 2.483-2.318l.032-.002c.7 0 1.352.13 1.954.39v-1.171c-.583-.221-1.248-.33-1.986-.337-.022 0-.042-.005-.065-.005M2058.957 803.966h3.78l-3.877 4.738v1.123h5.177v-1.123h-3.718l3.718-4.738v-1.123h-5.08zM2069.666 808.382c-.334.245-.771.37-1.317.37-1.442 0-2.164-.812-2.164-2.437 0-1.599.722-2.398 2.164-2.398.546 0 .983.124 1.317.365.526.379.793 1.055.793 2.033 0 .995-.267 1.681-.793 2.067m0-5.413a4.788 4.788 0 0 0-1.317-.175c-1.154 0-2.02.29-2.605.867-.6.592-.902 1.485-.902 2.684.05 1.137.355 1.992.902 2.58.585.63 1.45.951 2.605.951.496 0 .928-.065 1.317-.175.622-.175 1.105-.492 1.455-.946.445-.58.682-1.374.682-2.41 0-1.042-.237-1.84-.682-2.423-.35-.458-.833-.777-1.455-.953M2078.005 807.932l-3.689-5.09h-1.293v6.985h1.246v-5.197l3.687 5.197h1.295v-6.985h-1.246zM2081.986 806.872h3.345v-1.158h-3.33v-1.758h3.496v-1.113h-4.78v6.984h4.849v-1.124h-3.58z"/></g></g></g></svg>
