<?xml version="1.0" encoding="UTF-8" standalone="no"?>
<svg viewBox="0 0 4634 878" version="1.1" xmlns="http://www.w3.org/2000/svg" xmlns:xlink="http://www.w3.org/1999/xlink">
    <!-- Generator: Sketch 40.3 (33839) - http://www.bohemiancoding.com/sketch -->
    <title>PK100 (Checkout)</title>
    <desc>Created with Sketch.</desc>
    <defs>
        <polygon id="path-1" points="-9.34535855e-13 0.595912024 -9.34535855e-13 637.885283 4042.66083 637.885283 4042.66083 0.595912024 -9.34535855e-13 0.595912024"></polygon>
        <polygon id="path-3" points="-9.81112401e-13 638.210363 4042.66154 638.210363 4042.66154 0.920469607 -9.81112401e-13 0.920469607"></polygon>
    </defs>
    <g id="CustomStickModel" stroke="none" stroke-width="1" fill="none" fill-rule="evenodd">
        <g id="PK100-(Checkout)">
            <g id="Small-Top" transform="translate(2317.203844, 439.173529) rotate(180.000000) translate(-2317.203844, -439.173529) translate(295.703844, 119.673529)">
                <g id="ShaftSegment" transform="translate(-0.000000, 0.324926)">
                    <mask id="mask-2" fill="white">
                        <use xlink:href="#path-1"></use>
                    </mask>
                    <g id="Clip-2"></g>
                    <path d="M4040.21106,510.498335 C4037.61973,496.887351 4033.75913,485.06668 4027.9828,470.593216 C4019.88647,450.297782 4007.61632,427.061447 3995.1668,404.946244 C3979.72713,377.526375 3961.26,351.129148 3941.19581,325.274077 C3910.78267,286.085083 3860.68047,234.231349 3820.72054,190.218174 C3780.76152,146.204999 3705.01184,76.2557523 3659.69078,41.2944757 C3639.86788,26.0008732 3615.86661,15.4099499 3595.29981,9.90830304 C3568.85835,2.83081223 3521.75085,0.718334481 3510.12717,0.903348872 C3495.71366,1.13346627 3365.22816,1.8505121 3365.22816,1.8505121 L1960.86068,1.32676489 L1954.97691,1.32492395 L1816.44515,1.27337765 L1816.44515,1.27337765 L1798.94043,1.26693437 L1707.06637,1.23287699 L1681.74758,1.22275183 L1628.28102,1.20342196 L1605.5308,1.19421727 L1392.90559,1.11505688 L1328.68217,1.09112467 L-0.000273155576,0.595912024 L-0.000273155576,65.9741068 L-0.000273155576,66.4067275 L-0.000273155576,67.0105556 L-0.000273155576,67.1964904 L-0.000273155576,67.6143836 L-0.000273155576,76.2410248 L-0.000273155576,76.9681958 C9.13040721,76.9700367 18.2428772,76.9718777 27.3407789,76.9746391 L29.7409059,76.9746391 C36.3002818,76.97648 42.8459999,76.978321 49.3889864,76.9801619 C53.261422,76.9810824 57.1283944,76.9820028 60.9962773,76.9829233 C66.2481485,76.9847642 71.4936461,76.9856847 76.7355016,76.9875257 C80.088031,76.9884461 83.4423815,76.9893666 86.7912688,76.9902871 C92.4392156,76.9912075 98.0789677,76.9930485 103.715078,76.9948894 C106.35194,76.9958099 108.994264,76.9967304 111.629305,76.9976508 C118.408116,76.9994918 125.171448,77.0013327 131.932049,77.0031736 C137.087405,77.0050146 142.233656,77.0068555 147.378996,77.0086965 C151.904274,77.0096169 156.432283,77.0105374 160.950276,77.0123783 C164.496746,77.0132988 168.037753,77.0151397 171.57967,77.0160602 C176.994524,77.0179012 182.407557,77.0197421 187.811485,77.021583 C189.838299,77.0225035 191.864203,77.0225035 193.889196,77.023424 C201.123266,77.0261854 208.3455,77.0289468 215.559539,77.0307877 C217.26494,77.0317082 218.973073,77.0326287 220.677564,77.0326287 C237.529441,77.039072 254.32942,77.0455152 271.075678,77.0519585 C273.286417,77.052879 275.491693,77.0537995 277.700611,77.0547199 C283.168275,77.0565609 288.631387,77.0584018 294.089035,77.0611632 C299.11965,77.0630042 304.147534,77.0648451 309.169954,77.066686 C311.767664,77.068527 314.365373,77.0694475 316.960351,77.0703679 C320.851908,77.0722089 324.739822,77.0740498 328.625915,77.0749703 C336.059389,77.0786521 343.484668,77.0814136 350.89811,77.0850954 L352.696385,77.0850954 C369.582862,77.0933797 386.415619,77.1007434 403.20194,77.1081072 C405.266996,77.1090276 407.3275,77.1099481 409.390735,77.1108686 C414.999529,77.11363 420.60104,77.1163914 426.198908,77.1191528 C430.481077,77.1209937 434.762335,77.1228347 439.039041,77.1246756 C443.49785,77.127437 447.954839,77.129278 452.407275,77.1320394 C454.577951,77.1329599 456.750448,77.1338803 458.920214,77.1348008 C475.059156,77.143085 491.152572,77.1513692 507.205015,77.1596535 C510.395472,77.1605739 513.578645,77.1624149 516.76546,77.1642558 C522.596421,77.1670172 528.427382,77.1706991 534.248327,77.1734605 C535.733383,77.174381 537.217528,77.1753015 538.702584,77.1753015 C546.025885,77.1799038 553.342812,77.1835857 560.648814,77.1872676 C561.287087,77.188188 561.925361,77.188188 562.563634,77.188188 C570.690923,77.1927904 578.808196,77.1973927 586.915454,77.2019951 C587.314261,77.2019951 587.712157,77.2019951 588.110054,77.2029155 C603.802842,77.2111998 619.452835,77.2204045 635.070961,77.2296092 C638.117556,77.2305296 641.159598,77.2323706 644.204373,77.2342115 C658.03515,77.2424957 671.838612,77.25078 685.613847,77.2590642 C688.912656,77.2609051 692.212375,77.2627461 695.507542,77.2655075 C700.380638,77.2682689 705.24918,77.2710303 710.115902,77.2737917 L710.187833,77.2737917 C910.854293,77.3971346 1105.85642,77.5416484 1298.78074,77.6926054 C1313.93085,77.7045715 1329.07369,77.7165376 1344.20013,77.7275832 C1383.80041,77.7588792 1423.32693,77.7901752 1462.80702,77.8214711 C1476.88363,77.8325168 1490.95843,77.8435624 1505.02503,77.8555285 C1524.63396,77.8711765 1544.23378,77.885904 1563.82996,77.901552 L1563.82905,77.901552 C1566.05527,77.9033929 1568.28058,77.9052339 1570.50589,77.9070748 C1623.61826,77.9484959 1676.70149,77.9908375 1729.83116,78.0322587 C1734.66692,78.0359405 1739.5036,78.0396224 1744.34027,78.0433043 C1792.3246,78.0801231 1840.35355,78.1169419 1888.48083,78.1528402 C1890.12249,78.1537606 1891.76234,78.1556016 1893.404,78.1565221 C1943.36143,78.1933408 1993.42902,78.2301596 2043.66962,78.2651375 C2044.46359,78.2660579 2045.25938,78.2660579 2046.05335,78.2669784 C2056.15191,78.2743422 2066.25867,78.2807855 2076.3718,78.2881492 C2081.56085,78.2918311 2086.75444,78.295513 2091.94804,78.2991948 C2097.56139,78.3028767 2103.17747,78.3065586 2108.79537,78.3102405 C2114.45151,78.3139224 2120.10583,78.3176042 2125.76743,78.3222066 C2136.55071,78.3286499 2147.34672,78.3360136 2158.15003,78.3433774 C2159.20168,78.3442979 2160.25333,78.3442979 2161.30589,78.3452183 C2184.00056,78.3599458 2206.73985,78.3746734 2229.53013,78.3894009 C2234.03265,78.3921623 2238.53607,78.3949237 2243.04314,78.3976851 C2253.03881,78.4041284 2263.0445,78.4105717 2273.06112,78.4160945 C2275.62514,78.4179354 2278.19098,78.4197764 2280.75591,78.4206968 C2290.73246,78.4271401 2300.71903,78.4326629 2310.71652,78.4391062 C2313.37888,78.4409472 2316.04123,78.4418676 2318.70541,78.4437086 C2328.45616,78.4492314 2338.21782,78.4556747 2347.99042,78.4611975 C2352.2817,78.4630384 2356.5757,78.4657998 2360.87244,78.4685613 C2369.54604,78.4731636 2378.22874,78.4777659 2386.92055,78.4832888 C2392.78885,78.4860502 2398.66533,78.4897321 2404.54182,78.4924935 C2411.43809,78.4961753 2418.338,78.4998572 2425.2461,78.5035391 C2430.20388,78.5063005 2435.16256,78.5090619 2440.1258,78.5118233 C2450.72423,78.5173461 2461.33268,78.522869 2471.95935,78.5283918 C2474.24748,78.5293122 2476.54381,78.5311532 2478.83376,78.5320737 C2486.98472,78.5357555 2495.14479,78.5403579 2503.31397,78.5440398 C2508.49482,78.5468012 2513.67567,78.5495626 2518.86289,78.552324 C2525.97768,78.5550854 2533.10158,78.5587673 2540.23003,78.5615287 C2548.18614,78.566131 2556.15045,78.5698129 2564.12386,78.5734948 C2571.11664,78.5762562 2578.11671,78.5799381 2585.12315,78.5826995 C2588.59223,78.5845404 2592.05675,78.5863814 2595.52856,78.5873018 C2606.3182,78.5919042 2617.12606,78.5965065 2627.94939,78.6011089 C2633.04556,78.6038703 2638.15266,78.6057112 2643.25703,78.6075522 C2649.76724,78.6103136 2656.28564,78.613075 2662.8086,78.6158364 C2666.28404,78.6176773 2669.74493,78.6185978 2673.22402,78.6204387 L2673.22402,78.6204387 C2676.68308,78.6213592 2680.1476,78.6232001 2683.6103,78.6241206 C2684.17665,78.6241206 2684.74299,78.6250411 2685.31024,78.6250411 C2769.67616,78.658178 2855.15018,78.6848716 2941.99362,78.7042015 C2942.9005,78.7042015 2943.80465,78.7042015 2944.71152,78.7051219 L2944.71152,78.7051219 C2973.06052,78.7106448 3001.55884,78.7161676 3030.20922,78.7207699 C3031.73616,78.7216904 3033.26401,78.7216904 3034.79186,78.7216904 C3040.22583,78.7226109 3045.66254,78.7235313 3051.10744,78.7244518 L3051.75937,78.7244518 C3070.20193,78.7272132 3088.71095,78.7299746 3107.28553,78.7318156 C3109.32691,78.7318156 3111.37193,78.7318156 3113.41605,78.732736 C3121.67627,78.7336565 3129.95015,78.734577 3138.23769,78.734577 C3141.71041,78.7354974 3145.18131,78.7354974 3148.65858,78.7354974 C3152.16408,78.7364179 3155.67322,78.7364179 3159.18417,78.7364179 C3163.94072,78.7373384 3168.70183,78.7373384 3173.46748,78.7373384 C3188.05672,78.7382588 3202.68966,78.7391793 3217.36449,78.7400998 L3232.67577,78.7400998 L3237.43323,78.7400998 L3263.69714,78.7400998 C3263.98669,78.7400998 3264.30264,78.7410203 3264.63315,78.7410203 L3265.02741,78.7410203 C3265.23865,78.7410203 3265.45262,78.7419407 3265.67752,78.7419407 L3266.1519,78.7419407 C3266.35859,78.7428612 3266.57438,78.7428612 3266.79199,78.7428612 C3267.01234,78.7437817 3267.23268,78.7437817 3267.46305,78.7437817 C3267.64515,78.7447021 3267.83545,78.7447021 3268.02483,78.7447021 C3268.25975,78.7456226 3268.49102,78.7456226 3268.73595,78.7465431 C3268.94173,78.7465431 3269.16116,78.7474635 3269.3724,78.7474635 C3269.87683,78.7493045 3270.40038,78.750225 3270.94396,78.7511454 C3271.1552,78.7520659 3271.36189,78.7520659 3271.57859,78.7529864 C3271.79074,78.7539068 3272.012,78.7539068 3272.22961,78.7548273 C3272.58835,78.7557478 3272.95347,78.7566682 3273.32587,78.7575887 C3273.56807,78.7585092 3273.81209,78.7594296 3274.05975,78.7594296 C3274.3065,78.7603501 3274.55963,78.7612706 3274.81275,78.7621911 C3275.17969,78.7631115 3275.54663,78.764032 3275.9254,78.7658729 C3276.25865,78.7667934 3276.59919,78.7677139 3276.94063,78.7686343 C3277.16462,78.7695548 3277.38223,78.7704753 3277.60895,78.7713958 C3278.21263,78.7732367 3278.8336,78.7750776 3279.46368,78.777839 C3279.96173,78.77968 3280.47071,78.7815209 3280.98516,78.7833619 C3281.07712,78.7833619 3281.16726,78.7842823 3281.26013,78.7842823 C3281.84469,78.7861233 3282.43834,78.7888847 3283.04202,78.7916461 L3283.12123,78.7916461 C3286.92083,78.8063736 3291.09282,78.8257035 3295.5489,78.8487152 C3295.55436,78.8496357 3295.55983,78.8496357 3295.5662,78.8496357 C3303.76451,78.8919773 3312.9216,78.9490464 3322.48113,79.022684 L3322.4957,79.022684 C3323.36342,79.0300477 3324.23297,79.036491 3325.10616,79.0438548 C3365.28916,79.3650987 3411.58903,79.9864156 3423.51956,81.1047862 C3437.04076,82.368591 3448.68083,85.108829 3458.33597,88.1067985 C3474.44031,93.1104713 3478.77893,94.3853217 3493.28076,100.695141 C3506.61348,106.491338 3528.20006,119.106374 3541.30242,128.735406 C3554.40296,138.36628 3582.15739,166.10095 3589.90954,172.732933 C3597.66352,179.364917 3661.47995,245.082765 3675.19691,259.553468 C3688.91478,274.02417 3753.92308,367.478529 3765.25448,383.757954 C3776.5868,400.036459 3818.93228,466.359056 3818.93228,466.359056 C3818.93228,466.359056 3877.97668,576.694827 3888.11531,592.974253 C3898.25484,609.252758 3905.41152,621.914738 3914.95466,628.546721 C3924.4969,635.178705 3937.61747,641.208701 3966.84147,635.780692 C3996.06548,630.355444 4013.36169,610.459493 4024.69309,593.57624 C4036.0245,576.694827 4041.69248,554.380803 4042.58478,536.298178 C4042.94899,528.954671 4041.9802,519.808885 4040.21106,510.498335" id="Fill-1" fill="#F6F4ED" mask="url(#mask-2)"></path>
                </g>
                <g id="LogoSegment">
                    <path d="M1605.53035,1.51951123 L1490.47267,1.47624916 L1469.20933,26.6731842 L1548.8105,26.6731842 L1505.02549,78.179902 C1524.6335,78.19555 1544.23424,78.211198 1563.82951,78.2268459 L1612.36288,19.1455837 C1617.3507,13.1091441 1614.04552,5.30172084 1605.53035,1.51951123" id="Fill-4" fill="#F26C21"></path>
                    <path d="M1681.895,66.5809724 L1681.75569,37.276902 L1707.43049,37.276902 L1681.895,66.5809724 Z M1739.51717,1.56912454 L1729.19553,13.0630285 L1681.74749,13.1605983 L1681.74749,1.54795374 L1628.28093,1.52770341 L1628.28184,66.6444848 L1608.84955,66.6444848 C1595.75448,66.6444848 1583.84307,70.8528719 1578.29437,77.4379114 L1577.62059,78.2377995 C1628.35924,78.2773797 1679.07421,78.3178804 1729.83107,78.3574606 C1748.64967,57.4655619 1789.27336,12.3321757 1798.94034,1.59213628 L1739.51717,1.56912454 Z" id="Fill-6" fill="#F26C21"></path>
                    <path d="M1816.44542,1.59811933 C1813.35603,2.77355902 1810.78109,4.37517614 1809.042,6.30724184 L1790.6304,26.7517923 L1854.46413,26.7757245 L1844.85725,37.420035 L1781.11912,37.420035 L1764.10699,56.2988667 L1831.01645,56.2988667 L1821.57073,66.9560638 L1754.58752,66.9560638 L1744.34055,78.368046 C1789.20726,78.4030238 1834.11222,78.4370812 1879.10094,78.4711386 L1944.86132,1.64598375 L1816.44542,1.59811933 Z" id="Fill-8" fill="#F26C21"></path>
                    <path d="M1954.08961,6.20810727 L1936.13692,27.0659486 L2007.64176,26.8183422 L1905.4925,65.9300163 L1893.40355,78.4815399 C1943.36188,78.5183587 1993.42948,78.5551774 2043.66916,78.5901553 L2054.83303,66.5402877 L1981.71565,66.6857219 L2062.57881,37.1506136 C2078.64946,30.367673 2091.10627,19.0090781 2098.62078,12.0926695 L2108.83862,1.70701089 L1960.86114,1.65178271 C1958.03489,2.82906334 1955.68939,4.37545228 1954.08961,6.20810727" id="Fill-10" fill="#F26C21"></path>
                    <polygon id="Fill-12" fill="#F26C21" points="2496.5499 38.3923271 2496.5499 52.6715721 2490.93383 38.3923271 2487.73062 38.3923271 2482.22836 52.6715721 2482.22836 38.3923271 2478.75291 38.3923271 2478.75291 58.8930262 2482.51153 58.8930262 2489.24664 43.3370898 2496.12651 58.8930262 2500.02535 58.8930262 2500.02535 38.3923271"></polygon>
                    <mask id="mask-4" fill="white">
                        <use xlink:href="#path-3"></use>
                    </mask>
                    <g id="Clip-15"></g>
                    <polygon id="Fill-14" fill="#F26C21" mask="url(#mask-4)" points="2470.73953 58.8934864 2474.49815 58.8934864 2474.49815 38.3927873 2470.73953 38.3927873"></polygon>
                    <path d="M2462.72805,55.5960881 L2458.54513,55.5960881 C2454.33763,55.5960881 2452.23342,53.4642805 2452.23342,49.2025062 C2452.23342,44.1942311 2454.33763,41.6896333 2458.54513,41.6896333 L2462.72805,41.6896333 L2462.72805,55.5960881 Z M2448.47662,49.2025062 C2448.47662,55.6632824 2451.83279,58.8932103 2458.54513,58.8932103 L2466.48668,58.8932103 L2466.48668,38.3925112 L2458.54513,38.3925112 C2451.83279,38.3925112 2448.47662,41.9952292 2448.47662,49.2025062 L2448.47662,49.2025062 Z" id="Fill-16" fill="#F26C21" mask="url(#mask-4)"></path>
                    <polygon id="Fill-17" fill="#F26C21" mask="url(#mask-4)" points="2437.08221 47.4244351 2444.17241 47.4244351 2444.17241 44.413579 2437.08221 44.413579"></polygon>
                    <polygon id="Fill-18" fill="#F26C21" mask="url(#mask-4)" points="2414.60524 38.3923271 2424.16204 49.3321084 2415.51302 58.8930262 2420.1075 58.8930262 2427.65206 50.4348309 2427.65206 47.9688929 2419.80885 38.3923271"></polygon>
                    <polygon id="Fill-19" fill="#F26C21" mask="url(#mask-4)" points="2429.77803 58.8934864 2433.53665 58.8934864 2433.53665 38.3927873 2429.77803 38.3927873"></polygon>
                    <polygon id="Fill-20" fill="#F26C21" mask="url(#mask-4)" points="2409.42703 58.8934864 2413.18565 58.8934864 2413.18565 38.3927873 2409.42703 38.3927873"></polygon>
                    <path d="M2394.96307,38.249102 C2392.7405,38.249102 2390.75557,38.5832325 2389.00646,39.2524139 L2389.00646,42.6931293 C2390.75557,41.9291395 2392.64762,41.5462241 2394.67899,41.5462241 C2399.54753,41.5462241 2401.98226,44.0066394 2401.98226,48.9302313 C2401.98226,53.469067 2399.54753,55.738945 2394.67899,55.738945 C2392.64762,55.738945 2390.75557,55.3569501 2389.00646,54.5929603 L2389.00646,58.0336757 C2390.75557,58.7028571 2392.7405,59.0369876 2394.96307,59.0369876 C2402.24267,59.0369876 2405.88292,55.6671484 2405.88292,48.9302313 C2405.88292,41.8094784 2402.24267,38.249102 2394.96307,38.249102" id="Fill-21" fill="#F26C21" mask="url(#mask-4)"></path>
                    <polygon id="Fill-22" fill="#F26C21" mask="url(#mask-4)" points="2381.70264 58.8934864 2385.46127 58.8934864 2385.46127 38.3927873 2381.70264 38.3927873"></polygon>
                    <polygon id="Fill-23" fill="#F26C21" mask="url(#mask-4)" points="2366.53031 38.3923271 2376.08711 49.3321084 2367.4381 58.8930262 2372.03257 58.8930262 2379.57713 50.4348309 2379.57713 47.9688929 2371.73392 38.3923271"></polygon>
                    <polygon id="Fill-24" fill="#F26C21" mask="url(#mask-4)" points="2361.52155 42.1231745 2357.38961 42.1231745 2357.38961 42.9994616 2361.52155 42.9994616 2361.52155 45.8041324 2357.18748 45.8041324 2357.18748 46.6804195 2362.59141 46.6804195 2362.59141 38.3253169 2361.52155 38.3253169"></polygon>
                    <polygon id="Fill-25" fill="#F26C21" mask="url(#mask-4)" points="2350.52221 39.201788 2354.84535 39.201788 2354.84535 46.6806036 2355.91521 46.6806036 2355.91521 38.325501 2350.52221 38.325501"></polygon>
                    <polygon id="Fill-26" fill="#F26C21" mask="url(#mask-4)" points="2343.76088 39.201788 2348.18145 39.201788 2348.18145 42.1233586 2344.04951 42.1233586 2344.04951 42.9996456 2348.18145 42.9996456 2348.18145 45.8043165 2343.84829 45.8043165 2343.84829 46.6806036 2349.25131 46.6806036 2349.25131 38.325501 2343.76088 38.325501"></polygon>
                    <polygon id="Fill-27" fill="#F26C21" mask="url(#mask-4)" points="2341.68044 38.325501 2339.07908 41.6677261 2336.47864 38.325501 2335.17751 38.325501 2338.42715 42.5035125 2335.17751 46.6806036 2336.47864 46.6806036 2339.07908 43.3383785 2341.68044 46.6806036 2342.98157 46.6806036 2339.72646 42.5035125 2342.98157 38.325501"></polygon>
                    <path d="M2330.03372,45.7861833 L2327.8503,45.7861833 C2326.85601,45.7861833 2326.35796,45.3231871 2326.35796,44.3962742 C2326.35796,43.3055177 2327.20656,42.6335749 2328.90103,42.3804457 L2328.68251,41.4691808 C2326.37344,41.8272435 2325.21981,42.8176688 2325.21981,44.4432181 C2325.21981,45.9343789 2326.06386,46.6808797 2327.75105,46.6808797 L2331.10358,46.6808797 L2331.10358,38.3257771 L2330.03372,38.3257771 L2330.03372,45.7861833 Z" id="Fill-28" fill="#F26C21" mask="url(#mask-4)"></path>
                    <path d="M2322.73382,45.7861833 L2320.37558,45.7861833 C2319.49693,45.7861833 2319.05806,45.401427 2319.05806,44.6300735 C2319.05806,43.6562166 2319.84839,43.0431839 2321.42814,42.7891342 L2321.42814,42.0831341 L2318.79765,38.3257771 L2317.38816,38.3257771 L2320.22625,42.2635461 C2318.68747,42.7854524 2317.91991,43.5890223 2317.91991,44.6770174 C2317.91991,46.0126188 2318.70568,46.6808797 2320.27724,46.6808797 L2323.80368,46.6808797 L2323.80368,38.3257771 L2322.73382,38.3257771 L2322.73382,45.7861833 Z" id="Fill-29" fill="#F26C21" mask="url(#mask-4)"></path>
                    <path d="M2312.40043,45.8625823 C2310.42734,45.8625823 2309.44125,44.750655 2309.44125,42.5268004 C2309.44125,40.2707294 2310.42734,39.1431541 2312.40043,39.1431541 C2314.41541,39.1431541 2315.42336,40.2707294 2315.42336,42.5268004 C2315.42336,44.750655 2314.41541,45.8625823 2312.40043,45.8625823 M2312.40043,38.2668671 C2309.67616,38.2668671 2308.31494,39.6751856 2308.31494,42.4909021 C2308.31494,45.3231871 2309.67616,46.7388693 2312.40043,46.7388693 C2315.16659,46.7388693 2316.55058,45.3231871 2316.55058,42.4909021 C2316.55058,39.6751856 2315.16659,38.2668671 2312.40043,38.2668671" id="Fill-30" fill="#F26C21" mask="url(#mask-4)"></path>
                    <polygon id="Fill-31" fill="#F26C21" mask="url(#mask-4)" points="2305.5689 42.1231745 2301.43697 42.1231745 2301.43697 42.9994616 2305.5689 42.9994616 2305.5689 45.8041324 2301.23484 45.8041324 2301.23484 46.6804195 2306.63876 46.6804195 2306.63876 38.3253169 2305.5689 38.3253169"></polygon>
                    <polygon id="Fill-32" fill="#F26C21" mask="url(#mask-4)" points="2298.72071 46.6806957 2299.78966 46.6806957 2299.78966 38.325593 2298.72071 38.325593"></polygon>
                    <polygon id="Fill-33" fill="#F26C21" mask="url(#mask-4)" points="2291.18908 39.201788 2295.51223 39.201788 2295.51223 46.6806036 2296.58209 46.6806036 2296.58209 38.325501 2291.18908 38.325501"></polygon>
                    <polygon id="Fill-34" fill="#F26C21" mask="url(#mask-4)" points="2284.42803 39.201788 2288.8486 39.201788 2288.8486 42.1233586 2284.71666 42.1233586 2284.71666 42.9996456 2288.8486 42.9996456 2288.8486 45.8043165 2284.51544 45.8043165 2284.51544 46.6806036 2289.91846 46.6806036 2289.91846 38.325501 2284.42803 38.325501"></polygon>
                </g>
                <g id="AccentSegment" fill="#1F2555">
                    <path d="M1008.05406,36.2386123 C1009.88421,36.1944297 1010.8011,37.0458641 1010.8011,38.7910745 C1010.8011,40.5261597 1009.92245,41.4079696 1008.16424,41.440186 C1006.40694,41.4622773 1005.52646,40.6007178 1005.52646,38.8564279 C1005.52646,37.1093765 1006.36869,36.2386123 1008.05406,36.2386123 M1002.79491,44.6553864 C1004.26995,45.9734989 1006.06003,46.6353165 1008.16424,46.6353165 C1010.46967,46.6353165 1012.33623,45.8980203 1013.76757,44.4243485 C1015.19981,42.9506767 1015.91639,41.0692368 1015.91639,38.7827903 C1015.91639,35.473702 1014.58794,33.1541186 1011.93743,31.8249605 C1010.7583,31.2284962 1009.49906,30.9311845 1008.16424,30.9311845 C1005.175,30.9311845 1002.9497,32.1222722 1001.48649,34.5062885 C1000.75808,35.687251 1000.39751,37.1130584 1000.39751,38.7827903 C1000.39751,41.2616149 1001.19786,43.2185333 1002.79491,44.6553864" id="Fill-35"></path>
                    <path d="M900.195762,47.9341912 C904.457899,47.9341912 906.588513,45.0199844 906.588513,39.1934118 C906.588513,33.2711103 904.457899,30.3099596 900.195762,30.3099596 C896.064739,30.3099596 893.997862,33.2711103 893.997862,39.1934118 C893.997862,45.0199844 896.064739,47.9341912 900.195762,47.9341912" id="Fill-36"></path>
                    <path d="M874.750045,26.216079 C882.239971,26.216079 885.984934,30.5063878 885.984934,39.086085 C885.984934,47.7145671 882.239971,52.0278877 874.750045,52.0278877 C867.389413,52.0278877 863.710008,47.7145671 863.710008,39.086085 C863.710008,30.5063878 867.389413,26.216079 874.750045,26.216079 L874.750045,26.216079 Z M900.195398,26.216079 C907.685324,26.216079 911.431197,30.5063878 911.431197,39.086085 C911.431197,47.7145671 907.685324,52.0278877 900.195398,52.0278877 C892.835676,52.0278877 889.15536,47.7145671 889.15536,39.086085 C889.15536,30.5063878 892.835676,26.216079 900.195398,26.216079 L900.195398,26.216079 Z M916.097605,26.3937296 L920.764013,26.3937296 L920.764013,47.9520483 L923.405427,47.9520483 L923.405427,49.8923982 L916.097605,52.3841094 L916.097605,26.3937296 Z M938.672092,26.3937296 L948.410088,38.2852765 L948.410088,41.3467584 L939.042673,51.8502371 L933.337364,51.8502371 L944.078751,39.9761791 L932.210142,26.3937296 L938.672092,26.3937296 Z M951.052413,51.8502371 L955.718821,51.8502371 L955.718821,26.3937296 L951.052413,26.3937296 L951.052413,51.8502371 Z M969.347463,35.2587724 L970.016694,39.4607161 C965.790978,40.2320697 963.677664,41.9229723 963.677664,44.5334242 C963.677664,46.6459019 964.722939,47.702601 966.812579,47.702601 L973.1161,47.702601 L973.1161,26.3937296 L977.782507,26.3937296 L977.782507,51.8502371 L966.512108,51.8502371 C961.37041,51.8502371 958.800016,49.458857 958.800016,44.6760969 C958.800016,39.4892507 962.316439,36.3504493 969.347463,35.2587724 L969.347463,35.2587724 Z M998.78635,29.3024136 C1001.15552,26.9091926 1004.2786,25.7125821 1008.16378,25.7125821 C1012.03622,25.7125821 1015.1593,26.911954 1017.53211,29.3116183 C1019.90492,31.7103621 1021.09497,34.8675728 1021.09497,38.78233 C1021.09497,42.7081329 1019.90947,45.8681051 1017.53939,48.2622465 C1015.17295,50.656388 1012.04714,51.8529985 1008.16378,51.8529985 C1004.26039,51.8529985 1001.1282,50.6619108 998.770871,48.278815 C996.41627,45.8938782 995.235328,42.7302242 995.235328,38.78233 C995.235328,34.8565272 996.418091,31.696555 998.78635,29.3024136 L998.78635,29.3024136 Z M1023.9895,25.8239589 L1026.70376,25.7125821 C1027.47224,25.7862197 1028.00489,26.2013515 1028.29899,26.9561365 L1034.78552,43.8743679 C1035.37736,45.7456826 1035.96647,45.7456826 1036.55375,43.8743679 L1042.61507,27.6289998 C1043.37445,26.3504675 1044.13109,25.7125821 1044.88864,25.7125821 L1046.53121,25.7125821 C1047.37344,25.7125821 1048.21658,26.3928091 1049.05881,27.7532632 L1055.24579,43.8743679 C1055.83671,45.7456826 1056.424,45.7456826 1057.0131,43.8743679 L1063.40859,26.9404886 C1063.69267,26.1958286 1064.21075,25.7862197 1064.97012,25.7125821 L1067.62338,25.7125821 C1068.54846,25.7862197 1068.80614,26.3348196 1068.39641,27.3565408 L1059.30306,50.336985 C1058.8824,51.4222187 1057.82438,51.9542501 1056.13081,51.9330793 C1054.44544,51.9220337 1053.38287,51.3688315 1052.94217,50.2725522 L1045.89931,32.605979 L1038.84553,50.336985 C1038.42487,51.4222187 1037.36502,51.9542501 1035.67055,51.9330793 C1033.98791,51.9220337 1032.92351,51.3688315 1032.48191,50.2725522 L1023.29296,27.3408928 C1022.89415,26.3302172 1023.12542,25.8239589 1023.9895,25.8239589 L1023.9895,25.8239589 Z M1076.31883,46.6992891 C1078.1517,46.6551066 1079.06586,47.506541 1079.06586,49.2517514 C1079.06586,50.9859161 1078.18539,51.8686465 1076.429,51.9008629 C1074.6717,51.9220337 1073.79396,51.0595537 1073.79396,49.3161842 C1073.79396,47.5700534 1074.63619,46.6992891 1076.31883,46.6992891 L1076.31883,46.6992891 Z M1073.88774,36.165435 L1073.88774,28.409558 C1073.82492,26.6118809 1074.6717,25.7282301 1076.429,25.761367 C1078.18539,25.792663 1079.06586,26.684598 1079.06586,28.440854 L1079.06586,35.0645533 L1079.06586,41.0963906 C1078.98118,42.4485605 1078.06247,43.1131396 1076.30335,43.0919687 C1074.77732,43.1333899 1073.97333,42.5120729 1073.88774,41.2243359 L1073.88774,36.165435 Z M1085.587,33.5494603 L1085.587,28.9848516 L1085.587,28.3929896 C1085.587,26.6588249 1086.46292,25.777015 1088.22386,25.7438781 C1089.9156,25.777015 1090.74235,26.6652681 1090.69956,28.409558 L1090.65494,33.6277002 C1090.65494,34.2020733 1090.7378,34.66599 1090.90625,35.0166889 C1091.28502,35.8119746 1092.17187,36.2123789 1093.54948,36.2372316 C1093.56769,36.2372316 1093.5768,36.2298678 1093.59228,36.2298678 C1095.42515,36.1856853 1096.34204,37.0380401 1096.34204,38.78233 C1096.34204,40.5164948 1095.46339,41.4001456 1093.70427,41.4314416 C1093.64144,41.4332825 1093.59956,41.4121117 1093.53673,41.4102708 C1092.16732,41.4369644 1091.28229,41.8373687 1090.90625,42.6289725 C1090.7378,42.9796715 1090.65494,43.4426677 1090.65494,44.0170407 C1090.65494,44.7101543 1090.76512,45.2090488 1090.98455,45.5174062 C1091.20854,45.8257635 1091.63648,46.081654 1092.28204,46.2832369 C1093.03686,46.5170362 1094.21507,46.6551066 1095.81576,46.6992891 L1104.40377,46.6992891 C1105.5829,46.6992891 1106.172,46.0604832 1106.172,44.7837919 L1106.172,28.3607732 C1106.10918,26.5953125 1106.95414,25.7236277 1108.71508,25.7438781 C1110.46965,25.777015 1111.35012,26.6588249 1111.35012,28.3929896 L1111.35012,48.6129455 C1111.35012,50.7732876 1110.38224,51.8787716 1108.44375,51.9330793 L1095.88041,51.9330793 C1091.39702,51.8787716 1088.33767,50.6821611 1086.70694,48.3432479 C1085.89839,47.1613649 1085.4923,45.7199095 1085.4923,44.0170407 C1085.63799,40.9537179 1086.89086,39.1219833 1089.24819,38.52736 C1086.89086,38.0174198 1085.66985,36.3578131 1085.587,33.5494603 L1085.587,33.5494603 Z M1119.01122,38.1527288 C1120.74121,36.8834013 1122.48667,36.2602433 1124.25217,36.2455158 C1124.27038,36.2455158 1124.28131,36.2381521 1124.30134,36.2381521 C1124.31226,36.2381521 1124.32319,36.239993 1124.33503,36.239993 C1124.38419,36.239993 1124.43336,36.2298678 1124.48071,36.2298678 L1124.48071,36.2455158 C1126.18611,36.2648457 1127.04837,37.1079958 1127.04837,38.7915347 C1127.04837,40.5256995 1126.1679,41.4075094 1124.41151,41.4406463 C1124.34595,41.4415667 1124.30316,41.4203959 1124.24124,41.418555 C1122.93647,41.465499 1122.08331,41.8594599 1121.72002,42.6289725 C1121.54975,42.9796715 1121.46416,43.4426677 1121.46416,44.0170407 C1121.46416,44.7101543 1121.57615,45.2090488 1121.7965,45.5174062 C1122.01776,45.8257635 1122.44843,46.081654 1123.09126,46.2832369 C1123.84881,46.5170362 1125.04978,46.6551066 1126.69236,46.6992891 L1135.21572,46.6992891 C1136.39667,46.6992891 1136.98395,46.0604832 1136.98395,44.7837919 L1136.98395,36.2298678 L1136.98395,28.3607732 C1136.92112,26.5953125 1137.76791,25.7236277 1139.5243,25.7438781 C1141.28342,25.777015 1142.16207,26.6588249 1142.16207,28.3929896 L1142.16207,36.771104 L1142.16207,48.6129455 C1142.16207,50.7732876 1141.19419,51.8787716 1139.25752,51.9330793 L1126.62953,51.9330793 C1122.1862,51.8787716 1119.14962,50.6821611 1117.52071,48.3432479 C1116.70943,47.1613649 1116.30425,45.7199095 1116.30425,44.0170407 C1116.30425,41.4314416 1117.20476,39.4772846 1119.01122,38.1527288 L1119.01122,38.1527288 Z M0.000273155575,66.2988485 L675.484874,32.8443806 C675.61781,32.8379373 675.751656,32.8342554 675.887323,32.8342554 C679.158817,32.8342554 683.401833,34.7064906 685.510594,37.1236438 L720.841447,77.6049767 C915.26448,77.7255582 1104.42107,77.8654696 1291.57908,78.0118242 L1328.6818,1.41586635 L0.000273155575,0.920653701 L0.000273155575,66.2988485 Z" id="Fill-37"></path>
                    <path d="M874.750045,47.9341912 C879.012183,47.9341912 881.142796,45.0199844 881.142796,39.1934118 C881.142796,33.2711103 879.012183,30.3099596 874.750045,30.3099596 C870.618112,30.3099596 868.551235,33.2711103 868.551235,39.1934118 C868.551235,45.0199844 870.618112,47.9341912 874.750045,47.9341912" id="Fill-38"></path>
                    <path d="M675.887506,34.0556266 C675.77187,34.0556266 675.657144,34.058388 675.54424,34.0639108 L669.62678,34.3566201 C671.953155,35.087473 674.243109,36.4138697 675.616171,37.9869523 L710.187651,77.5993618 C713.202378,77.6012027 716.218016,77.6030437 719.230011,77.6048846 L684.604811,37.9308036 C682.740068,35.7943937 678.829391,34.0556266 675.887506,34.0556266" id="Fill-39"></path>
                    <path d="M2691.42865,78.9520839 C2694.56084,78.9530044 2697.68756,78.9548453 2700.82338,78.9557658 C2748.88146,78.9741752 2797.31195,78.9907437 2846.14579,79.0045507 C2864.36709,79.0091531 2882.64575,79.0146759 2900.9845,79.0192782 L2713.9649,57.7601122 L2691.42865,78.9520839 Z" id="Fill-40"></path>
                    <path d="M666.111723,34.9576868 C665.997908,34.9576868 665.885004,34.9604482 665.77301,34.965971 L-4.54747351e-13,67.9390333 L-4.54747351e-13,76.5656744 L665.800325,42.9657724 L697.263295,77.5910776 C701.042858,77.593839 704.819689,77.5956799 708.595609,77.5975209 L674.722497,38.7849994 C672.880518,36.6743626 669.018098,34.9576868 666.111723,34.9576868" id="Fill-41"></path>
                    <path d="M2714.62448,50.4300445 C2714.29487,50.4300445 2713.96799,50.4530562 2713.64385,50.4889546 L2707.34033,49.7396923 C2705.08862,49.7396923 2702.95709,50.6095361 2701.34092,52.1844596 L2673.22411,78.9452725 L2674.55164,78.9452725 L2701.96918,52.8508796 C2703.41782,51.4388792 2705.32626,50.6601619 2707.28661,50.65648 L2711.2073,51.1222376 C2710.20027,51.5474946 2709.26972,52.157766 2708.46391,52.9420061 L2681.6373,78.9480339 C2682.29469,78.9489543 2682.953,78.9489543 2683.60948,78.9489543 L2709.41085,53.9379542 C2710.8176,52.565534 2712.66959,51.8107489 2714.54526,51.8061466 L2944.71161,79.0299557 L2945.91714,79.0299557 C2948.51303,79.0308761 2951.11074,79.0308761 2953.70936,79.0317966 L2956.47005,79.0317966 L2714.62448,50.4300445 Z" id="Fill-42"></path>
                    <polygon id="Fill-43" points="2245.38354 19.0894351 2231.72576 30.1350704 2345.11081 30.1350704 2352.16096 22.7795977"></polygon>
                    <polygon id="Fill-44" points="2348.03294 30.1350704 2565.88635 30.1350704 2355.05122 22.848633"></polygon>
                </g>
            </g>
        </g>
    </g>
</svg>
