<svg viewBox="0 0 4634 878" xmlns="http://www.w3.org/2000/svg" xmlns:xlink="http://www.w3.org/1999/xlink"><title>PK1000 (Checkout)</title><defs><path id="a" d="M0 .6v641.42h4113.332V.6H0z"/></defs><g fill="none" fill-rule="evenodd"><g transform="rotate(180 2187.102 380.287)"><mask id="b" fill="#fff"><use xlink:href="#a"/></mask><path d="M4110.84 513.807c-2.637-13.699-6.565-25.596-12.442-40.164-8.238-20.427-20.723-43.814-33.39-66.072-15.71-27.598-34.5-54.166-54.915-80.189-30.944-39.443-81.922-91.632-122.58-135.93-40.658-44.3-117.732-114.702-163.846-149.89-20.17-15.393-44.59-26.052-65.516-31.59-26.904-7.123-74.835-9.249-86.662-9.063-14.665.232-147.432.954-147.432.954l-35.25-.013-168.771-.063-975.523-.359-285.438-.106-12.364-.004-57.088-.022-56.556-.02-51.363-.02h-2.447L0 .6v76.867l55.84.013 6.902.002a28573437.803 28573437.803 0 0 1 68.512.02l5.64.001 12.765.004 17.151.005 6.717.003 18.337.006 15.026.005 12.698.005c4.421 0 8.832.003 13.245.005a22513242.97 22513242.97 0 0 1 28.883.01l12.186.004 10.124.004 16.859.008c4.514.001 9.021.002 13.528.005l11.622.005a21237332.998 21237332.998 0 0 1 44.287.018l8.136.004 15.005.006 16.54.008a19537082.099 19537082.099 0 0 1 24.064.011l14.669.007 7.758.004 19.618.01a80998.623 80998.623 0 0 1 22.2.011l16.849.008 9.244.004 10.897.006 17.696.01 8.386.004 18.976.01 8.454.005 12.168.006 17.866.01 8.976.005 19.85.012 3.866.002a106351.275 106351.275 0 0 1 29.542.018 18160970.727 18160970.727 0 0 1 78.94.047h.352l24.358.016h2.529l45.023.03 46.66.03 6.293.004h.53l24.158.017 3.594.003 74.324.05c11.57.01 23.121.017 34.664.025a20582747.913 20582747.913 0 0 1 57.825.042c5.373.003 10.741.008 16.109.012l63.334.046 6.942.006a1406741.03 1406741.03 0 0 1 134.035.101l7.885.006 62.023.048 16.373.013a49706005.382 49706005.382 0 0 1 46.827.036l183.675.144 1.909.002h.695l96.996.076 4.551.003.926.001h.952c.054.347.102.698.15 1.047-.022-.35-.05-.697-.074-1.046h1.146l.295.001.008.07-.004-.07h.912l.366.001 1.853.001a3688595.582 3688595.582 0 0 0 148.517.113l.625.001h1.318l1.65.002h.502c.424 0 .846 0 1.27.002h.773c-.015.45-.033.9-.054 1.346.067-.386.128-.776.186-1.167l.03-.18h.085c.2.002.399.002.598.002h.081v.035c0-.012.002-.023.004-.035h.205a3085566.762 3085566.762 0 0 0 352.91.245h.036l58.373.037h.199l.954.001.058.264c-.017-.087-.032-.177-.048-.264l4.845.003h1.974a24434352.928 24434352.928 0 0 0 48.064.03l4.37.002c-.089.488-.178.972-.26 1.464.103-.49.212-.977.322-1.464 7.09.004 14.188.009 21.29.012a217492.785 217492.785 0 0 0 37.251.022c.09.389.178.78.265 1.174-.073-.393-.147-.784-.222-1.174l5.053.002h.103l.92.001h.424l.912.001h.802l.918.001 3.794.002 22.481.012 6.687.004c8.421.004 16.852.01 25.29.013l3.13.002 2.77.001h.427l2.12.001h.001l3.697.002h.043l.942.001h1.136l1.668.001a1782064.798 1782064.798 0 0 0 101.005.05l2.32.001 20.082.01h1.803l26.16.011 8.478.004 21.842.01 11.91.004 12.786.006 17.687.006 20.269.008 6.412.003h1.042l1.384.001h1.694l3.598.002h4.585c.281.002.562.002.843.002h3.14c1.149.002 2.296.002 3.445.002l3.893.001 2.077.001h1.702l3.553.002 4.8.002 4.341.001 28.362.01h1.487a28559556.92 28559556.92 0 0 0 35.783.012h.983l26.354.009h2.357l4.18.001 3.736.001h.98c.072.434.152.87.236 1.31l.055-.08a255.6 255.6 0 0 1-.286-1.23l.95.001.033.144c.028-.048.053-.096.08-.144h1.064l-.037.067c.119.495.235.989.351 1.483l.045-.14c-.09-.47-.188-.94-.286-1.41 28.472.009 57.08.016 85.836.023h6.457l1.37.001h2.224l.952.001h3.682l.9.001h3.075l1.046.001h1.173l27.016.006h2.267l24.533.004 2.423.001 23.27.004h5.538l23.52.005h.988l76.586.009h10.624l20.577.003h27.869l1.228.002h32.417l40.197.001h1.448a153.27 153.27 0 0 0 1.087.002l.728.001.675.001.64.001c.27 0 .542 0 .824.002h.566c.276.002.554.002.841.003l1.098.002.466.001 3.662.01.222.001 1.68.006.537.002a12760.146 12760.146 0 0 0 3.75.013c.196 0 .39.002.587.003l1.659.006.679.003 1.512.006.834.004 4.836.022.833.004 1.882.01.49.002a21628.468 21628.468 0 0 0 2.897.015l1.894.01.878.005 1.921.01a24101.808 24101.808 0 0 0 3.249.02l.404.002 5.821.037 1.12.008 1.797.012 1.295.009 1.625.011 1.577.012 1.333.01 1.583.011 1.68.013 1.282.01 2.127.017.909.008c40.298.329 85.791.951 97.688 2.054 13.758 1.272 25.602 4.03 35.426 7.048 16.385 5.036 20.8 6.32 35.555 12.67 13.566 5.834 35.53 18.53 48.861 28.222 13.33 9.693 41.57 37.608 49.457 44.283 7.89 6.674 72.822 72.818 86.779 87.383 13.957 14.564 80.102 108.624 91.631 125.01 11.53 16.383 54.617 83.136 54.617 83.136s60.076 111.05 70.392 127.436c10.317 16.384 17.599 29.128 27.309 35.803 9.709 6.675 23.059 12.744 52.793 7.28 29.735-5.46 47.334-25.485 58.863-42.477 11.53-16.991 17.297-39.45 18.205-57.65.37-7.39-.615-16.596-2.415-25.967" fill="#1B1C1C" mask="url(#b)"/></g><path d="M1265.593 743.144h-1.061v6.794h1.061zm2.471 1.062h.55c.787 0 1.382.22 1.786.668.356.394.549.97.549 1.666 0 .687-.193 1.273-.55 1.667-.403.44-.998.669-1.786.669h-.549v-4.67zm.55 5.732c.549 0 1.044-.092 1.483-.265.43-.165.796-.422 1.09-.752.54-.594.824-1.419.824-2.38 0-.961-.284-1.786-.824-2.381a2.774 2.774 0 0 0-1.09-.75c-.44-.184-.934-.267-1.484-.267h-1.611v6.795h1.611zm7.422-3.855h-2.856v.915h2.856zm2.479.778l2.692 3.077h1.328l-2.994-3.525 2.49-3.27h-1.336l-2.18 2.803v-2.803h-1.061v6.795h1.061zm5.977-3.717h-1.062v6.794h1.062zm2.123 5.796a3.37 3.37 0 0 0 1.08.733c.412.173.86.265 1.318.265.459 0 .907-.092 1.329-.265.191-.083.375-.184.549-.294v-1.446a3.33 3.33 0 0 1-.229.256 2.324 2.324 0 0 1-3.296 0 2.321 2.321 0 0 1 0-3.297 2.282 2.282 0 0 1 1.647-.686c.55 0 1.063.183 1.475.521v-1.254c-.045-.019-.101-.046-.146-.064a3.304 3.304 0 0 0-1.329-.265c-.458 0-.906.081-1.318.265a3.202 3.202 0 0 0-1.08.723 3.474 3.474 0 0 0-.733 1.08c-.174.422-.265.87-.265 1.328a3.366 3.366 0 0 0 .998 2.4m6.543-2.079l2.692 3.077h1.328l-2.994-3.525 2.49-3.27h-1.336l-2.18 2.803v-2.803h-1.061v6.795h1.061zm8.596 1.104h1.684v-.652h-1.684v-1.23h2.05v-.647h-2.771v4.611h.72zm5.546 2.082v-.652h-1.925v-3.959h-.721v4.611h.714zm3.292 0v-.652h-2.045v-1.43h1.685v-.652h-1.685v-1.23h2.045v-.647h-2.765v4.611h.714zm1.433 0l1.224-1.802 1.23 1.802h.908l-1.684-2.467 1.467-2.144h-.907l-1.014 1.479-1.006-1.479h-.908l1.461 2.144-1.678 2.467zm6.782-3.965h.647c.297 0 .521.088.67.249.168.187.205.447.205.628 0 .186-.037.447-.205.634-.149.16-.373.241-.67.241h-.647v-1.752zm0 2.405h.647c.608 0 .962-.248 1.148-.46.25-.267.374-.64.374-1.068 0-.43-.125-.796-.374-1.07-.186-.204-.54-.453-1.148-.453h-1.368v4.61h.72v-1.559zm3.483-2.399h.647c.299 0 .522.082.665.243.174.186.204.448.204.634 0 .18-.03.44-.204.627-.143.162-.366.25-.665.25h-.646v-1.754zm0 2.399h.529l1.162 1.56h.814l-1.242-1.666c.248-.087.422-.23.533-.354.243-.266.373-.64.373-1.062 0-.43-.13-.802-.373-1.07-.186-.21-.54-.459-1.149-.459h-1.367v4.611h.722v-1.56zm4.007-1.864a1.575 1.575 0 0 1 2.237 0 1.575 1.575 0 0 1 0 2.237 1.574 1.574 0 0 1-2.237 0 1.573 1.573 0 0 1 0-2.237m-.51 2.747a2.285 2.285 0 0 0 1.628.677c.311 0 .616-.062.901-.18a2.42 2.42 0 0 0 .733-.497 2.27 2.27 0 0 0 .491-.734 2.332 2.332 0 0 0 0-1.795 2.411 2.411 0 0 0-.49-.734 2.412 2.412 0 0 0-.734-.49 2.36 2.36 0 0 0-.901-.18 2.311 2.311 0 0 0-1.628.67c-.211.218-.379.46-.497.734a2.36 2.36 0 0 0-.18.9 2.286 2.286 0 0 0 .677 1.629m5.465-1.405h1.684v-.652h-1.684v-1.23h2.051v-.647h-2.772v4.611h.721zm3.62-2.529h-.72v4.61h.72zm3.604 4.611v-.652h-1.927v-3.959h-.72v4.611h.714zm3.291 0v-.652h-2.044v-1.43h1.684v-.652h-1.684v-1.23h2.044v-.647h-2.765v4.611h.714zm1275.928 9.279l106.193.039 3.991-4.678 17.432-20.432h-76.469l1.597-1.858.688-.8 2.701-3.144.72-.84 2.949-3.43.75-.872 3.15-3.666.803-.934 3.49-4.06.908-1.058 4.285-4.986 1.405-1.635 9.231-10.742 1.792-2.085.53-.617 1.027-1.195.21-.244.329-.383.033-.039.18-.208.053-.062.063-.074.03-.034.182-.212.372-.434.094-.108.098-.115.12-.14.01-.012.051-.058 6.959-8.097-6.964-.006h-.023l-.027-1.491c-.013.5-.029.997-.046 1.491h-.043c-.023-.693-.048-1.387-.075-2.084a123.533 123.533 0 0 1-.133 2.084h-.22l-.073-1.332c-.048.448-.1.89-.153 1.331h-.05l-.075-1.22-.046-.733-.038-.6c.01.373.02.748.028 1.12-.013.482-.03.957-.046 1.433h-.046c-.022-.678-.047-1.358-.074-2.04l.009-.152-.011.077c-.051.332-.11.653-.164.98-.062.372-.122.745-.19 1.11-.023-.434-.048-.868-.073-1.303-.047.445-.095.89-.149 1.327h-.72l-47.181-.037-3.395 4.089-.731.88-.284.342-.759.913-.042.051-.612.737-.174.209-.279.336-.33.399-.03.036-.219.262-.21.254-.051.06-.169.204-.182.22-.092.11-.17.205-.214.259-.212.255-.255.306-40.868 49.213c-5.398 6.461-.688 15.06 9.904 17.918m-76.753-62.934l.053-.061.002.345.133 27.502h-24.666l24.478-27.786zm-66.55 11.327l-1.228 1.349-4.137 4.546c-.32.353-.642.705-.964 1.058-1.218 1.34-2.439 2.68-3.659 4.021l-.86.945-3.362 3.694-.777.855-3.018 3.316c-.234.257-.469.516-.703.771l-2.669 2.933-.643.708-2.32 2.55-.603.662-1.972 2.166c-.195.216-.387.426-.582.64l-1.625 1.787-.58.636-17.197 18.9 57.088.02 10.975-12.09 45.581-.091v12.203l51.363.018-.001-25.188V696.27h18.667c12.58 0 24.023-3.998 29.353-10.256l3.37-3.956-48.268-.037h-.394c0-.1 0-.199-.002-.3 0-.177-.002-.355-.004-.534-.002.28-.007.556-.012.834h-.044c-.012-.625-.023-1.25-.036-1.873-.018.456-.04.907-.064 1.358l-.005-.344-.025-1.686-.021.133a62.845 62.845 0 0 0-.325 2.412h-.388l-.002-.287-.003-.476-.014.762h-.043l-.038-1.894c-.017.464-.038.925-.063 1.385l-.004-.352c-.008.288-.018.573-.022.861h-.408l-48.994-.037h-.918a80.616 80.616 0 0 1-.165-1.102l.08 1.101h-1.161a85.863 85.863 0 0 0-.2-1.51l.104 1.51-.35-.002h-.294a48.818 48.818 0 0 0-.487-2.228c.112.734.213 1.477.304 2.228h-.996l-.926-.001h-.987l-.985-.001-2.31-.002-1.242-.001c-12.035-.01-24.074-.019-36.117-.027h-.207l-3.801 4.174-1.225 1.345-.983 1.08-.223.245c-.061.067-.12.133-.184.2-.06.07-.124.138-.186.206l-.124.136-.18.198-.139.152-.244.27-.104.113-.164.18-.125.137-.213.234-.264.29-.212.233-1.124 1.234-1.216 1.337-7.124 7.825-5.626 6.182zm-134.156-9.613l-2.06 2.381-.582.673-1.732 2-.577.668-1.388 1.605-.589.68-1.025 1.185-.628.725-.656.759-.67.773-.313.362-.728.84-41.922 48.447 120.466.044c4.704-1.076 8.66-3.048 11.02-5.64l17.686-19.428-61.32-.023 9.228-10.115h61.23l.682-.75.58-.636 1.892-2.076.6-.66 2.235-2.453.641-.703 2.58-2.833.7-.768 2.926-3.212.775-.85 2.732-3h-64.277l9.073-10.126h64.348l12.742-14.038-44.941-.033-.765-.001h-.909c-.016-.129-.036-.256-.052-.385.008.128.017.257.027.385l-.313-.001h-.214c-.068-.7-.133-1.403-.193-2.11l.128 2.11h-1.15a132 132 0 0 0-.167-1.32c.032.44.064.878.094 1.32h-.841c-.222-.002-.445-.002-.669-.002l-52.374-.038h-.865l.032-.9c-.04.299-.076.6-.112.9h-.847c-.07-.002-.142-.002-.213-.002.019-.332.036-.668.053-1.002-.056.335-.11.672-.173 1.002h-.915a52.12 52.12 0 0 0 .361-2.215 32.958 32.958 0 0 1-.644 2.214h-2.08l-1.036-.001-2.898-.002-1.426-.001c-5.496-.005-10.994-.009-16.493-.012l-3.488 4.03-.736.851-2.903 3.355-.689.796-2.645 3.056-.643.743-2.368 2.736-.602.696zm-70.706 61.091c4.271-1.148 7.829-3.055 9.982-5.496l17.246-19.82-34.852.12-1.134.004-2.148.007-1.334.004-4.208.015-1.986.006-23.029.08 1.786-.677 1.856-.703 11.878-4.498 9.314-3.528 6.226-2.358 1.643-.623 1.778-.673 1.262-.478.688-.26 1.116-.423.156-.06 1.034-.391 59.393-22.496 1.054-1.082.387-.397.47-.482.013-.015.362-.372.3-.307.157-.162.612-.63.13-.13.721-.743.476-.488.673-.691.863-.887.63-.645 1.281-1.318.615-.632 1.681-1.726.617-.633 2.102-2.159.643-.66.931-.957-2.455-.001-1.453-.001-3.127-.003h-1.042l-1.362-.002h-2.337l-.521-.002h-.353a87.914 87.914 0 0 1-.188-1.351l.036.439.077.912h-.906l-.066-.507.042.506h-1.626c-17.855-.014-35.73-.026-53.627-.038h-1.729l-.188-.002h-2.492l-.312-.001h-.631l-.82-.001a83.31 83.31 0 0 0 .374-1.993 65.89 65.89 0 0 1-.496 1.993l-.98-.001-56.495-.038h-.989l-.366-.001h-1.078l-.864-.001h-.087l-.613-.001h-1.044l-.393-.001h-1.551l-4.813-.004-13.707 14.636 19.573-.039h.477l.455-.002h.48l.352-.001h.231l.64-.002h.074l.882-.002h.13l.967-.002h.394l.989-.003h.75l1.03-.003 1.264-.002 1.1-.003 2.075-.004 1.257-.003 37.12-.073-22.373 8.084-1.785.645-5.395 1.95-1.239.447-3.433 1.24-1.05.38-2.362.853-.96.347-1.663.601-.922.333-1.159.418-.896.325-.78.281-.89.322-.48.173-.886.32-.238.087-.887.32-.042.014-.89.322-25.467 9.202-3.883 1.403c-15.44 6.445-27.406 17.24-34.625 23.81l-10.976 11.037 49.484.019 90.354.033zm-1011.743-9.259v-3.608l2.133 3.169 2.125-3.169v3.608h1.071v-7.106l-3.196 4.762-3.195-4.762v7.106z" fill="#FFF"/><g fill="#E4AD24"><path d="M1983.394 719.654c22.753 0 31.282-15.634 35.33-34.776-3.597 21.217-11.288 38.565-35.33 38.565-16.23 0-20.886-13.075-23.799-28.88 3.09 14.093 8.462 25.091 23.8 25.091m0 8.506c-16.232 0-20.887-13.077-23.8-28.884 3.09 14.095 8.461 25.094 23.8 25.094 22.753 0 31.28-15.635 35.329-34.78-3.596 21.22-11.287 38.57-35.33 38.57m0 4.716c-16.23 0-20.886-13.077-23.799-28.883 3.09 14.094 8.461 25.093 23.8 25.093 22.752 0 31.28-15.633 35.329-34.777-3.597 21.218-11.288 38.567-35.33 38.567m0 4.717c-16.23 0-20.886-13.078-23.799-28.884 3.09 14.094 8.461 25.094 23.8 25.094 22.753 0 31.28-15.635 35.329-34.779-3.596 21.218-11.287 38.569-35.33 38.569m0 4.715c-16.23 0-20.886-13.076-23.799-28.881 3.09 14.093 8.462 25.092 23.8 25.092 22.752 0 31.28-15.634 35.329-34.777-3.597 21.218-11.288 38.566-35.33 38.566m0 4.717c-16.23 0-20.886-13.078-23.799-28.884 3.09 14.094 8.461 25.094 23.8 25.094 22.753 0 31.28-15.636 35.329-34.78-3.596 21.22-11.287 38.57-35.33 38.57m0 .926c32.803 0 36.049-32.488 38.913-61.151.174-1.735.348-3.461.526-5.174h-.955l-.455-.001h-.979l-.291-.001h-.915l-.774-.001c-3.706 20.545-11.584 37.105-35.07 37.105-16.23 0-20.886-13.078-23.799-28.884 3.09 14.094 8.461 25.094 23.8 25.094 22.168 0 30.831-14.846 35.006-33.315h-.884c-4.08 18.304-12.464 32.388-34.123 32.388-16.23 0-20.886-13.076-23.799-28.883 3.09 14.094 8.461 25.093 23.8 25.093 20.246 0 29.227-12.383 33.813-28.598l-.87-.001c-4.476 15.951-13.186 27.673-32.944 27.673-15.826 0-20.646-12.433-23.576-27.705h-.945l-.663-.001h-.938l-.613-.001h-.91c-.057-.274-.117-.545-.175-.817l.149.817-.904-.001c.267 1.289.516 2.59.755 3.9a109.088 109.088 0 0 0-.913-3.9h-.92c.704 2.797 1.3 5.684 1.833 8.617-.633-2.943-1.367-5.835-2.256-8.618h-.913c1.34 4.209 2.33 8.719 3.169 13.334-1.001-4.649-2.248-9.175-3.971-13.335h-.917c3.39 8.132 4.937 17.874 6.457 27.484 3.163 19.996 6.15 38.882 26.251 38.882M1625.24 724.54c8 15.544 14.909 28.97 38.358 28.97 53.83 0 65.29-10.805 74.496-19.487 5.906-5.567 10.572-9.966 25.043-9.966 18.706 0 27.413 6.065 36.631 12.487 10.72 7.468 21.805 15.19 49.173 15.19 25.406 0 29.54-22.234 33.538-43.736 1.716-9.228 3.456-18.583 6.825-26.446h-1.026c-2.15 5.155-3.633 10.91-4.879 16.84 1.12-5.813 2.365-11.56 4.13-16.84-.332-.002-.663-.002-.995-.002-1.262 3.858-2.258 7.95-3.135 12.13.793-4.123 1.649-8.215 2.707-12.13h-.966a142.791 142.791 0 0 0-1.74 7.409c.48-2.492.982-4.972 1.54-7.41h-.953c-.202.893-.398 1.792-.588 2.695.174-.9.352-1.799.532-2.695h-.916c.127-.673.255-1.345.384-2.017-.14.67-.278 1.343-.414 2.016h-2.697c-3.843 19.427-9.235 36.246-31.347 36.246-27.534 0-39.098-7.825-50.28-15.393-9.337-6.317-18.155-12.284-35.524-12.284-16.048 0-21.13 4.88-27.015 10.53-8.78 8.431-19.707 18.923-72.524 18.923-23.076 0-29.868-13.232-37.733-28.554-1.6-3.118-3.257-6.345-5.116-9.585h-1.073c1.964 3.382 3.696 6.755 5.365 10.008 8.003 15.592 14.915 29.058 38.557 29.058 53.19 0 64.266-10.636 73.166-19.181 5.977-5.74 10.698-10.273 26.373-10.273 17.085 0 25.79 5.89 35.004 12.126 10.772 7.29 22.982 15.552 50.8 15.552 21.818 0 27.946-16.4 31.775-34.65-3.89 20.337-8.835 38.44-31.775 38.44-27.466 0-38.943-7.798-50.043-15.338-9.34-6.346-18.162-12.34-35.761-12.34-15.875 0-20.949 4.86-26.825 10.487-8.824 8.45-19.807 18.967-72.714 18.967-23.05 0-29.84-13.228-37.704-28.544-2.38-4.634-4.886-9.509-7.994-14.313h-1.115c3.252 4.939 5.836 9.966 8.284 14.737 8.003 15.585 14.914 29.046 38.529 29.046 53.28 0 64.41-10.66 73.354-19.224 5.968-5.715 10.683-10.23 26.185-10.23 17.315 0 26.023 5.916 35.24 12.18 10.694 7.264 22.812 15.498 50.564 15.498 21.818 0 27.946-16.4 31.775-34.65-3.89 20.338-8.835 38.44-31.775 38.44-27.4 0-38.79-7.77-49.806-15.285-9.343-6.373-18.167-12.393-35.998-12.393-15.701 0-20.768 4.84-26.635 10.443-8.869 8.47-19.906 19.01-72.904 19.01-23.022 0-29.813-13.221-37.676-28.53-3.168-6.166-6.555-12.758-11.295-19.043l-1.185-.001c4.943 6.405 8.416 13.162 11.656 19.468 8.002 15.578 14.913 29.033 38.5 29.033 53.37 0 64.555-10.683 73.544-19.267 5.959-5.692 10.665-10.187 25.995-10.187 17.546 0 26.255 5.942 35.476 12.233 10.613 7.24 22.642 15.446 50.328 15.446 21.82 0 27.946-16.402 31.775-34.654-3.89 20.34-8.834 38.444-31.775 38.444-27.335 0-38.638-7.744-49.57-15.233-9.345-6.4-18.17-12.446-36.234-12.446-15.528 0-20.587 4.819-26.445 10.399-8.913 8.489-20.005 19.055-73.094 19.055-22.994 0-29.785-13.216-37.648-28.518-3.975-7.737-8.299-16.145-15.202-23.774h-1.29c7.2 7.725 11.616 16.313 15.668 24.198 8.001 15.571 14.913 29.02 38.472 29.02 53.46 0 64.701-10.707 73.733-19.31 5.95-5.668 10.65-10.143 25.806-10.143 17.776 0 26.487 5.966 35.71 12.283 10.534 7.216 22.473 15.395 50.094 15.395 21.817 0 27.946-16.399 31.774-34.649-3.89 20.337-8.835 38.438-31.774 38.438-27.27 0-38.487-7.716-49.337-15.179-9.345-6.427-18.17-12.498-36.467-12.498-15.355 0-20.406 4.798-26.254 10.354-8.956 8.51-20.103 19.1-73.285 19.1-22.966 0-29.757-13.21-37.62-28.506-4.82-9.377-10.15-19.737-19.964-28.505h-1.445c10.248 8.825 15.684 19.391 20.586 28.928 8 15.565 14.91 29.009 38.443 29.009 53.552 0 64.847-10.731 73.923-19.355 5.94-5.642 10.63-10.099 25.616-10.099 18.008 0 26.72 5.992 35.942 12.336 10.966 7.542 22.305 15.342 49.862 15.342 21.818 0 27.946-16.4 31.774-34.65-3.89 20.338-8.835 38.44-31.774 38.44-27.204 0-38.337-7.69-49.104-15.127-9.345-6.455-18.171-12.552-36.7-12.552-15.183 0-20.224 4.779-26.063 10.31-9 8.53-20.201 19.144-73.476 19.144-22.939 0-29.73-13.204-37.591-28.493-5.723-11.128-12.163-23.642-25.963-33.235h-1.702c14.457 9.587 21.024 22.347 26.84 33.66 8.002 15.557 14.911 28.994 38.416 28.994 53.644 0 64.994-10.755 74.114-19.397 5.929-5.618 10.611-10.056 25.425-10.056 18.24 0 26.95 6.017 36.174 12.387 10.882 7.517 22.137 15.291 49.63 15.291 21.82 0 27.946-16.402 31.775-34.653-3.89 20.338-8.834 38.443-31.775 38.443-27.14 0-38.189-7.664-48.874-15.076-9.343-6.48-18.168-12.602-36.93-12.602-15.01 0-20.044 4.756-25.87 10.265-9.045 8.548-20.3 19.188-73.67 19.188-22.91 0-29.7-13.198-37.561-28.48-6.724-13.07-14.436-28.05-33.893-37.967h-2.154c20.505 9.795 28.381 25.093 35.223 38.391 8 15.551 14.91 28.983 38.386 28.983 53.737 0 65.141-10.78 74.305-19.443 5.918-5.592 10.592-10.01 25.234-10.01 18.472 0 27.182 6.04 36.403 12.437 10.802 7.492 21.97 15.24 49.4 15.24 21.818 0 27.947-16.398 31.775-34.648-3.89 20.336-8.835 38.438-31.774 38.438-27.077 0-38.04-7.638-48.644-15.024-9.341-6.508-18.164-12.654-37.16-12.654-14.839 0-19.862 4.735-25.678 10.219-9.088 8.57-20.398 19.235-73.861 19.235-22.884 0-29.673-13.193-37.534-28.469-7.91-15.37-17.183-33.385-45.312-42.698l-3.165-.002c30.048 8.93 39.572 27.421 47.653 43.125m-143.99-6.415c.066.362.131.721.19 1.078-.075-.334-.152-.668-.23-1.004l.04-.074m-.718-2.763l-.13-.542c.04-.06.084-.117.124-.176.145.64.283 1.273.413 1.903-.024.063-.05.124-.076.187l-.331-1.372m-.977-4.15c.041-.048.086-.095.126-.143.186.763.367 1.523.545 2.278-.043.076-.08.153-.124.228-.188-.787-.37-1.575-.547-2.363m-.762-3.878c.198.862.404 1.723.61 2.581-.035.05-.066.1-.102.149a75.876 75.876 0 0 1-.529-2.71l.02-.02m.88-24.605c.158.653.312 1.302.466 1.948-.042.063-.093.125-.133.188a178.8 178.8 0 0 1-.438-1.894c.036-.08.068-.161.104-.242m1.52 2.064c.09.469.173.935.25 1.396-.1-.437-.201-.877-.306-1.318.018-.026.038-.052.055-.078m.06 28.616c.066.36.131.72.19 1.077-.075-.334-.152-.668-.23-1.004.012-.024.027-.048.04-.073m-1.112-24.016c-.042.063-.093.124-.133.188-.15-.63-.295-1.262-.438-1.894.036-.08.068-.16.104-.241.159.653.313 1.301.467 1.947m1.112 19.3c.066.36.131.721.19 1.078-.075-.334-.152-.669-.23-1.004.012-.025.027-.05.04-.074m-1.695-6.913c.041-.049.086-.095.126-.144.185.764.367 1.523.545 2.279-.043.075-.08.153-.124.228a180.91 180.91 0 0 1-.547-2.363m.671-7.298c-.043.076-.08.153-.124.228a187.41 187.41 0 0 1-.535-2.306c.036-.08.068-.161.104-.242.19.778.373 1.551.555 2.32m1.024 9.495c.066.36.131.72.19 1.077-.075-.333-.152-.669-.23-1.004.012-.024.027-.048.04-.073m-1.695-6.913c.041-.048.086-.096.126-.144.186.764.367 1.523.545 2.278-.043.075-.08.153-.124.228a180.91 180.91 0 0 1-.547-2.362m1.695 2.196c.066.362.131.721.19 1.078-.075-.334-.152-.668-.23-1.004l.04-.074m0-4.715c.066.36.131.72.19 1.076a254.57 254.57 0 0 0-.23-1.003c.012-.025.027-.049.04-.073m-.724 1.234c.145.64.283 1.273.413 1.903-.024.063-.05.125-.076.187l-.331-1.372-.13-.541c.04-.06.084-.118.124-.177m-1.123-.012c-.035.049-.066.1-.102.148a79.798 79.798 0 0 1-.365-1.792c.013-.047.03-.093.044-.14.14.595.28 1.19.423 1.784m-.102 4.865a75.876 75.876 0 0 1-.529-2.71l.02-.02c.2.862.405 1.722.611 2.581-.035.049-.066.1-.102.149m1.23.58l-.129-.54c.04-.06.084-.117.124-.177.145.639.283 1.273.413 1.903-.024.063-.05.124-.076.187l-.331-1.373m.658-11.703c.09.469.174.935.25 1.396-.1-.437-.2-.876-.305-1.317l.055-.08m-.752 1.165c.178.771.344 1.535.501 2.293-.024.062-.05.124-.076.187l-.331-1.373-.214-.89c.04-.072.079-.145.12-.217m-1.107.076c-.029.055-.062.108-.09.161a73.26 73.26 0 0 1-.305-1.503c.013-.046.03-.094.044-.14.116.495.233.989.351 1.482m-.03 14.598a75.876 75.876 0 0 1-.529-2.71.126.126 0 0 0 .02-.02c.2.862.405 1.723.611 2.582-.035.049-.066.1-.102.148m1.23.582l-.129-.541c.04-.06.084-.117.124-.177.145.64.283 1.274.413 1.904-.024.062-.05.124-.076.187l-.331-1.373m-.094-19.972c.178.774.345 1.54.503 2.3-.033.042-.058.086-.09.128-.106-.44-.212-.88-.32-1.321-.07-.297-.142-.594-.213-.89.04-.073.079-.145.12-.217m-1.107.077c-.029.053-.062.106-.09.16a73.26 73.26 0 0 1-.305-1.504c.013-.046.03-.093.044-.14.116.495.233.99.351 1.484m.224 20.462c.041-.048.086-.095.126-.144.185.765.367 1.523.545 2.278-.043.076-.08.153-.124.228-.188-.786-.37-1.574-.547-2.362m.977 4.15l-.13-.542c.04-.059.084-.116.124-.177.145.64.283 1.273.413 1.903-.024.063-.05.125-.076.187l-.331-1.372m-33.704 37.306c17.82 0 28.329-2.807 33.071-8.833 2.709-3.443 3.274-7.605 2.871-12.168.158-1.512.144-3.087 0-4.717.158-1.512.144-3.087 0-4.716.158-1.512.144-3.087 0-4.716.158-1.512.144-3.088 0-4.716.158-1.512.144-3.087 0-4.717.158-1.512.144-3.087 0-4.715.158-1.512.144-3.088 0-4.717.158-1.512.144-3.087 0-4.716.061-.582.103-1.171.114-1.773 2.337-2.405 5.594-4.422 9.795-6.058l-2.358-.001c-3.026 1.365-5.504 2.959-7.452 4.78a32.933 32.933 0 0 0-.261-3.144 19.12 19.12 0 0 1 1.73-1.638h-1.398c-.169.156-.34.312-.5.472-.025-.157-.046-.314-.072-.473h-.941l.013.087-.02-.087c-.092-.409-.188-.82-.285-1.23-.248.357-.483.718-.697 1.085l.033.145c.165.724.322 1.442.47 2.156-.033.042-.058.086-.09.128a1238.784 1238.784 0 0 1-.533-2.212l.04-.072.08-.145a145.66 145.66 0 0 0-.3-1.28c-.042.064-.093.125-.133.189-.247.384-.464.775-.674 1.168l-.038.067c-.017.031-.036.063-.052.094l-.02-.094c-.097-.47-.196-.94-.285-1.41a17.88 17.88 0 0 0-.37 1.41h-.289a77.88 77.88 0 0 1-.185-.914c-.038-.191-.077-.382-.113-.574a19.17 19.17 0 0 0-.371 1.488h-.465c-.002.842.024 1.69.09 2.548a29.033 29.033 0 0 0 0 4.715 29.044 29.044 0 0 0 0 4.717 29.058 29.058 0 0 0-.001 4.709c-5.26 4.373-15.258 6.506-30.404 6.506-21.728 0-36.606-9.314-48.48-23.215l-1.229-.001c12.096 14.42 27.29 24.143 49.709 24.143 14.966 0 24.756-1.989 30.324-6.193a30.827 30.827 0 0 0 .08 3.476c-5.26 4.372-15.258 6.506-30.404 6.506-24.105 0-39.784-11.458-52.276-27.932l-1.166-.001c12.697 16.98 28.654 28.86 53.442 28.86 15.133 0 24.977-2.033 30.51-6.336a50.04 50.04 0 0 0 .432 3.128c-5.096 4.699-15.246 6.997-30.942 6.997-26.344 0-42.624-13.685-55.679-32.65h-1.134c13.252 19.46 29.785 33.577 56.813 33.577 15.71 0 25.73-2.185 31.135-6.831.177.946.376 1.895.585 2.847-4.797 5.224-15.182 7.774-31.72 7.774-28.48 0-45.197-15.999-58.793-37.367h-1.107c13.789 21.853 30.734 38.293 59.9 38.293 16.555 0 26.792-2.427 31.965-7.603.198.86.404 1.721.61 2.58-.08.11-.147.225-.231.333-4.492 5.705-15.07 8.48-32.344 8.48-30.543 0-47.558-18.393-61.702-42.084h-1.08c14.334 24.161 31.553 43.01 62.782 43.01 17.567 0 28.016-2.734 32.853-8.586.185.765.367 1.523.545 2.278-.308.556-.647 1.1-1.054 1.618-4.492 5.706-15.07 8.48-32.344 8.48-32.542 0-49.728-20.88-64.447-46.8l-1.07-.001c14.91 26.383 32.28 47.727 65.517 47.727 17.82 0 28.329-2.807 33.071-8.833.229-.291.428-.592.627-.894.145.64.283 1.274.413 1.903-.43 1.106-1 2.157-1.767 3.135-4.492 5.705-15.07 8.48-32.344 8.48-34.494 0-51.736-23.46-67.072-51.518h-1.055c15.53 28.506 32.93 52.444 68.127 52.444 17.82 0 28.329-2.807 33.071-8.834a13.05 13.05 0 0 0 1.35-2.127c.089.473.17.944.243 1.41-.424 1.757-1.161 3.387-2.32 4.86-4.492 5.707-15.07 8.48-32.344 8.48-36.412 0-53.6-26.138-69.615-56.233l-1.052-.001c16.214 30.535 33.544 57.161 70.667 57.161 17.82 0 28.329-2.807 33.071-8.833a13.121 13.121 0 0 0 1.88-3.298c.02.177.037.355.053.531-.275 2.544-1.062 4.878-2.66 6.91-4.492 5.705-15.07 8.48-32.344 8.48-38.303 0-55.334-28.923-72.104-60.951h-1.045c16.976 32.454 34.127 61.877 73.149 61.877 17.82 0 28.329-2.807 33.071-8.834a13.146 13.146 0 0 0 2.011-3.61c-.18 2.875-.964 5.5-2.738 7.754-4.492 5.706-15.07 8.48-32.344 8.48-40.176 0-56.95-31.82-74.564-65.668h-1.044c17.829 34.264 34.701 66.594 75.608 66.594m662.964-9.454c16.386 0 24.042-13.202 28.094-31.57-3.715 20.287-11.03 35.359-28.094 35.359-21.092 0-28.338-16.796-32.123-37.31 4.102 18.79 11.935 33.52 32.123 33.52m0-4.716c16.387 0 24.043-13.201 28.094-31.572-3.715 20.29-11.03 35.362-28.094 35.362-21.093 0-28.338-16.798-32.124-37.313 4.102 18.791 11.935 33.523 32.124 33.523m0-4.716c16.387 0 24.043-13.202 28.094-31.571-3.715 20.288-11.03 35.36-28.094 35.36-21.092 0-28.338-16.796-32.124-37.311 4.103 18.79 11.936 33.522 32.124 33.522m0-4.716c16.386 0 24.042-13.2 28.094-31.569-3.715 20.287-11.03 35.358-28.094 35.358-21.092 0-28.338-16.796-32.124-37.31 4.103 18.79 11.936 33.521 32.124 33.521m0-4.716c16.387 0 24.043-13.202 28.094-31.571-3.715 20.288-11.03 35.36-28.094 35.36-21.093 0-28.338-16.797-32.124-37.312 4.102 18.79 11.935 33.523 32.124 33.523m0 27.37c-21.093 0-28.338-16.798-32.124-37.313 4.102 18.791 11.935 33.523 32.124 33.523 16.386 0 24.042-13.2 28.094-31.57-3.715 20.288-11.03 35.36-28.094 35.36m0 .927c25.65 0 29.913-32.342 32.436-66.23h-.929l-.297-.001h-.472l.164-1.858c-.07.622-.144 1.24-.218 1.858h-.618l-.317-.001h-2.253c-3.89 18.72-11.303 32.292-27.496 32.292-19.356 0-27.05-14.147-31.112-32.33h-.954c4.119 18.664 11.973 33.256 32.066 33.256 16.387 0 24.043-13.201 28.094-31.57-3.715 20.287-11.03 35.36-28.094 35.36-21.002 0-28.276-16.651-32.077-37.046h-1.751c-.132 0-.264 0-.395-.002h-2.698c.312 2.406.61 4.846.91 7.3 3.543 28.992 7.206 58.972 36.011 58.972m655.542 8.21v1.084h7.084v-3.909h-7.084v1.85c-1.482-.333-2.785-1.093-3.946-2.312-4.768-5.01-6.444-17.182-6.704-32.914.155-8.45.742-17.8 1.345-27.343.217-3.445.436-6.939.64-10.449h-1.729l-.093-.002h-.088c-.604 12.47-1.1 24.21-1.066 34.514v6.996c-.048 13.76 1.318 24.45 6.08 29.522 1.53 1.63 3.397 2.615 5.56 2.963"/><path d="M2109.792 710.2c15.459 0 23.147-11.75 27.37-28.504h-.96c-4.145 16.242-11.612 27.577-26.41 27.577-17.646 0-25.597-11.76-29.943-27.613h-.97c4.41 16.346 12.549 28.54 30.913 28.54m-446.194 5.58c53.1 0 64.122-10.612 72.978-19.14 5.985-5.762 10.712-10.313 26.56-10.313 16.857 0 25.556 5.864 34.768 12.072 10.852 7.315 23.152 15.606 51.037 15.606 20.941 0 27.427-15.107 31.3-32.458h-.938c-3.856 17.354-10.063 31.532-30.362 31.532-27.601 0-39.778-8.207-50.52-15.448-9.332-6.29-18.146-12.23-35.285-12.23-16.22 0-21.31 4.9-27.203 10.573-8.736 8.412-19.608 18.88-72.335 18.88-23.103 0-29.896-13.24-37.761-28.567a431.142 431.142 0 0 0-2.517-4.855h-1.05a399.656 399.656 0 0 1 2.743 5.277c8.004 15.599 14.915 29.071 38.585 29.071m319.796-10.274c18.234 0 27.328-10.045 32.308-23.884h-.866c-4.858 13.49-13.688 22.957-31.442 22.957-14.16 0-19.507-9.955-22.576-22.988l-.958-.001c3.134 13.525 8.626 23.916 23.534 23.916"/><path d="M2109.792 705.483c13.964 0 21.588-9.586 26.045-23.788h-.983c-4.364 13.677-11.742 22.862-25.062 22.862-15.845 0-23.874-9.482-28.494-22.896h-.995c4.697 13.918 12.94 23.822 29.49 23.822m-446.195 5.581c53.013 0 63.979-10.589 72.791-19.096 5.992-5.787 10.725-10.357 26.747-10.357 16.628 0 25.323 5.837 34.528 12.019 10.933 7.339 23.324 15.658 51.277 15.658 19.018 0 26.115-12.458 30.16-27.742h-.934c-3.984 15.136-10.8 26.816-29.226 26.816-27.67 0-39.937-8.236-50.76-15.502-7.28-4.886-14.261-9.548-25.006-11.366-3.022-.51-6.327-.81-10.039-.81-3.95 0-7.238.289-10.045.8-8.847 1.618-12.867 5.493-17.346 9.817-8.692 8.392-19.509 18.837-72.147 18.837-23.132 0-29.924-13.245-37.79-28.58-.02-.042-.042-.083-.063-.125h-1.042l.281.548c8.004 15.605 14.916 29.083 38.614 29.083m1426.86-14.19h-7.085v3.908h7.085zm0 6.296h-7.085v3.91h7.085zm0 6.299h-7.085v3.908h7.085zm0 6.297h-7.085v3.908h7.085zm0 6.297h-7.085v3.908h7.085zm0 6.297h-7.085v3.91h7.085zm0 6.297h-7.085v3.91h7.085zm0 6.297h-7.085v3.91h7.085zm0 6.298h-7.085v3.909h7.085zm0-62.973h-7.085v3.908h7.085zm0 6.298h-7.085v3.908h7.085zm0 62.973h-7.085v3.908h7.085zm9.102-56.676h-7.085v3.908h7.084zm0 6.296h-7.085v3.91h7.084zm0 6.299h-7.085v3.908h7.084zm0 6.297h-7.085v3.908h7.084zm0 6.297h-7.085v3.908h7.084zm0 6.297h-7.085v3.91h7.084zm0 6.297h-7.085v3.91h7.084zm0 6.297h-7.085v3.91h7.084zm0 6.298h-7.085v3.909h7.084zm0-62.973h-7.085v3.908h7.084zm0 6.298h-7.085v3.908h7.084zm0 62.973h-7.085v3.908h7.084zm9.1-56.676h-7.084v3.908h7.084zm0 6.296h-7.084v3.91h7.084zm0 6.299h-7.084v3.908h7.084zm0 6.297h-7.084v3.908h7.084zm0 6.297h-7.084v3.908h7.084zm0 6.297h-7.084v3.91h7.084zm0 6.297h-7.084v3.91h7.084zm0 6.297h-7.084v3.91h7.084zm0 6.298h-7.084v3.909h7.084zm0-62.973h-7.084v3.908h7.084zm0 6.298h-7.084v3.908h7.084zm0 62.973h-7.084v3.908h7.084zm9.102-56.676h-7.085v3.908h7.085zm0 6.296h-7.085v3.91h7.085zm0 6.299h-7.085v3.908h7.085zm0 6.297h-7.085v3.908h7.085zm0 6.297h-7.085v3.908h7.085zm0 6.297h-7.085v3.91h7.085zm0 6.297h-7.085v3.91h7.085zm0 6.297h-7.085v3.91h7.085zm0 6.298h-7.085v3.909h7.085zm0-62.973h-7.085v3.908h7.085zm0 6.298h-7.085v3.908h7.085zm0 62.973h-7.085v3.908h7.085zm9.101-56.676h-7.084v3.908h7.084zm0 6.296h-7.084v3.91h7.084zm0 6.299h-7.084v3.908h7.084zm0 6.297h-7.084v3.908h7.084zm0 6.297h-7.084v3.908h7.084zm0 6.297h-7.084v3.91h7.084zm0 6.297h-7.084v3.91h7.084zm0 6.297h-7.084v3.91h7.084zm0 6.298h-7.084v3.909h7.084zm0-62.973h-7.084v3.908h7.084zm0 6.298h-7.084v3.908h7.084zm0 62.973h-7.084v3.908h7.084zm9.101-56.676h-7.084v3.908h7.084zm0 6.296h-7.084v3.91h7.084zm0 6.299h-7.084v3.908h7.084zm0 6.297h-7.084v3.908h7.084zm0 6.297h-7.084v3.908h7.084zm0 6.297h-7.084v3.91h7.084zm0 6.297h-7.084v3.91h7.084zm0 6.297h-7.084v3.91h7.084zm0 6.298h-7.084v3.909h7.084zm0-62.973h-7.084v3.908h7.084zm0 6.298h-7.084v3.908h7.084zm0 62.973h-7.084v3.908h7.084zm9.102-56.676h-7.085v3.908h7.085zm0 6.296h-7.085v3.91h7.085zm0 6.299h-7.085v3.908h7.085zm0 6.297h-7.085v3.908h7.085zm0 6.297h-7.085v3.908h7.085zm0 6.297h-7.085v3.91h7.085zm0 6.297h-7.085v3.91h7.085zm0 6.297h-7.085v3.91h7.085zm0 6.298h-7.085v3.909h7.085zm0-62.973h-7.085v3.908h7.085zm0 6.298h-7.085v3.908h7.085zm0 62.973h-7.085v3.908h7.085zm9.102-56.676h-7.085v3.908h7.085zm0 6.296h-7.085v3.91h7.085zm0 6.299h-7.085v3.908h7.085zm0 6.297h-7.085v3.908h7.085zm0 6.297h-7.085v3.908h7.085zm0 6.297h-7.085v3.91h7.085zm0 6.297h-7.085v3.91h7.085zm0 6.297h-7.085v3.91h7.085zm0 6.298h-7.085v3.909h7.085zm0-62.973h-7.085v3.908h7.085zm0 6.298h-7.085v3.908h7.085zm0 62.973h-7.085v3.908h7.085zm9.102-56.676h-7.085v3.908h7.084zm0 6.296h-7.085v3.91h7.084zm0 6.299h-7.085v3.908h7.084zm0 6.297h-7.085v3.908h7.084zm0 6.297h-7.085v3.908h7.084zm0 6.297h-7.085v3.91h7.084zm0 6.297h-7.085v3.91h7.084zm0 6.297h-7.085v3.91h7.084zm0 6.298h-7.085v3.909h7.084zm0-62.973h-7.085v3.908h7.084zm0 6.298h-7.085v3.908h7.084zm0 62.973h-7.085v3.908h7.084zm9.1-56.676h-7.084v3.908h7.085zm0 6.296h-7.084v3.91h7.085zm0 6.299h-7.084v3.908h7.085zm0 6.297h-7.084v3.908h7.085zm0 6.297h-7.084v3.908h7.085zm0 6.297h-7.084v3.91h7.085zm0 6.297h-7.084v3.91h7.085zm0 6.297h-7.084v3.91h7.085zm0 6.298h-7.084v3.909h7.085zm0-62.973h-7.084v3.908h7.085zm0 6.298h-7.084v3.908h7.085zm0 62.973h-7.084v3.908h7.085zm9.102-56.676h-7.085v3.908h7.085zm0 6.296h-7.085v3.91h7.085zm0 6.299h-7.085v3.908h7.085zm0 6.297h-7.085v3.908h7.085zm0 6.297h-7.085v3.908h7.085zm0 6.297h-7.085v3.91h7.085zm0 6.297h-7.085v3.91h7.085zm0 6.297h-7.085v3.91h7.085zm0 6.298h-7.085v3.909h7.085zm0-62.973h-7.085v3.908h7.085zm0 6.298h-7.085v3.908h7.085zm0 62.973h-7.085v3.908h7.085zm9.101-56.676h-7.084v3.908h7.084zm0 6.296h-7.084v3.91h7.084zm0 6.299h-7.084v3.908h7.084zm0 6.297h-7.084v3.908h7.084zm0 6.297h-7.084v3.908h7.084zm0 6.297h-7.084v3.91h7.084zm0 6.297h-7.084v3.91h7.084zm0 6.297h-7.084v3.91h7.084zm0 6.298h-7.084v3.909h7.084zm0-62.973h-7.084v3.908h7.084zm0 6.298h-7.084v3.908h7.084zm0 62.973h-7.084v3.908h7.084zm9.101-56.676h-7.084v3.908h7.084zm0 6.296h-7.084v3.91h7.084zm0 6.299h-7.084v3.908h7.084zm0 6.297h-7.084v3.908h7.084zm0 6.297h-7.084v3.908h7.084zm0 6.297h-7.084v3.91h7.084zm0 6.297h-7.084v3.91h7.084zm0 6.297h-7.084v3.91h7.084zm0 6.298h-7.084v3.909h7.084zm0-62.973h-7.084v3.908h7.084zm0 6.298h-7.084v3.908h7.084zm0 62.973h-7.084v3.908h7.084zm9.102-56.676h-7.085v3.908h7.085zm0 6.296h-7.085v3.91h7.085zm0 6.299h-7.085v3.908h7.085zm0 6.297h-7.085v3.908h7.085zm0 6.297h-7.085v3.908h7.085zm0 6.297h-7.085v3.91h7.085zm0 6.297h-7.085v3.91h7.085zm0 6.297h-7.085v3.91h7.085zm0 6.298h-7.085v3.909h7.085zm0-62.973h-7.085v3.908h7.085zm0 6.298h-7.085v3.908h7.085zm0 62.973h-7.085v3.908h7.085zm9.101-56.676h-7.084v3.908h7.084zm0 6.296h-7.084v3.91h7.084zm0 6.299h-7.084v3.908h7.084zm0 6.297h-7.084v3.908h7.084zm0 6.297h-7.084v3.908h7.084zm0 6.297h-7.084v3.91h7.084zm0 6.297h-7.084v3.91h7.084zm0 6.297h-7.084v3.91h7.084zm0 6.298h-7.084v3.909h7.084zm0-62.973h-7.084v3.908h7.084zm0 6.298h-7.084v3.908h7.084zm0 62.973h-7.084v3.908h7.084zm9.101-56.676h-7.084v3.908h7.084zm0 6.296h-7.084v3.91h7.084zm0 6.299h-7.084v3.908h7.084zm0 6.297h-7.084v3.908h7.084zm0 6.297h-7.084v3.908h7.084zm0 6.297h-7.084v3.91h7.084zm0 6.297h-7.084v3.91h7.084zm0 6.297h-7.084v3.91h7.084zm0 6.298h-7.084v3.909h7.084zm0-62.973h-7.084v3.908h7.084zm0 6.298h-7.084v3.908h7.084zm0 62.973h-7.084v3.908h7.084zm9.102-56.676h-7.085v3.908h7.085zm0 6.296h-7.085v3.91h7.085zm0 6.299h-7.085v3.908h7.085zm0 6.297h-7.085v3.908h7.085zm0 6.297h-7.085v3.908h7.085zm0 6.297h-7.085v3.91h7.085zm0 6.297h-7.085v3.91h7.085zm0 6.297h-7.085v3.91h7.085zm0 6.298h-7.085v3.909h7.085zm0-62.973h-7.085v3.908h7.085zm0 6.298h-7.085v3.908h7.085zm0 62.973h-7.085v3.908h7.085zm9.101-56.676h-7.084v3.908h7.084zm0 6.296h-7.084v3.91h7.084zm0 6.299h-7.084v3.908h7.084zm0 6.297h-7.084v3.908h7.084zm0 6.297h-7.084v3.908h7.084zm0 6.297h-7.084v3.91h7.084zm0 6.297h-7.084v3.91h7.084zm0 6.297h-7.084v3.91h7.084zm0 6.298h-7.084v3.909h7.084zm0-62.973h-7.084v3.908h7.084zm0 6.298h-7.084v3.908h7.084zm0 62.973h-7.084v3.908h7.084zm9.101-56.676h-7.084v3.908h7.084zm0 6.296h-7.084v3.91h7.084zm0 6.299h-7.084v3.908h7.084zm0 6.297h-7.084v3.908h7.084zm0 6.297h-7.084v3.908h7.084zm0 6.297h-7.084v3.91h7.084zm0 6.297h-7.084v3.91h7.084zm0 6.297h-7.084v3.91h7.084zm0 6.298h-7.084v3.909h7.084zm0-62.973h-7.084v3.908h7.084zm0 6.298h-7.084v3.908h7.084zm0 62.973h-7.084v3.908h7.084zm9.102-69.271h-7.085v3.908h7.085zm9.101 0h-7.085v3.908h7.085zm9.102 0h-7.084v3.908h7.084zm9.101 0h-7.084v3.908h7.084zm9.102 0h-7.085v3.908h7.085zm9.101 0h-7.084v3.908h7.084zm9.101 0h-7.084v3.908h7.084zm9.102 0h-7.085v3.908h7.085zm9.101 0h-7.085v3.908h7.085zm9.101 0h-7.084v3.908h7.084zm9.102 0h-7.085v3.908h7.085zm9.101 0h-7.085v3.908h7.085zm9.101 0h-7.084v3.908h7.084zm9.101 0h-7.084v3.908h7.084zm9.102 0h-7.085v3.908h7.085zm9.101 0h-7.084v3.908h7.084zm9.101 0h-7.084v3.908h7.084zm9.102 0h-7.085v3.908h7.085zm9.101 0h-7.084v3.908h7.084zm9.102 0h-7.084v3.908h7.084zm9.102 0h-7.085v3.908h7.085zm9.101 0h-7.085v3.908h7.085zm9.101 0h-7.084v3.908h7.084zm9.101 0h-7.084v3.908h7.084zm9.102 0h-7.085v3.908h7.085zm9.101 0h-7.084v3.908h7.084zm9.02 0h-7.085v3.908h7.085zm9.102 0h-7.085v3.908h7.084zm9.1 0h-7.084v3.908h7.084zm9.102 0h-7.085v3.908h7.085zm9.101 0h-7.084v3.908h7.084zm9.101 0h-7.084v3.908h7.084zm9.102 0h-7.085v3.908h7.085zm9.101 0h-7.084v3.908h7.084zm9.101 0h-7.084v3.908h7.084zm9.102 0h-7.085v3.908h7.085zm154.805 18.891h-7.084v3.91h7.084zm0 6.299h-7.084v3.908h7.084zm0 6.297h-7.084v3.908h7.084zm0 6.297h-7.084v3.908h7.084zm0 6.297h-7.084v3.91h7.084zm0 6.297h-7.084v3.91h7.084zm0 6.297h-7.084v3.91h7.084zm0 6.298h-7.084v3.909h7.084zm0 6.298h-7.084v3.908h7.084zm9.101-50.38h-7.084v3.91h7.084zm0 6.299h-7.084v3.908h7.084zm0 6.297h-7.084v3.908h7.084zm0 6.297h-7.084v3.908h7.084zm0 6.297h-7.084v3.91h7.084zm0 6.297h-7.084v3.91h7.084zm0 6.297h-7.084v3.91h7.084zm0 6.298h-7.084v3.909h7.084zm0 6.298h-7.084v3.908h7.084zm9.102-50.38h-7.085v3.91h7.085zm0 6.299h-7.085v3.908h7.085zm0 6.297h-7.085v3.908h7.085zm0 6.297h-7.085v3.908h7.085zm0 6.297h-7.085v3.91h7.085zm0 6.297h-7.085v3.91h7.085zm0 6.297h-7.085v3.91h7.085zm0 6.298h-7.085v3.909h7.085zm0 6.298h-7.085v3.908h7.085zm9.101-50.38h-7.084v3.91h7.084zm0 6.299h-7.084v3.908h7.084zm0 6.297h-7.084v3.908h7.084zm0 6.297h-7.084v3.908h7.084zm0 6.297h-7.084v3.91h7.084zm0 6.297h-7.084v3.91h7.084zm0 6.297h-7.084v3.91h7.084zm0 6.298h-7.084v3.909h7.084zm0 6.298h-7.084v3.908h7.084zm9.101-50.38h-7.084v3.91h7.084zm0 6.299h-7.084v3.908h7.084zm0 6.297h-7.084v3.908h7.084zm0 6.297h-7.084v3.908h7.084zm0 6.297h-7.084v3.91h7.084zm0 6.297h-7.084v3.91h7.084zm0 6.297h-7.084v3.91h7.084zm0 6.298h-7.084v3.909h7.084zm0 6.298h-7.084v3.908h7.084zm9.102-50.38h-7.085v3.91h7.085zm0 6.299h-7.085v3.908h7.085zm0 6.297h-7.085v3.908h7.085zm0 6.297h-7.085v3.908h7.085zm0 6.297h-7.085v3.91h7.085zm0 6.297h-7.085v3.91h7.085zm0 6.297h-7.085v3.91h7.085zm0 6.298h-7.085v3.909h7.085zm0 6.298h-7.085v3.908h7.085zm9.101-50.38h-7.084v3.91h7.084zm0 6.299h-7.084v3.908h7.084zm0 6.297h-7.084v3.908h7.084zm0 6.297h-7.084v3.908h7.084zm0 6.297h-7.084v3.91h7.084zm0 6.297h-7.084v3.91h7.084zm0 6.297h-7.084v3.91h7.084zm0 6.298h-7.084v3.909h7.084zm0 6.298h-7.084v3.908h7.084zm9.101-50.38h-7.084v3.91h7.084zm0 6.299h-7.084v3.908h7.084zm0 6.297h-7.084v3.908h7.084zm0 6.297h-7.084v3.908h7.084zm0 6.297h-7.084v3.91h7.084zm0 6.297h-7.084v3.91h7.084zm0 6.297h-7.084v3.91h7.084zm0 6.298h-7.084v3.909h7.084zm0 6.298h-7.084v3.908h7.084zm9.102-50.38h-7.085v3.91h7.085zm0 6.299h-7.085v3.908h7.085zm0 6.297h-7.085v3.908h7.085zm0 6.297h-7.085v3.908h7.085zm0 6.297h-7.085v3.91h7.085zm0 6.297h-7.085v3.91h7.085zm0 6.297h-7.085v3.91h7.085zm0 6.298h-7.085v3.909h7.085zm0 6.298h-7.085v3.908h7.085zm9.101-50.38h-7.085v3.91h7.085zm0 6.299h-7.085v3.908h7.085zm0 6.297h-7.085v3.908h7.085zm0 6.297h-7.085v3.908h7.085zm0 6.297h-7.085v3.91h7.085zm0 6.297h-7.085v3.91h7.085zm0 6.297h-7.085v3.91h7.085zm0 6.298h-7.085v3.909h7.085zm0 6.298h-7.085v3.908h7.085zm9.101-50.38h-7.084v3.91h7.084zm0 6.299h-7.084v3.908h7.084zm0 6.297h-7.084v3.908h7.084zm0 6.297h-7.084v3.908h7.084zm0 6.297h-7.084v3.91h7.084zm0 6.297h-7.084v3.91h7.084zm0 6.297h-7.084v3.91h7.084zm0 6.298h-7.084v3.909h7.084zm0 6.298h-7.084v3.908h7.084zm9.102-50.38h-7.085v3.91h7.084zm0 6.299h-7.085v3.908h7.084zm0 6.297h-7.085v3.908h7.084zm0 6.297h-7.085v3.908h7.084zm0 6.297h-7.085v3.91h7.084zm0 6.297h-7.085v3.91h7.084zm0 6.297h-7.085v3.91h7.084zm0 6.298h-7.085v3.909h7.084zm0 6.298h-7.085v3.908h7.084zm9.1-50.38h-7.084v3.91h7.085zm0 6.299h-7.084v3.908h7.085zm0 6.297h-7.084v3.908h7.085zm0 6.297h-7.084v3.908h7.085zm0 6.297h-7.084v3.91h7.085zm0 6.297h-7.084v3.91h7.085zm0 6.297h-7.084v3.91h7.085zm0 6.298h-7.084v3.909h7.085zm0 6.298h-7.084v3.908h7.085zm9.102-50.38h-7.084v3.91h7.084zm0 6.299h-7.084v3.908h7.084zm0 6.297h-7.084v3.908h7.084zm0 6.297h-7.084v3.908h7.084zm0 6.297h-7.084v3.91h7.084zm0 6.297h-7.084v3.91h7.084zm0 6.297h-7.084v3.91h7.084zm0 6.298h-7.084v3.909h7.084zm0 6.298h-7.084v3.908h7.084zm9.102-50.38h-7.084v3.91h7.084zm0 6.299h-7.084v3.908h7.084zm0 6.297h-7.084v3.908h7.084zm0 6.297h-7.084v3.908h7.084zm0 6.297h-7.084v3.91h7.084zm0 6.297h-7.084v3.91h7.084zm0 6.297h-7.084v3.91h7.084zm0 6.298h-7.084v3.909h7.084zm0 6.298h-7.084v3.908h7.084zm9.102-50.38h-7.085v3.91h7.085zm0 6.299h-7.085v3.908h7.085zm0 6.297h-7.085v3.908h7.085zm0 6.297h-7.085v3.908h7.085zm0 6.297h-7.085v3.91h7.085zm0 6.297h-7.085v3.91h7.085zm0 6.297h-7.085v3.91h7.085zm0 6.298h-7.085v3.909h7.085zm0 6.298h-7.085v3.908h7.085zm9.101-50.38h-7.085v3.91h7.085zm0 6.299h-7.085v3.908h7.085zm0 6.297h-7.085v3.908h7.085zm0 6.297h-7.085v3.908h7.085zm0 6.297h-7.085v3.91h7.085zm0 6.297h-7.085v3.91h7.085zm0 6.297h-7.085v3.91h7.085zm0 6.298h-7.085v3.909h7.085zm0 6.298h-7.085v3.908h7.085zm9.101-50.38h-7.084v3.91h7.084zm0 6.299h-7.084v3.908h7.084zm0 6.297h-7.084v3.908h7.084zm0 6.297h-7.084v3.908h7.084zm0 6.297h-7.084v3.91h7.084zm0 6.297h-7.084v3.91h7.084zm0 6.297h-7.084v3.91h7.084zm0 6.298h-7.084v3.909h7.084zm0 6.298h-7.084v3.908h7.084zm9.102-50.38h-7.085v3.91h7.085zm0 6.299h-7.085v3.908h7.085zm0 6.297h-7.085v3.908h7.085zm0 6.297h-7.085v3.908h7.085zm0 6.297h-7.085v3.91h7.085zm0 6.297h-7.085v3.91h7.085zm0 6.297h-7.085v3.91h7.085zm0 6.298h-7.085v3.909h7.085zm0 6.298h-7.085v3.908h7.085zm9.1-50.38h-7.084v3.91h7.085zm0 6.299h-7.084v3.908h7.085zm0 6.297h-7.084v3.908h7.085zm0 6.297h-7.084v3.908h7.085zm0 6.297h-7.084v3.91h7.085zm0 6.297h-7.084v3.91h7.085zm0 6.297h-7.084v3.91h7.085zm0 6.298h-7.084v3.909h7.085zm0 6.298h-7.084v3.908h7.085zm9.102-50.38h-7.084v3.91h7.084zm0 6.299h-7.084v3.908h7.084zm0 6.297h-7.084v3.908h7.084zm0 6.297h-7.084v3.908h7.084zm0 6.297h-7.084v3.91h7.084zm0 6.297h-7.084v3.91h7.084zm0 6.297h-7.084v3.91h7.084zm0 6.298h-7.084v3.909h7.084zm0 6.298h-7.084v3.908h7.084zm9.101-50.38h-7.084v3.91h7.084zm0 6.299h-7.084v3.908h7.084zm0 6.297h-7.084v3.908h7.084zm0 6.297h-7.084v3.908h7.084zm0 6.297h-7.084v3.91h7.084zm0 6.297h-7.084v3.91h7.084zm0 6.297h-7.084v3.91h7.084zm0 6.298h-7.084v3.909h7.084zm0 6.298h-7.084v3.908h7.084zm9.102-50.38h-7.085v3.91h7.085zm0 6.299h-7.085v3.908h7.085zm0 6.297h-7.085v3.908h7.085zm0 6.297h-7.085v3.908h7.085zm0 6.297h-7.085v3.91h7.085zm0 6.297h-7.085v3.91h7.085zm0 6.297h-7.085v3.91h7.085zm0 6.298h-7.085v3.909h7.085zm0 6.298h-7.085v3.908h7.085zm9.101-44.081h-7.084v3.908h7.084zm0 6.297h-7.084v3.908h7.084zm0 6.297h-7.084v3.908h7.084zm0 6.297h-7.084v3.91h7.084zm0 6.297h-7.084v3.91h7.084zm0 6.297h-7.084v3.91h7.084zm0 6.298h-7.084v3.909h7.084zm0 6.298h-7.084v3.908h7.084zm9.101-44.081h-7.084v3.908h7.084zm0 6.297h-7.084v3.908h7.084zm0 6.297h-7.084v3.908h7.084zm0 6.297h-7.084v3.91h7.084zm0 6.297h-7.084v3.91h7.084zm0 6.297h-7.084v3.91h7.084zm0 6.298h-7.084v3.909h7.084zm0 6.298h-7.084v3.908h7.084zm9.102-44.081h-7.085v3.908h7.085zm0 6.297h-7.085v3.908h7.085zm0 6.297h-7.085v3.908h7.085zm0 6.297h-7.085v3.91h7.085zm0 6.297h-7.085v3.91h7.085zm0 6.297h-7.085v3.91h7.085zm0 6.298h-7.085v3.909h7.085zm0 6.298h-7.085v3.908h7.085zm9.101-44.081h-7.084v3.908h7.084zm0 6.297h-7.084v3.908h7.084zm0 6.297h-7.084v3.908h7.084zm0 6.297h-7.084v3.91h7.084zm0 6.297h-7.084v3.91h7.084zm0 6.297h-7.084v3.91h7.084zm0 6.298h-7.084v3.909h7.084zm0 6.298h-7.084v3.908h7.084zm9.101-44.081h-7.084v3.908h7.084zm0 6.297h-7.084v3.908h7.084zm0 6.297h-7.084v3.908h7.084zm0 6.297h-7.084v3.91h7.084zm0 6.297h-7.084v3.91h7.084zm0 6.297h-7.084v3.91h7.084zm0 6.298h-7.084v3.909h7.084zm0 6.298h-7.084v3.908h7.084zm9.102-44.081h-7.085v3.908h7.085zm0 6.297h-7.085v3.908h7.085zm0 6.297h-7.085v3.908h7.085zm0 6.297h-7.085v3.91h7.085zm0 6.297h-7.085v3.91h7.085zm0 6.297h-7.085v3.91h7.085zm0 6.298h-7.085v3.909h7.085zm0 6.298h-7.085v3.908h7.085zm9.101-44.081h-7.085v3.908h7.085zm0 6.297h-7.085v3.908h7.085zm0 6.297h-7.085v3.908h7.085zm0 6.297h-7.085v3.91h7.085zm0 6.297h-7.085v3.91h7.085zm0 6.297h-7.085v3.91h7.085zm0 6.298h-7.085v3.909h7.085zm0 6.298h-7.085v3.908h7.085zm9.102-44.081h-7.084v3.908h7.084zm0 6.297h-7.084v3.908h7.084zm0 6.297h-7.084v3.908h7.084zm0 6.297h-7.084v3.91h7.084zm0 6.297h-7.084v3.91h7.084zm0 6.297h-7.084v3.91h7.084zm0 6.298h-7.084v3.909h7.084zm0 6.298h-7.084v3.908h7.084zm9.101-44.081h-7.084v3.908h7.084zm0 6.297h-7.084v3.908h7.084zm0 6.297h-7.084v3.908h7.084zm0 6.297h-7.084v3.91h7.084zm0 6.297h-7.084v3.91h7.084zm0 6.297h-7.084v3.91h7.084zm0 6.298h-7.084v3.909h7.084zm0 6.298h-7.084v3.908h7.084zm-72.811-50.38h-7.084v3.91h7.084zm9.101 0h-7.084v3.91h7.084zm9.102 0h-7.085v3.91h7.085zm9.101 0h-7.084v3.91h7.084zm9.101 0h-7.084v3.91h7.084zm9.102 0h-7.085v3.91h7.085zm9.101 0h-7.085v3.91h7.085zm9.102 0h-7.084v3.91h7.084zm9.101 0h-7.084v3.91h7.084zm-145.574-6.296h-7.085v3.908h7.085zm0-12.595h-7.085v3.908h7.085zm0 6.298h-7.085v3.908h7.085zm-9.101 6.297h-7.085v3.908h7.085zm0-12.595h-7.085v3.908h7.085zm0 6.298h-7.085v3.908h7.085zm-9.102 6.297h-7.084v3.908h7.084zm0-12.595h-7.084v3.908h7.084zm0 6.298h-7.084v3.908h7.084zm-9.101 6.297h-7.084v3.908h7.084zm0-12.595h-7.084v3.908h7.084zm0 6.298h-7.084v3.908h7.084zm-9.101 6.297h-7.085v3.908h7.085zm0-12.595h-7.085v3.908h7.085zm0 6.298h-7.085v3.908h7.085zm-9.102 6.297h-7.084v3.908h7.084zm0-12.595h-7.084v3.908h7.084zm0 6.298h-7.084v3.908h7.084zm-9.101 6.297h-7.084v3.908h7.084zm0-12.595h-7.084v3.908h7.084zm0 6.298h-7.084v3.908h7.084zm-9.102 6.297h-7.085v3.908h7.085zm0-12.595h-7.085v3.908h7.085zm0 6.298h-7.085v3.908h7.085zm-9.101 6.297h-7.084v3.908h7.084zm0-12.595h-7.084v3.908h7.084zm0 6.298h-7.084v3.908h7.084zm-9.101 6.297h-7.084v3.908h7.084zm0-12.595h-7.084v3.908h7.084zm0 6.298h-7.084v3.908h7.084zm-9.102 6.297h-7.085v3.908h7.085zm0-12.595h-7.085v3.908h7.085zm0 6.298h-7.085v3.908h7.085zm-9.101 6.297h-7.085v3.908h7.085zm0-12.595h-7.085v3.908h7.085zm0 6.298h-7.085v3.908h7.085zm-9.102 6.297h-7.084v3.908h7.084zm0-12.595h-7.084v3.908h7.084zm0 6.298h-7.084v3.908h7.084zm-9.101 6.297h-7.084v3.908h7.084zm0-12.595h-7.084v3.908h7.084zm0 6.298h-7.084v3.908h7.084zm-9.101 6.297h-7.085v3.908h7.085zm0-12.595h-7.085v3.908h7.085zm0 6.298h-7.085v3.908h7.085zm-9.102 6.297h-7.084v3.908h7.084zm0-12.595h-7.084v3.908h7.084zm0 6.298h-7.084v3.908h7.084zm-9.101-6.298h-7.084v3.908h7.084zm-9.101 0h-7.085v3.908h7.085zm-9.102 0h-7.084v3.908h7.084zm-9.101 0h-7.084v3.908h7.084zm-9.101 0h-7.085v3.908h7.085zm-9.101 0h-7.085v3.908h7.085zm-9.102 0h-7.084v3.908h7.084zm-9.101 0h-7.085v3.908h7.085zm-9.102 0h-7.085v3.908h7.085zm-9.102 0h-7.084v3.908h7.084zm-9.101 0h-7.084v3.908h7.084zm-9.101 0h-7.085v3.908h7.085zm-9.102 0h-7.084v3.908h7.084zm-9.101 0h-7.084v3.908h7.084zm-9.101 0h-7.085v3.908h7.085zm-9.102 0h-7.084v3.908h7.085zm418.616 6.298h-7.084v3.908h7.084zm0 6.297h-7.084v3.908h7.084zm-9.102 0h-7.085v3.908h7.085zm-9.101-12.595h-7.085v3.908h7.085zm0 12.595h-7.085v3.908h7.085zm-9.265 0h-7.084v3.908h7.084zm-8.938-6.297h-7.084v3.908h7.084zm-9.101-6.298h-7.085v3.908h7.085zm0 6.298h-7.085v3.908h7.085zm0 6.297h-7.085v3.908h7.085zm-9.102-6.297h-7.084v3.908h7.084zm0 6.297h-7.084v3.908h7.084zm-9.101-12.595h-7.084v3.908h7.084zm0 6.298h-7.084v3.908h7.084zm0 6.297h-7.084v3.908h7.084zm-9.101-12.595h-7.085v3.908h7.085zm0 6.298h-7.085v3.908h7.085zm0 6.297h-7.085v3.908h7.085zm-9.102-12.595h-7.084v3.908h7.084zm0 12.595h-7.084v3.908h7.084zm-9.101-12.595h-7.084v3.908h7.084zm0 6.298h-7.084v3.908h7.084zm0 6.297h-7.084v3.908h7.084zm-9.102-12.595h-7.084v3.908h7.085zm0 6.298h-7.084v3.908h7.085zm0 6.297h-7.084v3.908h7.085zm-9.1-12.595h-7.085v3.908h7.085zm0 6.298h-7.085v3.908h7.085zm0 6.297h-7.085v3.908h7.085zm-9.102-12.595h-7.084v3.908h7.084zm0 6.298h-7.084v3.908h7.084zm0 6.297h-7.084v3.908h7.084zm-9.101-12.595h-7.085v3.908h7.085zm0 6.298h-7.085v3.908h7.085zm0 6.297h-7.085v3.908h7.085zm200.277 37.42h-7.085v3.909h7.085zm0 6.297h-7.085v3.909h7.085zm0 6.299h-7.085v3.908h7.085zm0 6.296h-7.085v3.909h7.085zm-9.101-18.892h-7.085v3.909h7.085zm0 6.297h-7.085v3.909h7.085zm0 6.299h-7.085v3.908h7.085zm0 6.296h-7.085v3.909h7.085zm-9.102-18.892h-7.084v3.909h7.084zm0 6.297h-7.084v3.909h7.084zm0 6.299h-7.084v3.908h7.084zm0 6.296h-7.084v3.909h7.084zm-9.101-18.892h-7.085v3.909h7.085zm0 6.297h-7.085v3.909h7.085zm0 6.299h-7.085v3.908h7.085zm0 6.296h-7.085v3.909h7.085zm-9.101-18.892h-7.085v3.909h7.085zm0 6.297h-7.085v3.909h7.085zm0 6.299h-7.085v3.908h7.085zm0 6.296h-7.085v3.909h7.085zm-9.102-18.892h-7.084v3.909h7.084zm0 6.297h-7.084v3.909h7.084zm0 6.299h-7.084v3.908h7.084zm0 6.296h-7.084v3.909h7.084zm-9.101-18.892h-7.084v3.909h7.084zm0 6.297h-7.084v3.909h7.084zm0 6.299h-7.084v3.908h7.084zm0 6.296h-7.084v3.909h7.084zm54.608-24.826h-7.085v3.91h7.085zm-9.101-12.594h-7.085v3.908h7.085zm0 6.297h-7.085v3.908h7.085zm0 6.297h-7.085v3.91h7.085zm-9.102-6.297h-7.084v3.908h7.084zm-9.101-12.594h-7.085v3.908h7.085zm0 12.594h-7.085v3.908h7.085zm-9.264 0h-7.085v3.908h7.085zm9.264 6.297h-7.085v3.91h7.085zm-9.101 0h-7.085v3.91h7.085zm-9.102-12.594h-7.084v3.908h7.084zm0 12.594h-7.084v3.91h7.084zm-9.101-25.19h-7.084v3.91h7.084zm0 6.299h-7.084v3.908h7.084zm0 6.297h-7.084v3.908h7.084zm0 6.297h-7.084v3.908h7.084zm0 6.297h-7.084v3.91h7.084zm154.676 24.826h-7.085v3.909h7.085zm-9.102-12.595h-7.084v3.909h7.085zm0 6.299h-7.084v3.908h7.085zm0 6.296h-7.084v3.909h7.085zm-9.1 0h-7.085v3.909h7.084zm-9.102-6.296h-7.085v3.908h7.085zm0 6.296h-7.085v3.909h7.085zm-9.102-18.892h-7.085v3.909h7.085zm0 12.596h-7.085v3.908h7.085zm0 6.296h-7.085v3.909h7.085zm-9.102-6.296h-7.084v3.908h7.084zm99.952 6.296h-7.085v3.909h7.085zm-9.102-6.296h-7.084v3.908h7.084zm0 6.296h-7.084v3.909h7.084zm-9.101 0h-7.084v3.909h7.084zm45.069 0h-7.084v3.909h7.084zm-9.101 0h-7.084v3.909h7.084zm-9.101 0h-7.085v3.909h7.085zm-35.968-6.296h-7.085v3.908h7.085zm0 6.296h-7.085v3.909h7.085zm-9.102-6.296h-7.084v3.908h7.084zm0 6.296h-7.084v3.909h7.084zm-9.102-6.296h-7.084v3.908h7.084zm-63.545-18.893h-7.084v3.909h7.084zm0 12.594h-7.084v3.909h7.084zm0 6.299h-7.084v3.908h7.084zm0 6.296h-7.084v3.909h7.084zm-9.101-18.892h-7.085v3.909h7.085zm0 6.297h-7.085v3.909h7.085zm0 6.299h-7.085v3.908h7.085zm0 6.296h-7.085v3.909h7.085zm-9.102-25.189h-7.084v3.909h7.084zm0 6.297h-7.084v3.909h7.084zm0 6.297h-7.084v3.909h7.084zm0 6.299h-7.084v3.908h7.084zm0 6.296h-7.084v3.909h7.084zm0-37.784h-7.084v3.909h7.084zm-9.1 12.595h-7.085v3.909h7.084zm0 12.594h-7.085v3.909h7.084zm0 6.299h-7.085v3.908h7.084zm0 6.296h-7.085v3.909h7.084zm0-31.486h-7.085v3.908h7.084zm-9.102 6.297h-7.085v3.909h7.085zm0 6.297h-7.085v3.909h7.085zm0 6.297h-7.085v3.909h7.085zm0 6.299h-7.085v3.908h7.085zm0 6.296h-7.085v3.909h7.085zm0-44.081h-7.085v3.909h7.085zm0 6.297h-7.085v3.909h7.085zm-1264.545 19.02h-7.085v3.909h7.085zm0 6.298h-7.085v3.908h7.085zm0 6.296h-7.085v3.909h7.085zm0 6.298h-7.085v3.909h7.085zm-9.12 0h-7.084v3.909h7.084zm18.221-18.892h-7.084v3.909h7.084zm0 6.298h-7.084v3.908h7.084zm0 6.296h-7.084v3.909h7.084zm0 6.298h-7.084v3.909h7.084zm9.102-18.892h-7.085v3.909h7.085zm0 6.298h-7.085v3.908h7.085zm0 6.296h-7.085v3.909h7.085zm0 6.298h-7.085v3.909h7.085zm9.101-18.892h-7.085v3.909h7.085zm0 6.298h-7.085v3.908h7.085zm0 6.296h-7.085v3.909h7.085zm0 6.298h-7.085v3.909h7.085zm9.101-18.892h-7.084v3.909h7.084zm0 6.298h-7.084v3.908h7.084zm0 6.296h-7.084v3.909h7.084zm0 6.298h-7.084v3.909h7.084zm9.102-18.892h-7.085v3.909h7.084zm0 6.298h-7.085v3.908h7.084zm0 6.296h-7.085v3.909h7.084zm0 6.298h-7.085v3.909h7.084zm9.1-18.892h-7.084v3.909h7.085zm0 6.298h-7.084v3.908h7.085zm0 6.296h-7.084v3.909h7.085zm0 6.298h-7.084v3.909h7.085zm9.102-18.892h-7.084v3.909h7.084zm0 6.298h-7.084v3.908h7.084zm0 6.296h-7.084v3.909h7.084zm0 6.298h-7.084v3.909h7.084zm9.101-18.892h-7.084v3.909h7.084zm0 6.298h-7.084v3.908h7.084zm0 6.296h-7.084v3.909h7.084zm0 6.298h-7.084v3.909h7.084zm9.102-18.892h-7.085v3.909h7.085zm0 6.298h-7.085v3.908h7.085zm0 6.296h-7.085v3.909h7.085zm0 6.298h-7.085v3.909h7.085zm9.101-18.892h-7.084v3.909h7.084zm0 6.298h-7.084v3.908h7.084zm0 6.296h-7.084v3.909h7.084zm0 6.298h-7.084v3.909h7.084zm9.101-18.892h-7.084v3.909h7.084zm0 6.298h-7.084v3.908h7.084zm0 6.296h-7.084v3.909h7.084zm0 6.298h-7.084v3.909h7.084zm9.102-18.892h-7.085v3.909h7.085zm0 6.298h-7.085v3.908h7.085zm0 6.296h-7.085v3.909h7.085zm0 6.298h-7.085v3.909h7.085zm9.101-18.892h-7.085v3.909h7.085zm0 6.298h-7.085v3.908h7.085zm0 6.296h-7.085v3.909h7.085zm0 6.298h-7.085v3.909h7.085zm9.101-18.892h-7.084v3.909h7.084zm0 6.298h-7.084v3.908h7.084zm0 6.296h-7.084v3.909h7.084zm0 6.298h-7.084v3.909h7.084zm9.102-18.892h-7.085v3.909h7.085zm0 6.298h-7.085v3.908h7.085zm0 6.296h-7.085v3.909h7.085zm0 6.298h-7.085v3.909h7.085zm9.102-18.892h-7.085v3.909h7.085zm0 6.298h-7.085v3.908h7.085zm0 6.296h-7.085v3.909h7.085zm0 6.298h-7.085v3.909h7.085zm9.101-18.892h-7.084v3.909h7.084zm0 6.298h-7.084v3.908h7.084zm0 6.296h-7.084v3.909h7.084zm0 6.298h-7.084v3.909h7.084zm9.101-18.892h-7.084v3.909h7.084zm0 6.298h-7.084v3.908h7.084zm0 6.296h-7.084v3.909h7.084zm0 6.298h-7.084v3.909h7.084zm9.102-18.892h-7.085v3.909h7.085zm0 6.298h-7.085v3.908h7.085zm0 6.296h-7.085v3.909h7.085zm0 6.298h-7.085v3.909h7.085zm9.101-18.892h-7.085v3.909h7.085zm0 6.298h-7.085v3.908h7.085zm0 6.296h-7.085v3.909h7.085zm0 6.298h-7.085v3.909h7.085zm9.101-18.892h-7.084v3.909h7.084zm0 6.298h-7.084v3.908h7.084zm0 6.296h-7.084v3.909h7.084zm0 6.298h-7.084v3.909h7.084zm9.102-18.892h-7.085v3.909h7.085zm0 6.298h-7.085v3.908h7.085zm0 6.296h-7.085v3.909h7.085zm0 6.298h-7.085v3.909h7.085zm9.101-18.892h-7.085v3.909h7.085zm0 6.298h-7.085v3.908h7.085zm0 6.296h-7.085v3.909h7.085zm0 6.298h-7.085v3.909h7.085zm9.101-18.892h-7.084v3.909h7.084zm0 6.298h-7.084v3.908h7.084zm0 6.296h-7.084v3.909h7.084zm0 6.298h-7.084v3.909h7.084zm9.101-18.892h-7.084v3.909h7.084zm0 6.298h-7.084v3.908h7.084zm0 6.296h-7.084v3.909h7.084zm0 6.298h-7.084v3.909h7.084zm9.102-18.892h-7.085v3.909h7.085zm0 6.298h-7.085v3.908h7.085zm0 6.296h-7.085v3.909h7.085zm0 6.298h-7.085v3.909h7.085zm9.102-18.892h-7.085v3.909h7.084zm0 6.298h-7.085v3.908h7.084zm0 6.296h-7.085v3.909h7.084zm0 6.298h-7.085v3.909h7.084zm9.1-18.892h-7.084v3.909h7.084zm0 6.298h-7.084v3.908h7.084zm0 6.296h-7.084v3.909h7.084zm0 6.298h-7.084v3.909h7.084zm-172.785-25.19h-7.085v3.909h7.085zm9.101 0h-7.085v3.909h7.085zm9.101 0h-7.084v3.909h7.084zm9.101 0h-7.084v3.909h7.084zm9.102 0h-7.085v3.909h7.085zm9.101 0h-7.084v3.909h7.084zm9.101 0h-7.084v3.909h7.084zm9.102 0h-7.085v3.909h7.085zm9.101 0h-7.084v3.909h7.084zm9.101 0h-7.084v3.909h7.084zm9.102 0h-7.085v3.909h7.085zm9.101 0h-7.085v3.909h7.085zm9.102 0h-7.084v3.909h7.084zm9.101 0h-7.084v3.909h7.084zm9.102 0h-7.085v3.909h7.085zm9.101 0h-7.084v3.909h7.084zm9.101 0h-7.084v3.909h7.084zm0-44.081h-7.084v3.91h7.084zm0 6.297h-7.084v3.91h7.084zm0 6.298h-7.084v3.909h7.084zm0 6.297h-7.084v3.909h7.084zm0 6.297h-7.084v3.909h7.084zm0 6.298h-7.084v3.909h7.084zm0 6.297h-7.084v3.909h7.084zm9.102 6.297h-7.085v3.909h7.085zm0-44.081h-7.085v3.91h7.085zm0 6.297h-7.085v3.91h7.085zm0 6.298h-7.085v3.909h7.085zm0 6.297h-7.085v3.909h7.085zm0 6.297h-7.085v3.909h7.085zm0 6.298h-7.085v3.909h7.085zm0 6.297h-7.085v3.909h7.085zm9.101 6.297h-7.084v3.909h7.084zm0-37.784h-7.084v3.91h7.084zm0 6.298h-7.084v3.909h7.084zm0 6.297h-7.084v3.909h7.084zm0 6.297h-7.084v3.909h7.084zm0 6.298h-7.084v3.909h7.084zm0 6.297h-7.084v3.909h7.084zm9.101 6.297h-7.084v3.909h7.084zm0-44.081h-7.084v3.91h7.084zm0 6.297h-7.084v3.91h7.084zm0 6.298h-7.084v3.909h7.084zm0 6.297h-7.084v3.909h7.084zm0 6.297h-7.084v3.909h7.084zm0 6.298h-7.084v3.909h7.084zm0 6.297h-7.084v3.909h7.084zm-172.925.363h-7.085v3.909h7.085zm9.101-12.595h-7.085v3.91h7.085zm0 6.298h-7.085v3.909h7.085zm0 6.297h-7.085v3.909h7.085zm9.101-6.297h-7.084v3.909h7.084zm9.101-12.594h-7.084v3.908h7.084zm0 12.594h-7.084v3.909h7.084zm9.265 0h-7.085v3.909h7.085zm-9.265 6.297h-7.084v3.909h7.084zm9.102 0h-7.085v3.909h7.085zm9.101-12.595h-7.084v3.91h7.084zm0 12.595h-7.084v3.909h7.084zm9.101-25.188h-7.084v3.908h7.084zm0 6.297h-7.084v3.908h7.084zm0 6.296h-7.084v3.91h7.084zm0 6.298h-7.084v3.909h7.084zm0 6.297h-7.084v3.909h7.084zm9.102-12.595h-7.085v3.91h7.085zm0 6.298h-7.085v3.909h7.085zm0 6.297h-7.085v3.909h7.085zm9.101-18.891h-7.084v3.908h7.084zm0 6.296h-7.084v3.91h7.084zm0 6.298h-7.084v3.909h7.084zm0 6.297h-7.084v3.909h7.084zm9.101-31.486h-7.084v3.908h7.084zm0 12.595h-7.084v3.908h7.084zm0 6.296h-7.084v3.91h7.084zm0 6.298h-7.084v3.909h7.084zm0 6.297h-7.084v3.909h7.084zm9.102-18.891h-7.085v3.908h7.085zm0 12.594h-7.085v3.909h7.085zm0 6.297h-7.085v3.909h7.085zm9.101-37.783h-7.085v3.908h7.085zm0 12.595h-7.085v3.908h7.085zm0 6.297h-7.085v3.908h7.085zm0 6.296h-7.085v3.91h7.085zm0 6.298h-7.085v3.909h7.085zm0 6.297h-7.085v3.909h7.085zm9.102-31.486h-7.084v3.908h7.084zm0 6.298h-7.084v3.908h7.084zm0 6.297h-7.084v3.908h7.084zm0 6.296h-7.084v3.91h7.084zm0 6.298h-7.084v3.909h7.084zm0 6.297h-7.084v3.909h7.084zm9.101-37.783h-7.084v3.908h7.084zm0 6.297h-7.084v3.908h7.084zm0 6.298h-7.084v3.908h7.084zm0 6.297h-7.084v3.908h7.084zm0 6.296h-7.084v3.91h7.084zm0 6.298h-7.084v3.909h7.084zm0 6.297h-7.084v3.909h7.084zm9.102-37.783h-7.085v3.908h7.085zm0 12.595h-7.085v3.908h7.085zm0 6.297h-7.085v3.908h7.085zm0 6.296h-7.085v3.91h7.085zm0 6.298h-7.085v3.909h7.085zm0 6.297h-7.085v3.909h7.085zm9.101-37.783h-7.084v3.908h7.084zm0 6.297h-7.084v3.908h7.084zm0 6.298h-7.084v3.908h7.084zm0 6.297h-7.084v3.908h7.084zm0 6.296h-7.084v3.91h7.084zm0 6.298h-7.084v3.909h7.084zm0 6.297h-7.084v3.909h7.084zm-200.182 5.934h-7.085v3.909h7.085zm18.202-6.297h-7.084v3.909h7.084zm9.102 6.297h-7.085v3.909h7.085zm9.101-6.297h-7.085v3.909h7.085zm0 6.297h-7.085v3.909h7.085zm0-18.892h-7.085v3.909h7.085zm9.102 12.595h-7.085v3.909h7.084zm0-6.297h-7.085v3.909h7.084zm-100.338 31.486h-7.085v3.909h7.085zm9.101 6.298h-7.085v3.909h7.085zm9.101-6.298h-7.084v3.909h7.084zm0 6.298h-7.084v3.909h7.084zm0-18.892h-7.084v3.909h7.084zm9.101 12.594h-7.084v3.909h7.084zm0-6.296h-7.084v3.908h7.084zm82.135-18.893h-7.084v3.909h7.085zm0 6.297h-7.084v3.909h7.085zm0-25.189h-7.084v3.909h7.085zm0 6.297h-7.084v3.909h7.085zm827.494-18.655h-7.085v3.908h7.085zm0 6.297h-7.085v3.908h7.085zm0 6.296h-7.085v3.91h7.085zm0 6.299h-7.085v3.908h7.085zm0 6.297h-7.085v3.908h7.085zm0 6.297h-7.085v3.908h7.085zm0 6.297h-7.085v3.91h7.085zm0 6.297h-7.085v3.91h7.085zm0 6.297h-7.085v3.91h7.085zm0 6.298h-7.085v3.909h7.085zm0 6.298h-7.085v3.908h7.085zm-9.102.024h-7.085v3.909h7.085zm0-63.185h-7.085v3.908h7.085zm0 6.297h-7.085v3.908h7.085zm0 37.784h-7.085v3.908h7.085zm0 6.297h-7.085v3.909h7.085zm0 6.297h-7.085v3.909h7.085zm-9.101 6.51h-7.084v3.909h7.084zm0-63.185h-7.084v3.908h7.084zm0 6.297h-7.084v3.908h7.084zm0 12.594h-7.084v3.91h7.084zm0 6.297h-7.084v3.91h7.084zm0 6.298h-7.084v3.909h7.084zm0 12.595h-7.084v3.908h7.084zm0 6.297h-7.084v3.909h7.084zm0 6.297h-7.084v3.909h7.084zm-9.102 6.51h-7.084v3.909h7.084zm0-63.185h-7.084v3.908h7.084zm0 6.297h-7.084v3.908h7.084zm0 37.784h-7.084v3.908h7.084zm0 6.297h-7.084v3.909h7.084zm0 6.297h-7.084v3.909h7.084zm-9.101 6.51h-7.085v3.909h7.085zm0-63.185h-7.085v3.908h7.085zm0 6.297h-7.085v3.908h7.085zm0 6.298h-7.085v3.908h7.085zm0 6.296h-7.085v3.91h7.085zm0 6.297h-7.085v3.91h7.085zm0 6.298h-7.085v3.909h7.085zm0 6.297h-7.085v3.909h7.085zm0 6.298h-7.085v3.908h7.085zm0 6.297h-7.085v3.909h7.085zm0 6.297h-7.085v3.909h7.085zm-9.102 6.51h-7.084v3.909h7.084zm0-63.185h-7.084v3.908h7.084zm0 6.297h-7.084v3.908h7.084zm0 37.784h-7.084v3.908h7.084zm0 6.297h-7.084v3.909h7.084zm0 6.297h-7.084v3.909h7.084zm-9.101 6.51h-7.084v3.909h7.084zm0-63.185h-7.084v3.908h7.084zm0 6.297h-7.084v3.908h7.084zm0 12.594h-7.084v3.91h7.084zm0 6.297h-7.084v3.91h7.084zm0 6.298h-7.084v3.909h7.084zm0 12.595h-7.084v3.908h7.084zm0 6.297h-7.084v3.909h7.084zm0 6.297h-7.084v3.909h7.084zm-9.101 6.51h-7.085v3.909h7.085zm0-63.185h-7.085v3.908h7.085zm0 6.297h-7.085v3.908h7.085zm0 37.784h-7.085v3.908h7.085zm0 6.297h-7.085v3.909h7.085zm0 6.297h-7.085v3.909h7.085zm-9.102 6.51h-7.084v3.909h7.084zm0-63.185h-7.084v3.908h7.084zm0 6.297h-7.084v3.908h7.084zm0 6.298h-7.084v3.908h7.084zm0 6.296h-7.084v3.91h7.084zm0 6.297h-7.084v3.91h7.084zm0 6.298h-7.084v3.909h7.084zm0 6.297h-7.084v3.909h7.084zm0 6.298h-7.084v3.908h7.084zm0 6.297h-7.084v3.909h7.084zm0 6.297h-7.084v3.909h7.084zm-9.101 6.51h-7.084v3.909h7.084zm0-63.185h-7.084v3.908h7.084zm0 6.297h-7.084v3.908h7.084zm0 37.784h-7.084v3.908h7.084zm0 6.297h-7.084v3.909h7.084zm0 6.297h-7.084v3.909h7.084zm-9.101 6.51h-7.085v3.909h7.085zm0-63.185h-7.085v3.908h7.085zm0 6.297h-7.085v3.908h7.085zm0 12.594h-7.085v3.91h7.085zm0 6.297h-7.085v3.91h7.085zm0 6.298h-7.085v3.909h7.085zm0 12.595h-7.085v3.908h7.085zm0 6.297h-7.085v3.909h7.085zm0 6.297h-7.085v3.909h7.085zm-9.101 6.51h-7.085v3.909h7.085zm0-63.185h-7.085v3.908h7.085zm0 6.297h-7.085v3.908h7.085zm0 37.784h-7.085v3.908h7.085zm0 6.297h-7.085v3.909h7.085zm0 6.297h-7.085v3.909h7.085zm-9.102 6.51h-7.084v3.909h7.084zm0-63.185h-7.084v3.908h7.084zm0 6.297h-7.084v3.908h7.084zm0 6.298h-7.084v3.908h7.084zm0 6.296h-7.084v3.91h7.084zm0 6.297h-7.084v3.91h7.084zm0 6.298h-7.084v3.909h7.084zm0 6.297h-7.084v3.909h7.084zm0 6.298h-7.084v3.908h7.084zm0 6.297h-7.084v3.909h7.084zm0 6.297h-7.084v3.909h7.084zm-9.101 6.51h-7.085v3.909h7.085zm0-63.185h-7.085v3.908h7.085zm0 6.297h-7.085v3.908h7.085zm0 37.784h-7.085v3.908h7.085zm0 6.297h-7.085v3.909h7.085zm0 6.297h-7.085v3.909h7.085zm-9.101 6.51h-7.085v3.909h7.085zm0-63.185h-7.085v3.908h7.085zm0 6.297h-7.085v3.908h7.085zm0 12.594h-7.085v3.91h7.085zm0 6.297h-7.085v3.91h7.085zm0 6.298h-7.085v3.909h7.085zm0 6.297h-7.085v3.909h7.085zm0 6.298h-7.085v3.908h7.085zm0 6.297h-7.085v3.909h7.085zm0 6.297h-7.085v3.909h7.085zm-9.102 6.51h-7.084v3.909h7.084zm0-63.185h-7.084v3.908h7.084zm0 6.297h-7.084v3.908h7.084zm0 6.298h-7.084v3.908h7.084zm0 6.296h-7.084v3.91h7.084zm0 6.297h-7.084v3.91h7.084zm0 6.298h-7.084v3.909h7.084zm0 6.297h-7.084v3.909h7.084zm0 6.298h-7.084v3.908h7.084zm0 6.297h-7.084v3.909h7.084zm0 6.297h-7.084v3.909h7.084zm-9.102 6.51h-7.084v3.909h7.084zm0-63.185h-7.084v3.908h7.084zm0 6.297h-7.084v3.908h7.084zm0 12.594h-7.084v3.91h7.084zm0 6.297h-7.084v3.91h7.084zm0 6.298h-7.084v3.909h7.084zm0 12.595h-7.084v3.908h7.084zm0 6.297h-7.084v3.909h7.084zm0 6.297h-7.084v3.909h7.084zm-9.101 6.51h-7.085v3.909h7.085zm0-63.185h-7.085v3.908h7.085zm0 6.297h-7.085v3.908h7.085zm0 6.298h-7.085v3.908h7.085zm0 12.593h-7.085v3.91h7.085zm0 12.595h-7.085v3.909h7.085zm0 6.298h-7.085v3.908h7.085zm0 6.297h-7.085v3.909h7.085zm0 6.297h-7.085v3.909h7.085zm-9.102 6.51h-7.084v3.909h7.084zm0-63.185h-7.084v3.908h7.084zm0 6.297h-7.084v3.908h7.084zm0 6.298h-7.084v3.908h7.084zm0 6.296h-7.084v3.91h7.084zm0 12.595h-7.084v3.909h7.084zm0 6.297h-7.084v3.909h7.084zm0 6.298h-7.084v3.908h7.084zm0 6.297h-7.084v3.909h7.084zm0 6.297h-7.084v3.909h7.084zm-9.101 6.51h-7.084v3.909h7.084zm0-63.185h-7.084v3.908h7.084zm0 6.297h-7.084v3.908h7.084zm0 37.784h-7.084v3.908h7.084zm0 6.297h-7.084v3.909h7.084zm0 6.297h-7.084v3.909h7.084zm-9.101 6.51h-7.085v3.909h7.085zm0-63.185h-7.085v3.908h7.085zm0 6.297h-7.085v3.908h7.085zm0 6.298h-7.085v3.908h7.085zm0 6.296h-7.085v3.91h7.085zm0 6.297h-7.085v3.91h7.085zm0 6.298h-7.085v3.909h7.085zm0 6.297h-7.085v3.909h7.085zm0 6.298h-7.085v3.908h7.085zm0 6.297h-7.085v3.909h7.085zm0 6.297h-7.085v3.909h7.085zm-9.101 6.51h-7.085v3.909h7.085zm0-63.185h-7.085v3.908h7.085zm0 6.297h-7.085v3.908h7.085zm0 25.189h-7.085v3.909h7.085zm0 6.297h-7.085v3.909h7.085zm0 6.298h-7.085v3.908h7.085zm0 6.297h-7.085v3.909h7.085zm0 6.297h-7.085v3.909h7.085zm-9.102 6.51h-7.084v3.909h7.084zm0-63.185h-7.084v3.908h7.084zm0 6.297h-7.084v3.908h7.084zm0 12.594h-7.084v3.91h7.084zm0 12.595h-7.084v3.909h7.084zm0 6.297h-7.084v3.909h7.084zm0 6.298h-7.084v3.908h7.084zm0 6.297h-7.084v3.909h7.084zm0 6.297h-7.084v3.909h7.084zm-9.101 6.51h-7.084v3.909h7.084zm0-63.185h-7.084v3.908h7.084zm0 6.297h-7.084v3.908h7.084zm0 37.784h-7.084v3.908h7.084zm0 6.297h-7.084v3.909h7.084zm0 6.297h-7.084v3.909h7.084zm-9.102 6.51h-7.084v3.909h7.085zm0-63.185h-7.084v3.908h7.085zm0 6.297h-7.084v3.908h7.085zm0 6.298h-7.084v3.908h7.085zm0 6.296h-7.084v3.91h7.085zm0 6.297h-7.084v3.91h7.085zm0 6.298h-7.084v3.909h7.085zm0 6.297h-7.084v3.909h7.085zm0 6.298h-7.084v3.908h7.085zm0 6.297h-7.084v3.909h7.085zm0 6.297h-7.084v3.909h7.085zm-9.1-56.487h-7.085v3.908h7.084zm0 6.297h-7.085v3.908h7.084zm0 6.296h-7.085v3.91h7.084zm0 6.299h-7.085v3.908h7.084zm0 6.297h-7.085v3.908h7.084zm0 6.297h-7.085v3.908h7.084zm0 6.297h-7.085v3.91h7.084zm0 6.297h-7.085v3.91h7.084zm0 6.297h-7.085v3.91h7.084zm0 6.298h-7.085v3.909h7.084zm0 6.298h-7.085v3.908h7.084zm-9.102-6.298h-7.084v3.909h7.084zm0 6.298h-7.084v3.908h7.084zm-9.101-6.298h-7.085v3.909h7.085zm0 6.298h-7.085v3.908h7.085zm-9.102-6.298h-7.084v3.909h7.084zm0 6.298h-7.084v3.908h7.084zm-9.101-6.298h-7.084v3.909h7.084zm0 6.298h-7.084v3.908h7.084zm-9.101-6.298h-7.085v3.909h7.085zm0 6.298h-7.085v3.908h7.085zm-9.101-6.298h-7.085v3.909h7.085zm0 6.298h-7.085v3.908h7.085zm-9.102-6.298h-7.084v3.909h7.084zm0 6.298h-7.084v3.908h7.084zm-9.102-6.298h-7.084v3.909h7.084zm0 6.298h-7.084v3.908h7.084zm-9.101-6.298h-7.085v3.909h7.085zm0 6.298h-7.085v3.908h7.085zm-9.102-6.298h-7.084v3.909h7.084zm0 6.298h-7.084v3.908h7.084zm-9.101-6.298h-7.084v3.909h7.084zm0 6.298h-7.084v3.908h7.084zm-9.101-6.298h-7.085v3.909h7.085zm0 6.298h-7.085v3.908h7.085zm-9.102-6.298h-7.084v3.909h7.084zm0 6.298h-7.084v3.908h7.084zm-9.101-6.298h-7.084v3.909h7.084zm0 6.298h-7.084v3.908h7.084zm-9.101-6.298h-7.085v3.909h7.085zm0 6.298h-7.085v3.908h7.085zm-9.101-6.298h-7.085v3.909h7.085zm0 6.298h-7.085v3.908h7.085zm-9.102-6.298h-7.084v3.909h7.084zm0 6.298h-7.084v3.908h7.084zm-9.101-6.298h-7.085v3.909h7.085zm0 6.298h-7.085v3.908h7.085zm-9.101-6.298h-7.085v3.909h7.085zm0 6.298h-7.085v3.908h7.085zm-9.102-6.298h-7.084v3.909h7.084zm0 6.298h-7.084v3.908h7.084zm-9.101-6.298h-7.084v3.909h7.084zm0 6.298h-7.084v3.908h7.084zm-9.101-6.298h-7.085v3.909h7.085zm0 6.298h-7.085v3.908h7.085zm-9.102-6.298h-7.084v3.909h7.084zm0 6.298h-7.084v3.908h7.084zm-9.101-6.298h-7.084v3.909h7.084zm0 6.298h-7.084v3.908h7.084zm-9.102-6.298h-7.085v3.909h7.085zm0 6.298h-7.085v3.908h7.085zm-9.101-6.298h-7.085v3.909h7.085zm0 6.298h-7.085v3.908h7.085zm227.534-62.973h-7.084v3.908h7.084zm0 6.297h-7.084v3.908h7.084zm0 6.296h-7.084v3.91h7.084zm0 6.299h-7.084v3.908h7.084zm0 6.297h-7.084v3.908h7.084zm0 6.297h-7.084v3.908h7.084zm0 6.297h-7.084v3.91h7.084zm0 6.297h-7.084v3.91h7.084zm0 6.297h-7.084v3.91h7.084zm-9.101-50.377h-7.085v3.908h7.085zm0 50.377h-7.085v3.91h7.085zm-9.102-50.377h-7.084v3.908h7.084zm0 12.593h-7.084v3.91h7.084zm0 6.299h-7.084v3.908h7.084zm0 6.297h-7.084v3.908h7.084zm0 6.297h-7.084v3.908h7.084zm0 6.297h-7.084v3.91h7.084zm0 12.594h-7.084v3.91h7.084zm-9.101-50.377h-7.084v3.908h7.084zm0 12.593h-7.084v3.91h7.084zm0 6.299h-7.084v3.908h7.084zm0 6.297h-7.084v3.908h7.084zm0 6.297h-7.084v3.908h7.084zm0 6.297h-7.084v3.91h7.084zm0 12.594h-7.084v3.91h7.084zm-9.101-50.377h-7.085v3.908h7.085zm0 50.377h-7.085v3.91h7.085zm-9.101-50.377h-7.085v3.908h7.085zm0 6.297h-7.085v3.908h7.085zm0 6.296h-7.085v3.91h7.085zm0 6.299h-7.085v3.908h7.085zm0 6.297h-7.085v3.908h7.085zm0 6.297h-7.085v3.908h7.085zm0 6.297h-7.085v3.91h7.085zm0 6.297h-7.085v3.91h7.085zm0 6.297h-7.085v3.91h7.085zm-9.102-50.377h-7.084v3.908h7.084zm0 50.377h-7.084v3.91h7.084zm-9.102-50.377h-7.084v3.908h7.084zm0 18.892h-7.084v3.908h7.084zm0 6.297h-7.084v3.908h7.084zm0 6.297h-7.084v3.908h7.084zm0 6.297h-7.084v3.91h7.084zm0 6.297h-7.084v3.91h7.084zm0 6.297h-7.084v3.91h7.084zm-9.101-50.377h-7.085v3.908h7.085zm0 6.297h-7.085v3.908h7.085zm0 18.892h-7.085v3.908h7.085zm0 6.297h-7.085v3.908h7.085zm0 6.297h-7.085v3.91h7.085zm0 6.297h-7.085v3.91h7.085zm0 6.297h-7.085v3.91h7.085zm-9.102-50.377h-7.084v3.908h7.084zm0 6.297h-7.084v3.908h7.084zm0 6.296h-7.084v3.91h7.084zm0 18.893h-7.084v3.908h7.084zm0 6.297h-7.084v3.91h7.084zm0 6.297h-7.084v3.91h7.084zm0 6.297h-7.084v3.91h7.084zm-9.101-50.377h-7.084v3.908h7.084zm0 6.297h-7.084v3.908h7.084zm0 18.892h-7.084v3.908h7.084zm0 6.297h-7.084v3.908h7.084zm0 6.297h-7.084v3.91h7.084zm0 6.297h-7.084v3.91h7.084zm0 6.297h-7.084v3.91h7.084zm-9.101-50.377h-7.085v3.908h7.085zm0 18.892h-7.085v3.908h7.085zm0 6.297h-7.085v3.908h7.085zm0 6.297h-7.085v3.908h7.085zm0 6.297h-7.085v3.91h7.085zm0 6.297h-7.085v3.91h7.085zm0 6.297h-7.085v3.91h7.085zm-9.102-50.377h-7.084v3.908h7.084zm0 50.377h-7.084v3.91h7.084zm-9.101-50.377h-7.084v3.908h7.084zm0 6.297h-7.084v3.908h7.084zm0 6.296h-7.084v3.91h7.084zm0 6.299h-7.084v3.908h7.084zm0 6.297h-7.084v3.908h7.084zm0 6.297h-7.084v3.908h7.084zm0 6.297h-7.084v3.91h7.084zm0 6.297h-7.084v3.91h7.084zm0 6.297h-7.084v3.91h7.084zm-9.101-50.377h-7.085v3.908h7.085zm0 18.892h-7.085v3.908h7.085zm0 31.485h-7.085v3.91h7.085zm-9.101-50.377h-7.085v3.908h7.085zm0 6.297h-7.085v3.908h7.085zm0 6.296h-7.085v3.91h7.085zm0 6.299h-7.085v3.908h7.085zm0 6.297h-7.085v3.908h7.085zm0 6.297h-7.085v3.908h7.085zm0 6.297h-7.085v3.91h7.085zm0 6.297h-7.085v3.91h7.085zm0 6.297h-7.085v3.91h7.085zm-9.102-50.377h-7.084v3.908h7.084zm0 31.486h-7.084v3.908h7.084zm0 6.297h-7.084v3.91h7.084zm0 12.594h-7.084v3.91h7.084zm-9.101-50.377h-7.085v3.908h7.085zm0 12.593h-7.085v3.91h7.085zm0 6.299h-7.085v3.908h7.085zm0 12.594h-7.085v3.908h7.085zm0 12.594h-7.085v3.91h7.085zm0 6.297h-7.085v3.91h7.085zm-9.101-50.377h-7.085v3.908h7.085zm0 12.593h-7.085v3.91h7.085zm0 6.299h-7.085v3.908h7.085zm0 18.891h-7.085v3.91h7.085zm0 6.297h-7.085v3.91h7.085zm0 6.297h-7.085v3.91h7.085zm-9.102-50.377h-7.084v3.908h7.084zm0 50.377h-7.084v3.91h7.084zm-9.101-50.377h-7.084v3.908h7.084zm0 6.297h-7.084v3.908h7.084zm0 6.296h-7.084v3.91h7.084zm0 6.299h-7.084v3.908h7.084zm0 6.297h-7.084v3.908h7.084zm0 6.297h-7.084v3.908h7.084zm0 6.297h-7.084v3.91h7.084zm0 6.297h-7.084v3.91h7.084zm0 6.297h-7.084v3.91h7.084zm-9.101-50.377h-7.085v3.908h7.085zm0 31.486h-7.085v3.908h7.085zm0 6.297h-7.085v3.91h7.085zm0 6.297h-7.085v3.91h7.085zm0 6.297h-7.085v3.91h7.085zm-9.102-50.377h-7.084v3.908h7.084zm0 12.593h-7.084v3.91h7.084zm0 6.299h-7.084v3.908h7.084zm0 12.594h-7.084v3.908h7.084zm0 6.297h-7.084v3.91h7.084zm0 6.297h-7.084v3.91h7.084zm0 6.297h-7.084v3.91h7.084zm-9.101-50.377h-7.084v3.908h7.084zm0 12.593h-7.084v3.91h7.084zm0 6.299h-7.084v3.908h7.084zm0 12.594h-7.084v3.908h7.084zm0 6.297h-7.084v3.91h7.084zm0 6.297h-7.084v3.91h7.084zm0 6.297h-7.084v3.91h7.084zm-9.264 0h-7.085v3.91h7.085zm.162-50.377h-7.085v3.908h7.085zm-9.101 0h-7.085v3.908h7.085zm0 6.297h-7.085v3.908h7.085zm0 6.296h-7.085v3.91h7.085zm0 6.299h-7.085v3.908h7.085zm0 6.297h-7.085v3.908h7.085zm0 6.297h-7.085v3.908h7.085zm0 6.297h-7.085v3.91h7.085zm0 6.297h-7.085v3.91h7.085zm0 6.297h-7.085v3.91h7.085zm-2015.906-58.372h-7.945v67.803h7.945zm15.869 18.569h-7.945v30.697h7.945zm-31.739-2.281h-7.945v35.154h7.945zm-15.868 13.584h-7.946v8.606h7.945zm-31.74 2.049h-7.945v5.516H1184zm-15.868.271h-7.946v2.758h7.946zm31.738-10.159h-7.946v23.722h7.945zm79.346 2.355h-7.945v20.05h7.945zm15.87-2.355h-7.945v23.722h7.945zm15.869 9.888h-7.946v4.509h7.946zm15.869-2.049h-7.945v8.606h7.945zm15.869 1.763h-7.945v3.627h7.945z"/></g></g></svg>